<svg xmlns="http://www.w3.org/2000/svg" width="464.911" height="465.237" viewBox="0 0 464.911 465.237">
  <g id="bg-404_copy_1_" data-name="bg-404 copy (1)" opacity="0.05">
    <path id="Path_26254" data-name="Path 26254" d="M204.443,3.207l76.984,133.34a18.568,18.568,0,0,1-6.777,25.29L141.31,238.821a3.752,3.752,0,0,1-5.058-1.355c-45.6-82.694-17.822-186.381,62.866-235.46A4.04,4.04,0,0,1,204.443,3.207Z" transform="translate(135.402 -1.481)" fill="#1c3978"/>
    <path id="Path_26255" data-name="Path 26255" d="M297.476,194.083c82.848-45.338,186.8-17.709,235.614,63.133a3.565,3.565,0,0,1-1.355,5.058L398.394,339.258a18.567,18.567,0,0,1-25.289-6.776L296.121,199.141A3.752,3.752,0,0,1,297.476,194.083Z" transform="translate(-295.645 -1.481)" fill="#1c3978"/>
    <path id="Path_26256" data-name="Path 26256" d="M70.588,272.923,216.22,188.842a3.644,3.644,0,0,1,5.212,1.623c39.253,82.8,12.753,182.537-62.907,234.771a3.644,3.644,0,0,1-5.325-1.2L69.119,278.4C68.307,276.378,68.717,274,70.588,272.923Z" transform="translate(225.436 -1.481)" fill="#55ae55"/>
    <path id="Path_26257" data-name="Path 26257" d="M341.157,297.831l84.081,145.632a3.644,3.644,0,0,1-1.622,5.212c-82.8,39.253-182.538,12.754-234.771-62.906a3.644,3.644,0,0,1,1.2-5.326l145.9-84.235A3.826,3.826,0,0,1,341.157,297.831Z" transform="translate(-80.252 -1.481)" fill="#55ae55"/>
  </g>
</svg>
