<svg width="36" height="36" viewBox="0 0 36 36" fill="none" xmlns="http://www.w3.org/2000/svg">
<path d="M17.9341 15.5341V20.7106H25.1221C24.4531 24.0001 21.6526 25.8901 17.9341 25.8901C13.6029 25.8305 10.1231 22.3024 10.1231 17.9708C10.1231 13.6393 13.6029 10.1112 17.9341 10.0516C19.7344 10.0494 21.4793 10.6742 22.8691 11.8186L26.7691 7.91859C22.2955 3.98569 15.7621 3.47984 10.7364 6.67726C5.71073 9.87467 3.4006 16.0069 5.06744 21.7255C6.73427 27.4441 11.9775 31.3747 17.9341 31.3711C24.6346 31.3711 30.7276 26.4976 30.7276 17.9701C30.7172 17.1491 30.6166 16.3316 30.4276 15.5326L17.9341 15.5341Z" fill="white"/>
</svg>
