<svg width="266" height="43" viewBox="0 0 266 43" fill="none" xmlns="http://www.w3.org/2000/svg">
<path d="M0.355469 4.84497V17.3626C0.355469 18.1905 1.03278 18.8678 1.8606 18.8678H14.3783C14.5539 18.8678 14.6793 18.7173 14.6793 18.5668C14.5288 10.8906 8.35775 4.71954 0.68158 4.54395C0.505982 4.54395 0.355469 4.69446 0.355469 4.84497Z" fill="#1C3978"/>
<path d="M31.9134 4.54395C24.2373 4.71954 18.0411 10.8906 17.8906 18.5668C17.8906 18.7423 18.0161 18.8678 18.1917 18.8678H30.7093C31.5371 18.8678 32.2145 18.1905 32.2145 17.3626V4.84497C32.2145 4.69446 32.089 4.54395 31.9134 4.54395Z" fill="#1C3978"/>
<path d="M14.4051 22.0537H0.733459C0.55786 22.0537 0.407347 22.2042 0.432433 22.3798C1.03449 29.8051 6.95467 35.7504 14.4051 36.3524C14.5807 36.3775 14.7312 36.227 14.7312 36.0514V22.3798C14.7061 22.2042 14.5807 22.0537 14.4051 22.0537Z" fill="#55AE55"/>
<path d="M17.8906 22.3798V36.0514C17.8906 36.227 18.0411 36.3775 18.2167 36.3524C25.6421 35.7504 31.5873 29.8302 32.1894 22.3798C32.2145 22.2042 32.0639 22.0537 31.8883 22.0537H18.1917C18.0161 22.0537 17.8906 22.2042 17.8906 22.3798Z" fill="#55AE55"/>
<path d="M68.1871 25.1388C66.4562 31.0089 60.9374 35.1981 54.2898 35.1981C45.6102 35.1981 39.4141 28.3247 39.4141 20.4228C39.4141 12.872 45.2841 5.72266 54.2647 5.72266C62.4426 5.77283 67.0834 11.7934 68.1871 15.9325H62.1666C61.2886 13.9758 58.755 10.7899 54.2145 10.7648C48.6957 10.7648 45.1085 15.4057 45.1085 20.4228C45.1085 25.5904 48.8211 30.181 54.2396 30.181C59.3069 30.181 61.6147 26.1924 62.1415 25.1639H68.1871V25.1388Z" fill="#55AE55"/>
<path d="M93.1989 34.6459H88.1818V31.6106C86.8272 34.069 84.0427 35.2982 81.0826 35.2982C74.3346 35.2982 70.3711 30.0302 70.3711 24.0849C70.3711 17.4373 75.1624 12.9219 81.0826 12.9219C84.9207 12.9219 87.2537 14.9538 88.1818 16.6345V13.5741H93.1989V34.6459ZM75.3882 24.2104C75.3882 26.8193 77.2696 30.6072 81.785 30.6072C84.5946 30.6072 86.4258 29.1522 87.3791 27.2206C87.8808 26.2925 88.1066 25.3141 88.1818 24.2605C88.232 23.2571 88.0313 22.2286 87.6049 21.3004C86.7269 19.2936 84.7702 17.5878 81.7348 17.5878C77.671 17.5878 75.3631 20.8991 75.3631 24.1602V24.2104H75.3882Z" fill="#55AE55"/>
<path d="M97.9375 13.5741H102.654V16.6345C104.159 14.5273 106.617 12.9219 110.104 12.9219C117.479 12.9219 120.59 19.1682 120.59 24.2856C120.59 30.2811 116.325 35.2982 110.154 35.2982C106.04 35.2982 103.833 33.191 102.98 31.8364V34.6459V42.0211H97.9626V13.5741H97.9375ZM115.548 24.0849C115.548 21.0496 113.365 17.5878 109.101 17.5878C107.269 17.5878 105.689 18.3153 104.535 19.4943C103.431 20.6482 102.729 22.3039 102.729 24.1351C102.729 25.9413 103.431 27.5467 104.56 28.7007C105.689 29.8546 107.319 30.5821 109.126 30.5821C112.964 30.5821 115.522 27.5467 115.522 24.0849H115.548Z" fill="#55AE55"/>
<path d="M124.277 6.24951H129.294V10.7398H124.277V6.24951ZM124.277 13.5745H129.294V34.6463H124.277V13.5745Z" fill="#55AE55"/>
<path d="M135.366 17.4627H131.879V13.5745H135.366V6.24951H140.383V13.5745H143.995V17.4377H140.383V34.6212H135.366V17.4627Z" fill="#55AE55"/>
<path d="M167.851 34.6459H162.834V31.6106C161.48 34.069 158.695 35.2982 155.735 35.2982C148.987 35.2982 145.023 30.0302 145.023 24.0849C145.023 17.4373 149.815 12.9219 155.735 12.9219C159.573 12.9219 161.906 14.9538 162.834 16.6345V13.5741H167.851V34.6459ZM150.066 24.2104C150.066 26.8193 151.947 30.6072 156.462 30.6072C159.272 30.6072 161.103 29.1522 162.057 27.2206C162.558 26.2925 162.784 25.3141 162.859 24.2605C162.909 23.2571 162.709 22.2286 162.282 21.3004C161.404 19.2936 159.448 17.5878 156.412 17.5878C152.348 17.5878 150.041 20.8991 150.041 24.1602V24.2104H150.066Z" fill="#55AE55"/>
<path d="M172.594 6.24951H177.611V34.6463H172.594V6.24951Z" fill="#55AE55"/>
<path d="M191.132 6.24951C195.923 6.24951 197.855 6.95191 199.485 8.20618C201.567 9.88691 202.696 12.6463 202.696 15.4559C202.696 18.2655 201.517 21.1754 199.711 22.6304C197.804 24.2107 195.873 24.8881 191.734 24.8881H188.247V34.6463H182.527V6.24951H191.132ZM188.247 19.871H191.633C192.938 19.871 194.192 19.7455 195.346 19.1435C196.375 18.6167 197.227 17.3373 197.227 15.5312C197.227 13.725 196.375 12.546 195.271 11.9941C194.117 11.392 192.812 11.2666 191.408 11.2666H188.272V19.871H188.247Z" fill="#1C3978"/>
<path d="M205.23 6.24951H210.248V34.6463H205.23V6.24951Z" fill="#1C3978"/>
<path d="M234.077 34.6466H229.361V31.837C228.483 33.4926 226.602 35.3239 222.789 35.2988C215.89 35.2486 214.586 30.0057 214.586 26.3182V13.5747H219.603V25.0388C219.603 28.1494 220.632 30.6078 224.219 30.5576C227.831 30.5576 229.06 28.1745 229.06 25.1893V13.5747H234.077V34.6466Z" fill="#1C3978"/>
<path d="M247.773 19.2688C247.723 18.1651 247.171 17.0111 245.214 17.0111C243.534 17.0111 242.731 18.0898 242.731 19.1183C242.781 20.4729 244.311 21.2004 246.293 21.7774C249.68 22.7055 253.317 23.6839 253.342 28.2244C253.417 32.5641 249.78 35.3236 245.365 35.3236C242.104 35.3236 237.689 33.6428 237.312 28.5254H242.33C242.53 30.7831 244.487 31.2597 245.44 31.2597C247.021 31.2597 248.35 30.2312 248.325 28.8013C248.325 26.9952 246.745 26.4935 242.881 25.1639C240.047 24.2859 237.739 22.7055 237.714 19.6702C237.714 15.5311 241.201 12.9473 245.265 12.9473C248.099 12.9473 252.314 14.2015 252.74 19.2688H247.773Z" fill="#1C3978"/>
<path d="M265.436 6.72627H258.989V0.279297H255.502V6.72627H249.055V10.2132H255.502V16.6351H258.989V10.2132H265.436V6.72627Z" fill="#55AE55"/>
</svg>
