<svg width="24" height="24" viewBox="0 0 24 24" fill="none" xmlns="http://www.w3.org/2000/svg">
    <path d="M11.2527 1.51416C11.5584 0.894784 12.4416 0.894783 12.7473 1.51415L15.3328 6.75303C15.4542 6.99898 15.6888 7.16946 15.9603 7.2089L21.7417 8.04899C22.4252 8.14831 22.6982 8.98829 22.2036 9.4704L18.0201 13.5483C17.8237 13.7397 17.734 14.0156 17.7804 14.2859L18.768 20.044C18.8847 20.7247 18.1702 21.2439 17.5589 20.9225L12.3878 18.2039C12.145 18.0762 11.855 18.0762 11.6122 18.2039L6.44114 20.9225C5.82978 21.2439 5.11525 20.7247 5.23201 20.044L6.2196 14.2859C6.26597 14.0156 6.17634 13.7397 5.97994 13.5483L1.79645 9.4704C1.30185 8.98829 1.57477 8.14831 2.25829 8.04899L8.03973 7.2089C8.31116 7.16946 8.5458 6.99898 8.66718 6.75303L11.2527 1.51416Z" fill="#FCCF07"/>
</svg>
