<svg width="536" height="535" viewBox="0 0 536 535" fill="none" xmlns="http://www.w3.org/2000/svg">
<g opacity="0.05">
<path d="M193.789 3.20688L116.805 136.547C111.714 145.365 114.763 156.746 123.582 161.837L256.922 238.821C258.792 239.901 261.054 239.069 261.98 237.466C307.585 154.772 279.802 51.0851 199.114 2.0059C197.244 0.925965 194.715 1.60359 193.789 3.20688Z" fill="#1C3978"/>
<path d="M531.803 194.083C448.955 148.745 345.001 176.374 296.189 257.216C295.109 259.086 295.674 261.194 297.544 262.274L430.885 339.258C439.703 344.349 451.083 341.3 456.174 332.482L533.158 199.141C534.084 197.538 533.673 195.163 531.803 194.083Z" fill="#1C3978"/>
<path d="M237.61 272.923L91.978 188.842C90.1075 187.762 87.5786 188.44 86.7658 190.465C47.5131 273.263 74.0123 373.002 149.673 425.236C151.389 426.583 153.918 425.905 154.998 424.035L239.079 278.402C239.891 276.378 239.481 274.003 237.61 272.923Z" fill="#55AE55"/>
<path d="M272.729 297.831L188.648 443.463C187.568 445.334 188.246 447.862 190.27 448.675C273.069 487.928 372.808 461.429 425.041 385.769C426.389 384.052 425.711 381.523 423.84 380.443L277.941 296.208C276.07 295.128 273.809 295.96 272.729 297.831Z" fill="#55AE55"/>
</g>
</svg>
