<svg width="1011" height="514" viewBox="0 0 1011 514" fill="none" xmlns="http://www.w3.org/2000/svg">
<path d="M323.998 20.0024C323.998 8.95675 332.952 0.00244141 343.998 0.00244141H880.998C952.795 0.00244141 1011 58.2054 1011 130.002V208.002C1011 219.048 1002.04 228.002 990.998 228.002H343.998C332.952 228.002 323.998 219.048 323.998 208.002V20.0024Z" fill="black"/>
<path d="M559.998 257.002C559.998 245.957 568.952 237.002 579.998 237.002H990.998C1002.04 237.002 1011 245.957 1011 257.002V493.002C1011 504.048 1002.04 513.002 990.998 513.002H689.998C618.201 513.002 559.998 454.799 559.998 383.002V257.002Z" fill="black"/>
<rect x="323.998" y="237.002" width="228" height="276" rx="114" fill="black"/>
<path d="M0 130C0 58.203 58.203 0 130 0H296C307.046 0 316 8.95431 316 20V383C316 454.797 257.797 513 186 513H20C8.9543 513 0 504.046 0 493V130Z" fill="black"/>
</svg>
