<?xml version="1.0" standalone="no"?>
<!DOCTYPE svg PUBLIC "-//W3C//DTD SVG 1.1//EN" "http://www.w3.org/Graphics/SVG/1.1/DTD/svg11.dtd" >
<svg xmlns="http://www.w3.org/2000/svg" xmlns:xlink="http://www.w3.org/1999/xlink" version="1.1">
<metadata>
Created by FontForge 20170731 at Wed Jan 16 13:22:35 2019
 By Aleksey,,,
Copyright 2018 The Manjari Project Authors (https://gitlab.com/smc/fonts/manjari)
</metadata>
<defs>
<font id="Manjari-Bold" horiz-adv-x="1183" >
  <font-face 
    font-family="Manjari"
    font-weight="700"
    font-stretch="normal"
    units-per-em="2048"
    panose-1="2 0 8 3 0 0 0 0 0 0"
    ascent="1638"
    descent="-410"
    x-height="1075"
    cap-height="1441"
    bbox="-1541 -1258 4306 2070.1"
    underline-thickness="100"
    underline-position="-750"
    unicode-range="U+0020-25CC"
  />
<missing-glyph horiz-adv-x="692" 
d="M20 1v1143h611v-1143h-611zM127 105h400v933h-400v-933z" />
    <glyph glyph-name=".notdef" horiz-adv-x="692" 
d="M20 1v1143h611v-1143h-611zM127 105h400v933h-400v-933z" />
    <glyph glyph-name=".null" horiz-adv-x="0" 
 />
    <glyph glyph-name="nonmarkingreturn" horiz-adv-x="682" 
 />
    <glyph glyph-name="space" unicode=" " horiz-adv-x="560" 
 />
    <glyph glyph-name="exclam" unicode="!" horiz-adv-x="352" 
d="M170 1360h1q37 0 71 -25.5t34 -67.5l-28 -851q0 -36 -18 -64.5t-59 -28.5q-40 0 -58 28.5t-18 64.5l-30 851q0 42 34.5 67t70.5 26zM176 221q50 0 85.5 -35.5t35.5 -85.5t-35.5 -85.5t-85.5 -35.5t-85.5 35.5t-35.5 85.5t35.5 85.5t85.5 35.5z" />
    <glyph glyph-name="quotedbl" unicode="&#x22;" horiz-adv-x="702" 
d="M505 795q-42 0 -60 30.5t-20 70.5l-30 320q-1 46 37 72.5t75 27.5q40 1 81.5 -27t38.5 -76l-42 -317q-3 -42 -21 -71.5t-59 -29.5zM185 792q-42 0 -60 30.5t-20 70.5l-30 320q-1 46 37 72.5t75 27.5q40 1 81.5 -27t38.5 -76l-42 -317q-3 -42 -21 -71.5t-59 -29.5z" />
    <glyph glyph-name="numbersign" unicode="#" horiz-adv-x="937" 
d="M824 754l-50 -279h186v-153h-213l-67 -377h-166l66 377h-194l-70 -377h-164l71 377h-180v153h209l52 279h-191v153h219l66 349h163l-65 -349h188l62 349h167l-62 -349h165v-153h-192zM467 754l-52 -279h193l49 279h-190z" />
    <glyph glyph-name="dollar" unicode="$" horiz-adv-x="1452" 
d="M743 -261q-42 0 -72.5 37t-30.5 89v127q-175 19 -316 100t-212 217q-12 21 -12 47q0 41 29.5 70.5t70.5 29.5q26 0 52 -16t37 -39q47 -90 138 -143t213 -67v423q-95 15 -187.5 42t-167.5 72.5t-120 115t-45 169.5q0 101 44.5 177t119 128.5t167 83t188.5 40.5v4
q0 48 28.5 87t68.5 39q47 0 77.5 -36t30.5 -90v-6q147 -21 266 -97t180 -189q12 -21 12 -49q0 -41 -29.5 -70.5t-70.5 -29.5q-25 0 -51.5 16t-37.5 38q-79 145 -269 179v-448q92 -10 182 -30t164 -59.5t118 -107t44 -172.5q0 -133 -72.5 -223.5t-188 -141t-246.5 -64.5v-127
q0 -52 -30 -89t-72 -37zM639 1241q-76 -10 -149 -37t-120 -72.5t-47 -111.5q0 -60 46.5 -100.5t119.5 -65t150 -38.5v425zM845 193q76 11 146.5 37.5t115.5 73.5t45 116q0 70 -47.5 103.5t-118.5 46t-141 19.5v-396z" />
    <glyph glyph-name="percent" unicode="%" horiz-adv-x="1584" 
d="M1310 1422q41 -28 46 -70.5t-16 -72.5l-931 -1266q-22 -36 -62.5 -43t-70.5 13q-36 25 -46.5 66t16.5 78l930 1267q22 29 60.5 40.5t73.5 -12.5zM369 1429q100 0 180 -49.5t126.5 -131t46.5 -178.5q0 -99 -47.5 -181t-128.5 -131t-182 -49q-95 0 -177 46t-131.5 124
t-49.5 174q0 105 45 190.5t127 135.5t191 50zM533 1071q0 66 -49 116.5t-118 50.5q-70 0 -120.5 -52t-50.5 -119q0 -66 50.5 -116.5t117.5 -50.5q74 0 122 50t48 121zM1233 722q100 0 180 -49.5t126.5 -131t46.5 -178.5q0 -99 -47.5 -181t-129 -131t-181.5 -49
q-96 0 -177.5 46t-131 124t-49.5 174q0 105 45 190.5t126.5 135.5t191.5 50zM1397 364q0 65 -49 116t-118 51q-71 0 -121 -52t-50 -119q0 -66 50 -116.5t118 -50.5q73 0 121.5 50t48.5 121z" />
    <glyph glyph-name="ampersand" unicode="&#x26;" horiz-adv-x="1216" 
d="M883 1061q0 -103 -59.5 -187.5t-170.5 -153.5q53 -66 99 -122t85 -104q21 75 24 152q1 35 28.5 62t66.5 27q29 0 62 -21.5t33 -56.5q0 -177 -76 -332q74 -94 111 -140.5t42 -53.5q13 -18 13 -52q0 -40 -29.5 -66t-68.5 -26q-45 0 -75 40q-31 42 -58 77t-47 61
q-66 -71 -158 -121t-211 -50q-115 0 -210 50t-151.5 137t-56.5 198q0 151 80.5 238.5t212.5 158.5q-44 58 -91 130.5t-47 161.5q0 87 45 158t118.5 113t156.5 42q94 0 169 -42t119 -114.5t44 -163.5zM536 864q83 50 120 99.5t37 98.5q0 53 -38.5 90t-94.5 37q-58 0 -99 -35
t-41 -94q0 -42 28 -82t88 -114zM486 630q-88 -46 -155 -104t-67 -133q0 -88 65.5 -148t165.5 -60q77 0 143 40t106 86q-63 78 -127 157.5t-131 161.5z" />
    <glyph glyph-name="quotesingle" unicode="'" horiz-adv-x="382" 
d="M185 930q-42 0 -60 30.5t-20 70.5l-30 320q-1 46 37 72.5t75 27.5q40 1 81.5 -27t38.5 -76l-42 -317q-3 -42 -21 -71.5t-59 -29.5z" />
    <glyph glyph-name="parenleft" unicode="(" horiz-adv-x="705" 
d="M631 -276q0 -41 -28 -72.5t-70 -31.5q-37 0 -64 22q-105 81 -195 201t-144.5 271.5t-54.5 325.5t53.5 325.5t141.5 271.5t193 201q27 22 64 22q42 0 70 -31t28 -72q0 -48 -40 -77q-82 -64 -153 -161t-114 -218.5t-43 -259.5t44 -260.5t116 -219.5t155 -161q41 -29 41 -76
z" />
    <glyph glyph-name="parenright" unicode=")" horiz-adv-x="732" 
d="M120 1127q0 41 28 72.5t70 31.5q37 0 64 -22q105 -81 195 -201t144.5 -271.5t54.5 -325.5t-53.5 -325.5t-141.5 -271.5t-193 -201q-27 -22 -64 -22q-42 0 -70 31t-28 72q0 48 40 77q82 64 153 161t114 218.5t43 259.5t-44 260.5t-116 219.5t-155 161q-41 29 -41 76z" />
    <glyph glyph-name="asterisk" unicode="*" horiz-adv-x="955" 
d="M-24 1236q0 38 25.5 69.5t65.5 31.5q30 0 55 -15l268 -163l-4 203v16q0 35 32.5 58t62.5 23q39 0 67 -28.5t28 -66.5l4 -204l254 163q26 16 56 16q32 0 61.5 -25.5t29.5 -60.5q0 -61 -45 -90l-270 -173l269 -163q46 -28 46 -77q0 -37 -25 -68.5t-66 -31.5q-29 0 -54 15
l-253 153l5 -269v-16q0 -35 -32.5 -58t-62.5 -23q-39 0 -67 28.5t-28 66.5l-5 270l-271 -174q-23 -15 -56 -15q-41 0 -66 31.5t-25 68.5q0 47 45 75l287 184l-284 173q-47 29 -47 76z" />
    <glyph glyph-name="plus" unicode="+" horiz-adv-x="1162" 
d="M574 969h2q41 0 70.5 -29.5t29.5 -70.5v-1l4 -282h283q41 0 70.5 -29.5t29.5 -70.5t-29.5 -70.5t-70.5 -29.5h-281l3 -283v-3q0 -41 -29.5 -70.5t-70.5 -29.5t-70.5 29.5t-29.5 70.5l-3 286h-282q-41 0 -70.5 29.5t-29.5 70.5t29.5 70.5t70.5 29.5h280l-4 280v3
q0 41 29 70t69 30z" />
    <glyph glyph-name="comma" unicode="," horiz-adv-x="505" 
d="M100 139q0 54 39.5 99t91.5 45q47 0 78 -16q97 -52 97 -170q0 -55 -21 -125q-49 -163 -174 -246q-19 -13 -40 -13q-28 0 -48.5 22t-20.5 53q0 33 35 57q81 53 109 150h-2q-59 0 -101.5 42.5t-42.5 101.5z" />
    <glyph glyph-name="hyphen" unicode="-" horiz-adv-x="1162" 
d="M200 674h763q41 0 70.5 -29.5t29.5 -70.5t-29.5 -70.5t-70.5 -29.5h-763q-41 0 -70.5 29.5t-29.5 70.5t29.5 70.5t70.5 29.5z" />
    <glyph glyph-name="period" unicode="." horiz-adv-x="489" 
d="M244 -4q-68 0 -118.5 48t-50.5 117t50.5 116.5t118.5 47.5t119 -47.5t51 -116.5t-51 -117t-119 -48z" />
    <glyph glyph-name="slash" unicode="/" horiz-adv-x="1011" 
d="M874 1447q45 -20 57 -60.5t-3 -74.5l-662 -1331q-16 -39 -54.5 -53t-71.5 1q-40 18 -57 56.5t2 79.5l662 1331q17 32 52.5 50.5t74.5 0.5z" />
    <glyph glyph-name="zero" unicode="0" horiz-adv-x="1200" 
d="M597 -25q-140 0 -241 59.5t-165 161t-94.5 227t-30.5 257.5q0 137 31.5 263.5t98 226t170.5 157.5t249 58q137 -3 235.5 -62.5t161.5 -158.5t93 -222t30 -254q0 -138 -31 -265.5t-96 -228.5t-167 -160t-244 -59zM601 175q119 0 192.5 72.5t107.5 191t34 257.5
q0 130 -34.5 241.5t-107.5 179.5t-189 68q-118 0 -193 -69.5t-110 -183.5t-35 -250t34.5 -251.5t108.5 -185.5t192 -70z" />
    <glyph glyph-name="one" unicode="1" horiz-adv-x="1200" 
d="M380 983q-34 0 -61 30.5t-27 62.5t17.5 64.5t54.5 39.5q38 8 78.5 44.5t78.5 106.5q30 56 83 56q43 0 75.5 -25.5t32.5 -69.5l-1 -1106h119q35 0 58 -32.5t23 -62.5q0 -39 -28 -67t-67 -28h-432q-39 0 -67 28t-28 67q0 30 23 62.5t58 32.5h141v839q-28 -16 -58 -29
t-73 -13z" />
    <glyph glyph-name="two" unicode="2" horiz-adv-x="1200" 
d="M214 -3q-41 0 -70.5 29.5t-29.5 70.5q0 51 31 105.5t77 106t93 94.5t79 71q63 55 136 102.5t138.5 100t107 120t41.5 160.5q0 73 -33 131t-89 92.5t-126 34.5q-87 0 -149.5 -55t-77.5 -125q-7 -32 -35.5 -56t-63.5 -24q-41 0 -70.5 29t-29.5 69q0 74 37 139.5t98.5 115.5
t137.5 78.5t155 28.5q130 0 230.5 -60.5t158 -163.5t57.5 -230q0 -132 -51 -227t-129 -165.5t-161 -127.5t-148 -113q-72 -64 -127 -131h585q41 0 70.5 -29.5t29.5 -70.5t-29.5 -70.5t-70.5 -29.5h-772z" />
    <glyph glyph-name="three" unicode="3" horiz-adv-x="1200" 
d="M813 990q0 75 -62.5 131t-147.5 56q-67 0 -123 -37t-72 -79q-14 -37 -39 -59t-71 -22q-33 0 -62 28.5t-29 60.5q0 14 2.5 24.5t4.5 17.5q41 108 142.5 186.5t246.5 78.5q111 0 204.5 -51t150 -140t56.5 -203q0 -87 -36.5 -155t-84.5 -115q70 -48 111 -122t41 -171
q0 -127 -65 -225.5t-171 -154.5t-230 -56q-134 0 -239 64t-166 148q-19 27 -19 59q0 41 32.5 66t72.5 25q47 0 77 -40q35 -45 98 -83t138 -38q74 0 135.5 31t99 83.5t37.5 116.5q0 101 -68 138.5t-193 38.5q-39 0 -67.5 28t-28.5 71q0 55 37 80.5t76 25.5q92 0 152 46.5
t60 146.5z" />
    <glyph glyph-name="four" unicode="4" horiz-adv-x="1200" 
d="M778 -21q-42 0 -71 28t-29 68l-1 296l-553 2q-40 0 -70 28.5t-30 68.5q0 37 21 64l651 788q29 37 76 37q42 0 72 -28t30 -69l3 -689q50 0 100 -0.5t100 -0.5q41 0 70.5 -29t29.5 -71t-29.5 -72t-72.5 -30l-198 1l1 -296q0 -40 -29 -68t-71 -28zM677 573l-2 416l-344 -414
z" />
    <glyph glyph-name="five" unicode="5" horiz-adv-x="1200" 
d="M262 590q-40 0 -71.5 24t-31.5 66l106 613q6 37 34 60.5t64 23.5h612q37 0 68.5 -27t31.5 -65q0 -44 -27.5 -76t-72.5 -32h-528l-46 -259q91 39 190 39q141 0 254.5 -64t180.5 -174.5t67 -249.5q0 -140 -68.5 -252t-184 -177t-258.5 -65q-109 0 -200 39t-158.5 103.5
t-105.5 140.5q-10 21 -10 49q0 34 29.5 61t64.5 27q68 0 96 -54q36 -68 109 -117t176 -49q88 0 158 38.5t111 104.5t41 149q0 124 -87.5 206t-227.5 82q-70 0 -137.5 -40t-99.5 -84q-28 -41 -79 -41z" />
    <glyph glyph-name="six" unicode="6" horiz-adv-x="1200" 
d="M642 -18q-144 0 -250 62.5t-176 168t-104.5 235.5t-34.5 265q0 133 36 257.5t107.5 224t178 158t247.5 58.5q143 0 249 -68.5t162 -163.5q14 -21 14 -55q0 -33 -27.5 -63t-63.5 -30q-66 0 -97 49q-32 53 -93.5 92.5t-143.5 39.5q-114 0 -191.5 -59t-120 -156.5
t-53.5 -213.5q61 64 151.5 109t191.5 45q142 0 255 -64t179 -174t66 -249q0 -124 -61.5 -231t-170 -172t-250.5 -65zM646 181q123 0 200.5 79.5t77.5 199.5q0 75 -39.5 138.5t-104.5 102t-144 38.5t-144.5 -39t-104 -103t-38.5 -140t43 -138.5t111 -100t143 -37.5z" />
    <glyph glyph-name="seven" unicode="7" horiz-adv-x="1200" 
d="M1012 1380q38 0 69 -26.5t31 -69.5q0 -23 -11 -45q-151 -289 -277 -588t-229 -607q-10 -34 -37.5 -51.5t-65.5 -17.5q-33 0 -62.5 27t-29.5 60q0 11 1 21.5t5 18.5q93 278 204.5 547.5t241.5 530.5h-663q-41 0 -70.5 29.5t-29.5 70.5t29.5 70.5t70.5 29.5h823z" />
    <glyph glyph-name="eight" unicode="8" horiz-adv-x="1200" 
d="M1016 984q0 -168 -138 -277q75 -50 129 -132.5t54 -192.5q0 -121 -66 -211t-171.5 -140t-223.5 -50q-119 0 -224 49.5t-170.5 140t-65.5 213.5q0 112 54 193.5t127 130.5q-61 50 -98.5 123.5t-37.5 167.5q0 108 58.5 194t152.5 136.5t202 50.5q112 0 207 -51.5t153 -141
t58 -203.5zM384 996q0 -79 64.5 -134t152.5 -55q86 0 150.5 51.5t64.5 136.5q0 51 -31 93.5t-79.5 67.5t-101.5 25q-89 0 -154.5 -53t-65.5 -132zM859 386q0 58 -36.5 104t-96 73t-128.5 27q-67 0 -126 -25.5t-95.5 -71t-36.5 -107.5q0 -59 36 -105.5t95.5 -73t128.5 -26.5
q70 0 128.5 26.5t94.5 73t36 105.5z" />
    <glyph glyph-name="nine" unicode="9" horiz-adv-x="1218" 
d="M67 915q0 123 61 229.5t171 172.5t257 66q140 0 247 -63.5t181 -171.5t111.5 -243t37.5 -279q0 -126 -34 -245.5t-103 -215.5t-173.5 -153t-246.5 -57q-130 0 -231 60t-160 145q-18 23 -18 59q0 35 27 64.5t67 29.5q59 0 90 -43q34 -47 92 -81.5t133 -34.5
q122 0 200 64.5t116 168t40 221.5q-62 -76 -156 -127t-216 -51q-135 0 -247 61.5t-179 171t-67 252.5zM545 1185q-84 0 -146.5 -38t-97 -101t-34.5 -139q0 -78 40.5 -142t106.5 -101.5t143 -37.5q82 0 146.5 40.5t102 105.5t37.5 138q0 80 -43.5 142t-112 97.5t-142.5 35.5z
" />
    <glyph glyph-name="colon" unicode=":" horiz-adv-x="461" 
d="M229 686q-68 0 -118.5 48t-50.5 117t50.5 116.5t118.5 47.5t119 -47.5t51 -116.5t-51 -117t-119 -48zM231 172q-68 0 -118.5 48t-50.5 117t50.5 116.5t118.5 47.5t119 -47.5t51 -116.5t-51 -117t-119 -48z" />
    <glyph glyph-name="semicolon" unicode=";" horiz-adv-x="476" 
d="M239 574q-68 0 -118.5 47.5t-50.5 116.5t50.5 118t118.5 49t119 -49t51 -118t-51 -116.5t-119 -47.5zM216 306q98 0 149 -64t51 -147q0 -62 -22 -132q-54 -174 -184 -260q-26 -17 -54 -17q-40 0 -67 30t-27 70q0 46 46 77q58 39 88 108q-59 12 -97.5 58.5t-38.5 107.5
q0 63 46 116t110 53z" />
    <glyph glyph-name="less" unicode="&#x3c;" horiz-adv-x="1227" 
d="M1021 963q15 7 37 7q39 0 67 -28t28 -67q0 -28 -17.5 -53.5t-43.5 -35.5l-669 -265l670 -277q26 -10 43 -34.5t17 -53.5q0 -39 -28 -67t-67 -28q-21 0 -38 7l-887 367q-25 11 -41.5 36t-16.5 52q0 28 17 53t43 35z" />
    <glyph glyph-name="equal" unicode="=" horiz-adv-x="1109" 
d="M75 702q0 30 23.5 62.5t57.5 32.5q12 0 19 -1h781q36 0 57.5 -33t21.5 -61q0 -30 -22.5 -64t-58.5 -34h-798q-36 0 -58.5 34.5t-22.5 63.5zM75 378q0 23 18.5 60.5t54.5 37.5l23 -1h768l15 1q36 0 58.5 -34.5t22.5 -63.5q0 -30 -23 -62.5t-58 -32.5h-798
q-34 0 -57.5 32.5t-23.5 62.5z" />
    <glyph glyph-name="greater" unicode="&#x3e;" horiz-adv-x="1227" 
d="M207 963l886 -352q26 -10 43 -35t17 -53q0 -27 -16 -52t-42 -36l-887 -367q-17 -7 -38 -7q-39 0 -67 28t-28 67q0 29 17.5 53.5t42.5 34.5l670 277l-669 265q-26 10 -43.5 35.5t-17.5 53.5q0 39 28 67t67 28q22 0 37 -7z" />
    <glyph glyph-name="question" unicode="?" horiz-adv-x="949" 
d="M75 958q0 107 53 186.5t140.5 123.5t189.5 44q144 0 250.5 -70t146.5 -184q19 -53 19 -109q0 -96 -40 -167t-95 -122.5t-101 -91.5q-43 -37 -70.5 -68t-27.5 -87q0 -10 3 -23.5t3 -30.5q0 -37 -26 -62.5t-64 -25.5q-42 0 -62.5 24.5t-27 58t-6.5 60.5q0 87 36 149.5
t88 109.5t101 87t76 83q15 25 24 49.5t9 56.5q0 86 -68.5 134.5t-165.5 48.5q-87 0 -146 -46.5t-59 -128.5q0 -4 0.5 -10t0.5 -14q0 -37 -26 -62t-64 -25q-51 0 -71 36t-20 76zM474 221q50 0 85.5 -35.5t35.5 -85.5t-35.5 -85.5t-85.5 -35.5t-85.5 35.5t-35.5 85.5
t35.5 85.5t85.5 35.5z" />
    <glyph glyph-name="at" unicode="@" horiz-adv-x="1783" 
d="M866 56q-121 0 -217.5 58.5t-152.5 157t-56 219.5q0 109 56.5 204t149.5 154.5t200 59.5q133 0 236 -66q11 30 36.5 49t57.5 19q41 0 70.5 -29.5t29.5 -70.5v-490q0 -26 28 -47.5t65 -21.5q70 0 103.5 65.5t33.5 144.5q0 128 -50.5 241t-136.5 198.5t-194.5 134
t-224.5 48.5q-136 0 -250.5 -49.5t-199 -135t-131 -194t-46.5 -225.5q0 -124 43.5 -235.5t123 -197.5t189 -135t240.5 -49q102 0 219 40q18 6 34 10t31 4q40 0 60 -26.5t20 -66.5q0 -81 -76 -110q-144 -55 -288 -55q-173 0 -318.5 66t-252.5 180.5t-165.5 262t-58.5 309.5
q0 153 60.5 298t171 262t261.5 186t333 69q152 0 289 -60t247 -165.5t180.5 -241.5t87.5 -288q2 -19 3 -38t1 -36q0 -104 -38.5 -199t-114 -155t-186.5 -60q-73 0 -132 29.5t-101 83.5q-51 -45 -119 -75.5t-151 -30.5zM858 707q-59 0 -109 -31t-79.5 -81.5t-29.5 -111.5
q0 -90 60.5 -158t157.5 -68q95 0 157.5 64.5t63.5 158.5q-1 95 -65 161t-156 66z" />
    <glyph glyph-name="A" unicode="A" horiz-adv-x="1400" 
d="M608 1395q11 25 37.5 42.5t54.5 17.5q27 0 54.5 -17.5t37.5 -42.5l550 -1276q9 -20 9 -41q0 -41 -29.5 -70.5t-70.5 -29.5q-28 0 -55 18t-38 43l-171 397l-570 8l-175 -406q-10 -25 -37 -43.5t-55 -18.5q-41 0 -70.5 29.5t-29.5 70.5q0 21 9 41zM700 1102l-197 -459
l397 -5z" />
    <glyph glyph-name="B" unicode="B" horiz-adv-x="1283" 
d="M101 740v13l-1 577q0 41 29 70t69 30l263 5q22 1 43 1h41q110 0 214 -24t186.5 -74t131 -129.5t48.5 -190.5q0 -144 -99 -248q70 -51 114 -134.5t44 -193.5q0 -142 -61 -239.5t-168 -148.5t-246 -54l-505 -1h-2q-41 0 -70.5 29.5t-29.5 70.5zM925 1012q0 91 -61.5 139.5
t-154 66.5t-186.5 18q-14 0 -29 -0.5t-29 -0.5l-165 -3l1 -385l385 6q61 1 115.5 14.5t89 48t34.5 96.5zM705 200q134 2 206.5 57.5t72.5 189.5q0 119 -79 162.5t-202 43.5h-13l-389 -6l1 -446z" />
    <glyph glyph-name="C" unicode="C" horiz-adv-x="1430" 
d="M1286 531q36 0 65.5 -28.5t29.5 -63.5q0 -28 -10 -48q-50 -110 -141.5 -204.5t-217.5 -151.5t-283 -57q-155 0 -280 59t-213.5 161.5t-136 236t-47.5 282.5q0 147 48 280t137 235.5t213 161.5t276 59q154 0 279.5 -54.5t218 -145t144.5 -198.5q11 -21 11 -44
q0 -37 -26.5 -67.5t-61.5 -30.5q-34 0 -61.5 14.5t-41.5 43.5q-56 116 -175.5 199t-286.5 83q-145 0 -251.5 -74t-164.5 -196.5t-58 -267.5q0 -146 57.5 -268t164 -195t253.5 -73q110 0 201.5 40.5t158.5 107.5t102 144q27 60 97 60z" />
    <glyph glyph-name="D" unicode="D" horiz-adv-x="1384" 
d="M557 1437h15q176 0 309 -61.5t222.5 -166t135 -234t45.5 -264.5q0 -206 -92.5 -367t-273 -253t-444.5 -92h-47l-228 2q-40 1 -69.5 31t-29.5 72l7 1227q0 40 29 69.5t69 30.5zM1106 717q0 186 -79 300t-222 166.5t-336 52.5q-41 0 -81.5 -1t-81.5 -3l-6 -1029l129 -2
q201 0 353.5 48.5t238 161.5t85.5 306z" />
    <glyph glyph-name="E" unicode="E" 
d="M75 1336q0 40 29.5 68.5t70.5 28.5l857 -1h1q41 0 70.5 -29.5t29.5 -70.5t-29.5 -70.5t-70.5 -29.5h-1l-757 1l1 -410l674 -5q43 0 71.5 -30t28.5 -77q0 -40 -31 -67.5t-69 -27.5h-1l-672 5l1 -423l754 1h1q41 0 70.5 -29.5t29.5 -70.5t-29.5 -70.5t-70.5 -29.5h-1
l-854 -1q-41 0 -70.5 29.5t-29.5 69.5z" />
    <glyph glyph-name="F" unicode="F" horiz-adv-x="1166" 
d="M75 1336q0 41 29.5 69.5t70.5 28.5l815 1h1q41 0 70.5 -29.5t29.5 -70.5t-29.5 -70.5t-70.5 -29.5h-1l-715 -1l1 -364l521 5h11q40 0 65 -32t25 -62q0 -43 -28 -74.5t-72 -31.5l-521 -5l1 -582v-2q0 -40 -29.5 -69t-70.5 -29t-70.5 29t-29.5 69v1z" />
    <glyph glyph-name="G" unicode="G" horiz-adv-x="1398" 
d="M55 699q0 147 52.5 283t149 242.5t230 168.5t295.5 62q149 0 270.5 -41t227.5 -116q43 -29 43 -80q0 -40 -29.5 -69.5t-70.5 -29.5q-32 0 -59 19q-78 53 -176 84.5t-201 31.5q-117 0 -214.5 -44.5t-169 -122t-111 -176.5t-39.5 -208q0 -149 65.5 -265t183 -182t273.5 -66
q86 0 170.5 17t154.5 39l-3 341h-305q-41 0 -70.5 29.5t-29.5 70.5t29.5 70.5t70.5 29.5h405q41 0 70.5 -29t29.5 -70l4 -511v-1q0 -28 -18 -54t-45 -36q-96 -38 -212 -67.5t-244 -29.5q-210 0 -374.5 91t-258.5 251t-94 368z" />
    <glyph glyph-name="H" unicode="H" horiz-adv-x="1300" 
d="M75 1369q0 39 32 63t62 24q42 -1 74 -27t32 -70l1 -562l748 1l1 561q-3 40 27.5 68.5t71.5 28.5t71 -28t30 -69l-1 -1271q0 -40 -29.5 -68.5t-70.5 -28.5t-70.5 27.5t-29.5 67.5v510l-747 -1l1 -510q0 -41 -29 -69t-71 -28q-41 0 -70.5 28.5t-29.5 68.5
q-1 318 -1.5 636.5t-1.5 636.5v11z" />
    <glyph glyph-name="I" unicode="I" horiz-adv-x="401" 
d="M201 -10q-41 0 -70.5 29.5t-29.5 70.5l-1 1251q0 38 28 69t67 31q46 0 75.5 -28.5t29.5 -71.5l1 -1251q0 -41 -29.5 -70.5t-70.5 -29.5z" />
    <glyph glyph-name="J" unicode="J" horiz-adv-x="923" 
d="M120 454q46 0 75.5 -27.5t29.5 -68.5v-1q0 -68 53 -118.5t126 -50.5q94 0 147 50.5t75.5 137.5t22.5 198v33l-10 749v2q0 39 30 68t70 29q41 0 70.5 -28.5t29.5 -68.5l10 -752v-36q0 -159 -44 -291t-141.5 -211t-257.5 -79q-106 0 -192.5 48.5t-137.5 131.5t-51 188
q0 38 28.5 67.5t66.5 29.5z" />
    <glyph glyph-name="K" unicode="K" horiz-adv-x="1194" 
d="M75 115q0 41 1 100t1 149l1 980q0 41 28.5 69t70.5 28q41 0 71 -29t30 -70q1 -127 1 -256t1 -255l685 574q31 28 67 28q43 0 71 -32t28 -70q0 -41 -34 -71l-558 -464l602 -647q29 -31 29 -64q0 -40 -31 -68.5t-72 -28.5q-17 0 -36 6t-34 20l-609 653l-109 -93
q-1 -187 -2 -322.5t-2 -173.5q0 -43 -32.5 -67.5t-69.5 -24.5q-56 0 -77 38.5t-21 90.5z" />
    <glyph glyph-name="L" unicode="L" horiz-adv-x="1181" 
d="M198 -8q-41 0 -70.5 29.5t-29.5 69.5l-3 1269v1q0 40 29.5 68.5t70.5 28.5t70.5 -28.5t29.5 -68.5l3 -1169l757 2h1q41 0 70.5 -29.5t29.5 -70.5t-29.5 -70.5t-70.5 -29.5h-1z" />
    <glyph glyph-name="M" unicode="M" horiz-adv-x="1558" 
d="M179 0q-41 0 -70.5 29.5t-29.5 70.5l-3 1241q-1 9 -1 18q0 14 6.5 27t15.5 27q24 39 69 39q72 0 99 -56l535 -873l495 874q30 50 81 50q43 0 75 -28t32 -72v-1251q0 -41 -29.5 -70.5t-70.5 -29.5t-70.5 29.5t-29.5 70.5v894l-393 -714q-11 -18 -34 -34.5t-50 -16.5
q-58 0 -89 48l-441 721l3 -893v-1q0 -41 -29.5 -70.5t-70.5 -29.5z" />
    <glyph glyph-name="N" unicode="N" horiz-adv-x="1285" 
d="M75 1336q0 42 30.5 69.5t72.5 27.5q47 0 77 -38l755 -1025v963q0 40 29.5 68.5t70.5 28.5t70.5 -28.5t29.5 -68.5l-1 -1254q0 -42 -30.5 -69.5t-72.5 -27.5q-47 0 -77 40l-754 1024v-966q0 -40 -29.5 -68.5t-70.5 -28.5t-70.5 28.5t-29.5 68.5v1256z" />
    <glyph glyph-name="O" unicode="O" horiz-adv-x="1503" 
d="M750 1451q153 0 281.5 -59.5t223.5 -163t147 -238t52 -285.5t-51.5 -283.5t-145.5 -233.5t-222.5 -158t-283.5 -57q-158 0 -287 57.5t-221.5 159t-142.5 235t-50 286.5q0 149 52.5 282t147 236.5t222 162.5t278.5 59zM754 1248q-148 0 -261.5 -77t-178 -203.5
t-64.5 -276.5q0 -102 39 -195t108 -165.5t159.5 -114t193.5 -41.5t194.5 43t162 116t110.5 164.5t40 187.5q0 155 -67.5 282.5t-181.5 203.5t-254 76z" />
    <glyph glyph-name="P" unicode="P" horiz-adv-x="1069" 
d="M177 -15q-41 0 -70.5 28.5t-29.5 68.5v1l-2 1253q0 27 25.5 61.5t73.5 35.5l315 2q146 0 265.5 -47.5t190 -143.5t70.5 -244q0 -169 -74 -272t-202.5 -151t-292.5 -53l-170 -4l1 -439v-1q0 -40 -29.5 -67.5t-70.5 -27.5zM815 999q0 125 -88.5 180t-244.5 55h-207l1 -512
l167 4q176 4 274 60t98 213z" />
    <glyph glyph-name="Q" unicode="Q" horiz-adv-x="1560" 
d="M1412 -122q38 0 62.5 -33.5t24.5 -65.5q0 -54 -36 -77.5t-84 -28.5t-86 -5h-49q-190 0 -341 64.5t-218 195.5q-187 19 -330.5 121.5t-224 266.5t-80.5 366q0 159 52.5 298.5t149.5 246.5t232 167.5t299 60.5t297.5 -59t229.5 -164.5t148 -244t52 -297.5
q0 -192 -73 -351.5t-201.5 -265t-296.5 -136.5q108 -79 273 -79q42 0 92.5 10t107.5 10zM264 678q0 -154 62.5 -283.5t178.5 -207t275 -77.5q162 0 276.5 78.5t175 210t60.5 289.5t-60 288.5t-173.5 208.5t-274.5 78q-118 0 -214 -47.5t-164.5 -130t-105 -187.5t-36.5 -220z
" />
    <glyph glyph-name="R" unicode="R" horiz-adv-x="1203" 
d="M1149 72q0 -39 -28.5 -67.5t-61.5 -28.5q-28 0 -49 19.5t-29 29.5q-91 64 -157.5 145.5t-113.5 177.5q-41 86 -83.5 134t-102.5 68t-156 21l-91 1l1 -484v-2q0 -40 -29.5 -70t-70.5 -30t-70.5 32t-29.5 76l-3 1241q0 42 29.5 70.5t69.5 29.5l266 1h23q172 0 307 -50.5
t213 -151t78 -249.5q0 -96 -39.5 -171t-103.5 -127t-138 -81q34 -43 68 -106q58 -111 113 -196.5t145 -150.5q18 -12 30.5 -33.5t12.5 -47.5zM468 1236h-193l2 -478l193 2q184 2 288.5 56t104.5 173q0 122 -111 184.5t-284 62.5z" />
    <glyph glyph-name="S" unicode="S" horiz-adv-x="1357" 
d="M684 1453q115 0 217.5 -39t179.5 -108t117 -160q9 -20 9 -41q0 -41 -29.5 -70.5t-70.5 -29.5q-27 0 -54 17.5t-38 42.5q-38 86 -126.5 137t-204.5 51q-57 0 -120.5 -14t-119.5 -42.5t-91 -71.5t-35 -100q0 -46 30 -79.5t67 -52.5q87 -43 192.5 -60t213.5 -33t201 -56
q59 -25 113 -69t88 -107t34 -148q0 -110 -53 -193t-139 -138t-186.5 -82.5t-196.5 -27.5q-130 0 -244 41.5t-199 118t-130 179.5q-9 20 -9 40q0 41 29.5 70.5t70.5 29.5q28 0 55 -17.5t37 -43.5q44 -101 149 -159.5t241 -58.5q85 0 171 25.5t144.5 79t58.5 136.5
q0 53 -35.5 87.5t-77.5 52.5q-95 41 -203 56.5t-215 33t-200 64.5q-79 40 -143.5 116.5t-64.5 194.5q0 104 50.5 183.5t134 134t183.5 82.5t199 28z" />
    <glyph glyph-name="T" unicode="T" horiz-adv-x="1251" 
d="M25 1331q0 41 29.5 70.5t70.5 29.5h1l999 6h2q41 0 70.5 -29.5t29.5 -70.5t-29.5 -70.5t-70.5 -29.5h-1l-398 -2l-5 -1148v-1q0 -40 -29.5 -69t-70.5 -29t-70.5 29t-29.5 69v2l5 1146l-402 -3h-1q-41 0 -70.5 29.5t-29.5 70.5z" />
    <glyph glyph-name="U" unicode="U" horiz-adv-x="1326" 
d="M75 1336q0 38 28.5 68t66.5 30q47 0 75.5 -25.5t29.5 -72.5l7 -723q2 -216 87 -341t282 -125q146 0 234 57t127 159t39 235l-2 739v1q0 41 29 69.5t70 28.5t71 -28.5t30 -69.5v-1l2 -739q0 -300 -148.5 -475t-447.5 -175q-193 0 -319 85.5t-189 235t-65 341.5l-7 725v1z
" />
    <glyph glyph-name="V" unicode="V" horiz-adv-x="1353" 
d="M25 1340q0 35 29.5 64t65.5 29q72 0 97 -60l483 -1098l435 1109q24 63 98 63q37 0 66 -28.5t29 -64.5q0 -28 -7 -46l-522 -1324q-10 -25 -35.5 -44.5t-57.5 -19.5q-63 0 -91 60l-581 1311q-9 18 -9 49z" />
    <glyph glyph-name="W" unicode="W" horiz-adv-x="1805" 
d="M813 1380q9 28 36.5 47t58.5 19q34 0 60.5 -21t34.5 -49l307 -978l273 941q8 42 35.5 72.5t61.5 30.5q43 0 71.5 -36t28.5 -85q0 -20 -5 -35l-363 -1233q-9 -30 -36 -49.5t-59 -19.5q-30 0 -58.5 18.5t-37.5 47.5l-316 907l-334 -937q-16 -16 -39.5 -26t-55.5 -10
t-60 19.5t-37 49.5l-350 1220q-4 16 -4 35q0 49 28.5 85t71.5 36q35 0 62.5 -31.5t34.5 -73.5l263 -932z" />
    <glyph glyph-name="X" unicode="X" horiz-adv-x="1284" 
d="M1091 1429q42 0 71 -29.5t29 -70.5q0 -35 -21 -61l-404 -538l448 -593q21 -26 21 -61q0 -41 -29.5 -70.5t-70.5 -29.5q-21 0 -44.5 12t-36.5 29l-413 547l-410 -545q-13 -17 -36.5 -29.5t-44.5 -12.5q-41 0 -70.5 29.5t-29.5 70.5q0 36 21 62l444 591l-408 541
q-21 26 -21 61q0 41 29.5 70.5t70.5 29.5q22 0 45.5 -12t35.5 -29l374 -495l369 492q13 17 36.5 29t44.5 12z" />
    <glyph glyph-name="Y" unicode="Y" horiz-adv-x="1129" 
d="M25 1363q0 41 33 67t73 26q52 0 80 -48l357 -615l349 609q10 16 32.5 31t46.5 15q23 0 41.5 -4.5t38.5 -25.5q28 -30 28 -63q0 -32 -15 -57l-425 -722l-7 -498q0 -40 -29.5 -68.5t-70.5 -28.5t-70.5 28.5t-29.5 68.5v2l7 509l-423 717q-16 23 -16 57z" />
    <glyph glyph-name="Z" unicode="Z" horiz-adv-x="1369" 
d="M1207 -10l-1074 -7q-40 0 -70 28.5t-30 70.5q0 40 23 66l971 1085l-901 -1h-1q-43 0 -71.5 30t-28.5 71t31 71.5t62 30.5l1126 -2q40 0 70 -29t30 -70q0 -40 -23 -66l-971 -1085l865 1h1q44 0 72 -31t28 -74q0 -36 -20 -55.5t-44 -27t-38 -7.5q-4 0 -4.5 0.5t-2.5 0.5z
" />
    <glyph glyph-name="bracketleft" unicode="[" horiz-adv-x="796" 
d="M200 1383h445q41 0 70.5 -29.5t29.5 -70.5t-29.5 -70.5t-70.5 -29.5h-345l2 -1463l343 -1h1q41 0 70.5 -29.5t29.5 -70.5t-29.5 -70.5t-70.5 -29.5h-1l-443 1q-41 0 -70.5 29.5t-29.5 70.5l-2 1663q0 41 29.5 70.5t70.5 29.5z" />
    <glyph glyph-name="backslash" unicode="\" horiz-adv-x="961" 
d="M912 -43q0 -33 -26.5 -67.5t-73.5 -34.5q-28 0 -52 17t-38 42l-662 1331q-10 20 -10 42q0 36 28.5 69t72.5 33q28 0 53 -15.5t37 -44.5l662 -1331q9 -19 9 -41z" />
    <glyph glyph-name="bracketright" unicode="]" horiz-adv-x="796" 
d="M596 1384q41 0 70.5 -29.5t29.5 -70.5l-2 -1663q0 -41 -29.5 -70.5t-70.5 -29.5l-443 -1h-1q-41 0 -70.5 29.5t-29.5 70.5t29.5 70.5t70.5 29.5h1l343 1l2 1463h-345q-41 0 -70.5 29.5t-29.5 70.5t29.5 70.5t70.5 29.5h445z" />
    <glyph glyph-name="asciicircum" unicode="^" horiz-adv-x="822" 
d="M333 1402q12 12 32.5 21t38.5 9q39 0 69 -28l317 -303q14 -12 23 -34t9 -40q0 -41 -29.5 -70.5t-70.5 -29.5t-70 29l-246 236l-234 -237q-29 -31 -72 -31q-41 0 -70.5 29.5t-29.5 70.5t30 71z" />
    <glyph glyph-name="underscore" unicode="_" horiz-adv-x="1060" 
d="M50 98q0 30 23.5 62.5t57.5 32.5q12 0 19 -1h781q36 0 57.5 -33t21.5 -61q0 -30 -22.5 -64t-58.5 -34h-798q-36 0 -58.5 34.5t-22.5 63.5z" />
    <glyph glyph-name="grave" unicode="`" horiz-adv-x="512" 
d="M0 1340q0 46 32 73t69 27q38 0 69 -29l300 -323q43 -40 43 -76q0 -25 -22 -47t-46 -22q-35 0 -75 40l-338 284q-32 29 -32 73z" />
    <glyph glyph-name="a" unicode="a" horiz-adv-x="1276" 
d="M623 1100q74 0 144.5 -29.5t126 -74t82.5 -91.5l11 96q0 41 24 70.5t65 29.5t70.5 -29.5t29.5 -70.5v-2l-2 -926q0 -41 -29.5 -70.5t-70.5 -29.5t-65 29.5t-24 70.5l-11 80q-52 -89 -152 -132.5t-201 -43.5q-113 0 -212 44.5t-174 122.5t-117.5 179t-42.5 213
q0 111 41.5 212.5t116 181t174 125t216.5 45.5zM968 538q0 98 -45.5 180t-123.5 132t-178 50q-98 0 -177 -50t-125 -132.5t-46 -178.5q0 -97 47 -179.5t126.5 -132.5t175.5 -50t174.5 50t125 132.5t46.5 178.5z" />
    <glyph glyph-name="b" unicode="b" horiz-adv-x="1211" 
d="M1161 539q0 -111 -39 -211t-110 -177.5t-166.5 -122.5t-208.5 -45q-93 0 -186.5 47t-150.5 129l-12 -81q-6 -41 -26.5 -70.5t-61.5 -29.5t-70.5 29.5t-29.5 70.5v1277q0 41 29.5 70.5t70.5 29.5t70.5 -29.5t29.5 -70.5v-421q65 75 145.5 119t184.5 44q102 0 197 -39
t168 -110q83 -82 124.5 -189t41.5 -220zM639 183q93 0 166 50t115 131.5t42 174.5t-42.5 175.5t-116.5 134t-169 51.5t-169 -49t-116 -130t-42 -177q0 -70 24.5 -137t69.5 -117q45 -49 109 -78t129 -29z" />
    <glyph glyph-name="c" unicode="c" horiz-adv-x="1098" 
d="M60 539q0 111 39 211t110 178t165.5 123t205.5 45q110 0 199.5 -42.5t154 -112t96.5 -151.5q7 -17 7 -38q0 -41 -29.5 -70.5t-70.5 -29.5q-28 0 -55 19t-38 46q-28 72 -97.5 125.5t-166.5 53.5q-91 0 -163.5 -50.5t-114.5 -131.5t-42 -175q0 -95 43 -178.5t118 -135
t169 -51.5q92 0 159 46.5t101 108.5q12 22 38 37.5t51 15.5q41 0 70.5 -29.5t29.5 -70.5q0 -25 -13 -49q-57 -105 -170 -182t-266 -77q-114 0 -210.5 45.5t-168 124.5t-111.5 180.5t-40 214.5z" />
    <glyph glyph-name="d" unicode="d" horiz-adv-x="1211" 
d="M50 538q0 113 42 220t124 189q73 71 168 110t197 39q104 0 185 -44t145 -119v421q0 41 29.5 70.5t70.5 29.5t70.5 -29.5t29.5 -70.5v-1277q0 -41 -29.5 -70.5t-70.5 -29.5t-61.5 29.5t-26.5 70.5l-12 81q-57 -82 -150.5 -129t-186.5 -47q-113 0 -208.5 45t-166.5 122.5
t-110 177.5t-39 211zM572 182q65 0 129 29t109 78q45 50 69.5 117t24.5 137q0 96 -42 177t-115.5 130t-169.5 49q-94 0 -168.5 -51.5t-117 -134t-42.5 -175.5t42 -174.5t115.5 -131.5t165.5 -50z" />
    <glyph glyph-name="e" unicode="e" horiz-adv-x="1131" 
d="M582 1092q133 0 244 -66t178.5 -177.5t67.5 -247.5q0 -28 -3 -57q-4 -37 -33.5 -62.5t-66.5 -25.5l-699 -1q17 -72 64 -135t114.5 -102t147.5 -39q86 0 154 42t106 97q12 19 36.5 32t46.5 13q41 0 70.5 -30t29.5 -71q0 -32 -18 -57q-62 -91 -170.5 -157.5t-251.5 -66.5
q-115 0 -213.5 45t-171.5 123t-113.5 179.5t-40.5 214.5q0 109 40 207.5t111.5 175.5t166.5 121.5t204 44.5zM866 656q-19 98 -98 167t-186 69q-109 0 -192.5 -71t-112.5 -166z" />
    <glyph glyph-name="f" unicode="f" horiz-adv-x="811" 
d="M35 982q0 29 23.5 56.5t57.5 27.5l148 1v13q3 169 76 265t237 93l110 -2q41 0 70 -29.5t29 -70.5t-29 -69t-71 -28l-112 16q-52 0 -75.5 -15.5t-30 -54.5t-5.5 -111l1 -9l202 -1q40 0 67.5 -27t27.5 -65q0 -32 -26 -61.5t-59 -29.5l-212 -2l2 -806v-1q0 -40 -29.5 -67.5
t-70.5 -27.5t-70.5 27.5t-29.5 67.5v1l-2 808l-134 1q-40 0 -67.5 28t-27.5 72z" />
    <glyph glyph-name="g" unicode="g" horiz-adv-x="1205" 
d="M1006 1099q41 0 70.5 -29.5t29.5 -70.5v-2l-7 -955q-1 -112 -45.5 -211t-122.5 -175t-178.5 -119t-213.5 -43q-127 0 -242.5 55.5t-195.5 155.5q-23 29 -23 64q0 41 29.5 70.5t70.5 29.5q20 0 43.5 -11t36.5 -28q50 -62 126.5 -99t155.5 -37q97 0 178.5 48t131 128
t49.5 175v98q-59 -92 -142.5 -126.5t-170.5 -34.5q-109 0 -202.5 47t-162.5 127t-107.5 181.5t-38.5 209.5t38.5 206.5t107.5 175.5t162 122t203 45q95 0 178 -44t141 -134l15 80q8 41 26 71t60 30zM897 546q0 91 -40 170.5t-109.5 129.5t-158.5 50q-91 0 -161.5 -49.5
t-111 -129t-40.5 -170.5q0 -90 40 -173.5t110 -137.5t160 -54q89 0 159.5 53t111 136.5t40.5 174.5z" />
    <glyph glyph-name="h" unicode="h" horiz-adv-x="1092" 
d="M95 1362q0 40 29 68.5t71 28.5q41 0 70.5 -28.5t29.5 -68.5v-436q38 81 111 124.5t141 43.5q157 0 256.5 -64t146.5 -178t47 -263v-9l-1 -505v-1q0 -40 -29.5 -68.5t-70.5 -28.5t-70.5 28.5t-29.5 68.5v1l1 500v2q0 154 -51 235t-199 81q-125 0 -187.5 -87t-62.5 -224
v-509q0 -40 -29.5 -68.5t-70.5 -28.5q-43 0 -72.5 29.5t-29.5 67.5v1289z" />
    <glyph glyph-name="i" unicode="i" horiz-adv-x="392" 
d="M203 1198q-46 0 -75 28.5t-30 70.5l-2 76q0 38 34 61.5t65 23.5q42 0 70.5 -29t29.5 -70l1 -60q0 -39 -26 -70t-67 -31zM95 1009q0 38 32 62t62 24q44 0 75 -26t31 -69v-1l2 -926q0 -40 -29.5 -68t-70.5 -28q-42 0 -71 28.5t-29 68.5z" />
    <glyph glyph-name="j" unicode="j" horiz-adv-x="516" 
d="M408 1294q0 -34 -31 -55.5t-59 -21.5q-38 0 -63.5 26.5t-26.5 62.5l-2 57v15q0 34 31 56t59 22q38 0 63.5 -26.5t26.5 -62.5l2 -58v-15zM313 1094q33 0 68.5 -20.5t35.5 -62.5l4 -984q0 -133 -40 -249t-127.5 -187.5t-229.5 -71.5q-34 0 -69.5 6.5t-70.5 21.5
q-59 24 -59 96q0 32 28 59.5t60 27.5q28 0 45 -8q35 -15 70 -15q78 0 122 45t62.5 122t18.5 171l-4 969q0 30 29 55t57 25z" />
    <glyph glyph-name="k" unicode="k" horiz-adv-x="932" 
d="M95 1358q0 41 29.5 70.5t70.5 29.5t70.5 -29.5t29.5 -70.5v-715l405 421q28 32 73 32q41 0 70.5 -29.5t29.5 -70.5q0 -42 -29 -71l-324 -337l341 -448q21 -26 21 -62q0 -41 -29.5 -70.5t-70.5 -29.5q-21 0 -44 12.5t-36 28.5l-322 424l-85 -88v-274q0 -41 -29.5 -70.5
t-70.5 -29.5t-70.5 29.5t-29.5 70.5v1277z" />
    <glyph glyph-name="l" unicode="l" horiz-adv-x="390" 
d="M190 1459q48 0 77 -31.5t28 -68.5v-1288q0 -40 -31.5 -64.5t-62.5 -24.5q-43 0 -74.5 28t-31.5 72v1277q0 38 27.5 69t67.5 31z" />
    <glyph glyph-name="m" unicode="m" horiz-adv-x="1593" 
d="M516 1096q97 0 170.5 -47t120.5 -114q56 65 135 113.5t176 48.5q128 0 212.5 -68.5t125.5 -179.5t41 -240l1 -533q0 -40 -29 -69t-71 -29t-71 29t-29 69l-1 531q0 76 -14 142.5t-51 107.5t-107 41q-74 0 -126.5 -41t-80 -107.5t-27.5 -143.5l1 -533q0 -40 -29.5 -68.5
t-70.5 -28.5q-42 0 -71 29t-29 69v531q0 94 -31.5 159t-81 98.5t-101.5 33.5q-74 0 -133 -69t-59 -215v-539q0 -40 -29.5 -68.5t-70.5 -28.5t-70.5 29t-29.5 69v925q0 41 15.5 69.5t57.5 28.5q33 0 61 -21t45 -70l19 -55q32 66 98.5 105.5t133.5 39.5z" />
    <glyph glyph-name="n" unicode="n" horiz-adv-x="1086" 
d="M295 937q54 53 129.5 105t175.5 52q131 0 218 -69.5t128 -161.5q32 -73 38.5 -144.5t6.5 -134.5v-505q0 -41 -29.5 -70.5t-70.5 -29.5t-70.5 29.5t-29.5 70.5v505q0 59 -5.5 109t-22.5 88q-19 44 -59 78.5t-102 34.5q-148 0 -227.5 -113t-78.5 -305l1 -399
q0 -41 -29.5 -70.5t-70.5 -29.5q-42 0 -71 29.5t-29 71.5l-2 919q0 41 22.5 70.5t63.5 29.5t63 -29.5t34 -70.5z" />
    <glyph glyph-name="o" unicode="o" horiz-adv-x="1196" 
d="M598 1095q115 0 214.5 -44t174.5 -122t117.5 -179t42.5 -215q0 -112 -43 -212.5t-118.5 -177t-175 -120.5t-212.5 -44q-112 0 -211.5 43t-175 119t-118.5 176.5t-43 215.5q0 114 43 215t118.5 178.5t174.5 122t212 44.5zM252 533q0 -97 47.5 -176.5t126.5 -126.5t173 -47
q96 0 174.5 48.5t125 128.5t46.5 175q0 97 -46 178.5t-124.5 130.5t-176.5 49q-99 0 -177 -49.5t-123.5 -131t-45.5 -179.5z" />
    <glyph glyph-name="p" unicode="p" horiz-adv-x="1211" 
d="M1161 536q0 -113 -41.5 -220t-124.5 -189q-73 -71 -168 -110t-197 -39q-104 0 -184.5 44t-145.5 119v-421q0 -41 -29.5 -70.5t-70.5 -29.5t-70.5 29.5t-29.5 70.5v1277q0 41 29.5 70.5t70.5 29.5t61.5 -29.5t26.5 -70.5l12 -81q57 82 150.5 129t186.5 47q113 0 208.5 -45
t166.5 -122.5t110 -177.5t39 -211zM639 892q-65 0 -129 -28.5t-109 -78.5q-45 -49 -69.5 -116.5t-24.5 -137.5q0 -96 42 -177t116 -130t169 -49t169 51.5t116.5 134t42.5 175.5q0 94 -42 175t-115 131t-166 50z" />
    <glyph glyph-name="q" unicode="q" horiz-adv-x="1211" 
d="M50 537q0 111 39 211t110 177.5t166.5 122.5t208.5 45q93 0 186.5 -47t150.5 -129l12 81q6 41 26.5 70.5t61.5 29.5t70.5 -29.5t29.5 -70.5v-1277q0 -41 -29.5 -70.5t-70.5 -29.5t-70.5 29.5t-29.5 70.5v421q-64 -75 -145 -119t-185 -44q-102 0 -197 39t-168 110
q-82 82 -124 189t-42 220zM572 893q-92 0 -165.5 -50t-115.5 -131t-42 -175q0 -93 42.5 -175.5t117 -134t168.5 -51.5q96 0 169.5 49t115.5 130t42 177q0 70 -24.5 137.5t-69.5 116.5q-45 50 -109 78.5t-129 28.5z" />
    <glyph glyph-name="r" unicode="r" horiz-adv-x="788" 
d="M763 969q0 -80 -77 -89q-28 -3 -71 18.5t-87 21.5q-87 0 -138 -44.5t-73 -119.5t-22 -168v-516q0 -44 -26.5 -70t-73.5 -26q-46 0 -73 26t-27 71v921q0 45 22.5 74t61.5 29q23 0 53.5 -19.5t42.5 -66.5l10 -72q13 28 50 65t88 64.5t106 27.5q102 0 168 -23.5t66 -103.5z
" />
    <glyph glyph-name="s" unicode="s" 
d="M602 1097q143 0 259.5 -62.5t172.5 -168.5q12 -21 12 -48q0 -41 -29.5 -70.5t-70.5 -29.5q-25 0 -51.5 16.5t-37.5 38.5q-33 62 -99 93t-157 31q-53 0 -120 -14t-116 -45t-49 -84q0 -39 40.5 -61.5t100 -34.5t119.5 -17.5t98 -9.5q74 -8 146 -24.5t132 -48.5t95.5 -87
t35.5 -140q0 -121 -70 -198t-179 -114t-228 -37q-163 0 -296.5 64.5t-197.5 188.5q-12 24 -12 47q0 41 29.5 70.5t70.5 29.5q26 0 52.5 -16.5t37.5 -39.5q39 -76 120.5 -110t194.5 -34q60 0 124.5 13.5t109 46.5t44.5 90q0 44 -38.5 63.5t-92 25.5t-99.5 11q-88 9 -182 23.5
t-174.5 46.5t-130.5 92t-50 160q0 90 43.5 155t115.5 106.5t157.5 61.5t169.5 20z" />
    <glyph glyph-name="t" unicode="t" horiz-adv-x="766" 
d="M250 1274q0 41 29 70.5t71 29.5q41 0 70.5 -29.5t29.5 -70.5v-199h134q39 0 67 -28t28 -67t-28 -67t-67 -28h-135l-1 -619v-2q0 -49 11 -67.5t45 -18.5q43 0 76 23q12 8 29 14.5t33 6.5q41 0 70.5 -29t29.5 -70q0 -49 -40 -79q-38 -29 -87 -48t-105 -19q-126 0 -194 77.5
t-68 193.5v9l1 627h-129q-39 0 -67 28t-28 67t28 67t67 28h130v200z" />
    <glyph glyph-name="u" unicode="u" horiz-adv-x="1086" 
d="M792 135q-54 -53 -129.5 -105t-175.5 -52q-131 0 -218 69.5t-128 161.5q-32 73 -38.5 144.5t-6.5 134.5v505q0 41 29.5 70.5t70.5 29.5t70.5 -29.5t29.5 -70.5v-505q0 -59 5.5 -109t22.5 -88q19 -44 59 -78.5t102 -34.5q148 0 227.5 113t78.5 305l-1 399q0 41 29.5 70.5
t70.5 29.5q42 0 71 -29.5t29 -71.5l2 -919q0 -41 -22.5 -70.5t-63.5 -29.5t-63 29.5t-34 70.5z" />
    <glyph glyph-name="v" unicode="v" horiz-adv-x="1050" 
d="M930 1095q36 0 65.5 -29t29.5 -64q0 -31 -10 -51l-422 -913q-27 -57 -92 -57q-67 0 -90 61l-378 913q-8 17 -8 47q0 32 27.5 62.5t61.5 30.5q78 0 104 -62l291 -708l325 712q27 58 96 58z" />
    <glyph glyph-name="w" unicode="w" horiz-adv-x="1502" 
d="M50 1013q0 33 29 58t62 25q34 0 60.5 -19t34.5 -47l200 -679l237 666h1q25 44 88 44q29 0 54 -12.5t35 -32.5v-1l230 -648l185 662q8 27 33 47t61 20q32 0 62 -23.5t30 -58.5q0 -22 -4 -35l-262 -924q-7 -25 -32.5 -46.5t-58.5 -21.5q-31 0 -55.5 17.5t-34.5 41.5
l-242 669l-246 -675q-10 -27 -35.5 -43.5t-55.5 -16.5q-31 0 -56.5 19t-33.5 47l-283 932q-3 15 -3 35z" />
    <glyph glyph-name="x" unicode="x" horiz-adv-x="1133" 
d="M978 1092q42 0 71.5 -30t29.5 -71q0 -39 -28 -69l-348 -375l353 -382q28 -30 28 -69q0 -41 -29.5 -70.5t-70.5 -29.5q-46 0 -75 33l-342 371l-343 -370q-29 -33 -74 -33q-41 0 -70.5 29.5t-29.5 70.5q0 39 28 69l353 381l-348 377q-28 30 -28 68q0 41 29.5 70.5
t70.5 29.5q45 0 74 -33l338 -365l337 364q12 14 33.5 24t40.5 10z" />
    <glyph glyph-name="y" unicode="y" horiz-adv-x="1065" 
d="M125 1101q29 0 54.5 -17t36.5 -42l340 -773l291 766q11 27 36.5 45t56.5 18q41 0 70.5 -29.5t29.5 -70.5q0 -21 -8 -39l-368 -960q-2 -13 -7 -23t-10 -18l-56 -140q-21 -52 -50 -110.5t-80 -110.5q-49 -51 -119.5 -86t-147.5 -35q-42 0 -71 30.5t-29 71.5q0 40 27.5 69.5
t66.5 30.5q88 6 136 68.5t82 147.5l48 122l-420 942q-9 21 -9 43q0 41 29.5 70.5t70.5 29.5z" />
    <glyph glyph-name="z" unicode="z" horiz-adv-x="971" 
d="M851 1075q32 -3 60 -30t28 -64q0 -42 -26 -71l-558 -713h505q37 0 61.5 -34t24.5 -66t-24.5 -66t-61.5 -34h-728q-40 0 -70 28.5t-30 69.5q0 40 26 69l557 710l-488 -5h-17q-33 0 -59 31.5t-26 60.5q0 38 25.5 73t74.5 35l713 6h13z" />
    <glyph glyph-name="braceleft" unicode="{" horiz-adv-x="718" 
d="M427 -227q0 -51 9.5 -90.5t52.5 -39.5q7 0 14 0.5t14 0.5q41 0 70.5 -29.5t29.5 -70.5q0 -49 -37 -75.5t-91 -26.5q-91 0 -154 54.5t-87 120.5q-15 41 -18 78t-3 68v11l2 412q0 57 -13 89t-66 32q-41 0 -70.5 29.5t-29.5 70.5q0 39 27.5 68t66.5 32q43 2 60.5 33t18.5 80
l6 464q1 79 23 141.5t72 104.5q68 57 152 57q56 0 99 -26.5t43 -79.5q0 -41 -29.5 -70.5t-70.5 -29.5q-10 0 -20.5 2t-20.5 2q-34 0 -40.5 -32t-7.5 -72l-6 -464q-2 -124 -62 -201q36 -43 52 -99.5t16 -124.5v-7z" />
    <glyph glyph-name="bar" unicode="|" horiz-adv-x="350" 
d="M275 -295q0 -34 -25.5 -67t-63.5 -33q-50 0 -80.5 26t-30.5 75v1505q0 41 28.5 70.5t70.5 29.5h1q43 0 71.5 -30t28.5 -71v-1505z" />
    <glyph glyph-name="braceright" unicode="}" horiz-adv-x="718" 
d="M291 1052q0 51 -9.5 90.5t-52.5 39.5q-7 0 -14 -0.5t-14 -0.5q-41 0 -70.5 29.5t-29.5 70.5q0 49 37 75.5t91 26.5q91 0 154 -54.5t87 -120.5q15 -41 18 -78t3 -68v-11l-2 -412q0 -57 13 -89t66 -32q41 0 70.5 -29.5t29.5 -70.5q0 -39 -27.5 -68t-66.5 -32
q-43 -2 -60.5 -33t-18.5 -80l-6 -464q-1 -79 -23 -141.5t-72 -104.5q-68 -57 -152 -57q-56 0 -99 26.5t-43 79.5q0 41 29.5 70.5t70.5 29.5q10 0 20.5 -2t20.5 -2q34 0 40.5 32t7.5 72l6 464q2 124 62 201q-36 43 -52 99.5t-16 124.5v7z" />
    <glyph glyph-name="asciitilde" unicode="~" horiz-adv-x="822" 
d="M623 1309q0 6 -1.5 12.5t-1.5 12.5q0 41 29.5 70.5t70.5 29.5h1q50 0 76 -37t26 -91q0 -67 -34 -123t-90 -89.5t-122 -33.5q-70 0 -118 26.5t-86 62.5t-79 62q-26 17 -43 17q-22 0 -36.5 -14.5t-14.5 -35.5q0 -4 0.5 -8t0.5 -8q0 -41 -29.5 -70.5t-70.5 -29.5
q-46 0 -73.5 34t-27.5 84q0 67 34 123t90.5 90.5t123.5 34.5q71 0 119 -27t86.5 -62.5t79.5 -62.5q25 -16 41 -16q21 0 35 14t14 35z" />
    <glyph glyph-name="uni00A0" unicode="&#xa0;" horiz-adv-x="560" 
 />
    <glyph glyph-name="dieresis" unicode="&#xa8;" horiz-adv-x="556" 
d="M429.106 1110.05q-50.751 0 -88.4414 35.4521q-37.6895 35.4521 -37.6895 86.4141q0 50.9629 37.6895 86.0459q37.6904 35.083 88.4414 35.083t88.8145 -35.083t38.0635 -86.0459q0 -50.9619 -38.0635 -86.4141t-88.8145 -35.4521zM132.106 1110.05
q-50.751 0 -88.4414 35.4521q-37.6895 35.4521 -37.6895 86.4141q0 50.9629 37.6895 86.0459q37.6904 35.083 88.4414 35.083t88.8145 -35.083t38.0635 -86.0459q0 -50.9619 -38.0635 -86.4141t-88.8145 -35.4521z" />
    <glyph glyph-name="copyright" unicode="&#xa9;" horiz-adv-x="1694" 
d="M844.981 1451q168.297 0 309.644 -59.5t245.845 -163q104.497 -103.5 161.696 -238q57.1982 -134.5 57.1982 -285.5t-56.6484 -283.5t-160.047 -233.5q-103.397 -101 -244.744 -158t-311.843 -57q-173.797 0 -315.693 57.5t-243.645 159t-156.746 235
q-54.999 133.5 -54.999 286.5q0 149 57.748 282q57.749 133 161.697 236.5q103.947 103.5 244.194 162.5t306.343 59zM849.382 1248q-162.797 0 -287.644 -77q-124.848 -77 -195.796 -203.5t-70.9482 -276.5q0 -102 42.8984 -195q42.8994 -93 118.798 -165.5t175.446 -114
t212.845 -41.5q113.298 0 213.945 43t178.196 116q77.5479 73 121.547 164.5t43.999 187.5q0 155 -74.248 282.5t-199.646 203.5t-279.394 76zM462.047 717.406q0 80.8115 31.2305 153.614t88.0859 129.589t132.529 89.5469q75.6738 32.7617 164.561 32.7617
q88.0859 0 159.756 -30.9414t123.32 -81.5391t77.2754 -110.296q5.60547 -12.376 5.60547 -27.665q0 -29.8496 -23.623 -51.3262t-56.4551 -21.4766q-22.4219 0 -44.043 13.832q-21.6211 13.833 -30.4297 33.4902q-22.4219 52.418 -78.0762 91.3672t-133.33 38.9492
q-72.8711 0 -130.928 -36.7656t-91.6895 -95.7354t-33.6328 -127.405q0 -69.1621 34.4336 -129.952t94.4922 -98.2842q60.0586 -37.4932 135.332 -37.4932q73.6719 0 127.324 33.8535q53.6523 33.8525 80.8789 78.9912q9.60938 16.0156 30.4297 27.3008
q20.8203 11.2842 40.8398 11.2842q32.832 0 56.4551 -21.4766q23.623 -21.4775 23.623 -51.3262q0 -18.2002 -10.4102 -35.6729q-45.6445 -76.4434 -136.133 -132.502q-90.4883 -56.0576 -213.008 -56.0576q-91.2891 0 -168.564 33.125q-77.2754 33.126 -134.531 90.6396
t-89.2871 131.409q-32.0312 73.8945 -32.0312 156.161z" />
    <glyph glyph-name="guillemotleft" unicode="&#xab;" horiz-adv-x="1089" 
d="M435 924q27 26 64 26q38 0 64 -26t26 -64t-28 -65l-242 -236l228 -219q28 -27 28 -66q0 -37 -26 -63.5t-64 -26.5q-37 0 -64 26l-294 284q-27 26 -27 65q0 38 27 65zM835 924q27 26 64 26q38 0 64 -26t26 -64t-28 -65l-242 -236l228 -219q28 -27 28 -66q0 -37 -26 -63.5
t-64 -26.5q-37 0 -64 26l-294 284q-27 26 -27 65q0 38 27 65z" />
    <glyph glyph-name="uni00AD" unicode="&#xad;" horiz-adv-x="0" 
 />
    <glyph glyph-name="registered" unicode="&#xae;" horiz-adv-x="1694" 
d="M844.981 1451q168.297 0 309.644 -59.5t245.845 -163q104.497 -103.5 161.696 -238q57.1982 -134.5 57.1982 -285.5t-56.6484 -283.5t-160.047 -233.5q-103.397 -101 -244.744 -158t-311.843 -57q-173.797 0 -315.693 57.5t-243.645 159t-156.746 235
q-54.999 133.5 -54.999 286.5q0 149 57.748 282q57.749 133 161.697 236.5q103.947 103.5 244.194 162.5t306.343 59zM849.382 1248q-162.797 0 -287.644 -77q-124.848 -77 -195.796 -203.5t-70.9482 -276.5q0 -102 42.8984 -195q42.8994 -93 118.798 -165.5t175.446 -114
t212.845 -41.5q113.298 0 213.945 43t178.196 116q77.5479 73 121.547 164.5t43.999 187.5q0 155 -74.248 282.5t-199.646 203.5t-279.394 76zM1148.5 411q0 -19.5 -14.25 -33.75t-30.75 -14.25q-14 0 -24.5 9.75t-14.5 14.75q-45.5 32 -78.75 72.75t-56.75 88.75
q-20.5 43 -41.75 67t-51.25 34t-78 10.5l-45.5 0.5l0.5 -242v-1q0 -20 -14.75 -35t-35.25 -15t-35.25 16t-14.75 38l-1.5 620.5q0 21 14.75 35.25t34.75 14.75l133 0.5h11.5q86 0 153.5 -25.25t106.5 -75.5t39 -124.75q0 -48 -19.75 -85.5t-51.75 -63.5t-69 -40.5
q17 -21.5 34 -53q29 -55.5 56.5 -98.25t72.5 -75.25q9 -6 15.25 -16.75t6.25 -23.75zM808 993h-96.5l1 -239l96.5 1q92 1 144.25 28t52.25 86.5q0 61 -55.5 92.25t-142 31.25z" />
    <glyph glyph-name="macron" unicode="&#xaf;" horiz-adv-x="894" 
d="M184 1406h763q41 0 70.5 -29.5t29.5 -70.5t-29.5 -70.5t-70.5 -29.5h-763q-41 0 -70.5 29.5t-29.5 70.5t29.5 70.5t70.5 29.5z" />
    <glyph glyph-name="degree" unicode="&#xb0;" horiz-adv-x="647" 
d="M326.753 1676.1q69.4707 0 125.047 -34.4512t87.8799 -91.1738q32.3027 -56.7227 32.3027 -124.233q0 -68.9023 -32.998 -125.973t-89.2695 -91.1738q-56.2705 -34.1035 -126.436 -34.1035q-65.9961 0 -122.962 32.0156q-56.9658 32.0146 -91.3535 86.3018
t-34.3877 121.102q0 73.0781 31.2617 132.585q31.2617 59.5059 88.2266 94.3057q56.9658 34.7988 132.688 34.7988zM440.685 1426.94q0 45.2393 -34.041 80.7344q-34.04 35.4951 -81.9746 35.4951q-48.6289 0 -83.7119 -36.1914q-35.082 -36.1914 -35.082 -82.8223
q0 -45.9346 35.082 -81.082q35.083 -35.1465 81.6279 -35.1465q51.4082 0 84.7539 34.7988t33.3457 84.2139z" />
    <glyph glyph-name="uni00B2" unicode="&#xb2;" horiz-adv-x="586" 
d="M100 1073.5q-20.5 0 -35.25 14.75t-14.75 35.25q0 25.5 15.5 52.75t38.5 53t46.5 47.25t39.5 35.5q31.5 27.5 68 51.25t69.25 50t53.5 60t20.75 80.25q0 36.5 -16.5 65.5t-44.5 46.25t-63 17.25q-43.5 0 -74.75 -27.5t-38.75 -62.5q-3.5 -16 -17.75 -28t-31.75 -12
q-20.5 0 -35.25 14.5t-14.75 34.5q0 37 18.5 69.75t49.25 57.75t68.75 39.25t77.5 14.25q65 0 115.25 -30.25t79 -81.75t28.75 -115q0 -66 -25.5 -113.5t-64.5 -82.75t-80.5 -63.75t-74 -56.5q-36 -32 -63.5 -65.5h292.5q20.5 0 35.25 -14.75t14.75 -35.25t-14.75 -35.25
t-35.25 -14.75h-386z" />
    <glyph glyph-name="uni00B3" unicode="&#xb3;" horiz-adv-x="545" 
d="M379.5 1568q0 37.5 -31.25 65.5t-73.75 28q-33.5 0 -61.5 -18.5t-36 -39.5q-7 -18.5 -19.5 -29.5t-35.5 -11q-16.5 0 -31 14.25t-14.5 30.25q0 7 1.25 12.25t2.25 8.75q20.5 54 71.25 93.25t123.25 39.25q55.5 0 102.25 -25.5t75 -70t28.25 -101.5q0 -43.5 -18.25 -77.5
t-42.25 -57.5q35 -24 55.5 -61t20.5 -85.5q0 -63.5 -32.5 -112.75t-85.5 -77.25t-115 -28q-67 0 -119.5 32t-83 74q-9.5 13.5 -9.5 29.5q0 20.5 16.25 33t36.25 12.5q23.5 0 38.5 -20q17.5 -22.5 49 -41.5t69 -19q37 0 67.75 15.5t49.5 41.75t18.75 58.25q0 50.5 -34 69.25
t-96.5 19.25q-19.5 0 -33.75 14t-14.25 35.5q0 27.5 18.5 40.25t38 12.75q46 0 76 23.25t30 73.25z" />
    <glyph glyph-name="acute" unicode="&#xb4;" horiz-adv-x="512" 
d="M402 1436q46 0 73 -32t27 -70q0 -39 -28 -68l-324 -300q-40 -43 -76 -43q-25 0 -47 22t-22 46q0 35 40 75l284 338q29 32 73 32z" />
    <glyph glyph-name="paragraph" unicode="&#xb6;" horiz-adv-x="1317" 
d="M954 72q0 -42 -29.5 -71t-70.5 -29t-70.5 29t-29.5 71l-1 1160h-275v-309l1 -841q0 -41 -29.5 -70.5t-70.5 -29.5q-42 0 -71 29.5t-29 70.5l-1 745q-80 29 -133.5 109.5t-53.5 186.5q0 79 43 150t107 115t128 45l739 -1q42 0 71 -29.5t29 -70.5t-29 -70.5t-71 -29.5h-155
z" />
    <glyph glyph-name="cedilla" unicode="&#xb8;" horiz-adv-x="702" 
d="M329 -565q68 0 121.5 41t53.5 107q0 67 -52 106t-113 39q-55 0 -100 -33q-27 -20 -60 -20q-41 0 -70.5 29.5t-29.5 70.5q0 29 17 55l162 247q12 19 36.5 33t47.5 14q41 0 70.5 -29.5t29.5 -70.5q0 -30 -17 -56l-28 -43q82 -12 151.5 -57.5t112 -117t42.5 -164.5
q0 -99 -50 -178.5t-134 -126t-187 -46.5q-102 0 -177.5 39.5t-127.5 100.5q-25 29 -25 66q0 41 29.5 70.5t70.5 29.5q45 0 76 -36q24 -28 63 -49t88 -21z" />
    <glyph glyph-name="uni00B9" unicode="&#xb9;" horiz-adv-x="411" 
d="M96 1563.5q-17 0 -30.5 15.25t-13.5 31.25t8.75 32.25t27.25 19.75q19 4 39.25 22.25t39.25 53.25q15 28 41.5 28q21.5 0 37.75 -12.75t16.25 -34.75l-0.5 -553h59.5q17.5 0 29 -16.25t11.5 -31.25q0 -19.5 -14 -33.5t-33.5 -14h-216q-19.5 0 -33.5 14t-14 33.5
q0 15 11.5 31.25t29 16.25h70.5v419.5q-14 -8 -29 -14.5t-36.5 -6.5z" />
    <glyph glyph-name="guillemotright" unicode="&#xbb;" horiz-adv-x="1089" 
d="M654 181q-27 -26 -64 -26q-38 0 -64 26t-26 64t28 65l242 236l-228 219q-28 27 -28 66q0 37 26 63.5t64 26.5q37 0 64 -26l294 -284q27 -26 27 -65q0 -38 -27 -65zM254 181q-27 -26 -64 -26q-38 0 -64 26t-26 64t28 65l242 236l-228 219q-28 27 -28 66q0 37 26 63.5
t64 26.5q37 0 64 -26l294 -284q27 -26 27 -65q0 -38 -27 -65z" />
    <glyph glyph-name="questiondown" unicode="&#xbf;" horiz-adv-x="997" 
d="M960 74q0 -107 -53 -186.5t-140.5 -123.5t-189.5 -44q-144 0 -250.5 70t-146.5 184q-19 53 -19 109q0 96 40 167t95 122.5t101 91.5q43 37 70.5 68t27.5 87q0 10 -3 23.5t-3 30.5q0 37 26 62.5t64 25.5q42 0 62.5 -24.5t27 -58t6.5 -60.5q0 -87 -36 -149.5t-88 -109.5
t-101 -87t-76 -83q-15 -25 -24 -49.5t-9 -56.5q0 -86 68.5 -134.5t165.5 -48.5q87 0 146 46.5t59 128.5q0 4 -0.5 10t-0.5 14q0 37 26 62t64 25q51 0 71 -36t20 -76zM561 811q-50 0 -85.5 35.5t-35.5 85.5t35.5 85.5t85.5 35.5t85.5 -35.5t35.5 -85.5t-35.5 -85.5
t-85.5 -35.5z" />
    <glyph glyph-name="Agrave" unicode="&#xc0;" horiz-adv-x="1400" 
d="M276 1930q0 46 32 73t69 27q38 0 69 -29l300 -323q43 -40 43 -76q0 -25 -22 -47t-46 -22q-35 0 -75 40l-338 284q-32 29 -32 73zM608 1395q11 25 37.5 42.5t54.5 17.5q27 0 54.5 -17.5t37.5 -42.5l550 -1276q9 -20 9 -41q0 -41 -29.5 -70.5t-70.5 -29.5q-28 0 -55 18
t-38 43l-171 397l-570 8l-175 -406q-10 -25 -37 -43.5t-55 -18.5q-41 0 -70.5 29.5t-29.5 70.5q0 21 9 41zM700 1102l-197 -459l397 -5z" />
    <glyph glyph-name="Aacute" unicode="&#xc1;" horiz-adv-x="1400" 
d="M1049 2028q46 0 73 -32t27 -70q0 -39 -28 -68l-324 -300q-40 -43 -76 -43q-25 0 -47 22t-22 46q0 35 40 75l284 338q29 32 73 32zM608 1395q11 25 37.5 42.5t54.5 17.5q27 0 54.5 -17.5t37.5 -42.5l550 -1276q9 -20 9 -41q0 -41 -29.5 -70.5t-70.5 -29.5q-28 0 -55 18
t-38 43l-171 397l-570 8l-175 -406q-10 -25 -37 -43.5t-55 -18.5q-41 0 -70.5 29.5t-29.5 70.5q0 21 9 41zM700 1102l-197 -459l397 -5z" />
    <glyph glyph-name="Acircumflex" unicode="&#xc2;" horiz-adv-x="1400" 
d="M643 2005q12 12 32.5 21t38.5 9q39 0 69 -28l317 -303q14 -12 23 -34t9 -40q0 -41 -29.5 -70.5t-70.5 -29.5t-70 29l-246 236l-234 -237q-29 -31 -72 -31q-41 0 -70.5 29.5t-29.5 70.5t30 71zM608 1395q11 25 37.5 42.5t54.5 17.5q27 0 54.5 -17.5t37.5 -42.5l550 -1276
q9 -20 9 -41q0 -41 -29.5 -70.5t-70.5 -29.5q-28 0 -55 18t-38 43l-171 397l-570 8l-175 -406q-10 -25 -37 -43.5t-55 -18.5q-41 0 -70.5 29.5t-29.5 70.5q0 21 9 41zM700 1102l-197 -459l397 -5z" />
    <glyph glyph-name="Atilde" unicode="&#xc3;" horiz-adv-x="1400" 
d="M933 1806q0 6 -1.5 12.5t-1.5 12.5q0 41 29.5 70.5t70.5 29.5h1q50 0 76 -37t26 -91q0 -67 -34 -123t-90 -89.5t-122 -33.5q-70 0 -118 26.5t-86 62.5t-79 62q-26 17 -43 17q-22 0 -36.5 -14.5t-14.5 -35.5q0 -4 0.5 -8t0.5 -8q0 -41 -29.5 -70.5t-70.5 -29.5
q-46 0 -73.5 34t-27.5 84q0 67 34 123t90.5 90.5t123.5 34.5q71 0 119 -27t86.5 -62.5t79.5 -62.5q25 -16 41 -16q21 0 35 14t14 35zM608 1395q11 25 37.5 42.5t54.5 17.5q27 0 54.5 -17.5t37.5 -42.5l550 -1276q9 -20 9 -41q0 -41 -29.5 -70.5t-70.5 -29.5q-28 0 -55 18
t-38 43l-171 397l-570 8l-175 -406q-10 -25 -37 -43.5t-55 -18.5q-41 0 -70.5 29.5t-29.5 70.5q0 21 9 41zM700 1102l-197 -459l397 -5z" />
    <glyph glyph-name="Adieresis" unicode="&#xc4;" horiz-adv-x="1400" 
d="M869.106 1557.05q-50.751 0 -88.4414 35.4521q-37.6895 35.4521 -37.6895 86.4141q0 50.9629 37.6895 86.0459q37.6904 35.083 88.4414 35.083t88.8145 -35.083t38.0635 -86.0459q0 -50.9619 -38.0635 -86.4141t-88.8145 -35.4521zM572.106 1557.05
q-50.751 0 -88.4414 35.4521q-37.6895 35.4521 -37.6895 86.4141q0 50.9629 37.6895 86.0459q37.6904 35.083 88.4414 35.083t88.8145 -35.083t38.0635 -86.0459q0 -50.9619 -38.0635 -86.4141t-88.8145 -35.4521zM608 1395q11 25 37.5 42.5t54.5 17.5q27 0 54.5 -17.5
t37.5 -42.5l550 -1276q9 -20 9 -41q0 -41 -29.5 -70.5t-70.5 -29.5q-28 0 -55 18t-38 43l-171 397l-570 8l-175 -406q-10 -25 -37 -43.5t-55 -18.5q-41 0 -70.5 29.5t-29.5 70.5q0 21 9 41zM700 1102l-197 -459l397 -5z" />
    <glyph glyph-name="Aring" unicode="&#xc5;" horiz-adv-x="1401" 
d="M608 1395q11 25 37.5 42.5t54.5 17.5q27 0 54.5 -17.5t37.5 -42.5l550 -1276q9 -20 9 -41q0 -41 -29.5 -70.5t-70.5 -29.5q-28 0 -55 18t-38 43l-171 397l-570 8l-175 -406q-10 -25 -37 -43.5t-55 -18.5q-41 0 -70.5 29.5t-29.5 70.5q0 21 9 41zM700 1102l-197 -459
l397 -5zM716.753 2070.1q69.4707 0 125.047 -34.4512t87.8799 -91.1738q32.3027 -56.7227 32.3027 -124.233q0 -68.9023 -32.998 -125.973t-89.2695 -91.1738q-56.2705 -34.1035 -126.436 -34.1035q-65.9961 0 -122.962 32.0156q-56.9658 32.0146 -91.3535 86.3018
t-34.3877 121.102q0 73.0781 31.2617 132.585q31.2617 59.5059 88.2266 94.3057q56.9658 34.7988 132.688 34.7988zM830.685 1820.94q0 45.2393 -34.041 80.7344q-34.04 35.4951 -81.9746 35.4951q-48.6289 0 -83.7119 -36.1914q-35.082 -36.1914 -35.082 -82.8223
q0 -45.9346 35.082 -81.082q35.083 -35.1465 81.6279 -35.1465q51.4082 0 84.7539 34.7988t33.3457 84.2139z" />
    <glyph glyph-name="AE" unicode="&#xc6;" horiz-adv-x="2054" 
d="M700 1449q295 0 590.5 0.5t588.5 -2.5q41 0 70.5 -29.5t29.5 -70.5t-29.5 -70.5t-70.5 -29.5h-2l-837 1l1 -433l754 -5h1q41 0 70.5 -29.5t29.5 -70.5t-29.5 -70.5t-70.5 -29.5h-2l-752 5l1 -415l834 1h2q41 0 70.5 -29.5t29.5 -70.5t-29.5 -70.5t-70.5 -29.5h-2l-934 -1
q-41 0 -70.5 29.5t-29.5 70.5l-1 375q-48 1 -97 2t-112.5 2t-156.5 2h-45l-189 -434q-11 -25 -37.5 -43t-54.5 -18q-41 0 -70.5 29.5t-29.5 70.5q0 20 9 41l549 1262q11 25 38 42.5t54 17.5zM766 1249l-248 -568q116 -1 187.5 -2.5t136.5 -3.5l-2 574h-74z" />
    <glyph glyph-name="Ccedilla" unicode="&#xc7;" horiz-adv-x="1430" 
d="M744 -575q68 0 121.5 41t53.5 107q0 67 -52 106t-113 39q-55 0 -100 -33q-27 -20 -60 -20q-41 0 -70.5 29.5t-29.5 70.5q0 29 17 55l162 247q12 19 36.5 33t47.5 14q41 0 70.5 -29.5t29.5 -70.5q0 -30 -17 -56l-28 -43q82 -12 151.5 -57.5t112 -117t42.5 -164.5
q0 -99 -50 -178.5t-134 -126t-187 -46.5q-102 0 -177.5 39.5t-127.5 100.5q-25 29 -25 66q0 41 29.5 70.5t70.5 29.5q45 0 76 -36q24 -28 63 -49t88 -21zM1286 516q36 0 65.5 -28.5t29.5 -63.5q0 -28 -10 -48q-50 -110 -141.5 -204.5t-217.5 -151.5t-283 -57q-155 0 -280 59
t-213.5 161.5t-136 236t-47.5 282.5q0 147 48 280t137 235.5t213 161.5t276 59q154 0 279.5 -54.5t218 -145t144.5 -198.5q11 -21 11 -44q0 -37 -26.5 -67.5t-61.5 -30.5q-34 0 -61.5 14.5t-41.5 43.5q-56 116 -175.5 199t-286.5 83q-145 0 -251.5 -74t-164.5 -196.5
t-58 -267.5q0 -146 57.5 -268t164 -195t253.5 -73q110 0 201.5 40.5t158.5 107.5t102 144q27 60 97 60z" />
    <glyph glyph-name="Egrave" unicode="&#xc8;" 
d="M185 1912q0 46 32 73t69 27q38 0 69 -29l300 -323q43 -40 43 -76q0 -25 -22 -47t-46 -22q-35 0 -75 40l-338 284q-32 29 -32 73zM75 1336q0 40 29.5 68.5t70.5 28.5l857 -1h1q41 0 70.5 -29.5t29.5 -70.5t-29.5 -70.5t-70.5 -29.5h-1l-757 1l1 -410l674 -5q43 0 71.5 -30
t28.5 -77q0 -40 -31 -67.5t-69 -27.5h-1l-672 5l1 -423l754 1h1q41 0 70.5 -29.5t29.5 -70.5t-29.5 -70.5t-70.5 -29.5h-1l-854 -1q-41 0 -70.5 29.5t-29.5 69.5z" />
    <glyph glyph-name="Eacute" unicode="&#xc9;" 
d="M891 1995q46 0 73 -32t27 -70q0 -39 -28 -68l-324 -300q-40 -43 -76 -43q-25 0 -47 22t-22 46q0 35 40 75l284 338q29 32 73 32zM75 1336q0 40 29.5 68.5t70.5 28.5l857 -1h1q41 0 70.5 -29.5t29.5 -70.5t-29.5 -70.5t-70.5 -29.5h-1l-757 1l1 -410l674 -5q43 0 71.5 -30
t28.5 -77q0 -40 -31 -67.5t-69 -27.5h-1l-672 5l1 -423l754 1h1q41 0 70.5 -29.5t29.5 -70.5t-29.5 -70.5t-70.5 -29.5h-1l-854 -1q-41 0 -70.5 29.5t-29.5 69.5z" />
    <glyph glyph-name="Ecircumflex" unicode="&#xca;" 
d="M532 1998q12 12 32.5 21t38.5 9q39 0 69 -28l317 -303q14 -12 23 -34t9 -40q0 -41 -29.5 -70.5t-70.5 -29.5t-70 29l-246 236l-234 -237q-29 -31 -72 -31q-41 0 -70.5 29.5t-29.5 70.5t30 71zM75 1336q0 40 29.5 68.5t70.5 28.5l857 -1h1q41 0 70.5 -29.5t29.5 -70.5
t-29.5 -70.5t-70.5 -29.5h-1l-757 1l1 -410l674 -5q43 0 71.5 -30t28.5 -77q0 -40 -31 -67.5t-69 -27.5h-1l-672 5l1 -423l754 1h1q41 0 70.5 -29.5t29.5 -70.5t-29.5 -70.5t-70.5 -29.5h-1l-854 -1q-41 0 -70.5 29.5t-29.5 69.5z" />
    <glyph glyph-name="Edieresis" unicode="&#xcb;" 
d="M746.106 1561.05q-50.751 0 -88.4414 35.4521q-37.6895 35.4521 -37.6895 86.4141q0 50.9629 37.6895 86.0459q37.6904 35.083 88.4414 35.083t88.8145 -35.083t38.0635 -86.0459q0 -50.9619 -38.0635 -86.4141t-88.8145 -35.4521zM449.106 1561.05
q-50.751 0 -88.4414 35.4521q-37.6895 35.4521 -37.6895 86.4141q0 50.9629 37.6895 86.0459q37.6904 35.083 88.4414 35.083t88.8145 -35.083t38.0635 -86.0459q0 -50.9619 -38.0635 -86.4141t-88.8145 -35.4521zM75 1336q0 40 29.5 68.5t70.5 28.5l857 -1h1
q41 0 70.5 -29.5t29.5 -70.5t-29.5 -70.5t-70.5 -29.5h-1l-757 1l1 -410l674 -5q43 0 71.5 -30t28.5 -77q0 -40 -31 -67.5t-69 -27.5h-1l-672 5l1 -423l754 1h1q41 0 70.5 -29.5t29.5 -70.5t-29.5 -70.5t-70.5 -29.5h-1l-854 -1q-41 0 -70.5 29.5t-29.5 69.5z" />
    <glyph glyph-name="Igrave" unicode="&#xcc;" horiz-adv-x="401" 
d="M-250 1920q0 46 32 73t69 27q38 0 69 -29l300 -323q43 -40 43 -76q0 -25 -22 -47t-46 -22q-35 0 -75 40l-338 284q-32 29 -32 73zM201 -10q-41 0 -70.5 29.5t-29.5 70.5l-1 1251q0 38 28 69t67 31q46 0 75.5 -28.5t29.5 -71.5l1 -1251q0 -41 -29.5 -70.5t-70.5 -29.5z
" />
    <glyph glyph-name="Iacute" unicode="&#xcd;" horiz-adv-x="401" 
d="M523 2013q46 0 73 -32t27 -70q0 -39 -28 -68l-324 -300q-40 -43 -76 -43q-25 0 -47 22t-22 46q0 35 40 75l284 338q29 32 73 32zM201 -10q-41 0 -70.5 29.5t-29.5 70.5l-1 1251q0 38 28 69t67 31q46 0 75.5 -28.5t29.5 -71.5l1 -1251q0 -41 -29.5 -70.5t-70.5 -29.5z" />
    <glyph glyph-name="Icircumflex" unicode="&#xce;" horiz-adv-x="401" 
d="M116 1962q12 12 32.5 21t38.5 9q39 0 69 -28l317 -303q14 -12 23 -34t9 -40q0 -41 -29.5 -70.5t-70.5 -29.5t-70 29l-246 236l-234 -237q-29 -31 -72 -31q-41 0 -70.5 29.5t-29.5 70.5t30 71zM201 -10q-41 0 -70.5 29.5t-29.5 70.5l-1 1251q0 38 28 69t67 31
q46 0 75.5 -28.5t29.5 -71.5l1 -1251q0 -41 -29.5 -70.5t-70.5 -29.5z" />
    <glyph glyph-name="Idieresis" unicode="&#xcf;" horiz-adv-x="401" 
d="M343.106 1563.05q-50.751 0 -88.4414 35.4521q-37.6895 35.4521 -37.6895 86.4141q0 50.9629 37.6895 86.0459q37.6904 35.083 88.4414 35.083t88.8145 -35.083t38.0635 -86.0459q0 -50.9619 -38.0635 -86.4141t-88.8145 -35.4521zM46.1064 1563.05
q-50.751 0 -88.4414 35.4521q-37.6895 35.4521 -37.6895 86.4141q0 50.9629 37.6895 86.0459q37.6904 35.083 88.4414 35.083t88.8145 -35.083t38.0635 -86.0459q0 -50.9619 -38.0635 -86.4141t-88.8145 -35.4521zM201 -10q-41 0 -70.5 29.5t-29.5 70.5l-1 1251q0 38 28 69
t67 31q46 0 75.5 -28.5t29.5 -71.5l1 -1251q0 -41 -29.5 -70.5t-70.5 -29.5z" />
    <glyph glyph-name="Eth" unicode="&#xd0;" horiz-adv-x="1674" 
d="M872 1437h15q176 0 309 -61.5t222.5 -166t135 -234t45.5 -264.5q0 -206 -92.5 -367t-273 -253t-444.5 -92h-47l-228 2q-40 1 -69.5 31t-29.5 72l7 1227q0 40 29 69.5t69 30.5zM1421 717q0 186 -79 300t-222 166.5t-336 52.5q-41 0 -81.5 -1t-81.5 -3l-6 -1029l129 -2
q201 0 353.5 48.5t238 161.5t85.5 306zM175 869h763q41 0 70.5 -29.5t29.5 -70.5t-29.5 -70.5t-70.5 -29.5h-763q-41 0 -70.5 29.5t-29.5 70.5t29.5 70.5t70.5 29.5z" />
    <glyph glyph-name="Ntilde" unicode="&#xd1;" horiz-adv-x="1285" 
d="M846 1778q0 6 -1.5 12.5t-1.5 12.5q0 41 29.5 70.5t70.5 29.5h1q50 0 76 -37t26 -91q0 -67 -34 -123t-90 -89.5t-122 -33.5q-70 0 -118 26.5t-86 62.5t-79 62q-26 17 -43 17q-22 0 -36.5 -14.5t-14.5 -35.5q0 -4 0.5 -8t0.5 -8q0 -41 -29.5 -70.5t-70.5 -29.5
q-46 0 -73.5 34t-27.5 84q0 67 34 123t90.5 90.5t123.5 34.5q71 0 119 -27t86.5 -62.5t79.5 -62.5q25 -16 41 -16q21 0 35 14t14 35zM75 1336q0 42 30.5 69.5t72.5 27.5q47 0 77 -38l755 -1025v963q0 40 29.5 68.5t70.5 28.5t70.5 -28.5t29.5 -68.5l-1 -1254
q0 -42 -30.5 -69.5t-72.5 -27.5q-47 0 -77 40l-754 1024v-966q0 -40 -29.5 -68.5t-70.5 -28.5t-70.5 28.5t-29.5 68.5v1256z" />
    <glyph glyph-name="Ograve" unicode="&#xd2;" horiz-adv-x="1503" 
d="M305 1918q0 46 32 73t69 27q38 0 69 -29l300 -323q43 -40 43 -76q0 -25 -22 -47t-46 -22q-35 0 -75 40l-338 284q-32 29 -32 73zM750 1451q153 0 281.5 -59.5t223.5 -163t147 -238t52 -285.5t-51.5 -283.5t-145.5 -233.5t-222.5 -158t-283.5 -57q-158 0 -287 57.5
t-221.5 159t-142.5 235t-50 286.5q0 149 52.5 282t147 236.5t222 162.5t278.5 59zM754 1248q-148 0 -261.5 -77t-178 -203.5t-64.5 -276.5q0 -102 39 -195t108 -165.5t159.5 -114t193.5 -41.5t194.5 43t162 116t110.5 164.5t40 187.5q0 155 -67.5 282.5t-181.5 203.5
t-254 76z" />
    <glyph glyph-name="Oacute" unicode="&#xd3;" horiz-adv-x="1503" 
d="M1061 2011q46 0 73 -32t27 -70q0 -39 -28 -68l-324 -300q-40 -43 -76 -43q-25 0 -47 22t-22 46q0 35 40 75l284 338q29 32 73 32zM750 1451q153 0 281.5 -59.5t223.5 -163t147 -238t52 -285.5t-51.5 -283.5t-145.5 -233.5t-222.5 -158t-283.5 -57q-158 0 -287 57.5
t-221.5 159t-142.5 235t-50 286.5q0 149 52.5 282t147 236.5t222 162.5t278.5 59zM754 1248q-148 0 -261.5 -77t-178 -203.5t-64.5 -276.5q0 -102 39 -195t108 -165.5t159.5 -114t193.5 -41.5t194.5 43t162 116t110.5 164.5t40 187.5q0 155 -67.5 282.5t-181.5 203.5
t-254 76z" />
    <glyph glyph-name="Ocircumflex" unicode="&#xd4;" horiz-adv-x="1503" 
d="M672 2002q12 12 32.5 21t38.5 9q39 0 69 -28l317 -303q14 -12 23 -34t9 -40q0 -41 -29.5 -70.5t-70.5 -29.5t-70 29l-246 236l-234 -237q-29 -31 -72 -31q-41 0 -70.5 29.5t-29.5 70.5t30 71zM750 1451q153 0 281.5 -59.5t223.5 -163t147 -238t52 -285.5t-51.5 -283.5
t-145.5 -233.5t-222.5 -158t-283.5 -57q-158 0 -287 57.5t-221.5 159t-142.5 235t-50 286.5q0 149 52.5 282t147 236.5t222 162.5t278.5 59zM754 1248q-148 0 -261.5 -77t-178 -203.5t-64.5 -276.5q0 -102 39 -195t108 -165.5t159.5 -114t193.5 -41.5t194.5 43t162 116
t110.5 164.5t40 187.5q0 155 -67.5 282.5t-181.5 203.5t-254 76z" />
    <glyph glyph-name="Otilde" unicode="&#xd5;" horiz-adv-x="1503" 
d="M962 1794q0 6 -1.5 12.5t-1.5 12.5q0 41 29.5 70.5t70.5 29.5h1q50 0 76 -37t26 -91q0 -67 -34 -123t-90 -89.5t-122 -33.5q-70 0 -118 26.5t-86 62.5t-79 62q-26 17 -43 17q-22 0 -36.5 -14.5t-14.5 -35.5q0 -4 0.5 -8t0.5 -8q0 -41 -29.5 -70.5t-70.5 -29.5
q-46 0 -73.5 34t-27.5 84q0 67 34 123t90.5 90.5t123.5 34.5q71 0 119 -27t86.5 -62.5t79.5 -62.5q25 -16 41 -16q21 0 35 14t14 35zM750 1451q153 0 281.5 -59.5t223.5 -163t147 -238t52 -285.5t-51.5 -283.5t-145.5 -233.5t-222.5 -158t-283.5 -57q-158 0 -287 57.5
t-221.5 159t-142.5 235t-50 286.5q0 149 52.5 282t147 236.5t222 162.5t278.5 59zM754 1248q-148 0 -261.5 -77t-178 -203.5t-64.5 -276.5q0 -102 39 -195t108 -165.5t159.5 -114t193.5 -41.5t194.5 43t162 116t110.5 164.5t40 187.5q0 155 -67.5 282.5t-181.5 203.5
t-254 76z" />
    <glyph glyph-name="Odieresis" unicode="&#xd6;" horiz-adv-x="1503" 
d="M898.106 1545.05q-50.751 0 -88.4414 35.4521q-37.6895 35.4521 -37.6895 86.4141q0 50.9629 37.6895 86.0459q37.6904 35.083 88.4414 35.083t88.8145 -35.083t38.0635 -86.0459q0 -50.9619 -38.0635 -86.4141t-88.8145 -35.4521zM601.106 1545.05
q-50.751 0 -88.4414 35.4521q-37.6895 35.4521 -37.6895 86.4141q0 50.9629 37.6895 86.0459q37.6904 35.083 88.4414 35.083t88.8145 -35.083t38.0635 -86.0459q0 -50.9619 -38.0635 -86.4141t-88.8145 -35.4521zM750 1451q153 0 281.5 -59.5t223.5 -163t147 -238
t52 -285.5t-51.5 -283.5t-145.5 -233.5t-222.5 -158t-283.5 -57q-158 0 -287 57.5t-221.5 159t-142.5 235t-50 286.5q0 149 52.5 282t147 236.5t222 162.5t278.5 59zM754 1248q-148 0 -261.5 -77t-178 -203.5t-64.5 -276.5q0 -102 39 -195t108 -165.5t159.5 -114
t193.5 -41.5t194.5 43t162 116t110.5 164.5t40 187.5q0 155 -67.5 282.5t-181.5 203.5t-254 76z" />
    <glyph glyph-name="multiply" unicode="&#xd7;" horiz-adv-x="940" 
d="M807 879l1 -2q29 -29 29 -70.5t-29 -70.5l-1 -1l-196 -202l200 -200q29 -29 29 -71t-29 -71t-71 -29t-71 29l-198 199l-198 -202l-2 -2q-29 -29 -71 -29t-71 29t-29 70.5t29 70.5l200 204l-199 200q-29 29 -29 70.5t29 70.5t70.5 29t70.5 -29l198 -198l195 201l3 2
q29 29 70 29.5t70 -27.5z" />
    <glyph glyph-name="Oslash" unicode="&#xd8;" horiz-adv-x="1663" 
d="M1368 1469q32 0 46.5 -22t14.5 -53q0 -72 -57 -153l-34 -48q108 -107 166.5 -244.5t58.5 -281.5q0 -100 -30 -198.5t-93 -188.5q-102 -147 -252.5 -219.5t-313.5 -72.5q-170 0 -328 74l-29 -41q-36 -52 -80 -82.5t-80 -30.5q-31 0 -45.5 21.5t-14.5 52.5q0 72 56 153
l24 33q-133 109 -205 256t-72 305q0 101 31.5 202.5t97.5 195.5q105 151 252 224.5t306 73.5q204 0 392 -111l29 42q37 52 81 82.5t79 30.5zM395 1012q-43 -62 -63.5 -133t-20.5 -144q0 -116 47 -224.5t131 -180.5l576 821q-119 67 -259 67q-119 0 -229 -52t-182 -154z
M1272 393q45 64 66 133t21 140q0 96 -36.5 188t-103.5 169l-555 -793q101 -38 205 -38q119 0 226 51t177 150z" />
    <glyph glyph-name="Ugrave" unicode="&#xd9;" horiz-adv-x="1326" 
d="M240 1896q0 46 32 73t69 27q38 0 69 -29l300 -323q43 -40 43 -76q0 -25 -22 -47t-46 -22q-35 0 -75 40l-338 284q-32 29 -32 73zM75 1336q0 38 28.5 68t66.5 30q47 0 75.5 -25.5t29.5 -72.5l7 -723q2 -216 87 -341t282 -125q146 0 234 57t127 159t39 235l-2 739v1
q0 41 29 69.5t70 28.5t71 -28.5t30 -69.5v-1l2 -739q0 -300 -148.5 -475t-447.5 -175q-193 0 -319 85.5t-189 235t-65 341.5l-7 725v1z" />
    <glyph glyph-name="Uacute" unicode="&#xda;" horiz-adv-x="1326" 
d="M923 1999q46 0 73 -32t27 -70q0 -39 -28 -68l-324 -300q-40 -43 -76 -43q-25 0 -47 22t-22 46q0 35 40 75l284 338q29 32 73 32zM75 1336q0 38 28.5 68t66.5 30q47 0 75.5 -25.5t29.5 -72.5l7 -723q2 -216 87 -341t282 -125q146 0 234 57t127 159t39 235l-2 739v1
q0 41 29 69.5t70 28.5t71 -28.5t30 -69.5v-1l2 -739q0 -300 -148.5 -475t-447.5 -175q-193 0 -319 85.5t-189 235t-65 341.5l-7 725v1z" />
    <glyph glyph-name="Ucircumflex" unicode="&#xdb;" horiz-adv-x="1326" 
d="M604 1988q12 12 32.5 21t38.5 9q39 0 69 -28l317 -303q14 -12 23 -34t9 -40q0 -41 -29.5 -70.5t-70.5 -29.5t-70 29l-246 236l-234 -237q-29 -31 -72 -31q-41 0 -70.5 29.5t-29.5 70.5t30 71zM75 1336q0 38 28.5 68t66.5 30q47 0 75.5 -25.5t29.5 -72.5l7 -723
q2 -216 87 -341t282 -125q146 0 234 57t127 159t39 235l-2 739v1q0 41 29 69.5t70 28.5t71 -28.5t30 -69.5v-1l2 -739q0 -300 -148.5 -475t-447.5 -175q-193 0 -319 85.5t-189 235t-65 341.5l-7 725v1z" />
    <glyph glyph-name="Udieresis" unicode="&#xdc;" horiz-adv-x="1326" 
d="M761.106 1560.05q-50.751 0 -88.4414 35.4521q-37.6895 35.4521 -37.6895 86.4141q0 50.9629 37.6895 86.0459q37.6904 35.083 88.4414 35.083t88.8145 -35.083t38.0635 -86.0459q0 -50.9619 -38.0635 -86.4141t-88.8145 -35.4521zM464.106 1560.05
q-50.751 0 -88.4414 35.4521q-37.6895 35.4521 -37.6895 86.4141q0 50.9629 37.6895 86.0459q37.6904 35.083 88.4414 35.083t88.8145 -35.083t38.0635 -86.0459q0 -50.9619 -38.0635 -86.4141t-88.8145 -35.4521zM75 1336q0 38 28.5 68t66.5 30q47 0 75.5 -25.5t29.5 -72.5
l7 -723q2 -216 87 -341t282 -125q146 0 234 57t127 159t39 235l-2 739v1q0 41 29 69.5t70 28.5t71 -28.5t30 -69.5v-1l2 -739q0 -300 -148.5 -475t-447.5 -175q-193 0 -319 85.5t-189 235t-65 341.5l-7 725v1z" />
    <glyph glyph-name="Yacute" unicode="&#xdd;" horiz-adv-x="1129" 
d="M877 1993q46 0 73 -32t27 -70q0 -39 -28 -68l-324 -300q-40 -43 -76 -43q-25 0 -47 22t-22 46q0 35 40 75l284 338q29 32 73 32zM25 1363q0 41 33 67t73 26q52 0 80 -48l357 -615l349 609q10 16 32.5 31t46.5 15q23 0 41.5 -4.5t38.5 -25.5q28 -30 28 -63q0 -32 -15 -57
l-425 -722l-7 -498q0 -40 -29.5 -68.5t-70.5 -28.5t-70.5 28.5t-29.5 68.5v2l7 509l-423 717q-16 23 -16 57z" />
    <glyph glyph-name="Thorn" unicode="&#xde;" horiz-adv-x="1322" 
d="M201 -10q-41 0 -70.5 29.5t-29.5 70.5l-1 1251q0 38 28 69t67 31q46 0 75.5 -28.5t29.5 -71.5v-162l435 1q225 1 356 -111t131 -336q0 -144 -64 -239t-176 -142t-256 -49l-425 -4v-209q0 -41 -29.5 -70.5t-70.5 -29.5zM735 1030l-435 -1l1 -580l423 4q162 2 255.5 65.5
t93.5 211.5q0 164 -94 232t-244 68z" />
    <glyph glyph-name="germandbls" unicode="&#xdf;" horiz-adv-x="1323" 
d="M885 1422q65 -19 131 -57t110 -99t44 -150q0 -84 -44 -145t-93 -99q-61 -46 -117.5 -70t-104.5 -56q2 -1 14 -5q64 -23 127.5 -38t121.5 -39t107 -75q45 -46 66 -104t21 -119q0 -125 -76 -225q-68 -89 -176.5 -139.5t-253.5 -50.5q-140 0 -266 51q-24 9 -40.5 33.5
t-16.5 50.5q0 37 26 63.5t64 26.5q19 0 35 -7q95 -39 201 -39q100 0 177 36q54 24 100.5 75t46.5 122q0 60 -30 94t-77.5 52.5t-102.5 30.5t-106 27.5t-87 45.5q-25 19 -45.5 54t-20.5 78q0 26 10 52q21 57 66.5 90.5t100 57.5t103 51t75.5 72q16 26 16 48v4q0 22 -14 42
t-29 33q-42 33 -120 55.5t-154 22.5q-133 0 -218.5 -72t-113.5 -179q-19 -74 -17 -172l19 -788v-3q0 -38 -26.5 -64t-63.5 -26t-63.5 26t-26.5 63q-6 246 -9.5 397.5t-5.5 232.5t-3 114t-1 40v14q0 50 4.5 103.5t18.5 108.5q28 106 97 193.5t172 140t235 52.5h7q53 0 105 -9
t100 -23h1z" />
    <glyph glyph-name="agrave" unicode="&#xe0;" horiz-adv-x="1276" 
d="M593 1547q0 46 32 73t69 27q38 0 69 -29l300 -323q43 -40 43 -76q0 -25 -22 -47t-46 -22q-35 0 -75 40l-338 284q-32 29 -32 73zM623 1100q74 0 144.5 -29.5t126 -74t82.5 -91.5l11 96q0 41 24 70.5t65 29.5t70.5 -29.5t29.5 -70.5v-2l-2 -926q0 -41 -29.5 -70.5
t-70.5 -29.5t-65 29.5t-24 70.5l-11 80q-52 -89 -152 -132.5t-201 -43.5q-113 0 -212 44.5t-174 122.5t-117.5 179t-42.5 213q0 111 41.5 212.5t116 181t174 125t216.5 45.5zM968 538q0 98 -45.5 180t-123.5 132t-178 50q-98 0 -177 -50t-125 -132.5t-46 -178.5
q0 -97 47 -179.5t126.5 -132.5t175.5 -50t174.5 50t125 132.5t46.5 178.5z" />
    <glyph glyph-name="aacute" unicode="&#xe1;" horiz-adv-x="1276" 
d="M837 1690q46 0 73 -32t27 -70q0 -39 -28 -68l-324 -300q-40 -43 -76 -43q-25 0 -47 22t-22 46q0 35 40 75l284 338q29 32 73 32zM623 1100q74 0 144.5 -29.5t126 -74t82.5 -91.5l11 96q0 41 24 70.5t65 29.5t70.5 -29.5t29.5 -70.5v-2l-2 -926q0 -41 -29.5 -70.5
t-70.5 -29.5t-65 29.5t-24 70.5l-11 80q-52 -89 -152 -132.5t-201 -43.5q-113 0 -212 44.5t-174 122.5t-117.5 179t-42.5 213q0 111 41.5 212.5t116 181t174 125t216.5 45.5zM968 538q0 98 -45.5 180t-123.5 132t-178 50q-98 0 -177 -50t-125 -132.5t-46 -178.5
q0 -97 47 -179.5t126.5 -132.5t175.5 -50t174.5 50t125 132.5t46.5 178.5z" />
    <glyph glyph-name="acircumflex" unicode="&#xe2;" horiz-adv-x="1276" 
d="M626 1655q12 12 32.5 21t38.5 9q39 0 69 -28l317 -303q14 -12 23 -34t9 -40q0 -41 -29.5 -70.5t-70.5 -29.5t-70 29l-246 236l-234 -237q-29 -31 -72 -31q-41 0 -70.5 29.5t-29.5 70.5t30 71zM623 1100q74 0 144.5 -29.5t126 -74t82.5 -91.5l11 96q0 41 24 70.5t65 29.5
t70.5 -29.5t29.5 -70.5v-2l-2 -926q0 -41 -29.5 -70.5t-70.5 -29.5t-65 29.5t-24 70.5l-11 80q-52 -89 -152 -132.5t-201 -43.5q-113 0 -212 44.5t-174 122.5t-117.5 179t-42.5 213q0 111 41.5 212.5t116 181t174 125t216.5 45.5zM968 538q0 98 -45.5 180t-123.5 132
t-178 50q-98 0 -177 -50t-125 -132.5t-46 -178.5q0 -97 47 -179.5t126.5 -132.5t175.5 -50t174.5 50t125 132.5t46.5 178.5z" />
    <glyph glyph-name="atilde" unicode="&#xe3;" horiz-adv-x="1276" 
d="M910 1426q0 6 -1.5 12.5t-1.5 12.5q0 41 29.5 70.5t70.5 29.5h1q50 0 76 -37t26 -91q0 -67 -34 -123t-90 -89.5t-122 -33.5q-70 0 -118 26.5t-86 62.5t-79 62q-26 17 -43 17q-22 0 -36.5 -14.5t-14.5 -35.5q0 -4 0.5 -8t0.5 -8q0 -41 -29.5 -70.5t-70.5 -29.5
q-46 0 -73.5 34t-27.5 84q0 67 34 123t90.5 90.5t123.5 34.5q71 0 119 -27t86.5 -62.5t79.5 -62.5q25 -16 41 -16q21 0 35 14t14 35zM623 1100q74 0 144.5 -29.5t126 -74t82.5 -91.5l11 96q0 41 24 70.5t65 29.5t70.5 -29.5t29.5 -70.5v-2l-2 -926q0 -41 -29.5 -70.5
t-70.5 -29.5t-65 29.5t-24 70.5l-11 80q-52 -89 -152 -132.5t-201 -43.5q-113 0 -212 44.5t-174 122.5t-117.5 179t-42.5 213q0 111 41.5 212.5t116 181t174 125t216.5 45.5zM968 538q0 98 -45.5 180t-123.5 132t-178 50q-98 0 -177 -50t-125 -132.5t-46 -178.5
q0 -97 47 -179.5t126.5 -132.5t175.5 -50t174.5 50t125 132.5t46.5 178.5z" />
    <glyph glyph-name="adieresis" unicode="&#xe4;" horiz-adv-x="1276" 
d="M837.106 1186.05q-50.751 0 -88.4414 35.4521q-37.6895 35.4521 -37.6895 86.4141q0 50.9629 37.6895 86.0459q37.6904 35.083 88.4414 35.083t88.8145 -35.083t38.0635 -86.0459q0 -50.9619 -38.0635 -86.4141t-88.8145 -35.4521zM540.106 1186.05
q-50.751 0 -88.4414 35.4521q-37.6895 35.4521 -37.6895 86.4141q0 50.9629 37.6895 86.0459q37.6904 35.083 88.4414 35.083t88.8145 -35.083t38.0635 -86.0459q0 -50.9619 -38.0635 -86.4141t-88.8145 -35.4521zM623 1100q74 0 144.5 -29.5t126 -74t82.5 -91.5l11 96
q0 41 24 70.5t65 29.5t70.5 -29.5t29.5 -70.5v-2l-2 -926q0 -41 -29.5 -70.5t-70.5 -29.5t-65 29.5t-24 70.5l-11 80q-52 -89 -152 -132.5t-201 -43.5q-113 0 -212 44.5t-174 122.5t-117.5 179t-42.5 213q0 111 41.5 212.5t116 181t174 125t216.5 45.5zM968 538
q0 98 -45.5 180t-123.5 132t-178 50q-98 0 -177 -50t-125 -132.5t-46 -178.5q0 -97 47 -179.5t126.5 -132.5t175.5 -50t174.5 50t125 132.5t46.5 178.5z" />
    <glyph glyph-name="aring" unicode="&#xe5;" horiz-adv-x="1251" 
d="M623 1100q74 0 144.5 -29.5t126 -74t82.5 -91.5l11 96q0 41 24 70.5t65 29.5t70.5 -29.5t29.5 -70.5v-2l-2 -926q0 -41 -29.5 -70.5t-70.5 -29.5t-65 29.5t-24 70.5l-11 80q-52 -89 -152 -132.5t-201 -43.5q-113 0 -212 44.5t-174 122.5t-117.5 179t-42.5 213
q0 111 41.5 212.5t116 181t174 125t216.5 45.5zM968 538q0 98 -45.5 180t-123.5 132t-178 50q-98 0 -177 -50t-125 -132.5t-46 -178.5q0 -97 47 -179.5t126.5 -132.5t175.5 -50t174.5 50t125 132.5t46.5 178.5zM686.753 1805.1q69.4707 0 125.047 -34.4512t87.8799 -91.1738
q32.3027 -56.7227 32.3027 -124.233q0 -68.9023 -32.998 -125.973t-89.2695 -91.1738q-56.2705 -34.1035 -126.436 -34.1035q-65.9961 0 -122.962 32.0156q-56.9658 32.0146 -91.3535 86.3018t-34.3877 121.102q0 73.0781 31.2617 132.585q31.2617 59.5059 88.2266 94.3057
q56.9658 34.7988 132.688 34.7988zM800.685 1555.94q0 45.2393 -34.041 80.7344q-34.04 35.4951 -81.9746 35.4951q-48.6289 0 -83.7119 -36.1914q-35.082 -36.1914 -35.082 -82.8223q0 -45.9346 35.082 -81.082q35.083 -35.1465 81.6279 -35.1465
q51.4082 0 84.7539 34.7988t33.3457 84.2139z" />
    <glyph glyph-name="ae" unicode="&#xe6;" horiz-adv-x="2040" 
d="M1066 1076h1q42 0 71 -30t29 -72v-4q133 99 296 102h27q102 -4 194.5 -48t158.5 -121q67 -77 98.5 -174t21.5 -199q-4 -37 -33 -63.5t-67 -26.5l-697 -1q24 -85 81 -147q90 -98 221 -110q79 -7 158 26.5t129 94.5q30 38 79 38q41 0 70.5 -29.5t29.5 -70.5q0 -37 -24 -65
q-83 -102 -206 -153.5t-254 -39.5q-158 14 -285 113v-29q0 -41 -29.5 -70.5t-70.5 -29.5q-42 0 -71 30t-29 72v47q-75 -65 -169 -99.5t-194 -32.5q-108 2 -206.5 46.5t-171.5 122.5q-74 77 -112.5 177.5t-36.5 206.5q2 112 47.5 215t127.5 179q150 138 353 143q28 0 56 -2
q175 -15 308 -132v31.5v4.5q0 41 29 70.5t70 29.5zM617 874q-134 0 -231 -90q-51 -47 -80.5 -113.5t-30.5 -136.5q-1 -66 24 -131t70 -113t108.5 -76.5t128.5 -29.5q64 -1 127 23.5t110 68.5q101 94 109 233q8 140 -82 246q-46 54 -114 86.5t-139 32.5zM1245 772
q-52 -55 -76 -133l589 1q-17 76 -65 132q-39 44 -95.5 71t-114.5 29q-71 0 -133 -27t-105 -73z" />
    <glyph glyph-name="ccedilla" unicode="&#xe7;" horiz-adv-x="1098" 
d="M577 -536q68 0 121.5 41t53.5 107q0 67 -52 106t-113 39q-55 0 -100 -33q-27 -20 -60 -20q-41 0 -70.5 29.5t-29.5 70.5q0 29 17 55l162 247q12 19 36.5 33t47.5 14q41 0 70.5 -29.5t29.5 -70.5q0 -30 -17 -56l-28 -43q82 -12 151.5 -57.5t112 -117t42.5 -164.5
q0 -99 -50 -178.5t-134 -126t-187 -46.5q-102 0 -177.5 39.5t-127.5 100.5q-25 29 -25 66q0 41 29.5 70.5t70.5 29.5q45 0 76 -36q24 -28 63 -49t88 -21zM60 539q0 111 39 211t110 178t165.5 123t205.5 45q110 0 199.5 -42.5t154 -112t96.5 -151.5q7 -17 7 -38
q0 -41 -29.5 -70.5t-70.5 -29.5q-28 0 -55 19t-38 46q-28 72 -97.5 125.5t-166.5 53.5q-91 0 -163.5 -50.5t-114.5 -131.5t-42 -175q0 -95 43 -178.5t118 -135t169 -51.5q92 0 159 46.5t101 108.5q12 22 38 37.5t51 15.5q41 0 70.5 -29.5t29.5 -70.5q0 -25 -13 -49
q-57 -105 -170 -182t-266 -77q-114 0 -210.5 45.5t-168 124.5t-111.5 180.5t-40 214.5z" />
    <glyph glyph-name="egrave" unicode="&#xe8;" horiz-adv-x="1131" 
d="M81 1540q0 46 32 73t69 27q38 0 69 -29l300 -323q43 -40 43 -76q0 -25 -22 -47t-46 -22q-35 0 -75 40l-338 284q-32 29 -32 73zM582 1092q133 0 244 -66t178.5 -177.5t67.5 -247.5q0 -28 -3 -57q-4 -37 -33.5 -62.5t-66.5 -25.5l-699 -1q17 -72 64 -135t114.5 -102
t147.5 -39q86 0 154 42t106 97q12 19 36.5 32t46.5 13q41 0 70.5 -30t29.5 -71q0 -32 -18 -57q-62 -91 -170.5 -157.5t-251.5 -66.5q-115 0 -213.5 45t-171.5 123t-113.5 179.5t-40.5 214.5q0 109 40 207.5t111.5 175.5t166.5 121.5t204 44.5zM866 656q-19 98 -98 167
t-186 69q-109 0 -192.5 -71t-112.5 -166z" />
    <glyph glyph-name="eacute" unicode="&#xe9;" horiz-adv-x="1131" 
d="M854 1656q46 0 73 -32t27 -70q0 -39 -28 -68l-324 -300q-40 -43 -76 -43q-25 0 -47 22t-22 46q0 35 40 75l284 338q29 32 73 32zM582 1092q133 0 244 -66t178.5 -177.5t67.5 -247.5q0 -28 -3 -57q-4 -37 -33.5 -62.5t-66.5 -25.5l-699 -1q17 -72 64 -135t114.5 -102
t147.5 -39q86 0 154 42t106 97q12 19 36.5 32t46.5 13q41 0 70.5 -30t29.5 -71q0 -32 -18 -57q-62 -91 -170.5 -157.5t-251.5 -66.5q-115 0 -213.5 45t-171.5 123t-113.5 179.5t-40.5 214.5q0 109 40 207.5t111.5 175.5t166.5 121.5t204 44.5zM866 656q-19 98 -98 167
t-186 69q-109 0 -192.5 -71t-112.5 -166z" />
    <glyph glyph-name="ecircumflex" unicode="&#xea;" horiz-adv-x="1131" 
d="M447 1621q12 12 32.5 21t38.5 9q39 0 69 -28l317 -303q14 -12 23 -34t9 -40q0 -41 -29.5 -70.5t-70.5 -29.5t-70 29l-246 236l-234 -237q-29 -31 -72 -31q-41 0 -70.5 29.5t-29.5 70.5t30 71zM582 1092q133 0 244 -66t178.5 -177.5t67.5 -247.5q0 -28 -3 -57
q-4 -37 -33.5 -62.5t-66.5 -25.5l-699 -1q17 -72 64 -135t114.5 -102t147.5 -39q86 0 154 42t106 97q12 19 36.5 32t46.5 13q41 0 70.5 -30t29.5 -71q0 -32 -18 -57q-62 -91 -170.5 -157.5t-251.5 -66.5q-115 0 -213.5 45t-171.5 123t-113.5 179.5t-40.5 214.5
q0 109 40 207.5t111.5 175.5t166.5 121.5t204 44.5zM866 656q-19 98 -98 167t-186 69q-109 0 -192.5 -71t-112.5 -166z" />
    <glyph glyph-name="edieresis" unicode="&#xeb;" horiz-adv-x="1131" 
d="M674.106 1143.05q-50.751 0 -88.4414 35.4521q-37.6895 35.4521 -37.6895 86.4141q0 50.9629 37.6895 86.0459q37.6904 35.083 88.4414 35.083t88.8145 -35.083t38.0635 -86.0459q0 -50.9619 -38.0635 -86.4141t-88.8145 -35.4521zM377.106 1143.05
q-50.751 0 -88.4414 35.4521q-37.6895 35.4521 -37.6895 86.4141q0 50.9629 37.6895 86.0459q37.6904 35.083 88.4414 35.083t88.8145 -35.083t38.0635 -86.0459q0 -50.9619 -38.0635 -86.4141t-88.8145 -35.4521zM582 1092q133 0 244 -66t178.5 -177.5t67.5 -247.5
q0 -28 -3 -57q-4 -37 -33.5 -62.5t-66.5 -25.5l-699 -1q17 -72 64 -135t114.5 -102t147.5 -39q86 0 154 42t106 97q12 19 36.5 32t46.5 13q41 0 70.5 -30t29.5 -71q0 -32 -18 -57q-62 -91 -170.5 -157.5t-251.5 -66.5q-115 0 -213.5 45t-171.5 123t-113.5 179.5t-40.5 214.5
q0 109 40 207.5t111.5 175.5t166.5 121.5t204 44.5zM866 656q-19 98 -98 167t-186 69q-109 0 -192.5 -71t-112.5 -166z" />
    <glyph glyph-name="igrave" unicode="&#xec;" horiz-adv-x="392" 
d="M-250 1612q0 46 32 73t69 27q38 0 69 -29l300 -323q43 -40 43 -76q0 -25 -22 -47t-46 -22q-35 0 -75 40l-338 284q-32 29 -32 73zM95 1007q0 38 32 62t62 24q44 0 75 -26t31 -69v-1l2 -922q0 -40 -29.5 -68t-70.5 -28q-42 0 -71 28.5t-29 68.5z" />
    <glyph glyph-name="iacute" unicode="&#xed;" horiz-adv-x="392" 
d="M523 1728q46 0 73 -32t27 -70q0 -39 -28 -68l-324 -300q-40 -43 -76 -43q-25 0 -47 22t-22 46q0 35 40 75l284 338q29 32 73 32zM95 1007q0 38 32 62t62 24q44 0 75 -26t31 -69v-1l2 -922q0 -40 -29.5 -68t-70.5 -28q-42 0 -71 28.5t-29 68.5z" />
    <glyph glyph-name="icircumflex" unicode="&#xee;" horiz-adv-x="392" 
d="M117 1693q12 12 32.5 21t38.5 9q39 0 69 -28l317 -303q14 -12 23 -34t9 -40q0 -41 -29.5 -70.5t-70.5 -29.5t-70 29l-246 236l-234 -237q-29 -31 -72 -31q-41 0 -70.5 29.5t-29.5 70.5t30 71zM95 1007q0 38 32 62t62 24q44 0 75 -26t31 -69v-1l2 -922q0 -40 -29.5 -68
t-70.5 -28q-42 0 -71 28.5t-29 68.5z" />
    <glyph glyph-name="idieresis" unicode="&#xef;" horiz-adv-x="392" 
d="M343.106 1215.05q-50.751 0 -88.4414 35.4521q-37.6895 35.4521 -37.6895 86.4141q0 50.9629 37.6895 86.0459q37.6904 35.083 88.4414 35.083t88.8145 -35.083t38.0635 -86.0459q0 -50.9619 -38.0635 -86.4141t-88.8145 -35.4521zM46.1064 1215.05
q-50.751 0 -88.4414 35.4521q-37.6895 35.4521 -37.6895 86.4141q0 50.9629 37.6895 86.0459q37.6904 35.083 88.4414 35.083t88.8145 -35.083t38.0635 -86.0459q0 -50.9619 -38.0635 -86.4141t-88.8145 -35.4521zM95 1007q0 38 32 62t62 24q44 0 75 -26t31 -69v-1l2 -922
q0 -40 -29.5 -68t-70.5 -28q-42 0 -71 28.5t-29 68.5z" />
    <glyph glyph-name="eth" unicode="&#xf0;" horiz-adv-x="1277" 
d="M520 1169q0 20 9.5 38t18.5 31q-33 5 -68 5q-118 0 -215 -51q-20 -11 -43 -11q-37 0 -63.5 26.5t-26.5 63.5q0 23 14.5 47t35.5 34q140 72 297 72q91 0 181 -25l17 24q12 16 33 28t41 12q38 0 64 -26t26 -64q0 -27 -14 -48q98 -61 177.5 -160.5t126 -228t46.5 -275.5
q0 -180 -64 -332.5t-187.5 -244.5t-300.5 -92q-211 0 -364 148q-80 78 -120.5 179.5t-40.5 208.5q0 103 38.5 202.5t115.5 176.5q73 74 170 114.5t201 40.5h4h3q77 -1 150 -24.5t136 -66.5q-34 64 -83 117t-110 89l-41 -58q-12 -16 -33 -28t-41 -12q-37 0 -63.5 26.5
t-26.5 63.5zM625 882q-67 0 -131.5 -27.5t-111.5 -74.5q-51 -51 -76.5 -117.5t-25.5 -135.5q0 -71 26.5 -138.5t79.5 -119.5q50 -49 112 -72.5t126 -23.5q70 0 136.5 27.5t115.5 80.5q41 45 68.5 106.5t27.5 140.5q0 96 -46.5 176.5t-125.5 129t-175 48.5z" />
    <glyph glyph-name="ntilde" unicode="&#xf1;" horiz-adv-x="1086" 
d="M747 1396q0 6 -1.5 12.5t-1.5 12.5q0 41 29.5 70.5t70.5 29.5h1q50 0 76 -37t26 -91q0 -67 -34 -123t-90 -89.5t-122 -33.5q-70 0 -118 26.5t-86 62.5t-79 62q-26 17 -43 17q-22 0 -36.5 -14.5t-14.5 -35.5q0 -4 0.5 -8t0.5 -8q0 -41 -29.5 -70.5t-70.5 -29.5
q-46 0 -73.5 34t-27.5 84q0 67 34 123t90.5 90.5t123.5 34.5q71 0 119 -27t86.5 -62.5t79.5 -62.5q25 -16 41 -16q21 0 35 14t14 35zM295 937q54 53 129.5 105t175.5 52q131 0 218 -69.5t128 -161.5q32 -73 38.5 -144.5t6.5 -134.5v-505q0 -41 -29.5 -70.5t-70.5 -29.5
t-70.5 29.5t-29.5 70.5v505q0 59 -5.5 109t-22.5 88q-19 44 -59 78.5t-102 34.5q-148 0 -227.5 -113t-78.5 -305l1 -399q0 -41 -29.5 -70.5t-70.5 -29.5q-42 0 -71 29.5t-29 71.5l-2 919q0 41 22.5 70.5t63.5 29.5t63 -29.5t34 -70.5z" />
    <glyph glyph-name="ograve" unicode="&#xf2;" horiz-adv-x="1196" 
d="M134 1537q0 46 32 73t69 27q38 0 69 -29l300 -323q43 -40 43 -76q0 -25 -22 -47t-46 -22q-35 0 -75 40l-338 284q-32 29 -32 73zM598 1095q115 0 214.5 -44t174.5 -122t117.5 -179t42.5 -215q0 -112 -43 -212.5t-118.5 -177t-175 -120.5t-212.5 -44q-112 0 -211.5 43
t-175 119t-118.5 176.5t-43 215.5q0 114 43 215t118.5 178.5t174.5 122t212 44.5zM252 533q0 -97 47.5 -176.5t126.5 -126.5t173 -47q96 0 174.5 48.5t125 128.5t46.5 175q0 97 -46 178.5t-124.5 130.5t-176.5 49q-99 0 -177 -49.5t-123.5 -131t-45.5 -179.5z" />
    <glyph glyph-name="oacute" unicode="&#xf3;" horiz-adv-x="1196" 
d="M907 1653q46 0 73 -32t27 -70q0 -39 -28 -68l-324 -300q-40 -43 -76 -43q-25 0 -47 22t-22 46q0 35 40 75l284 338q29 32 73 32zM598 1095q115 0 214.5 -44t174.5 -122t117.5 -179t42.5 -215q0 -112 -43 -212.5t-118.5 -177t-175 -120.5t-212.5 -44q-112 0 -211.5 43
t-175 119t-118.5 176.5t-43 215.5q0 114 43 215t118.5 178.5t174.5 122t212 44.5zM252 533q0 -97 47.5 -176.5t126.5 -126.5t173 -47q96 0 174.5 48.5t125 128.5t46.5 175q0 97 -46 178.5t-124.5 130.5t-176.5 49q-99 0 -177 -49.5t-123.5 -131t-45.5 -179.5z" />
    <glyph glyph-name="ocircumflex" unicode="&#xf4;" horiz-adv-x="1196" 
d="M501 1618q12 12 32.5 21t38.5 9q39 0 69 -28l317 -303q14 -12 23 -34t9 -40q0 -41 -29.5 -70.5t-70.5 -29.5t-70 29l-246 236l-234 -237q-29 -31 -72 -31q-41 0 -70.5 29.5t-29.5 70.5t30 71zM598 1095q115 0 214.5 -44t174.5 -122t117.5 -179t42.5 -215
q0 -112 -43 -212.5t-118.5 -177t-175 -120.5t-212.5 -44q-112 0 -211.5 43t-175 119t-118.5 176.5t-43 215.5q0 114 43 215t118.5 178.5t174.5 122t212 44.5zM252 533q0 -97 47.5 -176.5t126.5 -126.5t173 -47q96 0 174.5 48.5t125 128.5t46.5 175q0 97 -46 178.5
t-124.5 130.5t-176.5 49q-99 0 -177 -49.5t-123.5 -131t-45.5 -179.5z" />
    <glyph glyph-name="otilde" unicode="&#xf5;" horiz-adv-x="1196" 
d="M791 1389q0 6 -1.5 12.5t-1.5 12.5q0 41 29.5 70.5t70.5 29.5h1q50 0 76 -37t26 -91q0 -67 -34 -123t-90 -89.5t-122 -33.5q-70 0 -118 26.5t-86 62.5t-79 62q-26 17 -43 17q-22 0 -36.5 -14.5t-14.5 -35.5q0 -4 0.5 -8t0.5 -8q0 -41 -29.5 -70.5t-70.5 -29.5
q-46 0 -73.5 34t-27.5 84q0 67 34 123t90.5 90.5t123.5 34.5q71 0 119 -27t86.5 -62.5t79.5 -62.5q25 -16 41 -16q21 0 35 14t14 35zM598 1095q115 0 214.5 -44t174.5 -122t117.5 -179t42.5 -215q0 -112 -43 -212.5t-118.5 -177t-175 -120.5t-212.5 -44q-112 0 -211.5 43
t-175 119t-118.5 176.5t-43 215.5q0 114 43 215t118.5 178.5t174.5 122t212 44.5zM252 533q0 -97 47.5 -176.5t126.5 -126.5t173 -47q96 0 174.5 48.5t125 128.5t46.5 175q0 97 -46 178.5t-124.5 130.5t-176.5 49q-99 0 -177 -49.5t-123.5 -131t-45.5 -179.5z" />
    <glyph glyph-name="odieresis" unicode="&#xf6;" horiz-adv-x="1196" 
d="M727.106 1140.05q-50.751 0 -88.4414 35.4521q-37.6895 35.4521 -37.6895 86.4141q0 50.9629 37.6895 86.0459q37.6904 35.083 88.4414 35.083t88.8145 -35.083t38.0635 -86.0459q0 -50.9619 -38.0635 -86.4141t-88.8145 -35.4521zM430.106 1140.05
q-50.751 0 -88.4414 35.4521q-37.6895 35.4521 -37.6895 86.4141q0 50.9629 37.6895 86.0459q37.6904 35.083 88.4414 35.083t88.8145 -35.083t38.0635 -86.0459q0 -50.9619 -38.0635 -86.4141t-88.8145 -35.4521zM598 1095q115 0 214.5 -44t174.5 -122t117.5 -179
t42.5 -215q0 -112 -43 -212.5t-118.5 -177t-175 -120.5t-212.5 -44q-112 0 -211.5 43t-175 119t-118.5 176.5t-43 215.5q0 114 43 215t118.5 178.5t174.5 122t212 44.5zM252 533q0 -97 47.5 -176.5t126.5 -126.5t173 -47q96 0 174.5 48.5t125 128.5t46.5 175q0 97 -46 178.5
t-124.5 130.5t-176.5 49q-99 0 -177 -49.5t-123.5 -131t-45.5 -179.5z" />
    <glyph glyph-name="divide" unicode="&#xf7;" horiz-adv-x="600" 
d="M200 648h763q41 0 70.5 -29.5t29.5 -70.5t-29.5 -70.5t-70.5 -29.5h-763q-41 0 -70.5 29.5t-29.5 70.5t29.5 70.5t70.5 29.5zM594 114q-51 0 -88.875 36t-37.875 87.75t37.875 87.375t88.875 35.625t89.25 -35.625t38.25 -87.375t-38.25 -87.75t-89.25 -36zM595 761
q-51 0 -88.875 36t-37.875 87.75t37.875 87.375t88.875 35.625t89.25 -35.625t38.25 -87.375t-38.25 -87.75t-89.25 -36z" />
    <glyph glyph-name="oslash" unicode="&#xf8;" horiz-adv-x="1305" 
d="M1110 206q-78 -111 -193 -169.5t-243.5 -61.5t-247.5 50l-30 -43q-35 -51 -85 -70.5t-83 4.5q-34 24 -32.5 77t36.5 104l30 42q-92 93 -132.5 215.5t-25 251t92.5 239.5q77 109 192 168t244 63t249 -52l12 18q36 51 85.5 70.5t83.5 -3.5q34 -24 32.5 -77t-37.5 -105
l-13 -19q90 -93 130.5 -215.5t25.5 -250t-91 -236.5zM362 728q-68 -97 -60.5 -214t79.5 -205l382 546q-109 38 -221.5 3.5t-179.5 -130.5zM944 322q69 98 61 213t-79 203l-381 -543q108 -36 219 -4t180 131z" />
    <glyph glyph-name="ugrave" unicode="&#xf9;" horiz-adv-x="1086" 
d="M90 1544q0 46 32 73t69 27q38 0 69 -29l300 -323q43 -40 43 -76q0 -25 -22 -47t-46 -22q-35 0 -75 40l-338 284q-32 29 -32 73zM792 135q-54 -53 -129.5 -105t-175.5 -52q-131 0 -218 69.5t-128 161.5q-32 73 -38.5 144.5t-6.5 134.5v505q0 41 29.5 70.5t70.5 29.5
t70.5 -29.5t29.5 -70.5v-505q0 -59 5.5 -109t22.5 -88q19 -44 59 -78.5t102 -34.5q148 0 227.5 113t78.5 305l-1 399q0 41 29.5 70.5t70.5 29.5q42 0 71 -29.5t29 -71.5l2 -919q0 -41 -22.5 -70.5t-63.5 -29.5t-63 29.5t-34 70.5z" />
    <glyph glyph-name="uacute" unicode="&#xfa;" horiz-adv-x="1086" 
d="M863 1660q46 0 73 -32t27 -70q0 -39 -28 -68l-324 -300q-40 -43 -76 -43q-25 0 -47 22t-22 46q0 35 40 75l284 338q29 32 73 32zM792 135q-54 -53 -129.5 -105t-175.5 -52q-131 0 -218 69.5t-128 161.5q-32 73 -38.5 144.5t-6.5 134.5v505q0 41 29.5 70.5t70.5 29.5
t70.5 -29.5t29.5 -70.5v-505q0 -59 5.5 -109t22.5 -88q19 -44 59 -78.5t102 -34.5q148 0 227.5 113t78.5 305l-1 399q0 41 29.5 70.5t70.5 29.5q42 0 71 -29.5t29 -71.5l2 -919q0 -41 -22.5 -70.5t-63.5 -29.5t-63 29.5t-34 70.5z" />
    <glyph glyph-name="ucircumflex" unicode="&#xfb;" horiz-adv-x="1086" 
d="M457 1625q12 12 32.5 21t38.5 9q39 0 69 -28l317 -303q14 -12 23 -34t9 -40q0 -41 -29.5 -70.5t-70.5 -29.5t-70 29l-246 236l-234 -237q-29 -31 -72 -31q-41 0 -70.5 29.5t-29.5 70.5t30 71zM792 135q-54 -53 -129.5 -105t-175.5 -52q-131 0 -218 69.5t-128 161.5
q-32 73 -38.5 144.5t-6.5 134.5v505q0 41 29.5 70.5t70.5 29.5t70.5 -29.5t29.5 -70.5v-505q0 -59 5.5 -109t22.5 -88q19 -44 59 -78.5t102 -34.5q148 0 227.5 113t78.5 305l-1 399q0 41 29.5 70.5t70.5 29.5q42 0 71 -29.5t29 -71.5l2 -919q0 -41 -22.5 -70.5t-63.5 -29.5
t-63 29.5t-34 70.5z" />
    <glyph glyph-name="udieresis" unicode="&#xfc;" horiz-adv-x="1086" 
d="M683.106 1147.05q-50.751 0 -88.4414 35.4521q-37.6895 35.4521 -37.6895 86.4141q0 50.9629 37.6895 86.0459q37.6904 35.083 88.4414 35.083t88.8145 -35.083t38.0635 -86.0459q0 -50.9619 -38.0635 -86.4141t-88.8145 -35.4521zM386.106 1147.05
q-50.751 0 -88.4414 35.4521q-37.6895 35.4521 -37.6895 86.4141q0 50.9629 37.6895 86.0459q37.6904 35.083 88.4414 35.083t88.8145 -35.083t38.0635 -86.0459q0 -50.9619 -38.0635 -86.4141t-88.8145 -35.4521zM792 135q-54 -53 -129.5 -105t-175.5 -52q-131 0 -218 69.5
t-128 161.5q-32 73 -38.5 144.5t-6.5 134.5v505q0 41 29.5 70.5t70.5 29.5t70.5 -29.5t29.5 -70.5v-505q0 -59 5.5 -109t22.5 -88q19 -44 59 -78.5t102 -34.5q148 0 227.5 113t78.5 305l-1 399q0 41 29.5 70.5t70.5 29.5q42 0 71 -29.5t29 -71.5l2 -919q0 -41 -22.5 -70.5
t-63.5 -29.5t-63 29.5t-34 70.5z" />
    <glyph glyph-name="yacute" unicode="&#xfd;" horiz-adv-x="1065" 
d="M829 1705q46 0 73 -32t27 -70q0 -39 -28 -68l-324 -300q-40 -43 -76 -43q-25 0 -47 22t-22 46q0 35 40 75l284 338q29 32 73 32zM125 1101q29 0 54.5 -17t36.5 -42l340 -773l291 766q11 27 36.5 45t56.5 18q41 0 70.5 -29.5t29.5 -70.5q0 -21 -8 -39l-368 -960
q-2 -13 -7 -23t-10 -18l-56 -140q-21 -52 -50 -110.5t-80 -110.5q-49 -51 -119.5 -86t-147.5 -35q-42 0 -71 30.5t-29 71.5q0 40 27.5 69.5t66.5 30.5q88 6 136 68.5t82 147.5l48 122l-420 942q-9 21 -9 43q0 41 29.5 70.5t70.5 29.5z" />
    <glyph glyph-name="thorn" unicode="&#xfe;" horiz-adv-x="1092" 
d="M100 1212q0 37 26 63.5t64 26.5q37 0 63.5 -27t26.5 -64l2 -250q54 37 107.5 56.5t137.5 19.5q137 0 241.5 -73t164 -191.5t59.5 -255.5q0 -142 -63 -264.5t-173 -198t-251 -75.5q-54 0 -109.5 15t-108.5 46l-6 -350q0 -37 -26 -63.5t-63 -26.5t-64 27t-27 64zM811 522
q0 85 -36 162t-100 125t-148 48q-63 0 -118 -26.5t-89 -72t-35 -101.5v-8t-0.5 -39.5t0 -107t1.5 -208.5q1 -43 34.5 -73t84 -46t102.5 -16q93 0 161.5 53.5t105.5 136.5t37 173z" />
    <glyph glyph-name="ydieresis" unicode="&#xff;" horiz-adv-x="1065" 
d="M677.106 1184.05q-50.751 0 -88.4414 35.4521q-37.6895 35.4521 -37.6895 86.4141q0 50.9629 37.6895 86.0459q37.6904 35.083 88.4414 35.083t88.8145 -35.083t38.0635 -86.0459q0 -50.9619 -38.0635 -86.4141t-88.8145 -35.4521zM380.106 1184.05
q-50.751 0 -88.4414 35.4521q-37.6895 35.4521 -37.6895 86.4141q0 50.9629 37.6895 86.0459q37.6904 35.083 88.4414 35.083t88.8145 -35.083t38.0635 -86.0459q0 -50.9619 -38.0635 -86.4141t-88.8145 -35.4521zM125 1101q29 0 54.5 -17t36.5 -42l340 -773l291 766
q11 27 36.5 45t56.5 18q41 0 70.5 -29.5t29.5 -70.5q0 -21 -8 -39l-368 -960q-2 -13 -7 -23t-10 -18l-56 -140q-21 -52 -50 -110.5t-80 -110.5q-49 -51 -119.5 -86t-147.5 -35q-42 0 -71 30.5t-29 71.5q0 40 27.5 69.5t66.5 30.5q88 6 136 68.5t82 147.5l48 122l-420 942
q-9 21 -9 43q0 41 29.5 70.5t70.5 29.5z" />
    <glyph glyph-name="Amacron" unicode="&#x100;" horiz-adv-x="1401" 
d="M608 1395q11 25 37.5 42.5t54.5 17.5q27 0 54.5 -17.5t37.5 -42.5l550 -1276q9 -20 9 -41q0 -41 -29.5 -70.5t-70.5 -29.5q-28 0 -55 18t-38 43l-171 397l-570 8l-175 -406q-10 -25 -37 -43.5t-55 -18.5q-41 0 -70.5 29.5t-29.5 70.5q0 21 9 41zM700 1102l-197 -459
l397 -5zM454 1772h763q41 0 70.5 -29.5t29.5 -70.5t-29.5 -70.5t-70.5 -29.5h-763q-41 0 -70.5 29.5t-29.5 70.5t29.5 70.5t70.5 29.5z" />
    <glyph glyph-name="amacron" unicode="&#x101;" horiz-adv-x="1251" 
d="M623 1100q74 0 144.5 -29.5t126 -74t82.5 -91.5l11 96q0 41 24 70.5t65 29.5t70.5 -29.5t29.5 -70.5v-2l-2 -926q0 -41 -29.5 -70.5t-70.5 -29.5t-65 29.5t-24 70.5l-11 80q-52 -89 -152 -132.5t-201 -43.5q-113 0 -212 44.5t-174 122.5t-117.5 179t-42.5 213
q0 111 41.5 212.5t116 181t174 125t216.5 45.5zM968 538q0 98 -45.5 180t-123.5 132t-178 50q-98 0 -177 -50t-125 -132.5t-46 -178.5q0 -97 47 -179.5t126.5 -132.5t175.5 -50t174.5 50t125 132.5t46.5 178.5zM454 1502h763q41 0 70.5 -29.5t29.5 -70.5t-29.5 -70.5
t-70.5 -29.5h-763q-41 0 -70.5 29.5t-29.5 70.5t29.5 70.5t70.5 29.5z" />
    <glyph glyph-name="Cacute" unicode="&#x106;" horiz-adv-x="1430" 
d="M1054 2069q46 0 73 -32t27 -70q0 -39 -28 -68l-324 -300q-40 -43 -76 -43q-25 0 -47 22t-22 46q0 35 40 75l284 338q29 32 73 32zM1286 531q36 0 65.5 -28.5t29.5 -63.5q0 -28 -10 -48q-50 -110 -141.5 -204.5t-217.5 -151.5t-283 -57q-155 0 -280 59t-213.5 161.5
t-136 236t-47.5 282.5q0 147 48 280t137 235.5t213 161.5t276 59q154 0 279.5 -54.5t218 -145t144.5 -198.5q11 -21 11 -44q0 -37 -26.5 -67.5t-61.5 -30.5q-34 0 -61.5 14.5t-41.5 43.5q-56 116 -175.5 199t-286.5 83q-145 0 -251.5 -74t-164.5 -196.5t-58 -267.5
q0 -146 57.5 -268t164 -195t253.5 -73q110 0 201.5 40.5t158.5 107.5t102 144q27 60 97 60z" />
    <glyph glyph-name="cacute" unicode="&#x107;" horiz-adv-x="1098" 
d="M869 1656q46 0 73 -32t27 -70q0 -39 -28 -68l-324 -300q-40 -43 -76 -43q-25 0 -47 22t-22 46q0 35 40 75l284 338q29 32 73 32zM60 539q0 111 39 211t110 178t165.5 123t205.5 45q110 0 199.5 -42.5t154 -112t96.5 -151.5q7 -17 7 -38q0 -41 -29.5 -70.5t-70.5 -29.5
q-28 0 -55 19t-38 46q-28 72 -97.5 125.5t-166.5 53.5q-91 0 -163.5 -50.5t-114.5 -131.5t-42 -175q0 -95 43 -178.5t118 -135t169 -51.5q92 0 159 46.5t101 108.5q12 22 38 37.5t51 15.5q41 0 70.5 -29.5t29.5 -70.5q0 -25 -13 -49q-57 -105 -170 -182t-266 -77
q-114 0 -210.5 45.5t-168 124.5t-111.5 180.5t-40 214.5z" />
    <glyph glyph-name="Ccircumflex" unicode="&#x108;" horiz-adv-x="1430" 
d="M648 2012q12 12 32.5 21t38.5 9q39 0 69 -28l317 -303q14 -12 23 -34t9 -40q0 -41 -29.5 -70.5t-70.5 -29.5t-70 29l-246 236l-234 -237q-29 -31 -72 -31q-41 0 -70.5 29.5t-29.5 70.5t30 71zM1286 531q36 0 65.5 -28.5t29.5 -63.5q0 -28 -10 -48q-50 -110 -141.5 -204.5
t-217.5 -151.5t-283 -57q-155 0 -280 59t-213.5 161.5t-136 236t-47.5 282.5q0 147 48 280t137 235.5t213 161.5t276 59q154 0 279.5 -54.5t218 -145t144.5 -198.5q11 -21 11 -44q0 -37 -26.5 -67.5t-61.5 -30.5q-34 0 -61.5 14.5t-41.5 43.5q-56 116 -175.5 199t-286.5 83
q-145 0 -251.5 -74t-164.5 -196.5t-58 -267.5q0 -146 57.5 -268t164 -195t253.5 -73q110 0 201.5 40.5t158.5 107.5t102 144q27 60 97 60z" />
    <glyph glyph-name="ccircumflex" unicode="&#x109;" horiz-adv-x="1098" 
d="M463 1621q12 12 32.5 21t38.5 9q39 0 69 -28l317 -303q14 -12 23 -34t9 -40q0 -41 -29.5 -70.5t-70.5 -29.5t-70 29l-246 236l-234 -237q-29 -31 -72 -31q-41 0 -70.5 29.5t-29.5 70.5t30 71zM60 539q0 111 39 211t110 178t165.5 123t205.5 45q110 0 199.5 -42.5
t154 -112t96.5 -151.5q7 -17 7 -38q0 -41 -29.5 -70.5t-70.5 -29.5q-28 0 -55 19t-38 46q-28 72 -97.5 125.5t-166.5 53.5q-91 0 -163.5 -50.5t-114.5 -131.5t-42 -175q0 -95 43 -178.5t118 -135t169 -51.5q92 0 159 46.5t101 108.5q12 22 38 37.5t51 15.5q41 0 70.5 -29.5
t29.5 -70.5q0 -25 -13 -49q-57 -105 -170 -182t-266 -77q-114 0 -210.5 45.5t-168 124.5t-111.5 180.5t-40 214.5z" />
    <glyph glyph-name="Cdotaccent" unicode="&#x10a;" horiz-adv-x="1430" 
d="M726 1556q-68 0 -118.5 48t-50.5 117t50.5 116.5t118.5 47.5t119 -47.5t51 -116.5t-51 -117t-119 -48zM1286 531q36 0 65.5 -28.5t29.5 -63.5q0 -28 -10 -48q-50 -110 -141.5 -204.5t-217.5 -151.5t-283 -57q-155 0 -280 59t-213.5 161.5t-136 236t-47.5 282.5
q0 147 48 280t137 235.5t213 161.5t276 59q154 0 279.5 -54.5t218 -145t144.5 -198.5q11 -21 11 -44q0 -37 -26.5 -67.5t-61.5 -30.5q-34 0 -61.5 14.5t-41.5 43.5q-56 116 -175.5 199t-286.5 83q-145 0 -251.5 -74t-164.5 -196.5t-58 -267.5q0 -146 57.5 -268t164 -195
t253.5 -73q110 0 201.5 40.5t158.5 107.5t102 144q27 60 97 60z" />
    <glyph glyph-name="cdotaccent" unicode="&#x10b;" horiz-adv-x="1098" 
d="M540 1143q-68 0 -118.5 48t-50.5 117t50.5 116.5t118.5 47.5t119 -47.5t51 -116.5t-51 -117t-119 -48zM60 539q0 111 39 211t110 178t165.5 123t205.5 45q110 0 199.5 -42.5t154 -112t96.5 -151.5q7 -17 7 -38q0 -41 -29.5 -70.5t-70.5 -29.5q-28 0 -55 19t-38 46
q-28 72 -97.5 125.5t-166.5 53.5q-91 0 -163.5 -50.5t-114.5 -131.5t-42 -175q0 -95 43 -178.5t118 -135t169 -51.5q92 0 159 46.5t101 108.5q12 22 38 37.5t51 15.5q41 0 70.5 -29.5t29.5 -70.5q0 -25 -13 -49q-57 -105 -170 -182t-266 -77q-114 0 -210.5 45.5t-168 124.5
t-111.5 180.5t-40 214.5z" />
    <glyph glyph-name="Ccaron" unicode="&#x10c;" horiz-adv-x="1430" 
d="M1286 531q36 0 65.5 -28.5t29.5 -63.5q0 -28 -10 -48q-50 -110 -141.5 -204.5t-217.5 -151.5t-283 -57q-155 0 -280 59t-213.5 161.5t-136 236t-47.5 282.5q0 147 48 280t137 235.5t213 161.5t276 59q154 0 279.5 -54.5t218 -145t144.5 -198.5q11 -21 11 -44
q0 -37 -26.5 -67.5t-61.5 -30.5q-34 0 -61.5 14.5t-41.5 43.5q-56 116 -175.5 199t-286.5 83q-145 0 -251.5 -74t-164.5 -196.5t-58 -267.5q0 -146 57.5 -268t164 -195t253.5 -73q110 0 201.5 40.5t158.5 107.5t102 144q27 60 97 60zM630 1548l-303 307q-30 30 -30 71
t29.5 70.5t70.5 29.5q43 0 72 -31l234 -237l246 236q29 29 70 29t70.5 -29.5t29.5 -70.5q0 -18 -9 -40t-23 -34l-317 -303q-30 -28 -69 -28q-18 0 -38.5 9t-32.5 21z" />
    <glyph glyph-name="ccaron" unicode="&#x10d;" horiz-adv-x="1098" 
d="M60 539q0 111 39 211t110 178t165.5 123t205.5 45q110 0 199.5 -42.5t154 -112t96.5 -151.5q7 -17 7 -38q0 -41 -29.5 -70.5t-70.5 -29.5q-28 0 -55 19t-38 46q-28 72 -97.5 125.5t-166.5 53.5q-91 0 -163.5 -50.5t-114.5 -131.5t-42 -175q0 -95 43 -178.5t118 -135
t169 -51.5q92 0 159 46.5t101 108.5q12 22 38 37.5t51 15.5q41 0 70.5 -29.5t29.5 -70.5q0 -25 -13 -49q-57 -105 -170 -182t-266 -77q-114 0 -210.5 45.5t-168 124.5t-111.5 180.5t-40 214.5zM533 1176l-303 307q-30 30 -30 71t29.5 70.5t70.5 29.5q43 0 72 -31l234 -237
l246 236q29 29 70 29t70.5 -29.5t29.5 -70.5q0 -18 -9 -40t-23 -34l-317 -303q-30 -28 -69 -28q-18 0 -38.5 9t-32.5 21z" />
    <glyph glyph-name="Dcaron" unicode="&#x10e;" horiz-adv-x="1384" 
d="M557 1437h15q176 0 309 -61.5t222.5 -166t135 -234t45.5 -264.5q0 -206 -92.5 -367t-273 -253t-444.5 -92h-47l-228 2q-40 1 -69.5 31t-29.5 72l7 1227q0 40 29 69.5t69 30.5zM1106 717q0 186 -79 300t-222 166.5t-336 52.5q-41 0 -81.5 -1t-81.5 -3l-6 -1029l129 -2
q201 0 353.5 48.5t238 161.5t85.5 306zM530 1553l-303 307q-30 30 -30 71t29.5 70.5t70.5 29.5q43 0 72 -31l234 -237l246 236q29 29 70 29t70.5 -29.5t29.5 -70.5q0 -18 -9 -40t-23 -34l-317 -303q-30 -28 -69 -28q-18 0 -38.5 9t-32.5 21z" />
    <glyph glyph-name="Emacron" unicode="&#x112;" horiz-adv-x="1208" 
d="M75 1336q0 40 29.5 68.5t70.5 28.5l857 -1h1q41 0 70.5 -29.5t29.5 -70.5t-29.5 -70.5t-70.5 -29.5h-1l-757 1l1 -410l674 -5q43 0 71.5 -30t28.5 -77q0 -40 -31 -67.5t-69 -27.5h-1l-672 5l1 -423l754 1h1q41 0 70.5 -29.5t29.5 -70.5t-29.5 -70.5t-70.5 -29.5h-1
l-854 -1q-41 0 -70.5 29.5t-29.5 69.5zM406 1768h763q41 0 70.5 -29.5t29.5 -70.5t-29.5 -70.5t-70.5 -29.5h-763q-41 0 -70.5 29.5t-29.5 70.5t29.5 70.5t70.5 29.5z" />
    <glyph glyph-name="emacron" unicode="&#x113;" horiz-adv-x="1132" 
d="M582 1092q133 0 244 -66t178.5 -177.5t67.5 -247.5q0 -28 -3 -57q-4 -37 -33.5 -62.5t-66.5 -25.5l-699 -1q17 -72 64 -135t114.5 -102t147.5 -39q86 0 154 42t106 97q12 19 36.5 32t46.5 13q41 0 70.5 -30t29.5 -71q0 -32 -18 -57q-62 -91 -170.5 -157.5t-251.5 -66.5
q-115 0 -213.5 45t-171.5 123t-113.5 179.5t-40.5 214.5q0 109 40 207.5t111.5 175.5t166.5 121.5t204 44.5zM866 656q-19 98 -98 167t-186 69q-109 0 -192.5 -71t-112.5 -166zM390 1406h763q41 0 70.5 -29.5t29.5 -70.5t-29.5 -70.5t-70.5 -29.5h-763q-41 0 -70.5 29.5
t-29.5 70.5t29.5 70.5t70.5 29.5z" />
    <glyph glyph-name="Edotaccent" unicode="&#x116;" horiz-adv-x="1208" 
d="M75 1336q0 40 29.5 68.5t70.5 28.5l857 -1h1q41 0 70.5 -29.5t29.5 -70.5t-29.5 -70.5t-70.5 -29.5h-1l-757 1l1 -410l674 -5q43 0 71.5 -30t28.5 -77q0 -40 -31 -67.5t-69 -27.5h-1l-672 5l1 -423l754 1h1q41 0 70.5 -29.5t29.5 -70.5t-29.5 -70.5t-70.5 -29.5h-1
l-854 -1q-41 0 -70.5 29.5t-29.5 69.5zM599 1572q-68 0 -118.5 48t-50.5 117t50.5 116.5t118.5 47.5t119 -47.5t51 -116.5t-51 -117t-119 -48z" />
    <glyph glyph-name="edotaccent" unicode="&#x117;" horiz-adv-x="1132" 
d="M582 1092q133 0 244 -66t178.5 -177.5t67.5 -247.5q0 -28 -3 -57q-4 -37 -33.5 -62.5t-66.5 -25.5l-699 -1q17 -72 64 -135t114.5 -102t147.5 -39q86 0 154 42t106 97q12 19 36.5 32t46.5 13q41 0 70.5 -30t29.5 -71q0 -32 -18 -57q-62 -91 -170.5 -157.5t-251.5 -66.5
q-115 0 -213.5 45t-171.5 123t-113.5 179.5t-40.5 214.5q0 109 40 207.5t111.5 175.5t166.5 121.5t204 44.5zM866 656q-19 98 -98 167t-186 69q-109 0 -192.5 -71t-112.5 -166zM604 1184q-68 0 -118.5 48t-50.5 117t50.5 116.5t118.5 47.5t119 -47.5t51 -116.5t-51 -117
t-119 -48z" />
    <glyph glyph-name="Ecaron" unicode="&#x11a;" 
d="M75 1336q0 40 29.5 68.5t70.5 28.5l857 -1h1q41 0 70.5 -29.5t29.5 -70.5t-29.5 -70.5t-70.5 -29.5h-1l-757 1l1 -410l674 -5q43 0 71.5 -30t28.5 -77q0 -40 -31 -67.5t-69 -27.5h-1l-672 5l1 -423l754 1h1q41 0 70.5 -29.5t29.5 -70.5t-29.5 -70.5t-70.5 -29.5h-1
l-854 -1q-41 0 -70.5 29.5t-29.5 69.5zM533 1513l-303 307q-30 30 -30 71t29.5 70.5t70.5 29.5q43 0 72 -31l234 -237l246 236q29 29 70 29t70.5 -29.5t29.5 -70.5q0 -18 -9 -40t-23 -34l-317 -303q-30 -28 -69 -28q-18 0 -38.5 9t-32.5 21z" />
    <glyph glyph-name="ecaron" unicode="&#x11b;" horiz-adv-x="1131" 
d="M582 1092q133 0 244 -66t178.5 -177.5t67.5 -247.5q0 -28 -3 -57q-4 -37 -33.5 -62.5t-66.5 -25.5l-699 -1q17 -72 64 -135t114.5 -102t147.5 -39q86 0 154 42t106 97q12 19 36.5 32t46.5 13q41 0 70.5 -30t29.5 -71q0 -32 -18 -57q-62 -91 -170.5 -157.5t-251.5 -66.5
q-115 0 -213.5 45t-171.5 123t-113.5 179.5t-40.5 214.5q0 109 40 207.5t111.5 175.5t166.5 121.5t204 44.5zM866 656q-19 98 -98 167t-186 69q-109 0 -192.5 -71t-112.5 -166zM533 1173l-303 307q-30 30 -30 71t29.5 70.5t70.5 29.5q43 0 72 -31l234 -237l246 236
q29 29 70 29t70.5 -29.5t29.5 -70.5q0 -18 -9 -40t-23 -34l-317 -303q-30 -28 -69 -28q-18 0 -38.5 9t-32.5 21z" />
    <glyph glyph-name="Gcircumflex" unicode="&#x11c;" horiz-adv-x="1398" 
d="M675 1971q12 12 32.5 21t38.5 9q39 0 69 -28l317 -303q14 -12 23 -34t9 -40q0 -41 -29.5 -70.5t-70.5 -29.5t-70 29l-246 236l-234 -237q-29 -31 -72 -31q-41 0 -70.5 29.5t-29.5 70.5t30 71zM55 699q0 147 52.5 283t149 242.5t230 168.5t295.5 62q149 0 270.5 -41
t227.5 -116q43 -29 43 -80q0 -40 -29.5 -69.5t-70.5 -29.5q-32 0 -59 19q-78 53 -176 84.5t-201 31.5q-117 0 -214.5 -44.5t-169 -122t-111 -176.5t-39.5 -208q0 -149 65.5 -265t183 -182t273.5 -66q86 0 170.5 17t154.5 39l-3 341h-305q-41 0 -70.5 29.5t-29.5 70.5
t29.5 70.5t70.5 29.5h405q41 0 70.5 -29t29.5 -70l4 -511v-1q0 -28 -18 -54t-45 -36q-96 -38 -212 -67.5t-244 -29.5q-210 0 -374.5 91t-258.5 251t-94 368z" />
    <glyph glyph-name="gcircumflex" unicode="&#x11d;" horiz-adv-x="1205" 
d="M502 1549q12 12 32.5 21t38.5 9q39 0 69 -28l317 -303q14 -12 23 -34t9 -40q0 -41 -29.5 -70.5t-70.5 -29.5t-70 29l-246 236l-234 -237q-29 -31 -72 -31q-41 0 -70.5 29.5t-29.5 70.5t30 71zM1006 1099q41 0 70.5 -29.5t29.5 -70.5v-2l-7 -955q-1 -112 -45.5 -211
t-122.5 -175t-178.5 -119t-213.5 -43q-127 0 -242.5 55.5t-195.5 155.5q-23 29 -23 64q0 41 29.5 70.5t70.5 29.5q20 0 43.5 -11t36.5 -28q50 -62 126.5 -99t155.5 -37q97 0 178.5 48t131 128t49.5 175v98q-59 -92 -142.5 -126.5t-170.5 -34.5q-109 0 -202.5 47t-162.5 127
t-107.5 181.5t-38.5 209.5t38.5 206.5t107.5 175.5t162 122t203 45q95 0 178 -44t141 -134l15 80q8 41 26 71t60 30zM897 546q0 91 -40 170.5t-109.5 129.5t-158.5 50q-91 0 -161.5 -49.5t-111 -129t-40.5 -170.5q0 -90 40 -173.5t110 -137.5t160 -54q89 0 159.5 53
t111 136.5t40.5 174.5z" />
    <glyph glyph-name="Gdotaccent" unicode="&#x120;" horiz-adv-x="1378" 
d="M55 699q0 147 52.5 283t149 242.5t230 168.5t295.5 62q149 0 270.5 -41t227.5 -116q43 -29 43 -80q0 -40 -29.5 -69.5t-70.5 -29.5q-32 0 -59 19q-78 53 -176 84.5t-201 31.5q-117 0 -214.5 -44.5t-169 -122t-111 -176.5t-39.5 -208q0 -149 65.5 -265t183 -182t273.5 -66
q86 0 170.5 17t154.5 39l-3 341h-305q-41 0 -70.5 29.5t-29.5 70.5t29.5 70.5t70.5 29.5h405q41 0 70.5 -29t29.5 -70l4 -511v-1q0 -28 -18 -54t-45 -36q-96 -38 -212 -67.5t-244 -29.5q-210 0 -374.5 91t-258.5 251t-94 368zM698 1574q-68 0 -118.5 48t-50.5 117
t50.5 116.5t118.5 47.5t119 -47.5t51 -116.5t-51 -117t-119 -48z" />
    <glyph glyph-name="gdotaccent" unicode="&#x121;" horiz-adv-x="1181" 
d="M1006 1099q41 0 70.5 -29.5t29.5 -70.5v-2l-7 -955q-1 -112 -45.5 -211t-122.5 -175t-178.5 -119t-213.5 -43q-127 0 -242.5 55.5t-195.5 155.5q-23 29 -23 64q0 41 29.5 70.5t70.5 29.5q20 0 43.5 -11t36.5 -28q50 -62 126.5 -99t155.5 -37q97 0 178.5 48t131 128
t49.5 175v98q-59 -92 -142.5 -126.5t-170.5 -34.5q-109 0 -202.5 47t-162.5 127t-107.5 181.5t-38.5 209.5t38.5 206.5t107.5 175.5t162 122t203 45q95 0 178 -44t141 -134l15 80q8 41 26 71t60 30zM897 546q0 91 -40 170.5t-109.5 129.5t-158.5 50q-91 0 -161.5 -49.5
t-111 -129t-40.5 -170.5q0 -90 40 -173.5t110 -137.5t160 -54q89 0 159.5 53t111 136.5t40.5 174.5zM663 1298q-68 0 -118.5 48t-50.5 117t50.5 116.5t118.5 47.5t119 -47.5t51 -116.5t-51 -117t-119 -48z" />
    <glyph glyph-name="Hcircumflex" unicode="&#x124;" horiz-adv-x="1300" 
d="M75 1369q0 39 32 63t62 24q42 -1 74 -27t32 -70l1 -562l748 1l1 561q-3 40 27.5 68.5t71.5 28.5t71 -28t30 -69l-1 -1271q0 -40 -29.5 -68.5t-70.5 -28.5t-70.5 27.5t-29.5 67.5v510l-747 -1l1 -510q0 -41 -29 -69t-71 -28q-41 0 -70.5 28.5t-29.5 68.5
q-1 318 -1.5 636.5t-1.5 636.5v11zM583 1996q12 12 32.5 21t38.5 9q39 0 69 -28l317 -303q14 -12 23 -34t9 -40q0 -41 -29.5 -70.5t-70.5 -29.5t-70 29l-246 236l-234 -237q-29 -31 -72 -31q-41 0 -70.5 29.5t-29.5 70.5t30 71z" />
    <glyph glyph-name="hcircumflex" unicode="&#x125;" horiz-adv-x="1107" 
d="M95 1362q0 40 29 68.5t71 28.5q41 0 70.5 -28.5t29.5 -68.5v-436q38 81 111 124.5t141 43.5q157 0 256.5 -64t146.5 -178t47 -263v-9l-1 -505v-1q0 -40 -29.5 -68.5t-70.5 -28.5t-70.5 28.5t-29.5 68.5v1l1 500v2q0 154 -51 235t-199 81q-125 0 -187.5 -87t-62.5 -224
v-509q0 -40 -29.5 -68.5t-70.5 -28.5q-43 0 -72.5 29.5t-29.5 67.5v1289zM555 1980q12 12 32.5 21t38.5 9q39 0 69 -28l317 -303q14 -12 23 -34t9 -40q0 -41 -29.5 -70.5t-70.5 -29.5t-70 29l-246 236l-234 -237q-29 -31 -72 -31q-41 0 -70.5 29.5t-29.5 70.5t30 71z" />
    <glyph glyph-name="Itilde" unicode="&#x128;" horiz-adv-x="823" 
d="M339 -25q-41 0 -70.5 29.5t-29.5 70.5l-1 1251q0 38 28 69t67 31q46 0 75.5 -28.5t29.5 -71.5l1 -1251q0 -41 -29.5 -70.5t-70.5 -29.5zM623 1812q0 6 -1.5 12.5t-1.5 12.5q0 41 29.5 70.5t70.5 29.5h1q50 0 76 -37t26 -91q0 -67 -34 -123t-90 -89.5t-122 -33.5
q-70 0 -118 26.5t-86 62.5t-79 62q-26 17 -43 17q-22 0 -36.5 -14.5t-14.5 -35.5q0 -4 0.5 -8t0.5 -8q0 -41 -29.5 -70.5t-70.5 -29.5q-46 0 -73.5 34t-27.5 84q0 67 34 123t90.5 90.5t123.5 34.5q71 0 119 -27t86.5 -62.5t79.5 -62.5q25 -16 41 -16q21 0 35 14t14 35z" />
    <glyph glyph-name="itilde" unicode="&#x129;" horiz-adv-x="392" 
d="M407 1464q0 6 -1.5 12.5t-1.5 12.5q0 41 29.5 70.5t70.5 29.5h1q50 0 76 -37t26 -91q0 -67 -34 -123t-90 -89.5t-122 -33.5q-70 0 -118 26.5t-86 62.5t-79 62q-26 17 -43 17q-22 0 -36.5 -14.5t-14.5 -35.5q0 -4 0.5 -8t0.5 -8q0 -41 -29.5 -70.5t-70.5 -29.5
q-46 0 -73.5 34t-27.5 84q0 67 34 123t90.5 90.5t123.5 34.5q71 0 119 -27t86.5 -62.5t79.5 -62.5q25 -16 41 -16q21 0 35 14t14 35zM95 1007q0 38 32 62t62 24q44 0 75 -26t31 -69v-1l2 -922q0 -40 -29.5 -68t-70.5 -28q-42 0 -71 28.5t-29 68.5z" />
    <glyph glyph-name="Imacron" unicode="&#x12a;" horiz-adv-x="770" 
d="M373 -18q-41 0 -70.5 29.5t-29.5 70.5l-1 1251q0 38 28 69t67 31q46 0 75.5 -28.5t29.5 -71.5l1 -1251q0 -41 -29.5 -70.5t-70.5 -29.5zM120 1773h763q41 0 70.5 -29.5t29.5 -70.5t-29.5 -70.5t-70.5 -29.5h-763q-41 0 -70.5 29.5t-29.5 70.5t29.5 70.5t70.5 29.5z" />
    <glyph glyph-name="imacron" unicode="&#x12b;" horiz-adv-x="770" 
d="M278 1007q0 38 32 62t62 24q44 0 75 -26t31 -69v-1l2 -922q0 -40 -29.5 -68t-70.5 -28q-42 0 -71 28.5t-29 68.5zM120 1406h763q41 0 70.5 -29.5t29.5 -70.5t-29.5 -70.5t-70.5 -29.5h-763q-41 0 -70.5 29.5t-29.5 70.5t29.5 70.5t70.5 29.5z" />
    <glyph glyph-name="dotlessi" unicode="&#x131;" horiz-adv-x="392" 
d="M95 1007q0 38 32 62t62 24q44 0 75 -26t31 -69v-1l2 -922q0 -40 -29.5 -68t-70.5 -28q-42 0 -71 28.5t-29 68.5z" />
    <glyph glyph-name="Nacute" unicode="&#x143;" horiz-adv-x="1285" 
d="M901 1950q46 0 73 -32t27 -70q0 -39 -28 -68l-324 -300q-40 -43 -76 -43q-25 0 -47 22t-22 46q0 35 40 75l284 338q29 32 73 32zM75 1336q0 42 30.5 69.5t72.5 27.5q47 0 77 -38l755 -1025v963q0 40 29.5 68.5t70.5 28.5t70.5 -28.5t29.5 -68.5l-1 -1254
q0 -42 -30.5 -69.5t-72.5 -27.5q-47 0 -77 40l-754 1024v-966q0 -40 -29.5 -68.5t-70.5 -28.5t-70.5 28.5t-29.5 68.5v1256z" />
    <glyph glyph-name="nacute" unicode="&#x144;" horiz-adv-x="1086" 
d="M863 1660q46 0 73 -32t27 -70q0 -39 -28 -68l-324 -300q-40 -43 -76 -43q-25 0 -47 22t-22 46q0 35 40 75l284 338q29 32 73 32zM295 937q54 53 129.5 105t175.5 52q131 0 218 -69.5t128 -161.5q32 -73 38.5 -144.5t6.5 -134.5v-505q0 -41 -29.5 -70.5t-70.5 -29.5
t-70.5 29.5t-29.5 70.5v505q0 59 -5.5 109t-22.5 88q-19 44 -59 78.5t-102 34.5q-148 0 -227.5 -113t-78.5 -305l1 -399q0 -41 -29.5 -70.5t-70.5 -29.5q-42 0 -71 29.5t-29 71.5l-2 919q0 41 22.5 70.5t63.5 29.5t63 -29.5t34 -70.5z" />
    <glyph glyph-name="Ncaron" unicode="&#x147;" horiz-adv-x="1285" 
d="M75 1336q0 42 30.5 69.5t72.5 27.5q47 0 77 -38l755 -1025v963q0 40 29.5 68.5t70.5 28.5t70.5 -28.5t29.5 -68.5l-1 -1254q0 -42 -30.5 -69.5t-72.5 -27.5q-47 0 -77 40l-754 1024v-966q0 -40 -29.5 -68.5t-70.5 -28.5t-70.5 28.5t-29.5 68.5v1256zM700 1462
q-12 -12 -32.5 -21t-38.5 -9q-39 0 -69 28l-317 303q-14 12 -23 34t-9 40q0 41 29.5 70.5t70.5 29.5t70 -29l246 -236l234 237q29 31 72 31q41 0 70.5 -29.5t29.5 -70.5t-30 -71z" />
    <glyph glyph-name="ncaron" unicode="&#x148;" horiz-adv-x="1086" 
d="M295 937q54 53 129.5 105t175.5 52q131 0 218 -69.5t128 -161.5q32 -73 38.5 -144.5t6.5 -134.5v-505q0 -41 -29.5 -70.5t-70.5 -29.5t-70.5 29.5t-29.5 70.5v505q0 59 -5.5 109t-22.5 88q-19 44 -59 78.5t-102 34.5q-148 0 -227.5 -113t-78.5 -305l1 -399
q0 -41 -29.5 -70.5t-70.5 -29.5q-42 0 -71 29.5t-29 71.5l-2 919q0 41 22.5 70.5t63.5 29.5t63 -29.5t34 -70.5zM533 1173l-303 307q-30 30 -30 71t29.5 70.5t70.5 29.5q43 0 72 -31l234 -237l246 236q29 29 70 29t70.5 -29.5t29.5 -70.5q0 -18 -9 -40t-23 -34l-317 -303
q-30 -28 -69 -28q-18 0 -38.5 9t-32.5 21z" />
    <glyph glyph-name="Omacron" unicode="&#x14c;" horiz-adv-x="1504" 
d="M750 1451q153 0 281.5 -59.5t223.5 -163t147 -238t52 -285.5t-51.5 -283.5t-145.5 -233.5t-222.5 -158t-283.5 -57q-158 0 -287 57.5t-221.5 159t-142.5 235t-50 286.5q0 149 52.5 282t147 236.5t222 162.5t278.5 59zM754 1248q-148 0 -261.5 -77t-178 -203.5
t-64.5 -276.5q0 -102 39 -195t108 -165.5t159.5 -114t193.5 -41.5t194.5 43t162 116t110.5 164.5t40 187.5q0 155 -67.5 282.5t-181.5 203.5t-254 76zM500 1770h763q41 0 70.5 -29.5t29.5 -70.5t-29.5 -70.5t-70.5 -29.5h-763q-41 0 -70.5 29.5t-29.5 70.5t29.5 70.5
t70.5 29.5z" />
    <glyph glyph-name="omacron" unicode="&#x14d;" horiz-adv-x="1197" 
d="M598 1095q115 0 214.5 -44t174.5 -122t117.5 -179t42.5 -215q0 -112 -43 -212.5t-118.5 -177t-175 -120.5t-212.5 -44q-112 0 -211.5 43t-175 119t-118.5 176.5t-43 215.5q0 114 43 215t118.5 178.5t174.5 122t212 44.5zM252 533q0 -97 47.5 -176.5t126.5 -126.5t173 -47
q96 0 174.5 48.5t125 128.5t46.5 175q0 97 -46 178.5t-124.5 130.5t-176.5 49q-99 0 -177 -49.5t-123.5 -131t-45.5 -179.5zM319 1500h763q41 0 70.5 -29.5t29.5 -70.5t-29.5 -70.5t-70.5 -29.5h-763q-41 0 -70.5 29.5t-29.5 70.5t29.5 70.5t70.5 29.5z" />
    <glyph glyph-name="OE" unicode="&#x152;" horiz-adv-x="1869" 
d="M850 1429l827 -2h2q37 0 63.5 -26t26.5 -64q0 -37 -26.5 -63.5t-63.5 -26.5h-2l-737 1l1 -437l654 -4h1q37 0 63.5 -26t26.5 -64q0 -37 -26.5 -63.5t-63.5 -26.5h-2l-652 4l1 -447h736q37 0 63.5 -26t26.5 -64q0 -37 -26.5 -63.5t-63.5 -26.5h-826q-227 0 -408.5 84
t-288 244.5t-106.5 389.5q0 161 61 291.5t170 223.5t254.5 142.5t314.5 49.5zM759 1251q-110 0 -206 -43t-168.5 -117.5t-113.5 -170t-41 -201.5t40 -202.5t112 -172.5t168 -119.5t208 -43.5h5l-3 1070h-1z" />
    <glyph glyph-name="oe" unicode="&#x153;" horiz-adv-x="1921" 
d="M598 1095q142 0 260.5 -67.5t192.5 -177.5q70 107 182 173t246 66q133 0 244.5 -66t178.5 -177.5t67 -247.5q0 -28 -3 -57q-4 -37 -33.5 -62.5t-66.5 -25.5l-699 -1q17 -72 64 -135t114.5 -102t147.5 -39q86 0 154 42t106 97q12 19 36.5 32t46.5 13q42 0 71 -30t29 -71
q0 -32 -18 -57q-62 -91 -170.5 -157.5t-251.5 -66.5q-142 0 -258 68t-187 178q-75 -109 -194 -176t-259 -67q-112 0 -211.5 43t-175 119t-118.5 176.5t-43 215.5q0 114 43 215t118.5 178.5t174.5 122t212 44.5zM252 533q0 -97 47.5 -176.5t126.5 -126.5t173 -47
q96 0 174.5 48.5t125 128.5t46.5 175q0 97 -46 178.5t-124.5 130.5t-176.5 49q-99 0 -177 -49.5t-123.5 -131t-45.5 -179.5zM1763 653q-19 98 -98 167t-186 69q-108 0 -191.5 -71t-113.5 -166z" />
    <glyph glyph-name="Racute" unicode="&#x154;" horiz-adv-x="1203" 
d="M746 2012q46 0 73 -32t27 -70q0 -39 -28 -68l-324 -300q-40 -43 -76 -43q-25 0 -47 22t-22 46q0 35 40 75l284 338q29 32 73 32zM1149 72q0 -39 -28.5 -67.5t-61.5 -28.5q-28 0 -49 19.5t-29 29.5q-91 64 -157.5 145.5t-113.5 177.5q-41 86 -83.5 134t-102.5 68t-156 21
l-91 1l1 -484v-2q0 -40 -29.5 -70t-70.5 -30t-70.5 32t-29.5 76l-3 1241q0 42 29.5 70.5t69.5 29.5l266 1h23q172 0 307 -50.5t213 -151t78 -249.5q0 -96 -39.5 -171t-103.5 -127t-138 -81q34 -43 68 -106q58 -111 113 -196.5t145 -150.5q18 -12 30.5 -33.5t12.5 -47.5z
M468 1236h-193l2 -478l193 2q184 2 288.5 56t104.5 173q0 122 -111 184.5t-284 62.5z" />
    <glyph glyph-name="racute" unicode="&#x155;" horiz-adv-x="788" 
d="M757 1661q46 0 73 -32t27 -70q0 -39 -28 -68l-324 -300q-40 -43 -76 -43q-25 0 -47 22t-22 46q0 35 40 75l284 338q29 32 73 32zM763 969q0 -80 -77 -89q-28 -3 -71 18.5t-87 21.5q-87 0 -138 -44.5t-73 -119.5t-22 -168v-516q0 -44 -26.5 -70t-73.5 -26q-46 0 -73 26
t-27 71v921q0 45 22.5 74t61.5 29q23 0 53.5 -19.5t42.5 -66.5l10 -72q13 28 50 65t88 64.5t106 27.5q102 0 168 -23.5t66 -103.5z" />
    <glyph glyph-name="Rcaron" unicode="&#x158;" horiz-adv-x="600" 
d="M1149 72q0 -39 -28.5 -67.5t-61.5 -28.5q-28 0 -49 19.5t-29 29.5q-91 64 -157.5 145.5t-113.5 177.5q-41 86 -83.5 134t-102.5 68t-156 21l-91 1l1 -484v-2q0 -40 -29.5 -70t-70.5 -30t-70.5 32t-29.5 76l-3 1241q0 42 29.5 70.5t69.5 29.5l266 1h23q172 0 307 -50.5
t213 -151t78 -249.5q0 -96 -39.5 -171t-103.5 -127t-138 -81q34 -43 68 -106q58 -111 113 -196.5t145 -150.5q18 -12 30.5 -33.5t12.5 -47.5zM468 1236h-193l2 -478l193 2q184 2 288.5 56t104.5 173q0 122 -111 184.5t-284 62.5zM433 1543l-303 307q-30 30 -30 71t29.5 70.5
t70.5 29.5q43 0 72 -31l234 -237l246 236q29 29 70 29t70.5 -29.5t29.5 -70.5q0 -18 -9 -40t-23 -34l-317 -303q-30 -28 -69 -28q-18 0 -38.5 9t-32.5 21z" />
    <glyph glyph-name="rcaron" unicode="&#x159;" horiz-adv-x="788" 
d="M763 969q0 -80 -77 -89q-28 -3 -71 18.5t-87 21.5q-87 0 -138 -44.5t-73 -119.5t-22 -168v-516q0 -44 -26.5 -70t-73.5 -26q-46 0 -73 26t-27 71v921q0 45 22.5 74t61.5 29q23 0 53.5 -19.5t42.5 -66.5l10 -72q13 28 50 65t88 64.5t106 27.5q102 0 168 -23.5t66 -103.5z
M333 1173l-303 307q-30 30 -30 71t29.5 70.5t70.5 29.5q43 0 72 -31l234 -237l246 236q29 29 70 29t70.5 -29.5t29.5 -70.5q0 -18 -9 -40t-23 -34l-317 -303q-30 -28 -69 -28q-18 0 -38.5 9t-32.5 21z" />
    <glyph glyph-name="Sacute" unicode="&#x15a;" horiz-adv-x="1357" 
d="M968 2019q46 0 73 -32t27 -70q0 -39 -28 -68l-324 -300q-40 -43 -76 -43q-25 0 -47 22t-22 46q0 35 40 75l284 338q29 32 73 32zM684 1453q115 0 217.5 -39t179.5 -108t117 -160q9 -20 9 -41q0 -41 -29.5 -70.5t-70.5 -29.5q-27 0 -54 17.5t-38 42.5q-38 86 -126.5 137
t-204.5 51q-57 0 -120.5 -14t-119.5 -42.5t-91 -71.5t-35 -100q0 -46 30 -79.5t67 -52.5q87 -43 192.5 -60t213.5 -33t201 -56q59 -25 113 -69t88 -107t34 -148q0 -110 -53 -193t-139 -138t-186.5 -82.5t-196.5 -27.5q-130 0 -244 41.5t-199 118t-130 179.5q-9 20 -9 40
q0 41 29.5 70.5t70.5 29.5q28 0 55 -17.5t37 -43.5q44 -101 149 -159.5t241 -58.5q85 0 171 25.5t144.5 79t58.5 136.5q0 53 -35.5 87.5t-77.5 52.5q-95 41 -203 56.5t-215 33t-200 64.5q-79 40 -143.5 116.5t-64.5 194.5q0 104 50.5 183.5t134 134t183.5 82.5t199 28z" />
    <glyph glyph-name="sacute" unicode="&#x15b;" 
d="M930 1724q46 0 73 -32t27 -70q0 -39 -28 -68l-324 -300q-40 -43 -76 -43q-25 0 -47 22t-22 46q0 35 40 75l284 338q29 32 73 32zM602 1097q143 0 259.5 -62.5t172.5 -168.5q12 -21 12 -48q0 -41 -29.5 -70.5t-70.5 -29.5q-25 0 -51.5 16.5t-37.5 38.5q-33 62 -99 93
t-157 31q-53 0 -120 -14t-116 -45t-49 -84q0 -39 40.5 -61.5t100 -34.5t119.5 -17.5t98 -9.5q74 -8 146 -24.5t132 -48.5t95.5 -87t35.5 -140q0 -121 -70 -198t-179 -114t-228 -37q-163 0 -296.5 64.5t-197.5 188.5q-12 24 -12 47q0 41 29.5 70.5t70.5 29.5q26 0 52.5 -16.5
t37.5 -39.5q39 -76 120.5 -110t194.5 -34q60 0 124.5 13.5t109 46.5t44.5 90q0 44 -38.5 63.5t-92 25.5t-99.5 11q-88 9 -182 23.5t-174.5 46.5t-130.5 92t-50 160q0 90 43.5 155t115.5 106.5t157.5 61.5t169.5 20z" />
    <glyph glyph-name="Scircumflex" unicode="&#x15c;" horiz-adv-x="1357" 
d="M581 1987q12 12 32.5 21t38.5 9q39 0 69 -28l317 -303q14 -12 23 -34t9 -40q0 -41 -29.5 -70.5t-70.5 -29.5t-70 29l-246 236l-234 -237q-29 -31 -72 -31q-41 0 -70.5 29.5t-29.5 70.5t30 71zM684 1453q115 0 217.5 -39t179.5 -108t117 -160q9 -20 9 -41
q0 -41 -29.5 -70.5t-70.5 -29.5q-27 0 -54 17.5t-38 42.5q-38 86 -126.5 137t-204.5 51q-57 0 -120.5 -14t-119.5 -42.5t-91 -71.5t-35 -100q0 -46 30 -79.5t67 -52.5q87 -43 192.5 -60t213.5 -33t201 -56q59 -25 113 -69t88 -107t34 -148q0 -110 -53 -193t-139 -138
t-186.5 -82.5t-196.5 -27.5q-130 0 -244 41.5t-199 118t-130 179.5q-9 20 -9 40q0 41 29.5 70.5t70.5 29.5q28 0 55 -17.5t37 -43.5q44 -101 149 -159.5t241 -58.5q85 0 171 25.5t144.5 79t58.5 136.5q0 53 -35.5 87.5t-77.5 52.5q-95 41 -203 56.5t-215 33t-200 64.5
q-79 40 -143.5 116.5t-64.5 194.5q0 104 50.5 183.5t134 134t183.5 82.5t199 28z" />
    <glyph glyph-name="scircumflex" unicode="&#x15d;" 
d="M523 1689q12 12 32.5 21t38.5 9q39 0 69 -28l317 -303q14 -12 23 -34t9 -40q0 -41 -29.5 -70.5t-70.5 -29.5t-70 29l-246 236l-234 -237q-29 -31 -72 -31q-41 0 -70.5 29.5t-29.5 70.5t30 71zM602 1097q143 0 259.5 -62.5t172.5 -168.5q12 -21 12 -48q0 -41 -29.5 -70.5
t-70.5 -29.5q-25 0 -51.5 16.5t-37.5 38.5q-33 62 -99 93t-157 31q-53 0 -120 -14t-116 -45t-49 -84q0 -39 40.5 -61.5t100 -34.5t119.5 -17.5t98 -9.5q74 -8 146 -24.5t132 -48.5t95.5 -87t35.5 -140q0 -121 -70 -198t-179 -114t-228 -37q-163 0 -296.5 64.5t-197.5 188.5
q-12 24 -12 47q0 41 29.5 70.5t70.5 29.5q26 0 52.5 -16.5t37.5 -39.5q39 -76 120.5 -110t194.5 -34q60 0 124.5 13.5t109 46.5t44.5 90q0 44 -38.5 63.5t-92 25.5t-99.5 11q-88 9 -182 23.5t-174.5 46.5t-130.5 92t-50 160q0 90 43.5 155t115.5 106.5t157.5 61.5t169.5 20z
" />
    <glyph glyph-name="Scedilla" unicode="&#x15e;" horiz-adv-x="1357" 
d="M713 -560q68 0 121.5 41t53.5 107q0 67 -52 106t-113 39q-55 0 -100 -33q-27 -20 -60 -20q-41 0 -70.5 29.5t-29.5 70.5q0 29 17 55l162 247q12 19 36.5 33t47.5 14q41 0 70.5 -29.5t29.5 -70.5q0 -30 -17 -56l-28 -43q82 -12 151.5 -57.5t112 -117t42.5 -164.5
q0 -99 -50 -178.5t-134 -126t-187 -46.5q-102 0 -177.5 39.5t-127.5 100.5q-25 29 -25 66q0 41 29.5 70.5t70.5 29.5q45 0 76 -36q24 -28 63 -49t88 -21zM684 1453q115 0 217.5 -39t179.5 -108t117 -160q9 -20 9 -41q0 -41 -29.5 -70.5t-70.5 -29.5q-27 0 -54 17.5t-38 42.5
q-38 86 -126.5 137t-204.5 51q-57 0 -120.5 -14t-119.5 -42.5t-91 -71.5t-35 -100q0 -46 30 -79.5t67 -52.5q87 -43 192.5 -60t213.5 -33t201 -56q59 -25 113 -69t88 -107t34 -148q0 -110 -53 -193t-139 -138t-186.5 -82.5t-196.5 -27.5q-130 0 -244 41.5t-199 118
t-130 179.5q-9 20 -9 40q0 41 29.5 70.5t70.5 29.5q28 0 55 -17.5t37 -43.5q44 -101 149 -159.5t241 -58.5q85 0 171 25.5t144.5 79t58.5 136.5q0 53 -35.5 87.5t-77.5 52.5q-95 41 -203 56.5t-215 33t-200 64.5q-79 40 -143.5 116.5t-64.5 194.5q0 104 50.5 183.5t134 134
t183.5 82.5t199 28z" />
    <glyph glyph-name="scedilla" unicode="&#x15f;" 
d="M602 1097q143 0 259.5 -62.5t172.5 -168.5q12 -21 12 -48q0 -41 -29.5 -70.5t-70.5 -29.5q-25 0 -51.5 16.5t-37.5 38.5q-33 62 -99 93t-157 31q-53 0 -120 -14t-116 -45t-49 -84q0 -39 40.5 -61.5t100 -34.5t119.5 -17.5t98 -9.5q74 -8 146 -24.5t132 -48.5t95.5 -87
t35.5 -140q0 -121 -70 -198t-179 -114t-228 -37q-163 0 -296.5 64.5t-197.5 188.5q-12 24 -12 47q0 41 29.5 70.5t70.5 29.5q26 0 52.5 -16.5t37.5 -39.5q39 -76 120.5 -110t194.5 -34q60 0 124.5 13.5t109 46.5t44.5 90q0 44 -38.5 63.5t-92 25.5t-99.5 11q-88 9 -182 23.5
t-174.5 46.5t-130.5 92t-50 160q0 90 43.5 155t115.5 106.5t157.5 61.5t169.5 20zM616 -560q68 0 121.5 41t53.5 107q0 67 -52 106t-113 39q-55 0 -100 -33q-27 -20 -60 -20q-41 0 -70.5 29.5t-29.5 70.5q0 29 17 55l162 247q12 19 36.5 33t47.5 14q41 0 70.5 -29.5
t29.5 -70.5q0 -30 -17 -56l-28 -43q82 -12 151.5 -57.5t112 -117t42.5 -164.5q0 -99 -50 -178.5t-134 -126t-187 -46.5q-102 0 -177.5 39.5t-127.5 100.5q-25 29 -25 66q0 41 29.5 70.5t70.5 29.5q45 0 76 -36q24 -28 63 -49t88 -21z" />
    <glyph glyph-name="Scaron" unicode="&#x160;" horiz-adv-x="1357" 
d="M684 1453q115 0 217.5 -39t179.5 -108t117 -160q9 -20 9 -41q0 -41 -29.5 -70.5t-70.5 -29.5q-27 0 -54 17.5t-38 42.5q-38 86 -126.5 137t-204.5 51q-57 0 -120.5 -14t-119.5 -42.5t-91 -71.5t-35 -100q0 -46 30 -79.5t67 -52.5q87 -43 192.5 -60t213.5 -33t201 -56
q59 -25 113 -69t88 -107t34 -148q0 -110 -53 -193t-139 -138t-186.5 -82.5t-196.5 -27.5q-130 0 -244 41.5t-199 118t-130 179.5q-9 20 -9 40q0 41 29.5 70.5t70.5 29.5q28 0 55 -17.5t37 -43.5q44 -101 149 -159.5t241 -58.5q85 0 171 25.5t144.5 79t58.5 136.5
q0 53 -35.5 87.5t-77.5 52.5q-95 41 -203 56.5t-215 33t-200 64.5q-79 40 -143.5 116.5t-64.5 194.5q0 104 50.5 183.5t134 134t183.5 82.5t199 28zM633 1573l-303 307q-30 30 -30 71t29.5 70.5t70.5 29.5q43 0 72 -31l234 -237l246 236q29 29 70 29t70.5 -29.5t29.5 -70.5
q0 -18 -9 -40t-23 -34l-317 -303q-30 -28 -69 -28q-18 0 -38.5 9t-32.5 21z" />
    <glyph glyph-name="scaron" unicode="&#x161;" 
d="M602 1097q143 0 259.5 -62.5t172.5 -168.5q12 -21 12 -48q0 -41 -29.5 -70.5t-70.5 -29.5q-25 0 -51.5 16.5t-37.5 38.5q-33 62 -99 93t-157 31q-53 0 -120 -14t-116 -45t-49 -84q0 -39 40.5 -61.5t100 -34.5t119.5 -17.5t98 -9.5q74 -8 146 -24.5t132 -48.5t95.5 -87
t35.5 -140q0 -121 -70 -198t-179 -114t-228 -37q-163 0 -296.5 64.5t-197.5 188.5q-12 24 -12 47q0 41 29.5 70.5t70.5 29.5q26 0 52.5 -16.5t37.5 -39.5q39 -76 120.5 -110t194.5 -34q60 0 124.5 13.5t109 46.5t44.5 90q0 44 -38.5 63.5t-92 25.5t-99.5 11q-88 9 -182 23.5
t-174.5 46.5t-130.5 92t-50 160q0 90 43.5 155t115.5 106.5t157.5 61.5t169.5 20zM533 1173l-303 307q-30 30 -30 71t29.5 70.5t70.5 29.5q43 0 72 -31l234 -237l246 236q29 29 70 29t70.5 -29.5t29.5 -70.5q0 -18 -9 -40t-23 -34l-317 -303q-30 -28 -69 -28q-18 0 -38.5 9
t-32.5 21z" />
    <glyph glyph-name="Utilde" unicode="&#x168;" horiz-adv-x="1326" 
d="M75 1336q0 38 28.5 68t66.5 30q47 0 75.5 -25.5t29.5 -72.5l7 -723q2 -216 87 -341t282 -125q146 0 234 57t127 159t39 235l-2 739v1q0 41 29 69.5t70 28.5t71 -28.5t30 -69.5v-1l2 -739q0 -300 -148.5 -475t-447.5 -175q-193 0 -319 85.5t-189 235t-65 341.5l-7 725v1z
M934 1807q0 6 -1.5 12.5t-1.5 12.5q0 41 29.5 70.5t70.5 29.5h1q50 0 76 -37t26 -91q0 -67 -34 -123t-90 -89.5t-122 -33.5q-70 0 -118 26.5t-86 62.5t-79 62q-26 17 -43 17q-22 0 -36.5 -14.5t-14.5 -35.5q0 -4 0.5 -8t0.5 -8q0 -41 -29.5 -70.5t-70.5 -29.5
q-46 0 -73.5 34t-27.5 84q0 67 34 123t90.5 90.5t123.5 34.5q71 0 119 -27t86.5 -62.5t79.5 -62.5q25 -16 41 -16q21 0 35 14t14 35z" />
    <glyph glyph-name="utilde" unicode="&#x169;" horiz-adv-x="1088" 
d="M792 135q-54 -53 -129.5 -105t-175.5 -52q-131 0 -218 69.5t-128 161.5q-32 73 -38.5 144.5t-6.5 134.5v505q0 41 29.5 70.5t70.5 29.5t70.5 -29.5t29.5 -70.5v-505q0 -59 5.5 -109t22.5 -88q19 -44 59 -78.5t102 -34.5q148 0 227.5 113t78.5 305l-1 399q0 41 29.5 70.5
t70.5 29.5q42 0 71 -29.5t29 -71.5l2 -919q0 -41 -22.5 -70.5t-63.5 -29.5t-63 29.5t-34 70.5zM775 1425q0 6 -1.5 12.5t-1.5 12.5q0 41 29.5 70.5t70.5 29.5h1q50 0 76 -37t26 -91q0 -67 -34 -123t-90 -89.5t-122 -33.5q-70 0 -118 26.5t-86 62.5t-79 62q-26 17 -43 17
q-22 0 -36.5 -14.5t-14.5 -35.5q0 -4 0.5 -8t0.5 -8q0 -41 -29.5 -70.5t-70.5 -29.5q-46 0 -73.5 34t-27.5 84q0 67 34 123t90.5 90.5t123.5 34.5q71 0 119 -27t86.5 -62.5t79.5 -62.5q25 -16 41 -16q21 0 35 14t14 35z" />
    <glyph glyph-name="Umacron" unicode="&#x16a;" horiz-adv-x="1326" 
d="M75 1336q0 38 28.5 68t66.5 30q47 0 75.5 -25.5t29.5 -72.5l7 -723q2 -216 87 -341t282 -125q146 0 234 57t127 159t39 235l-2 739v1q0 41 29 69.5t70 28.5t71 -28.5t30 -69.5v-1l2 -739q0 -300 -148.5 -475t-447.5 -175q-193 0 -319 85.5t-189 235t-65 341.5l-7 725v1z
M416 1773h763q41 0 70.5 -29.5t29.5 -70.5t-29.5 -70.5t-70.5 -29.5h-763q-41 0 -70.5 29.5t-29.5 70.5t29.5 70.5t70.5 29.5z" />
    <glyph glyph-name="umacron" unicode="&#x16b;" horiz-adv-x="1088" 
d="M792 135q-54 -53 -129.5 -105t-175.5 -52q-131 0 -218 69.5t-128 161.5q-32 73 -38.5 144.5t-6.5 134.5v505q0 41 29.5 70.5t70.5 29.5t70.5 -29.5t29.5 -70.5v-505q0 -59 5.5 -109t22.5 -88q19 -44 59 -78.5t102 -34.5q148 0 227.5 113t78.5 305l-1 399q0 41 29.5 70.5
t70.5 29.5q42 0 71 -29.5t29 -71.5l2 -919q0 -41 -22.5 -70.5t-63.5 -29.5t-63 29.5t-34 70.5zM306 1398h763q41 0 70.5 -29.5t29.5 -70.5t-29.5 -70.5t-70.5 -29.5h-763q-41 0 -70.5 29.5t-29.5 70.5t29.5 70.5t70.5 29.5z" />
    <glyph glyph-name="Uring" unicode="&#x16e;" horiz-adv-x="600" 
d="M75 1336q0 38 28.5 68t66.5 30q47 0 75.5 -25.5t29.5 -72.5l7 -723q2 -216 87 -341t282 -125q146 0 234 57t127 159t39 235l-2 739v1q0 41 29 69.5t70 28.5t71 -28.5t30 -69.5v-1l2 -739q0 -300 -148.5 -475t-447.5 -175q-193 0 -319 85.5t-189 235t-65 341.5l-7 725v1z
M613.753 1995.1q69.4707 0 125.047 -34.4512t87.8799 -91.1738q32.3027 -56.7227 32.3027 -124.233q0 -68.9023 -32.998 -125.973t-89.2695 -91.1738q-56.2705 -34.1035 -126.436 -34.1035q-65.9961 0 -122.962 32.0156q-56.9658 32.0146 -91.3535 86.3018t-34.3877 121.102
q0 73.0781 31.2617 132.585q31.2617 59.5059 88.2266 94.3057q56.9658 34.7988 132.688 34.7988zM727.685 1745.94q0 45.2393 -34.041 80.7344q-34.04 35.4951 -81.9746 35.4951q-48.6289 0 -83.7119 -36.1914q-35.082 -36.1914 -35.082 -82.8223q0 -45.9346 35.082 -81.082
q35.083 -35.1465 81.6279 -35.1465q51.4082 0 84.7539 34.7988t33.3457 84.2139z" />
    <glyph glyph-name="uring" unicode="&#x16f;" horiz-adv-x="1088" 
d="M792 135q-54 -53 -129.5 -105t-175.5 -52q-131 0 -218 69.5t-128 161.5q-32 73 -38.5 144.5t-6.5 134.5v505q0 41 29.5 70.5t70.5 29.5t70.5 -29.5t29.5 -70.5v-505q0 -59 5.5 -109t22.5 -88q19 -44 59 -78.5t102 -34.5q148 0 227.5 113t78.5 305l-1 399q0 41 29.5 70.5
t70.5 29.5q42 0 71 -29.5t29 -71.5l2 -919q0 -41 -22.5 -70.5t-63.5 -29.5t-63 29.5t-34 70.5zM576.753 1676.1q69.4707 0 125.047 -34.4512t87.8799 -91.1738q32.3027 -56.7227 32.3027 -124.233q0 -68.9023 -32.998 -125.973t-89.2695 -91.1738
q-56.2705 -34.1035 -126.436 -34.1035q-65.9961 0 -122.962 32.0156q-56.9658 32.0146 -91.3535 86.3018t-34.3877 121.102q0 73.0781 31.2617 132.585q31.2617 59.5059 88.2266 94.3057q56.9658 34.7988 132.688 34.7988zM690.685 1426.94q0 45.2393 -34.041 80.7344
q-34.04 35.4951 -81.9746 35.4951q-48.6289 0 -83.7119 -36.1914q-35.082 -36.1914 -35.082 -82.8223q0 -45.9346 35.082 -81.082q35.083 -35.1465 81.6279 -35.1465q51.4082 0 84.7539 34.7988t33.3457 84.2139z" />
    <glyph glyph-name="Wcircumflex" unicode="&#x174;" horiz-adv-x="1905" 
d="M863 1380q9 28 36.5 47t58.5 19q34 0 60.5 -21t34.5 -49l307 -978l273 941q8 42 35.5 72.5t61.5 30.5q43 0 71.5 -36t28.5 -85q0 -20 -5 -35l-363 -1233q-9 -30 -36 -49.5t-59 -19.5q-30 0 -58.5 18.5t-37.5 47.5l-316 907l-334 -937q-16 -16 -39.5 -26t-55.5 -10
t-60 19.5t-37 49.5l-350 1220q-4 16 -4 35q0 49 28.5 85t71.5 36q35 0 62.5 -31.5t34.5 -73.5l263 -932zM881 1993q12 12 32.5 21t38.5 9q39 0 69 -28l317 -303q14 -12 23 -34t9 -40q0 -41 -29.5 -70.5t-70.5 -29.5t-70 29l-246 236l-234 -237q-29 -31 -72 -31
q-41 0 -70.5 29.5t-29.5 70.5t30 71z" />
    <glyph glyph-name="wcircumflex" unicode="&#x175;" horiz-adv-x="1502" 
d="M50 1013q0 33 29 58t62 25q34 0 60.5 -19t34.5 -47l200 -679l237 666h1q25 44 88 44q29 0 54 -12.5t35 -32.5v-1l230 -648l185 662q8 27 33 47t61 20q32 0 62 -23.5t30 -58.5q0 -22 -4 -35l-262 -924q-7 -25 -32.5 -46.5t-58.5 -21.5q-31 0 -55.5 17.5t-34.5 41.5
l-242 669l-246 -675q-10 -27 -35.5 -43.5t-55.5 -16.5q-31 0 -56.5 19t-33.5 47l-283 932q-3 15 -3 35zM719 1652q12 12 32.5 21t38.5 9q39 0 69 -28l317 -303q14 -12 23 -34t9 -40q0 -41 -29.5 -70.5t-70.5 -29.5t-70 29l-246 236l-234 -237q-29 -31 -72 -31
q-41 0 -70.5 29.5t-29.5 70.5t30 71z" />
    <glyph glyph-name="Ycircumflex" unicode="&#x176;" horiz-adv-x="1229" 
d="M75 1363q0 41 33 67t73 26q52 0 80 -48l357 -615l349 609q10 16 32.5 31t46.5 15q23 0 41.5 -4.5t38.5 -25.5q28 -30 28 -63q0 -32 -15 -57l-425 -722l-7 -498q0 -40 -29.5 -68.5t-70.5 -28.5t-70.5 28.5t-29.5 68.5v2l7 509l-423 717q-16 23 -16 57zM562 2000
q12 12 32.5 21t38.5 9q39 0 69 -28l317 -303q14 -12 23 -34t9 -40q0 -41 -29.5 -70.5t-70.5 -29.5t-70 29l-246 236l-234 -237q-29 -31 -72 -31q-41 0 -70.5 29.5t-29.5 70.5t30 71z" />
    <glyph glyph-name="ycircumflex" unicode="&#x177;" horiz-adv-x="1065" 
d="M125 1101q29 0 54.5 -17t36.5 -42l340 -773l291 766q11 27 36.5 45t56.5 18q41 0 70.5 -29.5t29.5 -70.5q0 -21 -8 -39l-368 -960q-2 -13 -7 -23t-10 -18l-56 -140q-21 -52 -50 -110.5t-80 -110.5q-49 -51 -119.5 -86t-147.5 -35q-42 0 -71 30.5t-29 71.5q0 40 27.5 69.5
t66.5 30.5q88 6 136 68.5t82 147.5l48 122l-420 942q-9 21 -9 43q0 41 29.5 70.5t70.5 29.5zM475 1781q12 12 32.5 21t38.5 9q39 0 69 -28l317 -303q14 -12 23 -34t9 -40q0 -41 -29.5 -70.5t-70.5 -29.5t-70 29l-246 236l-234 -237q-29 -31 -72 -31q-41 0 -70.5 29.5
t-29.5 70.5t30 71z" />
    <glyph glyph-name="Zacute" unicode="&#x179;" horiz-adv-x="1369" 
d="M1207 -10l-1074 -7q-40 0 -70 28.5t-30 70.5q0 40 23 66l971 1085l-901 -1h-1q-43 0 -71.5 30t-28.5 71t31 71.5t62 30.5l1126 -2q40 0 70 -29t30 -70q0 -40 -23 -66l-971 -1085l865 1h1q44 0 72 -31t28 -74q0 -36 -20 -55.5t-44 -27t-38 -7.5q-4 0 -4.5 0.5t-2.5 0.5z
M980 2011q46 0 73 -32t27 -70q0 -39 -28 -68l-324 -300q-40 -43 -76 -43q-25 0 -47 22t-22 46q0 35 40 75l284 338q29 32 73 32z" />
    <glyph glyph-name="zacute" unicode="&#x17a;" horiz-adv-x="1010" 
d="M851 1075q32 -3 60 -30t28 -64q0 -42 -26 -71l-558 -713h505q37 0 61.5 -34t24.5 -66t-24.5 -66t-61.5 -34h-728q-40 0 -70 28.5t-30 69.5q0 40 26 69l557 710l-488 -5h-17q-33 0 -59 31.5t-26 60.5q0 38 25.5 73t74.5 35l713 6h13zM885 1690q46 0 73 -32t27 -70
q0 -39 -28 -68l-324 -300q-40 -43 -76 -43q-25 0 -47 22t-22 46q0 35 40 75l284 338q29 32 73 32z" />
    <glyph glyph-name="Zdotaccent" unicode="&#x17b;" horiz-adv-x="1369" 
d="M1207 -10l-1074 -7q-40 0 -70 28.5t-30 70.5q0 40 23 66l971 1085l-901 -1h-1q-43 0 -71.5 30t-28.5 71t31 71.5t62 30.5l1126 -2q40 0 70 -29t30 -70q0 -40 -23 -66l-971 -1085l865 1h1q44 0 72 -31t28 -74q0 -36 -20 -55.5t-44 -27t-38 -7.5q-4 0 -4.5 0.5t-2.5 0.5z
M741 1572q-68 0 -118.5 48t-50.5 117t50.5 116.5t118.5 47.5t119 -47.5t51 -116.5t-51 -117t-119 -48z" />
    <glyph glyph-name="zdotaccent" unicode="&#x17c;" horiz-adv-x="971" 
d="M851 1075q32 -3 60 -30t28 -64q0 -42 -26 -71l-558 -713h505q37 0 61.5 -34t24.5 -66t-24.5 -66t-61.5 -34h-728q-40 0 -70 28.5t-30 69.5q0 40 26 69l557 710l-488 -5h-17q-33 0 -59 31.5t-26 60.5q0 38 25.5 73t74.5 35l713 6h13zM526 1183q-68 0 -118.5 48t-50.5 117
t50.5 116.5t118.5 47.5t119 -47.5t51 -116.5t-51 -117t-119 -48z" />
    <glyph glyph-name="Zcaron" unicode="&#x17d;" horiz-adv-x="1369" 
d="M1207 -10l-1074 -7q-40 0 -70 28.5t-30 70.5q0 40 23 66l971 1085l-901 -1h-1q-43 0 -71.5 30t-28.5 71t31 71.5t62 30.5l1126 -2q40 0 70 -29t30 -70q0 -40 -23 -66l-971 -1085l865 1h1q44 0 72 -31t28 -74q0 -36 -20 -55.5t-44 -27t-38 -7.5q-4 0 -4.5 0.5t-2.5 0.5z
M746 1529q-12 -12 -32.5 -21t-38.5 -9q-39 0 -69 28l-317 303q-14 12 -23 34t-9 40q0 41 29.5 70.5t70.5 29.5t70 -29l246 -236l234 237q29 31 72 31q41 0 70.5 -29.5t29.5 -70.5t-30 -71z" />
    <glyph glyph-name="zcaron" unicode="&#x17e;" horiz-adv-x="971" 
d="M851 1075q32 -3 60 -30t28 -64q0 -42 -26 -71l-558 -713h505q37 0 61.5 -34t24.5 -66t-24.5 -66t-61.5 -34h-728q-40 0 -70 28.5t-30 69.5q0 40 26 69l557 710l-488 -5h-17q-33 0 -59 31.5t-26 60.5q0 38 25.5 73t74.5 35l713 6h13zM584 1213q-12 -12 -32.5 -21t-38.5 -9
q-39 0 -69 28l-317 303q-14 12 -23 34t-9 40q0 41 29.5 70.5t70.5 29.5t70 -29l246 -236l234 237q29 31 72 31q41 0 70.5 -29.5t29.5 -70.5t-30 -71z" />
    <glyph glyph-name="ocaron" unicode="&#x1d2;" horiz-adv-x="1197" 
d="M598 1095q115 0 214.5 -44t174.5 -122t117.5 -179t42.5 -215q0 -112 -43 -212.5t-118.5 -177t-175 -120.5t-212.5 -44q-112 0 -211.5 43t-175 119t-118.5 176.5t-43 215.5q0 114 43 215t118.5 178.5t174.5 122t212 44.5zM252 533q0 -97 47.5 -176.5t126.5 -126.5t173 -47
q96 0 174.5 48.5t125 128.5t46.5 175q0 97 -46 178.5t-124.5 130.5t-176.5 49q-99 0 -177 -49.5t-123.5 -131t-45.5 -179.5zM674 1199q-12 -12 -32.5 -21t-38.5 -9q-39 0 -69 28l-317 303q-14 12 -23 34t-9 40q0 41 29.5 70.5t70.5 29.5t70 -29l246 -236l234 237
q29 31 72 31q41 0 70.5 -29.5t29.5 -70.5t-30 -71z" />
    <glyph glyph-name="Ucaron" unicode="&#x1d3;" horiz-adv-x="1326" 
d="M75 1336q0 38 28.5 68t66.5 30q47 0 75.5 -25.5t29.5 -72.5l7 -723q2 -216 87 -341t282 -125q146 0 234 57t127 159t39 235l-2 739v1q0 41 29 69.5t70 28.5t71 -28.5t30 -69.5v-1l2 -739q0 -300 -148.5 -475t-447.5 -175q-193 0 -319 85.5t-189 235t-65 341.5l-7 725v1z
M704 1481q-12 -12 -32.5 -21t-38.5 -9q-39 0 -69 28l-317 303q-14 12 -23 34t-9 40q0 41 29.5 70.5t70.5 29.5t70 -29l246 -236l234 237q29 31 72 31q41 0 70.5 -29.5t29.5 -70.5t-30 -71z" />
    <glyph glyph-name="ucaron" unicode="&#x1d4;" horiz-adv-x="1106" 
d="M796 135q-54 -53 -129.5 -105t-175.5 -52q-131 0 -218 69.5t-128 161.5q-32 73 -38.5 144.5t-6.5 134.5v505q0 41 29.5 70.5t70.5 29.5t70.5 -29.5t29.5 -70.5v-505q0 -59 5.5 -109t22.5 -88q19 -44 59 -78.5t102 -34.5q148 0 227.5 113t78.5 305l-1 399q0 41 29.5 70.5
t70.5 29.5q42 0 71 -29.5t29 -71.5l2 -919q0 -41 -22.5 -70.5t-63.5 -29.5t-63 29.5t-34 70.5zM673 1212q-12 -12 -32.5 -21t-38.5 -9q-39 0 -69 28l-317 303q-14 12 -23 34t-9 40q0 41 29.5 70.5t70.5 29.5t70 -29l246 -236l234 237q29 31 72 31q41 0 70.5 -29.5
t29.5 -70.5t-30 -71z" />
    <glyph glyph-name="AEacute" unicode="&#x1fc;" horiz-adv-x="2054" 
d="M700 1432q295 0 590.5 0.5t588.5 -2.5q41 0 70.5 -29.5t29.5 -70.5t-29.5 -70.5t-70.5 -29.5h-2l-837 1l1 -433l754 -5h1q41 0 70.5 -29.5t29.5 -70.5t-29.5 -70.5t-70.5 -29.5h-2l-752 5l1 -415l834 1h2q41 0 70.5 -29.5t29.5 -70.5t-29.5 -70.5t-70.5 -29.5h-2l-934 -1
q-41 0 -70.5 29.5t-29.5 70.5l-1 375q-48 1 -97 2t-112.5 2t-156.5 2h-45l-189 -434q-11 -25 -37.5 -43t-54.5 -18q-41 0 -70.5 29.5t-29.5 70.5q0 20 9 41l549 1262q11 25 38 42.5t54 17.5zM766 1232l-248 -568q116 -1 187.5 -2.5t136.5 -3.5l-2 574h-74zM1412 1993
q46 0 73 -32t27 -70q0 -39 -28 -68l-324 -300q-40 -43 -76 -43q-25 0 -47 22t-22 46q0 35 40 75l284 338q29 32 73 32z" />
    <glyph glyph-name="aeacute" unicode="&#x1fd;" horiz-adv-x="2040" 
d="M1066 1076h1q42 0 71 -30t29 -72v-4q133 99 296 102h27q102 -4 194.5 -48t158.5 -121q67 -77 98.5 -174t21.5 -199q-4 -37 -33 -63.5t-67 -26.5l-697 -1q24 -85 81 -147q90 -98 221 -110q79 -7 158 26.5t129 94.5q30 38 79 38q41 0 70.5 -29.5t29.5 -70.5q0 -37 -24 -65
q-83 -102 -206 -153.5t-254 -39.5q-158 14 -285 113v-29q0 -41 -29.5 -70.5t-70.5 -29.5q-42 0 -71 30t-29 72v47q-75 -65 -169 -99.5t-194 -32.5q-108 2 -206.5 46.5t-171.5 122.5q-74 77 -112.5 177.5t-36.5 206.5q2 112 47.5 215t127.5 179q150 138 353 143q28 0 56 -2
q175 -15 308 -132v31.5v4.5q0 41 29 70.5t70 29.5zM617 874q-134 0 -231 -90q-51 -47 -80.5 -113.5t-30.5 -136.5q-1 -66 24 -131t70 -113t108.5 -76.5t128.5 -29.5q64 -1 127 23.5t110 68.5q101 94 109 233q8 140 -82 246q-46 54 -114 86.5t-139 32.5zM1245 772
q-52 -55 -76 -133l589 1q-17 76 -65 132q-39 44 -95.5 71t-114.5 29q-71 0 -133 -27t-105 -73zM1382 1687q46 0 73 -32t27 -70q0 -39 -28 -68l-324 -300q-40 -43 -76 -43q-25 0 -47 22t-22 46q0 35 40 75l284 338q29 32 73 32z" />
    <glyph glyph-name="caron" unicode="&#x2c7;" horiz-adv-x="822" 
d="M333 1173l-303 307q-30 30 -30 71t29.5 70.5t70.5 29.5q43 0 72 -31l234 -237l246 236q29 29 70 29t70.5 -29.5t29.5 -70.5q0 -18 -9 -40t-23 -34l-317 -303q-30 -28 -69 -28q-18 0 -38.5 9t-32.5 21z" />
    <glyph glyph-name="anuswaraabove" unicode="&#xd00;" horiz-adv-x="327" 
d="M148.753 1676.1q69.4707 0 125.047 -34.4512t87.8799 -91.1738q32.3027 -56.7227 32.3027 -124.233q0 -68.9023 -32.998 -125.973t-89.2695 -91.1738q-56.2705 -34.1035 -126.436 -34.1035q-65.9961 0 -122.962 32.0156q-56.9658 32.0146 -91.3535 86.3018
t-34.3877 121.102q0 73.0781 31.2617 132.585q31.2617 59.5059 88.2266 94.3057q56.9658 34.7988 132.688 34.7988zM262.685 1426.94q0 45.2393 -34.041 80.7344q-34.04 35.4951 -81.9746 35.4951q-48.6289 0 -83.7119 -36.1914q-35.082 -36.1914 -35.082 -82.8223
q0 -45.9346 35.082 -81.082q35.083 -35.1465 81.6279 -35.1465q51.4082 0 84.7539 34.7988t33.3457 84.2139z" />
    <glyph glyph-name="mlchandrabindu" unicode="&#xd01;" horiz-adv-x="142" 
d="M-22.126 1305.2q-13.627 8.84375 -20.9639 21.876q-11.0068 19.5498 -10.2207 41.1934t17.5576 41.1924q4.19336 4.6543 10.2207 9.54199q6.02734 4.88672 14.9365 9.07617q8.91016 4.18945 21.751 6.5166t27.5156 0q13.627 -1.8623 23.8467 -6.98242
q10.2207 -5.11914 17.0342 -10.7051q11.5303 -10.2402 17.2949 -22.8076q8.38574 -19.083 6.55176 -39.7959q-1.83496 -20.7129 -18.6064 -39.3311q-7.86133 -7.91309 -22.2744 -15.8252q-14.4131 -7.91309 -37.4736 -7.91309q-15.1992 0.46582 -27.2539 4.42188
q-12.0537 3.95605 -19.916 9.54199zM166 1295q0 14 -3.5 29.5t-3.5 40.5q0 35 30.5 60t62.5 25q63 0 84 -49t21 -97q0 -101 -46 -182t-125 -128t-179 -47q-101 0 -178.5 49.5t-121 129.5t-43.5 169q0 32 7 69t30 63.5t69 26.5q32 0 62 -26t30 -60q0 -24 -3.5 -40.5
t-3.5 -33.5q0 -66 46 -110t106 -44q68 0 113.5 47t45.5 108z" />
    <glyph glyph-name="anuswara" unicode="&#xd02;" horiz-adv-x="875" 
d="M443 697q100 0 180 -49.5t126.5 -131t46.5 -178.5q0 -99 -47.5 -181t-128.5 -131t-182 -49q-95 0 -177 46t-131.5 124t-49.5 174q0 105 45 190.5t127 135.5t191 50zM607 339q0 65 -49 116t-118 51q-70 0 -120.5 -52t-50.5 -119q0 -66 50.5 -116.5t117.5 -50.5
q74 0 122 50t48 121z" />
    <glyph glyph-name="visarga" unicode="&#xd03;" horiz-adv-x="580" 
d="M297.883 489.838q52.5703 0 94.626 -25.3418t66.5 -67.0674q24.4453 -41.7246 24.4453 -91.3857q0 -50.6836 -24.9707 -92.665q-24.9707 -41.9805 -67.5518 -67.0674q-42.582 -25.0859 -95.6768 -25.0859q-49.9414 0 -93.0479 23.5508q-43.1074 23.5498 -69.1299 63.4834
q-26.0215 39.9326 -26.0215 89.0811q0 53.7559 23.6562 97.5293q23.6562 43.7725 66.7637 69.3711q43.1064 25.5977 100.407 25.5977zM384.098 306.556q0 33.2773 -25.7598 59.3877q-25.7588 26.1094 -62.0312 26.1094q-36.7988 0 -63.3467 -26.6211
q-26.5479 -26.623 -26.5479 -60.9238q0 -33.79 26.5479 -59.6436q26.5479 -25.8545 61.7695 -25.8545q38.9014 0 64.1348 25.5977q25.2334 25.5986 25.2334 61.9482zM293.883 965.838q52.5703 0 94.626 -25.3418t66.5 -67.0674q24.4453 -41.7246 24.4453 -91.3857
q0 -50.6836 -24.9707 -92.665q-24.9707 -41.9805 -67.5518 -67.0674q-42.582 -25.0859 -95.6768 -25.0859q-49.9414 0 -93.0479 23.5508q-43.1074 23.5498 -69.1299 63.4834q-26.0215 39.9326 -26.0215 89.0811q0 53.7559 23.6562 97.5293q23.6562 43.7725 66.7637 69.3711
q43.1064 25.5977 100.407 25.5977zM380.098 782.556q0 33.2773 -25.7598 59.3877q-25.7588 26.1094 -62.0312 26.1094q-36.7988 0 -63.3467 -26.6211q-26.5479 -26.623 -26.5479 -60.9238q0 -33.79 26.5479 -59.6436q26.5479 -25.8545 61.7695 -25.8545
q38.9014 0 64.1348 25.5977q25.2334 25.5986 25.2334 61.9482z" />
    <glyph glyph-name="ml_a" unicode="&#xd05;" horiz-adv-x="2704" 
d="M75 499q0 126 50 235t137 190.5t199.5 127t238.5 45.5q112 0 211 -38q101 33 198 33q151 0 261.5 -60t177.5 -152q65 94 173 153.5t256 59.5q132 0 249.5 -48t208 -133.5t142.5 -199.5t52 -245q0 -126 -56 -238t-155 -182t-227 -70q-115 0 -206 55.5t-143 149t-52 206.5
q0 121 55 216.5t149.5 151.5t212.5 56q9 0 18 -0.5t18 -1.5q-57 39 -122.5 61t-142.5 22q-166 0 -247 -99t-81 -263l1 -456q-1 -41 -30 -70t-70 -29q-40 0 -69.5 29t-30.5 69l-1 457q0 160 -79.5 255t-234.5 105q29 -40 51.5 -91t22.5 -112q0 -43 -11 -79t-32 -69
q49 -42 78 -104t29 -130q0 -95 -48.5 -169.5t-128 -117t-173.5 -42.5q-133 0 -231 69.5t-151.5 182t-53.5 239.5q0 133 45.5 238t123.5 189q-100 -10 -187 -63.5t-141 -139.5t-54 -194q0 -119 65 -206t152 -125q26 -10 43.5 -37t17.5 -55q0 -41 -29.5 -70.5t-70.5 -29.5
q-22 0 -42 9q-90 40 -166.5 114t-123 175.5t-46.5 225.5zM963 415q-4 0 -9 -0.5t-10 -0.5q-41 0 -70.5 29.5t-29.5 70.5q0 40 27.5 68.5t67.5 31.5q29 2 50 23t21 50q0 47 -36 88.5t-69 63.5q-93 -51 -155 -149.5t-62 -220.5q0 -74 28 -141t81 -109t127 -42q58 0 104 35.5
t46 90.5q0 47 -32 79.5t-79 32.5zM2412 403q0 90 -61.5 149.5t-144.5 59.5q-91 0 -153 -64.5t-62 -157.5q0 -88 56 -150.5t144 -62.5q55 0 105.5 30t83 81t32.5 115z" />
    <glyph glyph-name="ml_aa" unicode="&#xd06;" horiz-adv-x="2929" 
d="M75 489q0 127 50 236.5t137 191.5t200 128t239 46q104 0 203 -36q99 35 202 35q152 0 263.5 -61t178.5 -154q65 94 173.5 157t256.5 63q138 0 256.5 -52t206.5 -139.5t136 -195.5q115 -70 196.5 -196t81.5 -300q0 -169 -78 -301.5t-210 -208.5t-296 -76q-112 0 -218 42
t-189 121q-13 12 -22.5 33.5t-9.5 39.5q0 41 29.5 70.5t70.5 29.5t70 -29q53 -51 125.5 -78.5t147.5 -27.5q106 0 192 50.5t137 138t51 196.5q0 47 -9 84.5t-25 71.5q-18 -104 -77.5 -195t-151.5 -147t-207 -56q-103 0 -193.5 52t-146.5 141.5t-56 202.5q0 132 65.5 226.5
t173.5 146t234 54.5q-59 45 -129.5 73.5t-153.5 28.5q-166 0 -245.5 -103t-83.5 -268l1 -448q-1 -41 -30 -70t-70 -29q-40 0 -69.5 29.5t-30.5 69.5l-1 449q-4 162 -82.5 258t-234.5 106q31 -40 53.5 -93t22.5 -115q0 -81 -41 -146q49 -41 78 -102.5t29 -128.5
q0 -95 -48 -168.5t-127.5 -115t-172.5 -41.5q-134 0 -232.5 69.5t-152 182t-53.5 239.5q0 128 42.5 231.5t118.5 186.5q-99 -11 -184.5 -65.5t-138 -140.5t-52.5 -193q0 -115 60 -200.5t140 -126.5q23 -11 39.5 -37.5t16.5 -52.5q0 -41 -29.5 -70.5t-70.5 -29.5
q-24 0 -48 12q-83 43 -153 116t-112.5 171.5t-42.5 217.5zM967 408q-6 0 -11.5 -0.5t-11.5 -0.5q-41 0 -70.5 29.5t-29.5 70.5q0 42 30 70t73 31q26 5 44 24.5t18 47.5q0 48 -37.5 90.5t-71.5 64.5q-91 -51 -151 -147.5t-60 -215.5q0 -74 28 -141t81.5 -109.5t128.5 -42.5
q56 0 101.5 34t45.5 88q0 46 -31 76.5t-76 30.5zM2185 170q72 0 127 42.5t86 110t31 141.5q0 49 -14 102q-68 27 -141 27q-74 0 -139 -26t-105 -76t-40 -123q0 -85 58.5 -141.5t136.5 -56.5z" />
    <glyph glyph-name="ml_i" unicode="&#xd07;" horiz-adv-x="1984" 
d="M1027 919q54 74 143.5 125t209.5 51q115 0 211 -46.5t167 -126.5t110 -183.5t39 -217.5q0 -192 -86.5 -314t-237.5 -180t-343 -59l-763 -3q-31 0 -79 -2t-85.5 -13t-37.5 -38q0 -30 33 -42.5t78.5 -15t83.5 -2.5l1338 -1h1q41 0 70.5 -29.5t29.5 -70.5t-29.5 -70.5
t-70.5 -29.5h-1l-1364 1h-19q-85 0 -165.5 27.5t-132.5 84.5t-52 147q0 101 58.5 156.5t150 77t188.5 21.5q26 0 50.5 -0.5t47.5 -0.5h5l664 3q136 1 241.5 33.5t166 109.5t60.5 211q0 97 -42 182t-115.5 138t-168.5 53q-125 0 -187 -82.5t-62 -204.5l1 -320q-1 -41 -30 -70
t-70 -29q-40 0 -69.5 29t-30.5 69l-1 323q-1 132 -78 207t-214 75q-116 0 -204 -62q92 -1 167 -45t119.5 -118.5t44.5 -167.5q0 -89 -43.5 -162.5t-116.5 -117.5t-162 -44q-100 0 -180 51t-127 135t-47 183q0 155 71.5 279t195 196.5t280.5 72.5q131 0 229 -48t160 -125z
M567 498q0 55 -38 93.5t-93 38.5t-97 -38.5t-41 -91.5q2 -59 43.5 -92t102.5 -33q50 0 86.5 36.5t36.5 86.5z" />
    <glyph glyph-name="ml_ii" unicode="&#xd08;" horiz-adv-x="3443" 
d="M2726 639.164v-5.25977q-7 -35.7705 -35 -56.2861q-28 -20.5146 -60 -20.5146q-41 0 -67.5 31.0352q-26.5 31.0361 -26.5 68.9102v46.291q-1 88.373 -54 152.549t-140 64.1758q-82 0 -136.5 -62.5977t-54.5 -147.814q0 -44.1865 24 -90.4775q12 -22.0928 12 -47.3428
q0 -36.8223 -26 -67.332t-67 -30.5098q-31 0 -53 15.7812q-22 15.7803 -33 37.874q-25 46.291 -36 92.0557t-11 93.1074q0 109.414 49.5 202.522q49.5 93.1074 135.5 149.393t196 56.2852q95 0 174 -44.1865t122 -113.623q47 69.4365 128.5 112.571t179.5 43.1348
q121 0 216 -71.0146t150 -183.059q55 -112.045 55 -235.137q0 -149.393 -61 -275.114t-166 -218.303q-105 -92.582 -237 -143.606q-132 -51.0254 -273 -51.0254q-178 0 -339 74.6963q-23 10.5205 -40.5 34.7178q-17.5 24.1982 -17.5 55.7598q0 41.0303 27.5 70.4883
t67.5 29.458q21 0 40 -9.46875q121 -54.707 264 -54.707q106 0 204 37.874t175 105.206t121.5 156.231t44.5 189.897q0 75.748 -30.5 140.45t-84 104.154t-122.5 39.4521q-107 0 -160 -75.748q-53 -75.749 -55 -200.944zM1027 919q54 74 143.5 125t209.5 51q115 0 211 -46.5
t167 -126.5t110 -183.5t39 -217.5q0 -192 -86.5 -314t-237.5 -180t-343 -59l-763 -3q-31 0 -79 -2t-85.5 -13t-37.5 -38q0 -30 33 -42.5t78.5 -15t83.5 -2.5l1338 -1h1q41 0 70.5 -29.5t29.5 -70.5t-29.5 -70.5t-70.5 -29.5h-1l-1364 1h-19q-85 0 -165.5 27.5t-132.5 84.5
t-52 147q0 101 58.5 156.5t150 77t188.5 21.5q26 0 50.5 -0.5t47.5 -0.5h5l664 3q136 1 241.5 33.5t166 109.5t60.5 211q0 97 -42 182t-115.5 138t-168.5 53q-125 0 -187 -82.5t-62 -204.5l1 -320q-1 -41 -30 -70t-70 -29q-40 0 -69.5 29t-30.5 69l-1 323q-1 132 -78 207
t-214 75q-116 0 -204 -62q92 -1 167 -45t119.5 -118.5t44.5 -167.5q0 -89 -43.5 -162.5t-116.5 -117.5t-162 -44q-100 0 -180 51t-127 135t-47 183q0 155 71.5 279t195 196.5t280.5 72.5q131 0 229 -48t160 -125zM567 498q0 55 -38 93.5t-93 38.5t-97 -38.5t-41 -91.5
q2 -59 43.5 -92t102.5 -33q50 0 86.5 36.5t36.5 86.5z" />
    <glyph glyph-name="ml_u" unicode="&#xd09;" horiz-adv-x="1384" 
d="M421 216q-105 0 -181 54.5t-117 142t-41 185.5q0 152 78.5 264.5t204.5 174t271 61.5q130 0 246.5 -46t206.5 -129t141.5 -194.5t51.5 -241.5q0 -165 -75.5 -280.5t-207 -175.5t-299.5 -60q-15 0 -30 0.5t-29 0.5l-105 2h-49q-43 0 -92.5 -5.5t-84.5 -23.5t-35 -57
q0 -38 42 -53t98.5 -17.5t101.5 -2.5l691 -2h1q41 0 70.5 -29.5t29.5 -70.5t-29.5 -70.5t-70.5 -29.5h-2l-691 2h-33q-101 0 -194.5 25t-153.5 85t-60 165q0 100 59.5 163t151 92.5t187.5 29.5q18 0 34.5 -0.5t32.5 -0.5l105 -2q9 0 18 -0.5t18 -0.5q115 0 205 31t142 100
t52 182q0 117 -61 210.5t-161 148.5t-219 55q-84 0 -158 -30q110 -25 184 -115.5t74 -210.5q0 -87 -43 -161t-115 -119.5t-160 -45.5zM419 416q50 0 85 37.5t35 85.5q0 52 -36.5 95t-92.5 43q-53 0 -89.5 -36t-35.5 -88q2 -56 40.5 -96.5t93.5 -40.5z" />
    <glyph glyph-name="ml_uu" unicode="&#xd0a;" horiz-adv-x="2741" 
d="M2025.48 649.858v-5.09277q-6.58691 -34.6338 -32.9346 -54.4961q-26.3477 -19.8633 -56.459 -19.8633q-38.5801 0 -63.5156 30.0488q-24.9355 30.0498 -24.9355 66.7197v44.8193q-0.941406 85.5635 -50.8135 147.699q-49.8721 62.1348 -131.737 62.1348
q-77.1602 0 -128.443 -60.6074t-51.2832 -143.115q0 -42.7822 22.584 -87.6006q11.291 -21.3916 11.291 -45.8379q0 -35.6514 -24.4648 -65.1914q-24.4658 -29.54 -63.0459 -29.54q-29.1699 0 -49.8721 15.2793q-20.7012 15.2793 -31.0518 36.6699
q-23.5244 44.8193 -33.876 89.1289q-10.3506 44.3096 -10.3506 90.1475q0 105.937 46.5791 196.084q46.5781 90.1475 127.502 144.644q80.9248 54.4951 184.432 54.4951q89.3936 0 163.73 -42.7812q74.3379 -42.7822 114.8 -110.011q44.2256 67.2285 120.916 108.992
q76.6895 41.7627 168.905 41.7627q113.858 0 203.252 -68.7559q89.3926 -68.7568 141.146 -177.239t51.7539 -227.661q0 -144.644 -57.3994 -266.368q-57.4004 -121.725 -156.203 -211.362q-98.8027 -89.6387 -223.012 -139.041q-124.209 -49.4033 -256.888 -49.4033
q-167.494 0 -318.991 72.3223q-21.6426 10.1855 -38.1094 33.6143q-16.4678 23.4277 -16.4678 53.9863q0 39.7266 25.877 68.2471q25.877 28.5215 63.5166 28.5215q19.7598 0 37.6387 -9.16699q113.858 -52.9688 248.419 -52.9688q99.7432 0 191.959 36.6709
q92.2168 36.6699 164.672 101.861t114.329 151.265q41.873 86.0723 41.873 183.859q0 73.3408 -28.6992 135.985q-28.7002 62.6455 -79.043 100.843q-50.3418 38.1982 -115.27 38.1982q-100.685 0 -150.557 -73.3398q-49.8721 -73.3408 -51.7539 -194.556zM421 216
q-105 0 -181 54.5t-117 142t-41 185.5q0 152 78.5 264.5t204.5 174t271 61.5q130 0 246.5 -46t206.5 -129t141.5 -194.5t51.5 -241.5q0 -165 -75.5 -280.5t-207 -175.5t-299.5 -60q-15 0 -30 0.5t-29 0.5l-105 2h-49q-43 0 -92.5 -5.5t-84.5 -23.5t-35 -57q0 -38 42 -53
t98.5 -17.5t101.5 -2.5l691 -2h1q41 0 70.5 -29.5t29.5 -70.5t-29.5 -70.5t-70.5 -29.5h-2l-691 2h-33q-101 0 -194.5 25t-153.5 85t-60 165q0 100 59.5 163t151 92.5t187.5 29.5q18 0 34.5 -0.5t32.5 -0.5l105 -2q9 0 18 -0.5t18 -0.5q115 0 205 31t142 100t52 182
q0 117 -61 210.5t-161 148.5t-219 55q-84 0 -158 -30q110 -25 184 -115.5t74 -210.5q0 -87 -43 -161t-115 -119.5t-160 -45.5zM419 416q50 0 85 37.5t35 85.5q0 52 -36.5 95t-92.5 43q-53 0 -89.5 -36t-35.5 -88q2 -56 40.5 -96.5t93.5 -40.5z" />
    <glyph glyph-name="ml_r" unicode="&#xd0b;" horiz-adv-x="1688" 
d="M334 267q-66 43 -125.5 108t-96.5 150t-37 187q0 95 40.5 182.5t116.5 143.5t180 56q87 0 157 -41.5t111 -110.5t41 -152q0 -86 -41.5 -157t-112 -112.5t-157.5 -41.5h-12t-13 1q50 -46 126 -77.5t164.5 -47t174.5 -15.5q138 0 243 30t191 100q-86 3 -155 44.5
t-109 111.5t-40 157q0 85 39.5 155t108.5 112.5t156 42.5q105 0 179 -54.5t112.5 -141t38.5 -181.5q0 -105 -38.5 -190.5t-99.5 -149t-129 -106.5q60 -29 113 -79t86.5 -117.5t33.5 -150.5q0 -134 -63.5 -217t-169 -127t-235 -60t-261.5 -16t-262.5 16.5t-237.5 61
t-171 128.5t-64 219q0 122 66.5 207.5t151.5 131.5zM407 678q47 0 80.5 33t33.5 79q0 43 -30.5 73.5t-74.5 30.5q-43 0 -81 -29.5t-38 -74.5q0 -46 32.5 -79t77.5 -33zM1180 783q0 -46 33 -79.5t81 -33.5q47 0 78.5 35t36.5 77q-10 43 -40 77t-80 34q-48 0 -78.5 -33
t-30.5 -77zM846 -324q85 0 178 8t174 32.5t131.5 74t50.5 132.5q0 95 -45.5 147t-121.5 75t-170.5 28t-192.5 5q-68 0 -158.5 -14.5t-176.5 -44.5t-142.5 -77.5t-56.5 -112.5q0 -82 50 -132.5t130 -76.5t172.5 -35t177.5 -9z" />
    <glyph glyph-name="ml_l" unicode="&#xd0c;" horiz-adv-x="2096" 
d="M1040 884q60 86 164 146t240 60q122 0 227 -49.5t183.5 -135t122.5 -195.5t44 -231q0 -130 -51 -243.5t-146.5 -183t-229.5 -69.5q-104 0 -186 48t-129.5 130.5t-47.5 186.5q0 108 50.5 192t135.5 132.5t189 48.5q86 0 164 -38q-44 84 -132.5 145.5t-194.5 61.5
q-172 0 -237 -102.5t-67 -279.5l-3 -428q-1 -40 -30 -69t-70 -29t-70 29t-30 70l1 428q0 175 -62 277t-232 102q-104 0 -191.5 -62t-129.5 -146q82 40 169 40q105 0 190 -48.5t135 -133t50 -192.5q0 -105 -47.5 -187.5t-129.5 -130t-186 -47.5q-134 0 -230 70.5t-147 184.5
t-51 244q0 120 43 229.5t120 194.5t180 134.5t224 49.5q134 0 236.5 -59.5t161.5 -144.5zM1431 348q0 -70 46 -117.5t116 -47.5t129 45.5t59 118.5q0 75 -50 124.5t-126 49.5q-71 0 -122.5 -49.5t-51.5 -123.5zM666 347q0 74 -51 123.5t-123 49.5q-76 0 -126.5 -49.5
t-50.5 -125.5q0 -73 59.5 -118.5t129.5 -45.5t116 48t46 118z" />
    <glyph glyph-name="ml_e" unicode="&#xd0e;" horiz-adv-x="2252" 
d="M460 546q-83 0 -141.5 -57.5t-58.5 -131.5q0 -64 40 -111t92 -65q26 -9 45 -35t19 -59t-26 -61.5t-61 -28.5q-10 0 -21.5 1t-20.5 5q-103 36 -179.5 130.5t-76.5 223.5q0 106 52 192t140.5 137t196.5 51q109 0 196 -52.5t138.5 -138.5t51.5 -186q0 -86 -43 -169l176 3
l1 114q0 149 30 289t95.5 252.5t173 178.5t262.5 66q145 0 262 -65.5t200.5 -176.5t128.5 -251.5t45 -290.5q0 -154 -41 -291t-109.5 -249.5t-152.5 -195.5q-28 -28 -68 -28q-39 0 -67 28t-28 67q0 40 28 68q67 67 123.5 160t91.5 205t35 234q0 113 -29.5 219t-86 191.5
t-138 135.5t-185.5 50q-109 0 -183 -48t-117 -131t-62 -190.5t-19 -227.5v-116l330 -3l3 493q0 38 28 66.5t67 28.5t67 -26t28 -70l-5 -672q-1 -126 -35 -232t-108.5 -169.5t-195.5 -63.5q-123 0 -202 65.5t-118.5 171t-46.5 224.5h-407q-36 0 -65.5 26.5t-29.5 63.5
q0 67 54 91q48 20 85.5 65t37.5 106q0 80 -57 135t-139 55zM1171 2q9 -118 48.5 -193.5t122.5 -75.5q85 0 118 73.5t37 191.5z" />
    <glyph glyph-name="ml_ee" unicode="&#xd0f;" horiz-adv-x="2257" 
d="M452 92q0 -38 -27 -67t-68 -29q-10 0 -19 2.5t-17 5.5q-65 24 -121 73.5t-90.5 119t-34.5 151.5q0 105 52 189.5t141.5 134t199.5 49.5q108 0 195.5 -50t139.5 -134.5t52 -188.5q0 -84 -46 -162l206 -1v246q0 190 60.5 338.5t188.5 234.5t331 86q145 0 266.5 -56
t195 -157t73.5 -236q0 -43 -14 -106.5t-37.5 -122.5t-51.5 -89q70 -54 113 -140t43 -191t-54 -194.5t-143.5 -144t-194.5 -54.5q-7 0 -13 0.5t-11 0.5q-45 1 -67 31.5t-22 63.5q0 34 23 64.5t69 30.5q98 0 160.5 54.5t62.5 155.5q0 82 -52 140.5t-123 68.5q-39 5 -60 34
t-21 61q0 29 16 54t47 37q38 12 69.5 58t50.5 101.5t19 97.5q0 78 -47.5 133t-124.5 84.5t-166 29.5q-216 0 -306 -125t-90 -346v-243l298 -1l4 521q0 42 31 66.5t66 24.5q43 0 68.5 -30t25.5 -71q0 -31 -0.5 -90t-1 -131t-1 -143t-0.5 -125q0 -61 1 -106.5t1 -99.5
q0 -177 -77 -286t-246 -109q-110 0 -186.5 54t-118.5 143t-51 193l-448 2q-45 0 -69 31t-24 65q0 26 14 50.5t45 36.5q47 17 87 60.5t40 104.5q0 77 -57 130t-140 53q-85 0 -143.5 -55.5t-58.5 -125.5q0 -60 38 -104.5t89 -62.5q23 -9 42 -32.5t19 -55.5zM1208 -5
q10 -91 52.5 -146.5t115.5 -55.5q66 0 98 50.5t32 142.5v8z" />
    <glyph glyph-name="ml_ai" unicode="&#xd10;" horiz-adv-x="3588" 
d="M884 367.068q0 -108.025 -52.5 -196.178t-139.5 -140.636q-87 -52.4844 -191 -52.4844q-129 0 -225 68.79q-96 68.7891 -148.5 179.871q-52.5 111.083 -52.5 237.452q0 133.502 50.5 250.189t138 204.84t202 138.089q114.5 49.9355 241.5 49.9355q128 0 241 -50.4453
t199.5 -139.617t136 -206.368q49.5 -117.197 49.5 -249.681q0 -147.771 -50 -258.853t-135 -197.706q-12 -13.248 -33.5 -21.9111q-21.5 -8.66211 -38.5 -8.66211q-41 0 -70.5 30.0635t-29.5 71.8467q0 17.3252 8.5 39.2354q8.5 21.9111 21.5 34.1406q56 57.0693 91 138.088
q35 81.0195 35 172.738q0 121.273 -57.5 222.675q-57.5 101.4 -154.5 162.037t-216 60.6367q-100 0 -196 -41.7832t-152 -141.655q47 29.5537 79.5 36.1777q32.5 6.625 59.5 6.625q106 0 194.5 -53.5039q88.5 -53.5029 141.5 -143.693t53 -200.254zM684 367.068
q0 79.4902 -56.5 135.541t-133.5 56.0508q-79 0 -137 -56.5605t-58 -143.184q0 -48.917 31 -89.1719t78 -64.7129q47 -24.459 93 -24.459q75 0 129 54.5225q54 54.5215 54 131.974zM1795 546q-83 0 -141.5 -57.5t-58.5 -131.5q0 -64 40 -111t92 -65q26 -9 45 -35t19 -59
t-26 -61.5t-61 -28.5q-10 0 -21.5 1t-20.5 5q-103 36 -179.5 130.5t-76.5 223.5q0 106 52 192t140.5 137t196.5 51q109 0 196 -52.5t138.5 -138.5t51.5 -186q0 -86 -43 -169l176 3l1 114q0 149 30 289t95.5 252.5t173 178.5t262.5 66q145 0 262 -65.5t200.5 -176.5
t128.5 -251.5t45 -290.5q0 -154 -41 -291t-109.5 -249.5t-152.5 -195.5q-28 -28 -68 -28q-39 0 -67 28t-28 67q0 40 28 68q67 67 123.5 160t91.5 205t35 234q0 113 -29.5 219t-86 191.5t-138 135.5t-185.5 50q-109 0 -183 -48t-117 -131t-62 -190.5t-19 -227.5v-116l330 -3
l3 493q0 38 28 66.5t67 28.5t67 -26t28 -70l-5 -672q-1 -126 -35 -232t-108.5 -169.5t-195.5 -63.5q-123 0 -202 65.5t-118.5 171t-46.5 224.5h-407q-36 0 -65.5 26.5t-29.5 63.5q0 67 54 91q48 20 85.5 65t37.5 106q0 80 -57 135t-139 55zM2506 2q9 -118 48.5 -193.5
t122.5 -75.5q85 0 118 73.5t37 191.5z" />
    <glyph glyph-name="ml_n" unicode="&#xd12;" horiz-adv-x="1376" 
d="M308 612q37 18 76 28t82 10q99 0 179 -46.5t126.5 -126t46.5 -178.5q0 -98 -45.5 -177t-124 -124.5t-176.5 -45.5q-129 0 -217.5 71.5t-134 185t-45.5 240.5q0 143 53 260.5t147 203t217.5 132t263.5 46.5q118 0 223 -45.5t171 -131.5t66 -209q0 -96 -52 -177
q62 -43 99.5 -113t37.5 -149q0 -83 -41.5 -156t-113 -117.5t-163.5 -44.5q-42 0 -86 11.5t-74 38t-30 69.5q0 41 29.5 70.5t70.5 29.5q23 0 44 -9t45 -9q52 0 85.5 35.5t33.5 81.5q0 49 -35 83.5t-85 34.5q-8 0 -16.5 -1.5t-16.5 -1.5q-41 0 -70.5 29.5t-29.5 70.5
q0 31 21 59t51 37q38 11 66.5 45.5t28.5 83.5q0 63 -39 104t-98.5 61t-123.5 20q-160 0 -278 -81.5t-168 -197.5zM466 450q-64 0 -108 -44t-44 -109q0 -61 50.5 -103t108.5 -42q63 0 104 42.5t41 105.5t-44.5 106.5t-107.5 43.5z" />
    <glyph glyph-name="ml_oo" unicode="&#xd13;" horiz-adv-x="2255" 
d="M1982 540q0 85 -29.5 164.5t-87.5 131t-145 51.5q-76 0 -130.5 -52.5t-60.5 -123.5q-3 -38 -32.5 -65t-67.5 -27q-41 0 -70.5 29.5t-29.5 70.5q0 2 0.5 5t0.5 5q9 97 62.5 178.5t139 130.5t189.5 49q110 0 195.5 -46t144.5 -124t90 -175.5t31 -200.5q0 -106 -31 -208
t-91 -184t-148 -130.5t-203 -48.5q-106 0 -192 50t-138.5 133t-58.5 183v7q0 41 29.5 70.5t70.5 29.5q40 0 69.5 -27.5t30.5 -67.5q5 -72 59 -125t130 -53q92 0 152.5 55t90.5 140.5t30 174.5zM308 612q37 18 76 28t82 10q99 0 179 -46.5t126.5 -126t46.5 -178.5
q0 -98 -45.5 -177t-124 -124.5t-176.5 -45.5q-129 0 -217.5 71.5t-134 185t-45.5 240.5q0 143 53 260.5t147 203t217.5 132t263.5 46.5q118 0 223 -45.5t171 -131.5t66 -209q0 -96 -52 -177q62 -43 99.5 -113t37.5 -149q0 -83 -41.5 -156t-113 -117.5t-163.5 -44.5
q-42 0 -86 11.5t-74 38t-30 69.5q0 41 29.5 70.5t70.5 29.5q23 0 44 -9t45 -9q52 0 85.5 35.5t33.5 81.5q0 49 -35 83.5t-85 34.5q-8 0 -16.5 -1.5t-16.5 -1.5q-41 0 -70.5 29.5t-29.5 70.5q0 31 21 59t51 37q38 11 66.5 45.5t28.5 83.5q0 63 -39 104t-98.5 61t-123.5 20
q-160 0 -278 -81.5t-168 -197.5zM466 450q-64 0 -108 -44t-44 -109q0 -61 50.5 -103t108.5 -42q63 0 104 42.5t41 105.5t-44.5 106.5t-107.5 43.5z" />
    <glyph glyph-name="ml_au" unicode="&#xd14;" horiz-adv-x="2627" 
d="M1973.84 637.838v-5.21875q-6.30664 -35.4863 -31.5312 -55.8379q-25.2246 -20.3525 -54.0527 -20.3525q-36.9355 0 -60.8096 30.7891q-23.873 30.79 -23.873 68.3623v45.9238q-0.901367 87.6699 -48.6475 151.336t-126.123 63.666q-73.8721 0 -122.97 -62.1006
q-49.0986 -62.0996 -49.0986 -146.64q0 -43.8359 21.6211 -89.7578q10.8105 -21.918 10.8105 -46.9668q0 -36.5293 -23.4219 -66.7969q-23.4238 -30.2676 -60.3594 -30.2676q-27.9277 0 -47.7461 15.6553q-19.8203 15.6553 -29.7295 37.5732
q-22.5225 45.9229 -32.4316 91.3242q-9.90918 45.4004 -9.90918 92.3672q0 108.545 44.5928 200.913q44.5938 92.3672 122.069 148.205t176.572 55.8379q85.584 0 156.753 -43.835q71.1689 -43.8359 109.907 -112.72q42.3418 68.8838 115.763 111.676
q73.4219 42.792 161.708 42.792q109.006 0 194.59 -70.4502t135.132 -181.604q49.5479 -111.154 49.5479 -233.268q0 -148.206 -54.9531 -272.928q-54.9531 -124.723 -149.546 -216.568t-213.509 -142.465q-118.916 -50.6201 -245.939 -50.6201q-160.356 0 -305.398 74.1035
q-20.7197 10.4365 -36.4854 34.4414q-15.7646 24.0059 -15.7646 55.3164q0 40.7051 24.7734 69.9277q24.7744 29.2246 60.8096 29.2246q18.9189 0 36.0352 -9.39355q109.007 -54.2725 237.832 -54.2725q95.4932 0 183.779 37.5732t157.653 104.37
q69.3682 66.7969 109.457 154.989q40.0898 88.1924 40.0898 188.388q0 75.1465 -27.4775 139.335q-27.4766 64.1875 -75.6738 103.326q-48.1963 39.1387 -110.357 39.1387q-96.3936 0 -144.141 -75.1465t-49.5479 -199.347zM308 612q37 18 76 28t82 10q99 0 179 -46.5
t126.5 -126t46.5 -178.5q0 -98 -45.5 -177t-124 -124.5t-176.5 -45.5q-129 0 -217.5 71.5t-134 185t-45.5 240.5q0 143 53 260.5t147 203t217.5 132t263.5 46.5q118 0 223 -45.5t171 -131.5t66 -209q0 -96 -52 -177q62 -43 99.5 -113t37.5 -149q0 -83 -41.5 -156
t-113 -117.5t-163.5 -44.5q-42 0 -86 11.5t-74 38t-30 69.5q0 41 29.5 70.5t70.5 29.5q23 0 44 -9t45 -9q52 0 85.5 35.5t33.5 81.5q0 49 -35 83.5t-85 34.5q-8 0 -16.5 -1.5t-16.5 -1.5q-41 0 -70.5 29.5t-29.5 70.5q0 31 21 59t51 37q38 11 66.5 45.5t28.5 83.5
q0 63 -39 104t-98.5 61t-123.5 20q-160 0 -278 -81.5t-168 -197.5zM466 450q-64 0 -108 -44t-44 -109q0 -61 50.5 -103t108.5 -42q63 0 104 42.5t41 105.5t-44.5 106.5t-107.5 43.5z" />
    <glyph glyph-name="k1" unicode="&#xd15;" horiz-adv-x="1905" 
d="M418 -16q-94 0 -172 46t-124.5 123t-46.5 171q0 131 70 216.5t181 129t233 47.5q25 95 81.5 182t145.5 142t208 55q120 0 208 -54.5t145 -140.5t82 -181q110 -6 201 -51t145.5 -126.5t54.5 -197.5q0 -99 -49 -181t-131 -131.5t-182 -49.5q-52 0 -86.5 26t-34.5 75
q0 51 35 75t85 24q68 0 115.5 48t47.5 114q0 79 -53.5 121t-124.5 51q-2 -134 -56.5 -256.5t-156 -199.5t-245.5 -77q-94 0 -173 40t-131 93q-47 -61 -119.5 -97t-152.5 -36zM1218 721q-26 65 -82.5 120t-142.5 55t-141.5 -56t-81.5 -121zM1252 521l-516 -2q2 -84 31 -160.5
t85.5 -125.5t140.5 -49q85 0 142 50t86.5 127.5t30.5 159.5zM415 184q61 0 104 43t43 105q0 47 -12.5 92t-13.5 91q-63 -5 -123 -25t-99 -59.5t-39 -105.5q0 -58 41 -99.5t99 -41.5z" />
    <glyph glyph-name="k2" unicode="&#xd16;" horiz-adv-x="1736" 
d="M1461 1001q0 41 29.5 70.5t70.5 29.5t70.5 -29.5t29.5 -70.5v-2l-4 -899q0 -41 -29.5 -70.5t-70.5 -29.5l-649 1q-41 0 -70.5 30.5t-29.5 71.5q0 23 14 48t34 37q76 46 129.5 127.5t53.5 196.5q0 107 -50 193.5t-135.5 137.5t-190.5 51q-95 0 -170.5 -39.5t-126 -104
t-73.5 -140.5q37 24 87 40t102 16q95 0 173 -46.5t124.5 -124t46.5 -172.5q0 -93 -45.5 -169.5t-121.5 -122.5t-169 -46q-129 0 -222 73t-143 189t-50 244q0 124 43.5 233t122.5 192.5t186.5 130.5t234.5 47q121 0 225.5 -44.5t183.5 -124t123.5 -185t44.5 -228.5
q0 -86 -26 -169t-64 -142l309 -1l3 800v1zM626 323q0 59 -42.5 101t-101.5 42q-62 0 -104.5 -42t-42.5 -104q0 -61 52 -98t103 -37q56 0 96 41.5t40 96.5z" />
    <glyph glyph-name="k3" unicode="&#xd17;" horiz-adv-x="1829" 
d="M582 -15q-108 0 -200.5 43.5t-161 119t-107 173t-38.5 205.5q0 135 51.5 245t137 189.5t185.5 119.5q22 8 39 8q41 0 70.5 -29.5t29.5 -70.5q0 -28 -19 -55t-45 -38q-100 -40 -174.5 -137.5t-74.5 -231.5q0 -89 40 -167t109 -126t157 -48q128 0 174 85t46 216v100
q0 147 48.5 261.5t146 180.5t242.5 66q109 0 202.5 -45t164 -122t110 -175.5t39.5 -205.5q0 -97 -37 -197t-102.5 -183t-151 -134t-182.5 -51q-41 0 -70.5 29.5t-29.5 70.5q0 34 23 62.5t56 35.5q79 18 145.5 69.5t107.5 128t41 169.5q0 90 -42 169.5t-113.5 129
t-162.5 49.5q-133 0 -184 -87.5t-51 -224.5v-100q0 -142 -45.5 -254.5t-138.5 -177.5t-235 -65z" />
    <glyph glyph-name="k4" unicode="&#xd18;" horiz-adv-x="2352" 
d="M467 867q-80 0 -136 -56t-56 -136q0 -65 35 -112t81 -67q26 -10 43.5 -37t17.5 -55q0 -41 -29.5 -70.5t-70.5 -29.5q-22 0 -42 9q-94 42 -164.5 136t-70.5 225q0 111 52 200t141.5 141.5t200.5 52.5q112 0 201 -52.5t141 -141.5t52 -200q0 -90 -42 -176l159 1l1 97
q1 242 117 371.5t357 129.5q236 0 356.5 -142t120.5 -381v-22l-4 -149q-1 -40 -29.5 -69t-69.5 -29l-649 -5v-98h897l1 789v2q0 41 29.5 70.5t70.5 29.5t70.5 -29.5t29.5 -70.5v-2l-1 -889q0 -41 -29.5 -70.5t-70.5 -29.5h-1097q-41 0 -70.5 29.5t-29.5 70.5v197l-414 -3h-1
q-41 0 -70.5 29.5t-29.5 70.5q0 29 19.5 57t47.5 38q53 18 91.5 66t38.5 118q0 82 -56 137t-139 55zM1181 596l-1 -96l551 4l1 52v20q0 152 -62.5 236.5t-214.5 84.5q-155 0 -214.5 -71.5t-59.5 -229.5z" />
    <glyph glyph-name="ng" unicode="&#xd19;" horiz-adv-x="2056" 
d="M658 1091q140 0 248.5 -64t169.5 -154q65 94 174 156t257 62q84 0 168 -32t153 -88t111 -127.5t42 -149.5q0 -51 -28.5 -103.5t-75.5 -102.5q36 -34 69.5 -88t33.5 -119q0 -88 -46 -156t-121 -106.5t-163 -38.5q-48 0 -105 13.5t-98 43.5t-41 81q0 41 29.5 70.5
t70.5 29.5q25 0 49 -13q43 -24 97 -24q50 0 88.5 28t38.5 74q0 62 -56 79t-124 18l-59 1q-41 1 -70 30t-29 70q0 40 28 69t67 31l69 3q70 3 123 29.5t53 95.5q0 64 -43 105.5t-106.5 61.5t-127.5 20q-125 0 -196 -54t-100.5 -150t-29.5 -223l2 -392v-1q0 -41 -29.5 -70
t-70.5 -29q-40 0 -69.5 29t-30.5 69l-3 411q-1 123 -30 214t-98 140.5t-190 49.5q-104 0 -191 -56.5t-134 -136.5q81 37 161 37q101 0 186.5 -50.5t138 -136.5t52.5 -194q0 -105 -49.5 -188t-133 -130.5t-187.5 -47.5q-132 0 -228 69.5t-147.5 181.5t-51.5 241
q0 122 44.5 232.5t124 196t185.5 134.5t229 49zM672 352q0 77 -51 128.5t-126 51.5q-72 0 -126.5 -49.5t-54.5 -124.5t57 -123.5t130 -48.5q71 0 121 46.5t50 119.5z" />
    <glyph glyph-name="ch1" unicode="&#xd1a;" horiz-adv-x="1559" 
d="M1284 995q0 41 29.5 70.5t70.5 29.5t70.5 -29.5t29.5 -70.5v-893q0 -41 -29.5 -70.5t-70.5 -29.5q-308 -1 -617 -1t-617 -1q-41 0 -70.5 29.5t-29.5 70.5t29.5 70.5t71.5 29.5l559 2q51 0 94 29.5t68.5 78t25.5 104.5q0 77 -52 135.5t-129 58.5q-64 0 -110 -46t-46 -114
q0 -30 11.5 -54.5t11.5 -52.5q0 -41 -29.5 -70.5t-70.5 -29.5q-46 0 -73 34t-39 82.5t-12 91.5q0 104 49.5 185t131.5 127.5t179 46.5q106 0 191.5 -55t136 -144.5t50.5 -193.5q0 -61 -15 -113t-44 -99l245 -1v793z" />
    <glyph glyph-name="ch2" unicode="&#xd1b;" horiz-adv-x="2515" 
d="M1213 485q0 125 47 235.5t129.5 194.5t192.5 132t236 48q130 0 243 -48.5t198.5 -134.5t133.5 -199.5t48 -244.5q0 -125 -53.5 -233.5t-149.5 -175.5t-225 -67q-123 0 -217 63.5t-146.5 167t-52.5 224.5q0 141 72 261.5t178 185.5q-8 1 -15.5 1h-15.5
q-113 0 -204.5 -56.5t-145 -149t-53.5 -202.5q0 -87 37.5 -171t102.5 -142q14 -12 24 -34t10 -41q0 -41 -29.5 -70.5t-70.5 -29.5h-1l-1336 1q-41 0 -70.5 31t-29.5 72t29.5 70.5t70.5 29.5h536q86 0 149 59t63 158q0 76 -52 134.5t-126 58.5q-61 0 -110.5 -46t-49.5 -113
q0 -27 12 -54t12 -54q0 -41 -29.5 -70.5t-70.5 -29.5q-46 0 -73 34t-39 82.5t-12 91.5q0 104 49 185t130.5 127.5t179.5 46.5q106 0 191.5 -54.5t136 -144t50.5 -194.5q0 -57 -15 -113t-47 -106l249 -1q-36 69 -53.5 141.5t-17.5 143.5zM2012 192q70 0 121.5 39.5
t79.5 102.5t28 131q0 91 -39.5 174t-89.5 133q-86 -3 -157.5 -48t-114 -118t-42.5 -162q0 -63 27 -121t75 -94.5t112 -36.5z" />
    <glyph glyph-name="ch3" unicode="&#xd1c;" horiz-adv-x="1540" 
d="M786 964q46 51 113 91t150 40q116 0 207.5 -56.5t145 -151t53.5 -208.5q0 -79 -29 -151.5t-77 -130.5q47 -31 81.5 -87t34.5 -125q0 -70 -33.5 -127t-90.5 -91t-128 -34q-67 0 -122 33.5t-89 87.5t-40 118q-81 -45 -171 -100t-192.5 -95.5t-224.5 -40.5
q-74 0 -140.5 29.5t-108 84.5t-41.5 133t40 130t105.5 78.5t140.5 26.5q113 0 225 -17.5t214 -17.5q109 0 211 31t168.5 96.5t66.5 168.5q0 87 -59 153.5t-148 66.5q-94 0 -128 -54.5t-36 -151.5l-2 -156q-1 -40 -27.5 -68.5t-67.5 -28.5t-68 29.5t-27 70.5l1 168
q1 103 -47.5 145.5t-128.5 41.5q61 -20 81.5 -80t20.5 -124q0 -115 -73 -184.5t-187 -69.5q-82 0 -146 36.5t-101 99.5t-37 142q0 114 55.5 199.5t148.5 133t204 47.5q93 0 173 -40t130 -91zM439 700q0 34 -34 62t-68 28q-24 0 -56 -29t-32 -55q0 -38 33.5 -62.5t70.5 -24.5
q29 0 57.5 25.5t28.5 55.5zM1279 186q0 27 -21.5 47.5t-47.5 20.5q-20 0 -43 -22.5t-23 -45.5t22 -44t44 -21t45.5 22t23.5 43zM717 228l-339 15q-24 0 -60.5 -13.5t-36.5 -43.5q0 -42 33 -58t64 -16q42 0 108.5 21.5t131 49t99.5 45.5z" />
    <glyph glyph-name="ch4" unicode="&#xd1d;" horiz-adv-x="3131" 
d="M1116 893q81 -88 126.5 -198.5t45.5 -243.5q0 -119 -48.5 -227t-139 -175.5t-216.5 -67.5q-124 0 -213.5 65.5t-138 171t-48.5 224.5q0 142 49 253t132 199h-3q-110 0 -197.5 -50.5t-138 -137t-50.5 -195.5q0 -118 61 -206.5t143 -132.5q23 -11 39 -37t16 -52
q0 -41 -29.5 -70.5t-70.5 -29.5q-27 0 -48 12q-84 44 -155 119t-114 175.5t-43 221.5q0 166 77.5 297.5t210.5 208.5t299 77q120 0 231 -45q110 43 230 43q171 0 283.5 -70t172 -194.5t69.5 -288.5l5 -78q4 -65 17 -129.5t46.5 -107.5t98.5 -43q60 0 94 44t48.5 109
t12.5 127v536q0 41 26.5 70.5t67.5 29.5t70 -28.5t30 -67.5l11 -531q2 -81 50 -146.5t124 -103.5t160 -38q95 0 173 48.5t125 128t47 173.5q0 98 -48 181t-130 133.5t-185 50.5q-10 0 -20 -1t-20 -1q-41 0 -70.5 29.5t-29.5 70.5q0 56 41.5 79t100.5 23q117 0 219 -44
t179.5 -122t121 -179.5t43.5 -216.5q0 -113 -43 -213t-118.5 -176.5t-174.5 -120t-211 -43.5q-116 0 -222 48t-182 134q-40 -71 -113 -126.5t-180 -55.5q-126 0 -202.5 67.5t-113 174.5t-43.5 225l-4 78q-10 170 -82 268t-251 98zM891 824q-88 -56 -147 -155.5t-59 -222.5
q0 -65 22 -126t66.5 -100t110.5 -39q68 0 113 40.5t68 103t23 128.5q0 116 -55 214.5t-142 156.5z" />
    <glyph glyph-name="nj" unicode="&#xd1e;" horiz-adv-x="2527" 
d="M1044 901q59 84 157.5 139t231.5 55q65 0 120.5 -12.5t109.5 -35.5q110 48 226 48q120 0 222.5 -47t179 -129t119.5 -188.5t43 -225.5q0 -150 -67.5 -283t-185.5 -222q-29 -21 -61 -21q-41 0 -70.5 29.5t-29.5 70.5q0 21 12 44.5t29 36.5q79 59 126 152t47 193
q0 103 -47.5 192t-129 143.5t-184.5 54.5h-15q84 -92 132 -206.5t48 -260.5q0 -116 -46.5 -219.5t-133 -168t-206.5 -64.5q-123 0 -209 66.5t-131.5 172t-45.5 222.5q0 136 44 250t126 207q-7 1 -14 1h-14q-105 0 -165.5 -48t-86 -132t-25.5 -192l1 -446q-1 -41 -30 -70
t-70 -29q-40 0 -69.5 29t-30.5 69l-2 440q-1 168 -71 271.5t-234 103.5q-126 0 -212 -71.5t-124 -164.5q41 23 85 36t96 13q100 0 181.5 -48.5t130 -130t48.5 -180.5q0 -98 -48.5 -179t-128.5 -129t-177 -48q-136 0 -230 71t-142 185t-48 243q0 168 73 304.5t201.5 217.5
t295.5 81q132 0 234.5 -55t164.5 -135zM1857 430q0 127 -54.5 227.5t-137.5 159.5q-80 -59 -129.5 -159t-49.5 -219q0 -63 20 -123.5t61 -100t104 -39.5t104 37.5t61.5 96t20.5 120.5zM649 346q0 65 -47.5 111.5t-114.5 46.5q-65 0 -112 -47.5t-47 -112.5q0 -68 50 -111.5
t117 -43.5q64 0 109 46.5t45 110.5z" />
    <glyph glyph-name="t1" unicode="&#xd1f;" horiz-adv-x="1134" 
d="M1060 318q0 -91 -41 -155.5t-109.5 -105.5t-152 -60t-168.5 -19q-304 0 -487 196q-27 26 -27 66q0 41 28.5 67t67.5 26q41 0 69 -30q128 -133 350 -133q116 0 198.5 36.5t82.5 113.5q0 79 -81.5 106t-215.5 27q-139 1 -249 31.5t-173.5 100t-63.5 187.5q0 102 65 174.5
t170.5 111t225.5 38.5q292 0 447 -204q20 -28 20 -61q0 -40 -30 -65.5t-68 -25.5q-44 0 -73 36q-49 63 -123.5 95.5t-178.5 32.5q-106 0 -185.5 -38t-79.5 -96q0 -49 38.5 -75.5t102.5 -37t142 -11.5q139 -2 252 -32t180 -101t67 -195z" />
    <glyph glyph-name="t2" unicode="&#xd20;" horiz-adv-x="1265" 
d="M633 1095q114 0 215 -44t178 -120.5t121 -177.5t44 -215t-44 -215t-121 -177.5t-178 -120.5t-215 -44t-215 43.5t-178 120.5t-121 178t-44 215q0 115 44 215.5t121 177.5t178 120.5t215 43.5zM632 895q-97 0 -178 -48.5t-130 -129.5t-49 -178t49 -178.5t130 -130.5
t178 -49q98 0 179.5 49t130.5 130.5t49 178.5t-49 178t-130.5 129.5t-179.5 48.5z" />
    <glyph glyph-name="t3" unicode="&#xd21;" horiz-adv-x="2442" 
d="M1461.48 138.977q-39.9805 -64.0703 -108.446 -113.125q-68.4668 -49.0537 -164.42 -49.0537q-123.939 0 -201.901 71.0781t-114.943 182.2q-36.9824 111.122 -36.9824 230.253q0 40.0439 1.49902 78.085q1.49902 38.042 1.49902 77.085q0 124.136 -54.9727 202.222
t-177.913 78.0859q-90.9561 0 -163.42 -48.5537q-72.4648 -48.5527 -115.444 -127.64q-42.9785 -79.0869 -42.9785 -172.189q0 -94.1025 39.4805 -170.187q39.4805 -76.083 103.949 -128.141q64.4688 -52.0566 140.432 -73.0801q30.9844 -8.00879 52.9746 -36.54
q21.9883 -28.5312 21.9883 -60.5664q0 -41.0449 -29.4854 -70.5771t-70.4658 -29.5322q-11.9941 0 -27.9863 4.00391q-115.943 32.0352 -213.895 111.122q-97.9531 79.0869 -157.424 195.214q-59.4707 116.128 -59.4707 259.285q0 111.121 39.9805 209.729t111.445 174.692
q71.4648 76.083 165.919 119.631t204.4 43.5479q136.933 0 233.886 -62.0684q96.9531 -62.0674 147.928 -169.686t50.9746 -245.771q0 -37.04 -1.49902 -72.0791q-1.49902 -35.0381 -1.49902 -71.0771q0 -68.0752 11.9941 -136.65t45.4775 -115.126
q33.4834 -46.5518 98.4521 -46.5518q52.9746 0 83.959 35.5391t45.4775 91.6006t18.4912 120.132t3.99805 120.132v450.494q1 40.0439 29.9854 69.0762t69.9658 29.0322q39.9805 0 69.4658 -28.5312t30.4854 -69.5771v-452.496q0 -105.115 25.9873 -187.706t86.458 -129.643
t163.42 -47.0518q97.9521 0 178.413 48.5537q80.46 48.5527 127.438 130.143t46.9775 179.697q0 96.1055 -48.4766 177.695t-130.437 130.644t-182.911 49.0537q-18.9902 0 -36.9814 -3.00391q-17.9912 -3.00293 -36.9814 -3.00293q-40.9805 0 -70.4658 29.5322
t-29.4854 70.5781q0 35.0381 24.9873 64.0703q24.9873 29.0312 59.9707 34.0371q49.9756 8.00879 91.9551 8.00879q116.942 0 218.394 -44.5488q101.45 -44.5488 177.913 -122.135q76.4619 -77.585 119.441 -178.695q42.9795 -101.111 42.9795 -213.234
q0 -115.126 -42.9795 -216.237t-118.442 -178.195q-75.4629 -77.085 -176.414 -120.633q-100.95 -43.5479 -215.895 -43.5479q-119.941 0 -208.397 45.5498q-88.457 45.5508 -147.429 116.629z" />
    <glyph glyph-name="t4" unicode="&#xd22;" horiz-adv-x="2613" 
d="M1720 708q0 105 51.5 193t139 140.5t196.5 52.5q135 0 231.5 -69t148 -182t51.5 -244q0 -191 -87.5 -331.5t-239 -217t-343.5 -76.5q-121 0 -211.5 42t-152.5 115q-43 -59 -115.5 -105.5t-167.5 -46.5q-111 0 -191 59t-123 153t-43 198q0 68 9.5 123t9.5 98
q0 77 -40 139.5t-105.5 100t-143.5 37.5q-89 0 -161.5 -47t-115 -124.5t-42.5 -169.5q0 -98 45.5 -177.5t120.5 -130t164 -60.5q38 -4 64 -32.5t26 -66.5q0 -41 -29.5 -70.5t-70.5 -29.5h-13q-137 16 -252.5 93.5t-185 200.5t-69.5 274q0 110 40 207.5t111.5 172.5
t166 117.5t202.5 42.5q135 0 246 -65t176.5 -175t65.5 -245q0 -66 -9.5 -119.5t-9.5 -95.5q0 -50 18 -98t52.5 -79t85.5 -31q76 0 113.5 51.5t50.5 129t14 156.5l6 480q1 41 30.5 69.5t69.5 28.5q41 0 70.5 -29.5t29.5 -70.5l-6 -488q0 -147 62 -239.5t208 -92.5
q139 0 245.5 53t161.5 140q-40 -20 -81.5 -31t-91.5 -11q-104 0 -191 52.5t-139 139.5t-52 191zM2103 525q74 0 126.5 54t52.5 127q0 101 -57.5 143.5t-137.5 43.5q-72 1 -119.5 -55.5t-47.5 -127.5q0 -76 53.5 -130.5t129.5 -54.5z" />
    <glyph glyph-name="nh" unicode="&#xd23;" horiz-adv-x="2774" 
d="M647 1098q137 0 242 -61.5t166 -147.5q49 78 137.5 141t208.5 63q119 0 206.5 -62t136.5 -141q62 85 163 143t238 58q114 0 214.5 -43t176.5 -119t119.5 -176.5t43.5 -216.5q0 -114 -43 -214.5t-119 -177t-176.5 -119.5t-216.5 -43q-16 0 -33 1t-34 3q-37 4 -63 33
t-26 66q0 41 29.5 70.5t70.5 29.5q14 0 27.5 -1.5t26.5 -1.5q99 0 180 47.5t129 127.5t48 177q0 99 -48 180t-128 129t-177 48q-120 0 -187.5 -57t-94.5 -155t-27 -221l2 -379q0 -41 -29.5 -70t-70.5 -29q-40 0 -69.5 29t-30.5 69l-3 375q-1 77 -10 154.5t-33 142t-70 104
t-121 39.5q-93 0 -145 -59t-72.5 -150t-20.5 -188l3 -417q0 -41 -29.5 -70t-70.5 -29q-40 0 -69.5 29t-30.5 69l-3 417q0 112 -32.5 203.5t-102 145.5t-181.5 54q-66 0 -129 -30.5t-113.5 -80t-81.5 -109t-33 -118.5q42 57 96 82.5t109 25.5q96 0 173.5 -45.5t123.5 -123
t46 -174.5t-45 -174t-122.5 -121.5t-175.5 -44.5q-133 0 -227.5 68.5t-144 180.5t-49.5 243q0 123 43 234.5t120 198.5t181.5 137.5t227.5 50.5zM498 468q-61 0 -103 -41t-42 -102q0 -62 39 -101t103 -39q62 0 103 40t41 102q0 59 -41 100t-100 41z" />
    <glyph glyph-name="th1" unicode="&#xd24;" horiz-adv-x="1803" 
d="M898 1042q119 52 247 52q164 0 296 -74.5t209.5 -204t77.5 -295.5q0 -131 -48.5 -236t-129 -179t-176.5 -114q-20 -8 -39 -8q-41 0 -70.5 29.5t-29.5 70.5q0 29 18.5 56t44.5 37q93 38 161.5 127t68.5 216q0 109 -50.5 193.5t-137 133t-193.5 48.5q-9 0 -18.5 -0.5
t-18.5 -1.5q80 -84 131.5 -198.5t51.5 -260.5q0 -117 -47.5 -220t-134.5 -167t-208 -64q-122 0 -210.5 65t-136 169.5t-47.5 221.5q0 142 50 255.5t127 197.5q-8 1 -16.5 1h-16.5q-106 0 -192 -47.5t-136 -131.5t-50 -192q0 -130 70.5 -219t167.5 -126q27 -10 46.5 -37.5
t19.5 -56.5q0 -41 -29.5 -70.5t-70.5 -29.5q-18 0 -36 7q-99 38 -183 112t-134.5 180.5t-50.5 239.5q0 166 77 294.5t208 202.5t294 74q127 0 244 -50zM899 813q-78 -56 -134 -152t-56 -221q0 -64 22 -123t65 -97t107 -38q63 0 105 37t63 95t21 121q0 128 -56.5 224.5
t-136.5 153.5z" />
    <glyph glyph-name="th2" unicode="&#xd25;" horiz-adv-x="1609" 
d="M175 1101q42 0 71 -29.5t29 -71.5l5 -799h266l-2 295q-1 176 50 312t161 213t285 77q170 0 279 -76.5t162 -209.5t53 -305l-1 -407q0 -41 -29.5 -70.5t-70.5 -29.5l-1253 1q-41 0 -70.5 29t-29.5 70l-5 899q0 41 28.5 71.5t71.5 30.5zM1041 898q-116 0 -181 -50.5
t-91 -140.5t-25 -209l2 -298h587l1 308q0 114 -27 202t-90.5 138t-175.5 50z" />
    <glyph glyph-name="th3" unicode="&#xd26;" horiz-adv-x="1215" 
d="M685 897q-124 0 -216 -67t-142.5 -171.5t-50.5 -219.5q0 -76 24 -152.5t76 -144.5q22 -27 22 -62q0 -41 -29.5 -70.5t-70.5 -29.5q-21 0 -44.5 12t-36.5 28q-70 92 -106 201.5t-36 222.5q0 134 45.5 252t128.5 208.5t195 142t245 51.5q108 0 203.5 -45t154.5 -128
t59 -196q0 -120 -74 -209q45 -36 76.5 -95t31.5 -134q0 -88 -45 -160t-118.5 -114.5t-159.5 -42.5q-39 0 -93 14.5t-94.5 45.5t-40.5 81q0 41 29.5 70.5t70.5 29.5q33 0 57 -17q32 -22 71 -22q48 0 85.5 32.5t37.5 81.5q0 68 -48 86.5t-119 18.5q-56 0 -93 22.5t-37 77.5
q0 35 24.5 65t59.5 33q87 7 132.5 34.5t45.5 103.5q0 54 -32.5 91t-83 56t-104.5 19z" />
    <glyph glyph-name="th4" unicode="&#xd27;" horiz-adv-x="1920" 
d="M1328 -21q-122 0 -220.5 56t-154.5 133q-56 -78 -152 -134t-222 -56q-146 0 -260 73.5t-179 194t-65 261.5q0 112 41.5 216t115 186.5t170 131t205.5 48.5q41 0 70.5 -29.5t29.5 -70.5q0 -37 -26 -66.5t-64 -33.5q-92 -11 -169.5 -62t-124.5 -132.5t-47 -184.5
q0 -89 38 -164.5t106 -121.5t159 -46q109 0 168 44.5t82 126t23 191.5l2 450q1 41 30.5 70t69.5 29q41 0 70 -29t30 -70v-457q0 -108 23.5 -187.5t83 -122.5t166.5 -43q88 0 160 46t115 122t43 164q0 102 -49.5 187.5t-133 137t-187.5 52.5q-41 0 -70.5 29.5t-29.5 70.5
t29.5 70.5t70.5 29.5q118 0 221.5 -44t182 -122.5t123 -182t44.5 -223.5q0 -110 -40.5 -207t-112 -171.5t-165 -117t-200.5 -42.5z" />
    <glyph glyph-name="n1" unicode="&#xd28;" horiz-adv-x="1920" 
d="M593 1093q122 0 220 -56t154 -133q56 78 152 134t222 56q146 0 260 -73.5t179.5 -193.5t65.5 -262q0 -112 -41.5 -216t-115 -186.5t-169.5 -131t-206 -48.5q-41 0 -70.5 29.5t-29.5 70.5q0 38 26 67t63 33q92 11 170 62t125 132.5t47 184.5q0 89 -38 164.5t-106 121.5
t-159 46q-109 0 -168 -44.5t-81.5 -126t-23.5 -191.5l-2 -450q-1 -40 -30 -69.5t-70 -29.5t-70 29t-30 70l-1 457q0 109 -23.5 188t-83 122t-166.5 43q-88 0 -159.5 -46t-114.5 -121.5t-43 -164.5q0 -102 49 -187.5t133 -137t187 -52.5h1q41 0 70.5 -29.5t29.5 -70.5
t-29.5 -70.5t-70.5 -29.5q-118 0 -221.5 44t-182 122.5t-123 182t-44.5 223.5q0 110 40.5 207t112 171.5t165.5 117t200 42.5z" />
    <glyph glyph-name="n2" unicode="&#xd29;" horiz-adv-x="2058" 
d="M656 888q-98 0 -180 -45.5t-135 -118.5q69 34 153 34q108 0 192.5 -51t133.5 -138t49 -196q0 -108 -50.5 -194t-134.5 -136.5t-187 -50.5q-132 0 -226.5 71.5t-145 184.5t-50.5 238q0 168 76 305.5t207 218.5t297 81q134 0 235.5 -54t161.5 -143q63 98 160.5 150.5
t226.5 52.5q160 0 283 -77t192.5 -206t69.5 -285q0 -152 -73 -275t-195.5 -196t-271.5 -73q-32 0 -80.5 5.5t-86 30.5t-37.5 84q0 40 27.5 68t66.5 28q31 0 58 -7t49 -7q102 0 182 46.5t125.5 126.5t45.5 180q0 102 -47.5 182t-128.5 125.5t-184 45.5q-70 0 -129 -26
t-96 -75q-36 -50 -46 -104.5t-10 -146.5v-464q0 -40 -29 -67t-66 -27t-66 28.5t-30 70.5v539q0 79 -43 139t-112.5 94t-150.5 34zM306 370q0 -73 55.5 -125.5t136.5 -52.5q76 0 129.5 53.5t53.5 129.5q0 73 -53.5 126.5t-129.5 53.5q-81 0 -136.5 -55t-55.5 -130z" />
    <glyph glyph-name="p1" unicode="&#xd2a;" horiz-adv-x="1681" 
d="M1405 996q0 41 29.5 70.5t70.5 29.5t70.5 -29.5t29.5 -70.5v-2l1 -893q0 -41 -29.5 -71t-70.5 -30l-928 5q-41 0 -70.5 29.5t-29.5 70.5q0 27 17.5 54t42.5 38q45 20 78 64t33 108q0 78 -55 132t-132 54q-76 0 -131.5 -54t-55.5 -132q0 -67 37 -113t86 -64
q28 -10 47.5 -38t19.5 -57q0 -41 -29.5 -70.5t-70.5 -29.5q-19 0 -35 7q-102 38 -178.5 133t-76.5 231q0 109 52 196.5t140 139t195 51.5q108 0 195.5 -51.5t139.5 -139t52 -196.5q0 -86 -36 -164l593 -3l-1 793v2z" />
    <glyph glyph-name="p2" unicode="&#xd2b;" horiz-adv-x="2198" 
d="M2020 1l-1435 3q-41 1 -70 30t-29 70q0 26 17 53t41 38q43 20 76.5 65t33.5 106q0 80 -55 135t-134 55t-134.5 -57.5t-55.5 -132.5q0 -64 39 -112.5t90 -65.5q29 -9 49 -37.5t20 -58.5q0 -41 -29.5 -70.5t-70.5 -29.5q-16 0 -34 6q-69 24 -129.5 76t-97.5 127t-37 164
q0 109 52.5 197.5t141 141t196.5 52.5t196 -52t140.5 -140t52.5 -197q0 -86 -36 -164l219 -1l1 249q0 187 57.5 332t176.5 227.5t304 82.5q180 0 301.5 -78.5t183.5 -217.5t62 -320l-3 -376q0 -41 -29.5 -70.5t-70.5 -29.5zM1577 893q-128 0 -202 -56t-105.5 -155.5
t-31.5 -230.5l-1 -250h684l2 259q0 129 -34 226.5t-109.5 152t-202.5 54.5z" />
    <glyph glyph-name="p3" unicode="&#xd2c;" horiz-adv-x="2558" 
d="M685 1095q146 0 255.5 -64t172.5 -156q59 88 162 151.5t242 63.5q109 0 203.5 -43t166 -118.5t112 -172.5t40.5 -205t-35 -198t-97 -165l376 -1v808q0 41 29.5 70.5t70.5 29.5t70.5 -29.5t29.5 -70.5v-909q0 -41 -29.5 -70.5t-70.5 -29.5h-1l-843 3q-41 0 -70 29.5
t-29 70.5q0 36 25 65t60 34q84 13 155.5 62.5t115 126.5t43.5 172q0 92 -43 169t-116.5 124t-164.5 47q-116 0 -181.5 -58.5t-92 -156.5t-26.5 -217v-371q-1 -41 -30 -69.5t-70 -28.5q-40 0 -69.5 29t-30.5 69l-1 371q0 127 -30.5 225.5t-102 155.5t-195.5 57
q-118 0 -211.5 -64.5t-141.5 -150.5q71 31 146 31q102 0 184 -48t130.5 -129.5t48.5 -183.5q0 -100 -45.5 -180t-124.5 -126.5t-182 -46.5q-127 0 -220.5 64.5t-144 171t-50.5 231.5q0 129 46.5 243.5t130 201.5t194 136.5t239.5 49.5zM642 347q0 69 -46.5 116.5
t-114.5 47.5q-71 0 -117.5 -46t-46.5 -117q0 -70 53.5 -110.5t118.5 -40.5t109 43t44 107z" />
    <glyph glyph-name="p4" unicode="&#xd2d;" horiz-adv-x="1344" 
d="M737 768q60 0 103 -11.5t81 -23.5t84 -12q26 0 45 9.5t19 34.5q0 41 -30.5 67t-78 40.5t-99 20.5t-93.5 6q-132 0 -244.5 -52t-180.5 -147.5t-68 -226.5q0 -91 39 -173.5t103 -137.5q15 -13 26 -35.5t11 -42.5q0 -41 -29.5 -70.5t-70.5 -29.5q-37 0 -66 25
q-97 83 -155 206t-58 259q0 139 54 254t149.5 198t219.5 128.5t264 45.5q91 0 181 -17.5t163.5 -57t118 -103.5t44.5 -157q0 -110 -79 -176.5t-187 -66.5q-45 0 -98 11.5t-99 23t-73 11.5q-24 0 -51.5 -12t-27.5 -33q0 -34 41 -45.5t75 -11.5q44 0 90 5.5t90 5.5
q78 0 150 -27.5t118.5 -82.5t46.5 -138q0 -90 -50.5 -143.5t-129 -77.5t-162.5 -24q-175 0 -349 18q-37 4 -64 33t-27 66q0 41 29 70.5t71 29.5q83 0 167 -8.5t168 -8.5h1q30 0 64 2t58 11.5t24 31.5q0 19 -21 29.5t-48 15t-46 4.5q-41 0 -86.5 -5.5t-92.5 -5.5
q-80 0 -152.5 30t-118.5 87t-46 139q0 76 41.5 131t106.5 84.5t135 29.5z" />
    <glyph glyph-name="m1" unicode="&#xd2e;" horiz-adv-x="1407" 
d="M705 1094q131 0 245 -49t200.5 -136t135 -201t47.5 -244l-2 -364q-1 -41 -30 -70.5t-70 -29.5h-1056q-41 0 -70.5 29.5t-29.5 70.5v386q0 122 48.5 231.5t134.5 194.5t200.5 133.5t246.5 48.5zM646 889q-105 0 -189 -58.5t-133 -151.5t-49 -197v-281q84 13 174.5 55
t169 109.5t127 155.5t48.5 193q0 70 -38.5 122.5t-109.5 52.5zM988 786q6 -36 6 -72q0 -113 -39.5 -209t-100.5 -172.5t-126 -132.5h403l1 286q0 83 -42 165.5t-102 134.5z" />
    <glyph glyph-name="y1" unicode="&#xd2f;" horiz-adv-x="1925" 
d="M438 1095q93 0 165 -45.5t117 -108.5q50 61 126.5 106t181.5 45q123 0 210.5 -62.5t133.5 -164.5t46 -222q0 -145 -51 -259.5t-139 -204.5h11q117 0 210 56t147.5 150.5t54.5 209.5q0 89 -38.5 175t-105.5 144q-14 13 -24.5 35t-10.5 41q0 41 29.5 70.5t70.5 29.5
q38 0 68 -26q100 -88 155.5 -211t55.5 -257q0 -129 -46.5 -241t-130 -196.5t-195 -132.5t-242.5 -48q-124 0 -239 47q-118 -46 -243 -46q-143 0 -266.5 54.5t-216.5 150t-145 221.5t-52 268q0 110 44 206.5t125.5 156t193.5 59.5zM609 646q0 60 -19.5 117.5t-57.5 94.5
t-94 37q-54 0 -90.5 -33t-54.5 -84.5t-18 -106.5q0 -132 64.5 -244t173 -180t239.5 -68q6 0 12.5 0.5t12.5 0.5q-79 86 -123.5 195.5t-44.5 233.5v37zM1000 250q94 58 156 160.5t62 230.5q0 64 -21 121t-63 93.5t-106 36.5q-72 0 -121 -42t-73.5 -106.5t-24.5 -134.5
q0 -109 53 -206t138 -153z" />
    <glyph glyph-name="r3" unicode="&#xd30;" horiz-adv-x="1462" 
d="M923 -17q-117 0 -214 57t-155.5 154.5t-58.5 219.5q0 123 57.5 222t156.5 157t223 58q-96 42 -204 42q-119 0 -222.5 -51.5t-167 -142.5t-63.5 -211q0 -110 51 -189.5t122 -124.5q20 -12 34 -37t14 -48q0 -41 -29.5 -70.5t-70.5 -29.5q-29 0 -54 16q-110 69 -188.5 191
t-78.5 291q0 133 52.5 244t143.5 192t208.5 125.5t248.5 44.5q132 0 250.5 -45t211 -127t145.5 -194t53 -245q0 -131 -58.5 -245t-163 -184t-243.5 -70zM696 417q0 -99 66.5 -166.5t160.5 -67.5q79 0 134 35.5t84 91t29 114.5q0 86 -61.5 156t-174.5 70q-101 0 -169.5 -67
t-68.5 -166z" />
    <glyph glyph-name="rh" unicode="&#xd31;" horiz-adv-x="1339" 
d="M75 519q0 122 47 227t130 183.5t190.5 122.5t227.5 44t227 -44t190 -123t130 -183.5t47 -225.5q0 -90 -34 -183.5t-93.5 -172.5t-137 -127t-165.5 -48q-41 0 -70.5 29.5t-29.5 70.5q0 32 22 60.5t53 36.5q103 28 179 118t76 217q0 105 -55 190t-144.5 135t-194.5 50
t-195 -50t-145 -135.5t-55 -190.5q0 -127 75 -216t175 -118q31 -8 52.5 -36.5t21.5 -60.5q0 -41 -29.5 -70.5t-70.5 -29.5q-6 0 -14.5 2t-14.5 3q-105 31 -195 104t-145 180.5t-55 240.5z" />
    <glyph glyph-name="l3" unicode="&#xd32;" horiz-adv-x="1656" 
d="M1480 1094q41 0 71 -29.5t29 -71.5l2 -887q0 -41 -29.5 -70.5t-70.5 -29.5l-1307 -3q-41 0 -70.5 29.5t-29.5 70.5v322q0 184 55.5 335.5t172.5 242.5t299 91q141 0 258 -71.5t187 -192t70 -268.5q0 -46 -8.5 -90.5t-32 -73.5t-69.5 -29l-732 -2v-164l1107 3l-2 788
q0 41 29.5 70.5t70.5 29.5zM916 569q-2 89 -44.5 163t-112.5 118t-157 44q-95 0 -163.5 -45.5t-108 -120t-49.5 -161.5z" />
    <glyph glyph-name="lh" unicode="&#xd33;" horiz-adv-x="1286" 
d="M697 523q0 -81 -38.5 -148t-105 -106.5t-149.5 -39.5q-100 0 -173.5 49t-114 131.5t-40.5 180.5q0 123 52.5 217t141 158t198 96.5t222.5 32.5q122 0 234 -42.5t184 -128t72 -214.5q0 -52 -16 -96t-41 -76q38 -36 63.5 -88t25.5 -119q0 -114 -59 -187.5t-156.5 -109
t-211.5 -35.5l-383 1q-46 0 -86.5 -8.5t-40.5 -51.5q0 -38 36 -46t77 -8h711q41 0 70.5 -29.5t29.5 -70.5t-29.5 -70.5t-70.5 -29.5h-716q-128 0 -218 63.5t-90 191.5q0 91 44.5 148t119.5 84t164 27l383 -1q55 0 107 11.5t85.5 40.5t33.5 81q0 48 -31.5 68.5t-78 26.5
t-93.5 8q-39 2 -66.5 31.5t-27.5 68.5q0 41 29.5 70.5t70.5 29.5h3l31 -2q8 0 17 -0.5t17 -0.5q44 0 70.5 17.5t26.5 60.5q0 67 -44.5 107.5t-111.5 59t-135 18.5q-75 0 -144.5 -17.5t-125.5 -52.5q77 -7 140 -47.5t100.5 -106t37.5 -147.5zM509 534q0 42 -35.5 79.5
t-79.5 37.5q-45 0 -77 -39.5t-32 -80.5t38 -79t87 -38q39 0 69 40.5t30 79.5z" />
    <glyph glyph-name="zh" unicode="&#xd34;" horiz-adv-x="1269" 
d="M600 503q-45 47 -85 111t-40 148q0 88 47.5 162.5t127.5 120.5t175 46q98 0 182 -48t135.5 -129t51.5 -182q0 -88 -37 -158.5t-94.5 -121t-119.5 -80.5q16 -46 16 -92q0 -88 -49.5 -154t-130 -102t-174.5 -36q-95 0 -183.5 37t-155.5 102q-30 28 -30 67t28 66t67 27
q41 0 68 -27q41 -39 96.5 -59.5t112.5 -20.5q70 0 114.5 29.5t44.5 77.5q0 17 -7 34q-25 -3 -49 -5t-48 -2q-96 0 -199 26t-191.5 81t-143 141.5t-54.5 207.5q0 82 34.5 159.5t100.5 132.5q29 25 63 25q39 0 67 -27t28 -66q0 -44 -33 -71q-32 -28 -49.5 -68.5t-17.5 -84.5
q0 -84 47.5 -140.5t123.5 -87.5t161 -39zM1003 730q0 74 -52.5 121t-125.5 47q-67 0 -111.5 -40.5t-44.5 -99.5q0 -48 27 -85t66.5 -70.5t77.5 -71.5q65 26 114 75t49 124z" />
    <glyph glyph-name="v1" unicode="&#xd35;" horiz-adv-x="1729" 
d="M1454 989q0 41 29.5 70.5t70.5 29.5t70.5 -29.5t29.5 -70.5v-1l-1 -889q0 -41 -29.5 -70.5t-70.5 -29.5h-1l-721 2q-41 0 -70.5 29.5t-29.5 70.5q0 29 19.5 56.5t46.5 37.5q92 34 160.5 121t68.5 208q0 101 -51.5 184.5t-137 133t-187.5 49.5q-101 0 -186.5 -49
t-137 -131t-51.5 -182q0 -91 42 -165t110.5 -121t149.5 -58q37 -4 63 -33.5t26 -66.5q0 -41 -29.5 -70.5t-70.5 -29.5q-10 0 -14 1q-128 17 -236.5 91.5t-174.5 191t-66 259.5q0 116 45.5 218t124.5 179.5t183 121.5t221 44q118 0 222 -44t184 -122t125.5 -180.5
t45.5 -220.5q0 -87 -27.5 -171.5t-77.5 -152.5l332 -1l1 789v1z" />
    <glyph glyph-name="z1" unicode="&#xd36;" horiz-adv-x="1920" 
d="M982 558q0 -25 0.5 -49.5t0.5 -50.5q0 -134 -49 -243t-142.5 -173t-227.5 -64q-110 0 -200 46t-154.5 125t-99.5 179t-35 208q0 132 45.5 238t121 183.5t166.5 124.5q21 12 47 12q41 0 70.5 -29.5t29.5 -70.5q0 -25 -16 -51.5t-39 -37.5q-91 -47 -157.5 -140.5
t-66.5 -227.5q0 -88 35 -170.5t100 -135.5t153 -53q120 0 169.5 84t49.5 209q0 26 -0.5 50t-0.5 50q0 150 59.5 268t167.5 186.5t254 68.5q126 0 232 -53.5t184.5 -146t122 -209t43.5 -242.5q0 -119 -48.5 -226.5t-138 -175t-214.5 -67.5q-114 0 -198.5 57.5t-130.5 152
t-46 205.5q0 170 84 293.5t200 190.5q-23 7 -45.5 12.5t-44.5 5.5q-139 0 -210 -93t-71 -240zM1269 389q0 -83 44.5 -149t129.5 -66q66 0 111 40.5t68 102.5t23 125q0 83 -28.5 162.5t-69.5 132.5q-73 -19 -136.5 -67t-102.5 -119.5t-39 -161.5z" />
    <glyph glyph-name="sh" unicode="&#xd37;" horiz-adv-x="1938" 
d="M1087 1100q161 0 242 -104t81 -266l-1 -91q95 56 165.5 157.5t90.5 217.5q6 35 35 59t63 24q41 0 70.5 -29.5t29.5 -70.5v-899q0 -41 -29.5 -70.5t-70.5 -29.5h-1224q-41 0 -70.5 29.5t-29.5 70.5q0 27 18 54.5t43 37.5q40 17 68 55t28 93q0 68 -47 114t-114 46
q-66 0 -113 -46.5t-47 -113.5q0 -55 28.5 -93t68.5 -55q26 -10 44 -37.5t18 -55.5q0 -41 -29.5 -70.5t-70.5 -29.5q-21 0 -41 9q-88 38 -153 124t-65 207q0 102 48.5 183.5t130.5 129.5t182 48t181.5 -48t130 -130t48.5 -183q0 -74 -28 -139h438l1 174q-9 -1 -18 -1h-18
q-133 0 -227.5 62t-144 156.5t-49.5 191.5q0 81 35.5 154t110.5 119t191 46zM1089 919q-41 0 -75.5 -25.5t-55.5 -64.5t-21 -78q0 -88 72 -134t165 -46q9 0 17.5 0.5t17.5 1.5q0 41 0.5 82t0.5 81q0 73 -25 128t-96 55zM1663 585q-111 -112 -255 -168l-2 -219h257v387z" />
    <glyph glyph-name="s1" unicode="&#xd38;" horiz-adv-x="2438" 
d="M985 932q40 64 108.5 113t164.5 49q124 0 202 -71t115 -182t37 -230q0 -40 -1.5 -78t-1.5 -77q0 -124 55 -202t178 -78q91 0 163.5 48.5t115.5 127.5t43 172q0 94 -39.5 170t-104 128t-140.5 73q-31 8 -53 36.5t-22 60.5q0 41 29.5 70.5t70.5 29.5q12 0 28 -4
q116 -32 214 -111t157.5 -195t59.5 -259q0 -111 -40 -209.5t-111.5 -174.5t-166 -119.5t-204.5 -43.5q-137 0 -234 62t-148 169.5t-51 245.5q0 37 1.5 72t1.5 71q0 68 -12 136.5t-45.5 115t-98.5 46.5q-53 0 -84 -35.5t-45.5 -91.5t-18.5 -120t-4 -120v-450q-1 -40 -30 -69
t-70 -29q-40 0 -69.5 28.5t-30.5 69.5v452q0 105 -26 187.5t-86.5 129.5t-163.5 47q-98 0 -178.5 -48.5t-127.5 -130t-47 -179.5q0 -96 48.5 -177.5t130.5 -130.5t183 -49q19 0 37 3t37 3q41 0 70.5 -29.5t29.5 -70.5q0 -35 -25 -64t-60 -34q-50 -8 -92 -8
q-117 0 -218.5 44.5t-178 122t-119.5 178.5t-43 213q0 115 43 216t118.5 178t176.5 120.5t216 43.5q120 0 208.5 -45.5t147.5 -116.5z" />
    <glyph glyph-name="h1" unicode="&#xd39;" horiz-adv-x="2258" 
d="M465 556q-79 0 -134 -56t-55 -134q0 -64 37.5 -111t86.5 -65q28 -10 48 -38t20 -57q0 -41 -29.5 -70.5t-70.5 -29.5q-7 0 -18 1.5t-18 4.5q-66 24 -124.5 76t-95.5 125.5t-37 161.5q0 108 51.5 197t139.5 142t196 53q112 0 200 -52t139.5 -140.5t51.5 -197.5
q0 -84 -37 -164l385 -1q-55 71 -86 159t-31 181q0 113 42 213t117 177.5t173.5 121.5t212.5 44q116 0 216.5 -45.5t176 -125t118.5 -182.5t43 -219q0 -123 -47 -226.5t-125 -179t-171 -115.5q-20 -9 -41 -9q-41 0 -70.5 29.5t-29.5 70.5q0 28 18.5 55.5t43.5 37.5
q90 38 156.5 126.5t66.5 210.5q0 100 -49 184t-129.5 135t-177.5 51q-96 0 -173.5 -50.5t-123.5 -132.5t-46 -176q0 -86 39 -157.5t103 -118.5t138 -62q34 -7 57.5 -35t23.5 -63q0 -41 -29.5 -70.5t-70.5 -29.5l-966 3q-41 0 -70 29.5t-29 70.5q0 27 17 53.5t42 37.5
q45 20 79 65.5t34 106.5q0 79 -56 134.5t-132 55.5z" />
    <glyph glyph-name="rh_half" unicode="&#xd3a;" horiz-adv-x="1266" 
d="M893 -22q0 -41 -29.5 -70.5t-70.5 -29.5t-70.5 29.5t-29.5 70.5v222l-518 2q-37 0 -68.5 27.5t-31.5 67.5q0 34 14 58l493 803q31 49 88 49q40 0 69.5 -27.5t29.5 -62.5q0 -39 -15 -64l-400 -650l737 -2h1q41 0 70.5 -29t29.5 -71q0 -41 -29 -71.5t-71 -30.5h-199v-221z
" />
    <glyph glyph-name="verticalbarvirama" unicode="&#xd3b;" horiz-adv-x="301" 
d="M150 1865h1q37 0 71 -25.5t34 -67.5l-28 -567q0 -36 -18 -64.5t-59 -28.5q-40 0 -58 28.5t-18 64.5l-30 567q0 42 34.5 67.5t70.5 25.5z" />
    <glyph glyph-name="circularvirama" unicode="&#xd3c;" horiz-adv-x="363" 
d="M7 1242q0 70 50 119.5t120 49.5t120 -49.5t50 -119.5t-50 -120t-120 -50t-120 50t-50 120zM177 1321q-33 0 -56.5 -23t-23.5 -56q0 -34 23.5 -57t56.5 -23t56.5 23t23.5 57q0 33 -23.5 56t-56.5 23z" />
    <glyph glyph-name="avagraha" unicode="&#xd3d;" horiz-adv-x="1531" 
d="M209 -217q0 -17 -5 -34t-5 -34q0 -66 48 -112.5t112 -46.5q81 0 124 51t63 127t31 150l155 1023q14 94 42 187t77.5 170t126.5 123.5t188 46.5q104 0 186.5 -47.5t131 -129.5t48.5 -186q0 -29 -4 -53q-4 -36 -34 -61.5t-66 -25.5q-41 0 -70.5 29.5t-29.5 70.5
q0 10 2 20.5t2 20.5q0 70 -49 116t-120 46q-64 0 -105.5 -33t-66.5 -86.5t-39 -116t-23 -121.5l-154 -1023q-13 -89 -40 -177t-74 -161t-120 -116.5t-179 -43.5q-102 0 -184 47.5t-130 130t-48 186.5q0 63 25 113t84 50q41 0 70.5 -29.5t29.5 -70.5z" />
    <glyph glyph-name="a2" unicode="&#xd3e;" horiz-adv-x="1011" 
d="M737 549q0 85 -29.5 164.5t-87.5 131t-145 51.5q-76 0 -130.5 -52.5t-60.5 -123.5q-3 -38 -32.5 -65t-67.5 -27q-41 0 -70.5 29.5t-29.5 70.5q0 2 0.5 5t0.5 5q9 97 62.5 178.5t139 130.5t189.5 49q110 0 195.5 -46t144.5 -124t90 -175.5t31 -200.5q0 -106 -31 -208
t-91 -184t-148 -130.5t-203 -48.5q-106 0 -192 50t-138.5 133t-58.5 183v7q0 41 29.5 70.5t70.5 29.5q40 0 69.5 -27.5t30.5 -67.5q5 -72 59 -125t130 -53q92 0 152.5 55t90.5 140.5t30 174.5z" />
    <glyph glyph-name="i1" unicode="&#xd3f;" horiz-adv-x="340" 
d="M-559 1198q27 73 82 135t133 100.5t173 38.5q153 0 248.5 -73t140.5 -196.5t45 -276.5l2 -849v-1q0 -41 -29.5 -70.5t-70.5 -29.5t-70.5 29.5t-29.5 70.5v1l-2 849q0 94 -20 172.5t-70.5 125.5t-141.5 47q-75 0 -128.5 -42.5t-74.5 -99.5q-10 -28 -37.5 -47.5
t-56.5 -19.5q-41 0 -70.5 29.5t-29.5 70.5q0 19 7 36z" />
    <glyph glyph-name="i2" unicode="&#xd40;" horiz-adv-x="398" 
d="M32 1209q0 -62 -33.5 -110.5t-85 -76t-106.5 -27.5q-56 0 -104.5 29t-77.5 76.5t-29 102.5q0 82 44 136t113.5 80.5t145.5 26.5q209 0 316.5 -114.5t107.5 -322.5l-3 -937q0 -45 -30.5 -68t-64.5 -23t-64.5 23t-30.5 69l3 935q0 99 -21.5 151.5t-80.5 77.5q1 -8 1 -14.5
v-13.5zM-172 1267q-33 0 -56.5 -16t-23.5 -47q0 -18 23 -36.5t49 -18.5q29 0 48 16t19 40q0 62 -59 62z" />
    <glyph glyph-name="u1" unicode="&#xd41;" horiz-adv-x="794" 
d="M399 -579q-93 0 -166 44.5t-115 118t-42 158.5q0 95 50.5 169.5t117.5 112.5q27 51 61 125t64.5 158t50.5 165.5t20 147.5q0 117 -54.5 193.5t-139.5 92.5q-32 6 -54.5 32.5t-22.5 63.5q0 32 25 63t59 31q86 0 155.5 -41t118.5 -109t75.5 -150t26.5 -164
q0 -109 -40 -264.5t-116 -312.5q105 -25 176 -109.5t71 -204.5q0 -91 -43 -163.5t-116 -114.5t-162 -42zM266 -253q0 -55 38 -94.5t92 -39.5q58 0 96 36.5t38 95.5q0 56 -43.5 97.5t-94.5 41.5q-55 0 -90.5 -41t-35.5 -96z" />
    <glyph glyph-name="u2" unicode="&#xd42;" horiz-adv-x="973" 
d="M414 -636q-97 0 -173.5 47t-120 124t-43.5 168q0 92 45.5 168.5t116.5 119.5q26 56 59.5 137.5t66 170t53.5 168.5t21 133q0 118 -45.5 202.5t-131.5 100.5q-41 9 -67.5 33t-26.5 64q0 34 24.5 64.5t60.5 30.5q92 0 162 -42.5t117.5 -113.5t72 -158.5t24.5 -176.5
q0 -65 -21.5 -161t-54 -194t-66.5 -171q7 1 13 1h12q136 0 246.5 -69t175.5 -183t65 -250q0 -144 -70 -263t-190.5 -190t-274.5 -71q-168 0 -305 98q-39 27 -39 75q0 35 24 65t66 30q34 0 80 -31q25 -17 77 -31.5t107 -14.5q96 0 171.5 44t119.5 120t44 172q0 49 -14 92
t-36 77q3 -24 3 -46q0 -97 -47.5 -173.5t-126.5 -121t-174 -44.5zM572 -301q0 65 -46 108.5t-108 43.5q-59 0 -106.5 -49t-47.5 -108q0 -58 48.5 -99.5t106.5 -41.5q61 0 107 42.5t46 103.5z" />
    <glyph glyph-name="r1" unicode="&#xd43;" horiz-adv-x="393" 
d="M19 -187q42 61 68.5 155t39 201t12.5 204q0 303 -148 595q-12 23 -12 45q0 42 32.5 63.5t65.5 21.5q49 0 74 -50q168 -328 168 -672q0 -289 -74.5 -505.5t-226 -337t-383.5 -120.5q-85 0 -163.5 30.5t-128.5 91t-50 150.5q0 84 46 140.5t118 84.5t149 28q124 0 226.5 -36
t186.5 -89zM-525 -312q0 -47 48.5 -71.5t109.5 -24.5q68 0 138.5 27.5t120.5 61.5q-141 77 -287 77q-54 0 -92 -18.5t-38 -51.5z" />
    <glyph glyph-name="r2" unicode="&#xd44;" horiz-adv-x="633" 
d="M-249 -68q77 0 136 -23t104 -64q77 95 165 95q59 0 104.5 -26t82.5 -65q39 125 39 293q0 125 -23 248.5t-61.5 265t-87.5 319.5q-1 7 -3 14t-2 15q0 37 24.5 65t62.5 28q37 0 61 -22t31 -52q50 -182 90 -330.5t64 -281.5t24 -268q0 -145 -30 -281t-94.5 -244t-167 -171
t-246.5 -63q-83 0 -168.5 22.5t-157.5 67t-116 109.5t-44 150q0 96 63 147.5t150 51.5zM273 -296q-18 29 -40.5 53t-63.5 24q-24 0 -52.5 -35.5t-35.5 -99.5q-4 -37 -34 -48.5t-50 -11.5q-33 0 -60.5 22.5t-30.5 62.5q-6 47 -40 68.5t-90 21.5q-22 0 -39.5 -12t-19.5 -17
q1 -49 53 -91t125.5 -67.5t137.5 -25.5q65 0 129.5 49t110.5 107z" />
    <glyph glyph-name="e1" unicode="&#xd46;" horiz-adv-x="1407" 
d="M884 370q0 -106 -52.5 -192.5t-139.5 -138t-191 -51.5q-129 0 -225 67.5t-148.5 176.5t-52.5 233q0 131 50.5 245.5t138 201t202 135.5t241.5 49q128 0 241 -49.5t199.5 -137t136 -202.5t49.5 -245q0 -145 -50 -254t-135 -194q-12 -13 -33.5 -21.5t-38.5 -8.5
q-41 0 -70.5 29.5t-29.5 70.5q0 17 8.5 38.5t21.5 33.5q56 56 91 135.5t35 169.5q0 119 -57.5 218.5t-154.5 159t-216 59.5q-100 0 -196 -41t-152 -139q47 29 79.5 35.5t59.5 6.5q106 0 194.5 -52.5t141.5 -141t53 -196.5zM684 370q0 78 -56.5 133t-133.5 55
q-79 0 -137 -55.5t-58 -140.5q0 -48 31 -87.5t78 -63.5t93 -24q75 0 129 53.5t54 129.5z" />
    <glyph glyph-name="e2" unicode="&#xd47;" horiz-adv-x="1038" 
d="M75 550q0 108 39.5 206t109.5 174.5t164 120.5t202 44h1q88 0 169.5 -33.5t134 -99.5t52.5 -163q0 -106 -71.5 -177t-177.5 -71q-109 0 -181.5 74t-72.5 182q0 14 1 27t4 26q-74 -38 -124 -124t-50 -184q0 -101 51 -182.5t120 -125.5q-1 7 -1.5 13.5t-0.5 13.5
q0 74 34.5 133t94 93.5t132.5 34.5q75 0 133.5 -35.5t91.5 -93.5t33 -128q0 -88 -46.5 -154t-122 -102t-162.5 -36q-115 0 -216 45t-178 123.5t-120 181t-43 217.5zM693 727q30 0 51.5 21t21.5 51t-21.5 50.5t-51.5 20.5t-51.5 -20.5t-21.5 -50.5t21.5 -51t51.5 -21z
M708 343q-30 0 -52 -21t-22 -51t22 -51t52 -21t51.5 21t21.5 51t-21.5 51t-51.5 21z" />
    <glyph glyph-name="ai1" unicode="&#xd48;" horiz-adv-x="2718" 
d="M2195 370q0 -106 -52.5 -192.5t-139.5 -138t-191 -51.5q-129 0 -225 67.5t-148.5 176.5t-52.5 233q0 131 50.5 245.5t138 201t202 135.5t241.5 49q128 0 241 -49.5t199.5 -137t136 -202.5t49.5 -245q0 -145 -50 -254t-135 -194q-12 -13 -33.5 -21.5t-38.5 -8.5
q-41 0 -70.5 29.5t-29.5 70.5q0 17 8.5 38.5t21.5 33.5q56 56 91 135.5t35 169.5q0 119 -57.5 218.5t-154.5 159t-216 59.5q-100 0 -196 -41t-152 -139q47 29 79.5 35.5t59.5 6.5q106 0 194.5 -52.5t141.5 -141t53 -196.5zM1995 370q0 78 -56.5 133t-133.5 55
q-79 0 -137 -55.5t-58 -140.5q0 -48 31 -87.5t78 -63.5t93 -24q75 0 129 53.5t54 129.5zM884 366q0 -106 -52.5 -192.5t-139.5 -138t-191 -51.5q-129 0 -225 67.5t-148.5 176.5t-52.5 233q0 131 50.5 245.5t138 201t202 135.5t241.5 49q128 0 241 -49.5t199.5 -137
t136 -202.5t49.5 -245q0 -145 -50 -254t-135 -194q-12 -13 -33.5 -21.5t-38.5 -8.5q-41 0 -70.5 29.5t-29.5 70.5q0 17 8.5 38.5t21.5 33.5q56 56 91 135.5t35 169.5q0 119 -57.5 218.5t-154.5 159t-216 59.5q-100 0 -196 -41t-152 -139q47 29 79.5 35.5t59.5 6.5
q106 0 194.5 -52.5t141.5 -141t53 -196.5zM684 366q0 78 -56.5 133t-133.5 55q-79 0 -137 -55.5t-58 -140.5q0 -48 31 -87.5t78 -63.5t93 -24q75 0 129 53.5t54 129.5z" />
    <glyph glyph-name="o1" unicode="&#xd4a;" horiz-adv-x="2677" 
d="M1484 778h763q41 0 70.5 -29.5t29.5 -70.5t-29.5 -70.5t-70.5 -29.5h-763q-41 0 -70.5 29.5t-29.5 70.5t29.5 70.5t70.5 29.5zM884 377q0 -106 -52.5 -192.5t-139.5 -138t-191 -51.5q-129 0 -225 67.5t-148.5 176.5t-52.5 233q0 131 50.5 245.5t138 201t202 135.5
t241.5 49q128 0 241 -49.5t199.5 -137t136 -202.5t49.5 -245q0 -145 -50 -254t-135 -194q-12 -13 -33.5 -21.5t-38.5 -8.5q-41 0 -70.5 29.5t-29.5 70.5q0 17 8.5 38.5t21.5 33.5q56 56 91 135.5t35 169.5q0 119 -57.5 218.5t-154.5 159t-216 59.5q-100 0 -196 -41
t-152 -139q47 29 79.5 35.5t59.5 6.5q106 0 194.5 -52.5t141.5 -141t53 -196.5zM684 377q0 78 -56.5 133t-133.5 55q-79 0 -137 -55.5t-58 -140.5q0 -48 31 -87.5t78 -63.5t93 -24q75 0 129 53.5t54 129.5zM2413 553q0 85 -29.5 164.5t-87.5 131t-145 51.5
q-76 0 -130.5 -52.5t-60.5 -123.5q-3 -38 -32.5 -65t-67.5 -27q-41 0 -70.5 29.5t-29.5 70.5q0 2 0.5 5t0.5 5q9 97 62.5 178.5t139 130.5t189.5 49q110 0 195.5 -46t144.5 -124t90 -175.5t31 -200.5q0 -106 -31 -208t-91 -184t-148 -130.5t-203 -48.5q-106 0 -192 50
t-138.5 133t-58.5 183v7q0 41 29.5 70.5t70.5 29.5q40 0 69.5 -27.5t30.5 -67.5q5 -72 59 -125t130 -53q92 0 152.5 55t90.5 140.5t30 174.5z" />
    <glyph glyph-name="o2" unicode="&#xd4b;" horiz-adv-x="2270" 
d="M1046 791.492h763q41 0 70.5 -30.6592t29.5 -73.2705q0 -42.6123 -29.5 -73.2715q-29.5 -30.6602 -70.5 -30.6602h-763q-41 0 -70.5 30.6602q-29.5 30.6592 -29.5 73.2715q0 42.6113 29.5 73.2705t70.5 30.6592zM75 550q0 108 39.5 206t109.5 174.5t164 120.5t202 44h1
q88 0 169.5 -33.5t134 -99.5t52.5 -163q0 -106 -71.5 -177t-177.5 -71q-109 0 -181.5 74t-72.5 182q0 14 1 27t4 26q-74 -38 -124 -124t-50 -184q0 -101 51 -182.5t120 -125.5q-1 7 -1.5 13.5t-0.5 13.5q0 74 34.5 133t94 93.5t132.5 34.5q75 0 133.5 -35.5t91.5 -93.5
t33 -128q0 -88 -46.5 -154t-122 -102t-162.5 -36q-115 0 -216 45t-178 123.5t-120 181t-43 217.5zM693 727q30 0 51.5 21t21.5 51t-21.5 50.5t-51.5 20.5t-51.5 -20.5t-21.5 -50.5t21.5 -51t51.5 -21zM708 343q-30 0 -52 -21t-22 -51t22 -51t52 -21t51.5 21t21.5 51
t-21.5 51t-51.5 21zM1982 555q0 85 -29.5 164.5t-87.5 131t-145 51.5q-76 0 -130.5 -52.5t-60.5 -123.5q-3 -38 -32.5 -65t-67.5 -27q-41 0 -70.5 29.5t-29.5 70.5q0 2 0.5 5t0.5 5q9 97 62.5 178.5t139 130.5t189.5 49q110 0 195.5 -46t144.5 -124t90 -175.5t31 -200.5
q0 -106 -31 -208t-91 -184t-148 -130.5t-203 -48.5q-106 0 -192 50t-138.5 133t-58.5 183v7q0 41 29.5 70.5t70.5 29.5q40 0 69.5 -27.5t30.5 -67.5q5 -72 59 -125t130 -53q92 0 152.5 55t90.5 140.5t30 174.5z" />
    <glyph glyph-name="uni0D4C" unicode="&#xd4c;" horiz-adv-x="3206" 
d="M1487 612h763q41 0 70.5 -29.5t29.5 -70.5t-29.5 -70.5t-70.5 -29.5h-763q-41 0 -70.5 29.5t-29.5 70.5t29.5 70.5t70.5 29.5zM2524.76 649.396v-5.12109q-6.47266 -34.8223 -32.3623 -54.793q-25.8896 -19.9717 -55.4775 -19.9717q-37.9092 0 -62.4111 30.2129
q-24.5029 30.2139 -24.5029 67.083v45.0645q-0.924805 86.0293 -49.9297 148.504t-129.447 62.4746q-75.8184 0 -126.21 -60.9385q-50.3926 -60.9375 -50.3926 -143.896q0 -43.0156 22.1914 -88.0781q11.0957 -21.5078 11.0957 -46.0879q0 -35.8457 -24.041 -65.5469
q-24.04 -29.7012 -61.9492 -29.7012q-28.6631 0 -49.0049 15.3623t-30.5127 36.8701q-23.1152 45.0635 -33.2861 89.6152q-10.1709 44.5508 -10.1709 90.6387q0 106.514 45.7686 197.153q45.7686 90.6387 125.286 145.432t181.226 54.793q87.8398 0 160.885 -43.0146
q73.0449 -43.0156 112.804 -110.61q43.457 67.5947 118.813 109.586q75.3574 41.9912 165.97 41.9912q111.88 0 199.719 -69.1318t138.693 -178.205q50.8535 -109.074 50.8535 -228.902q0 -145.433 -56.4014 -267.82q-56.4023 -122.389 -153.487 -212.516t-219.136 -139.799
q-122.05 -49.6729 -252.422 -49.6729q-164.582 0 -313.446 72.7168q-21.2666 10.2412 -37.4473 33.7969q-16.1807 23.5566 -16.1807 54.2812q0 39.9434 25.4268 68.6191q25.4277 28.6777 62.4121 28.6777q19.417 0 36.9854 -9.21777q111.879 -53.2568 244.1 -53.2568
q98.0098 0 188.623 36.8701t161.809 102.417q71.1963 65.5469 112.342 152.089t41.1455 184.862q0 73.7402 -28.2012 136.728q-28.2012 62.9863 -77.668 101.393q-49.4678 38.4062 -113.267 38.4062q-98.9346 0 -147.939 -73.7402t-50.8535 -195.616zM884 370
q0 -106 -52.5 -192.5t-139.5 -138t-191 -51.5q-129 0 -225 67.5t-148.5 176.5t-52.5 233q0 131 50.5 245.5t138 201t202 135.5t241.5 49q128 0 241 -49.5t199.5 -137t136 -202.5t49.5 -245q0 -145 -50 -254t-135 -194q-12 -13 -33.5 -21.5t-38.5 -8.5q-41 0 -70.5 29.5
t-29.5 70.5q0 17 8.5 38.5t21.5 33.5q56 56 91 135.5t35 169.5q0 119 -57.5 218.5t-154.5 159t-216 59.5q-100 0 -196 -41t-152 -139q47 29 79.5 35.5t59.5 6.5q106 0 194.5 -52.5t141.5 -141t53 -196.5zM684 370q0 78 -56.5 133t-133.5 55q-79 0 -137 -55.5t-58 -140.5
q0 -48 31 -87.5t78 -63.5t93 -24q75 0 129 53.5t54 129.5z" />
    <glyph glyph-name="xx" unicode="&#xd4d;" horiz-adv-x="142" 
d="M166 1295q0 14 -3.5 29.5t-3.5 40.5q0 35 30.5 60t62.5 25q63 0 84 -49t21 -97q0 -101 -46 -182t-125 -128t-179 -47q-101 0 -178.5 49.5t-121 129.5t-43.5 169q0 32 7 69t30 63.5t69 26.5q32 0 62 -26t30 -60q0 -24 -3.5 -40.5t-3.5 -33.5q0 -66 46 -110t106 -44
q68 0 113.5 47t45.5 108z" />
    <glyph glyph-name="dotreph" unicode="&#xd4e;" horiz-adv-x="297" 
d="M57 1152q-26 19 -40 47q-21 42 -19.5 88.5t33.5 88.5q8 10 19.5 20.5t28.5 19.5t41.5 14t52.5 0q26 -4 45.5 -15t32.5 -23q22 -22 33 -49q16 -41 12.5 -85.5t-35.5 -84.5q-15 -17 -42.5 -34t-71.5 -17q-29 1 -52 9.5t-38 20.5z" />
    <glyph glyph-name="mlpara" unicode="&#xd4f;" horiz-adv-x="2523" 
d="M406 1093q42 0 71 -29.5t29 -70.5q0 -16 -8 -37t-20 -33q-77 -83 -127.5 -202.5t-50.5 -244.5q0 -192 82 -335t223 -237t319.5 -140.5t371.5 -46.5q182 0 348.5 46.5t297 139t206 230t75.5 320.5q0 114 -45 214t-127.5 162.5t-197.5 62.5q-99 0 -158 -50.5t-84.5 -134
t-25.5 -182.5q1 -111 1.5 -221t1.5 -221q0 -41 -29.5 -70t-70.5 -29q-40 0 -69.5 29t-30.5 69l-3 443q-1 168 -68 267.5t-232 99.5q-97 0 -181 -48.5t-133 -113.5q70 28 144 28q105 0 192.5 -50t140 -137t52.5 -197q0 -109 -50 -195t-136 -136t-194 -50q-133 0 -231 69.5
t-151 180.5t-53 236q0 123 45.5 234t126.5 196t189.5 134t235.5 49q134 0 234.5 -53.5t162.5 -133.5q56 79 152 133t221 54q130 0 235.5 -51.5t180.5 -140.5t115 -204t40 -241q0 -228 -91 -403t-248.5 -294t-360 -180t-426.5 -61q-236 0 -451 61t-383 181t-265.5 299.5
t-97.5 416.5q0 170 64 322t168 263q29 33 74 33zM1099 374q0 79 -54.5 131.5t-129.5 52.5q-76 0 -130.5 -53t-54.5 -130q0 -81 55 -131.5t135 -50.5q77 0 128 52t51 129z" />
    <glyph glyph-name="m1cil" unicode="&#xd54;" horiz-adv-x="1406" 
d="M701 1077q91 2 171 -38q73 263 261 454q27 29 68 31h4q41 0 70.5 -29.5t29.5 -70.5t-30 -71q-118 -119 -176 -272t-58 -313q0 -162 59.5 -317t176.5 -274q29 -29 29 -70t-29.5 -70.5t-70.5 -29.5l-901 -4h-105q-41 0 -70.5 29.5t-29.5 70.5v394q8 115 56.5 219
t129.5 185.5t187 128.5t228 47zM711 877q-112 0 -202 -54.5t-145.5 -144t-63.5 -194.5v-278q83 20 172 65t167.5 111.5t132 150t65.5 181.5q-4 75 -26.5 119t-99.5 44zM907 389q-72 -102 -173 -184l266 1q-55 87 -93 183z" />
    <glyph glyph-name="y1cil" unicode="&#xd55;" horiz-adv-x="1982" 
d="M1047 1095q123 0 210.5 -64t134 -168t46.5 -224q0 -142 -49.5 -255t-136.5 -202q13 -1 25 -1.5t25 -0.5q95 0 182 33.5t142.5 98.5t55.5 161q0 78 -32 141.5t-74 126t-74 134.5t-32 166q0 140 67 240.5t160 155.5q23 14 54 14q41 -1 69.5 -30t28.5 -70q0 -24 -15 -49.5
t-36 -37.5q-53 -31 -90 -87.5t-37 -136.5q0 -79 32 -143.5t73.5 -127t73.5 -133.5t32 -164q0 -118 -48.5 -209.5t-131.5 -154.5t-187 -96t-215 -33q-140 0 -269 53q-121 -50 -253 -50q-142 0 -265.5 53.5t-216 147.5t-144.5 218.5t-52 266.5q0 110 44 207t125.5 157
t194.5 60q91 0 162 -44t117 -105q57 57 126.5 104.5t177.5 47.5zM1031 258q90 60 148.5 157.5t58.5 221.5q0 65 -22 124t-64.5 96.5t-104.5 37.5q-73 0 -121 -43.5t-71.5 -110t-23.5 -136.5q3 -103 59 -197t141 -150zM464 892q-55 0 -91.5 -33.5t-54.5 -85t-18 -107.5
q0 -132 64 -242t172 -176t240 -66h16.5t16.5 1q-87 90 -133 202t-46 248q0 63 -16.5 122.5t-53 98t-96.5 38.5z" />
    <glyph glyph-name="zhcil" unicode="&#xd56;" horiz-adv-x="1419" 
d="M349 375q-62 36 -119.5 92.5t-93.5 132.5t-36 171q0 174 127 292q29 28 69 28q42 0 71 -29.5t29 -70.5q0 -44 -32 -74t-47.5 -67.5t-15.5 -77.5q0 -69 37 -121.5t82 -84.5q43 70 92 127.5t84 124t35 164.5q0 105 -51 185t-126 124q-22 11 -37 37t-15 50q0 41 29.5 70.5
t70.5 29.5q28 0 51 -14q106 -60 178 -159t94 -230q60 20 121 20q101 0 186 -49.5t136.5 -133t51.5 -185.5q0 -97 -40.5 -172t-104.5 -127.5t-133 -82.5q3 -21 3 -42q0 -93 -48.5 -167.5t-126 -118t-166.5 -43.5q-95 0 -176.5 47.5t-131 128t-49.5 178.5q0 23 2 47zM1120 726
q0 72 -53.5 120t-125.5 48q-51 0 -95 -32.5t-44 -80.5q0 -52 29.5 -96.5t67.5 -82.5t63 -73q57 24 107.5 73t50.5 124zM671 599q-16 -21 -39 -52t-36 -51q30 -4 79.5 -5.5t81.5 -1.5q-16 19 -43 52.5t-43 57.5zM844 295q-65 -7 -125 -7q-87 0 -170 16q10 -54 53 -92.5
t102 -38.5q54 0 94.5 35t45.5 87z" />
    <glyph glyph-name="au2" unicode="&#xd57;" horiz-adv-x="1556" 
d="M839 637v-5q-7 -34 -35 -53.5t-60 -19.5q-41 0 -67.5 29.5t-26.5 65.5v44q-1 84 -54 145t-140 61q-82 0 -136.5 -59.5t-54.5 -140.5q0 -42 24 -86q12 -21 12 -45q0 -35 -26 -64t-67 -29q-31 0 -53 15t-33 36q-25 44 -36 87.5t-11 88.5q0 104 49.5 192.5t135.5 142
t196 53.5q95 0 174 -42t122 -108q47 66 128.5 107t179.5 41q121 0 216 -67.5t150 -174t55 -223.5q0 -142 -61 -261.5t-166 -207.5t-237 -136.5t-273 -48.5q-178 0 -339 71q-23 10 -40.5 33t-17.5 53q0 39 27.5 67t67.5 28q21 0 40 -9q121 -52 264 -52q106 0 204 36t175 100
t121.5 148.5t44.5 180.5q0 72 -30.5 133.5t-84 99t-122.5 37.5q-107 0 -160 -72t-55 -191z" />
    <glyph glyph-name="arakani" unicode="&#xd58;" horiz-adv-x="2921" 
d="M669 1116q11 0 23 -0.5t22 -1.5q37 -1 63 -29t26 -66q0 -40 -28 -68.5t-67 -28.5q-10 0 -20.5 1t-17.5 1q-104 0 -190.5 -51.5t-138 -137t-51.5 -188.5q0 -104 52 -190t138 -137.5t188 -51.5q101 0 185.5 50t137 133.5t56.5 183.5v28l1 464q1 39 28.5 66.5t66.5 27.5
q38 0 66.5 -27t28.5 -67l-1 -465v-29q0 -151 59.5 -245.5t196.5 -94.5q142 0 199 98.5t57 255.5v14l-2 460v1q0 40 28.5 67t66.5 27q39 0 66.5 -27.5t28.5 -66.5l2 -460q1 -172 66 -270.5t225 -98.5q118 0 208.5 60.5t141.5 161.5t51 222q0 145 -59 265.5t-162 208.5
t-235 136t-278 48q-117 0 -222 -32q-7 -3 -15.5 -4t-14.5 -1q-39 0 -67 27.5t-28 67.5q0 31 20 57.5t49 34.5q68 20 138 31t140 11q183 0 349.5 -62t296 -175.5t204 -269.5t74.5 -345q0 -128 -43 -242.5t-122 -203t-187 -139t-238 -50.5q-128 0 -226 52t-158 133
q-54 -76 -144.5 -130t-209.5 -54q-127 0 -221 58.5t-148 146.5q-75 -99 -196.5 -163.5t-259.5 -64.5q-116 0 -219 44.5t-181.5 123t-123 182t-44.5 220.5t44 219.5t122.5 181t181.5 123t221 44.5z" />
    <glyph glyph-name="aramaa" unicode="&#xd59;" horiz-adv-x="2179" 
d="M1108 736q-60 68 -155.5 111t-202.5 43q-119 0 -221.5 -51.5t-165.5 -143t-63 -210.5q0 -110 51 -189.5t122 -124.5q20 -12 34 -37t14 -49q0 -41 -29 -70.5t-71 -29.5q-29 0 -54 17q-110 69 -188.5 191t-78.5 291q0 133 52 244t142.5 192t207.5 125.5t248 44.5
q146 0 271.5 -54.5t217 -148t135.5 -209.5q109 -28 221 -65q4 99 72 167t171 68t172 -69t69 -173q0 -115 -79.5 -182.5t-193.5 -67.5q-79 0 -144 18.5t-125 42.5t-123 43q-2 -126 -58 -236t-156.5 -178t-235.5 -68q-110 0 -199 49.5t-141 135.5t-52 197q0 121 60 206.5
t160.5 130.5t222.5 45q44 0 93 -6zM1837 560q18 5 30 15.5t12 30.5q0 27 -20.5 36t-41.5 0t-21 -35q0 -42 41 -47zM1013 541q-96 0 -168.5 -43.5t-72.5 -137.5q0 -80 55.5 -131t135.5 -51q79 0 135 41.5t86 108.5t30 143q0 21 -3 42q-53 12 -102.5 20t-95.5 8z" />
    </font>
</defs>
</svg>
