<svg xmlns="http://www.w3.org/2000/svg" viewBox="0 0 2250.16 654.58"><g id="Layer_2" data-name="Layer 2"><g id="Layer_1-2" data-name="Layer 1"><path style="fill:#03293a" d="M1504.76,389.72v-28.4a4.58,4.58,0,0,0-4.42-4.72h-8.12c-6,0-10.89-5.21-10.89-11.65V263.65c0-57.46-26-98.86-83.85-98.86-29.64,0-61.38,15-69.9,37.85V165c0-3.89-3.85-6.79-7.06-5-6.2,3.53-68.08,3.27-72.11,5a2.37,2.37,0,0,0-1.4,2.21v33.07c0,1.79,1.69,2.43,3.24,2.35,0,0,20.18.41,20.18,14.58V345c0,6.43-4.88,11.65-10.89,11.65h-36.38c-6,0-10.89-5.21-10.89-11.65V165c0-3.89-3.72-7-7.06-5.42-7.32,3.37-68.08,3.71-72.11,5.42a2.37,2.37,0,0,0-1.4,2.21v33.07c0,1.79,1.28,2.35,3.24,2.35,0,0,20.19,0,20.19,14.22V345c0,6.43-4.88,11.65-10.89,11.65h-8.12a4.58,4.58,0,0,0-4.42,4.72v28.4a4.58,4.58,0,0,0,4.42,4.72h210.45a4.58,4.58,0,0,0,4.42-4.72v-28.4a4.58,4.58,0,0,0-4.42-4.72h-8.12c-6,0-10.89-5.21-10.89-11.65,0,0,.54-47.11.54-66.74,0-29,6-75.58,48.31-75.58s48.31,46.62,48.31,75.58c0,9.93-.54,66.74-.54,66.74,0,6.43-4.88,11.65-10.89,11.65h-8.12a4.58,4.58,0,0,0-4.42,4.72v28.4a4.58,4.58,0,0,0,4.42,4.72h95.16A4.58,4.58,0,0,0,1504.76,389.72Z"></path><path style="fill:#03293a" d="M1008.61,164.79c-39,0-66,37.85-66,37.85V41.91c0-4-3.46-3.83-7.06-3.16-17.79,3.31-68.08,4.13-72.11,5.83a2.37,2.37,0,0,0-1.4,2.21V79.88c0,1.79,1.5,2.35,3.24,2.35,0,0,20.18,0,20.18,14.18V345c0,6.43-4.88,11.65-10.89,11.65h-8.12a4.58,4.58,0,0,0-4.42,4.72v28.4a4.58,4.58,0,0,0,4.42,4.72h69.39a7,7,0,0,0,6.76-7.22v-12.3c17.62,16.36,40.19,19.34,64.79,19.34,56.34,0,104.55-43.14,104.55-115.05S1071.49,164.79,1008.61,164.79ZM988.23,356.6c-24.18,0-45.58-14.11-45.58-33.45V272.78c0-40.87,21.52-70.15,47.73-70.15,35,0,49.1,36,49.1,82.23C1039.48,320.24,1023,356.6,988.23,356.6Z"></path><path style="fill:#03293a" d="M354.81,0h-108a5.09,5.09,0,0,0-4.91,5.25l-.13,27.28a5.09,5.09,0,0,0,4.91,5.25h6.43c6.68,0,12.1,5.79,12.1,12.94l.13,114.08H94.49L94.36,50.71c0-7.14,5.42-12.94,12.1-12.94h6.35a5.09,5.09,0,0,0,4.91-5.25l.13-27.28A5.09,5.09,0,0,0,112.94,0H5A5.09,5.09,0,0,0,.13,5.25L0,32.52a5.09,5.09,0,0,0,4.91,5.25h6.52c6.68,0,12.1,5.79,12.1,12.94l.13,293c0,7.14-5.42,12.94-12.1,12.94H5a5.09,5.09,0,0,0-4.91,5.25V389.2A5.09,5.09,0,0,0,5,394.44h107.9a5.09,5.09,0,0,0,4.91-5.25V361.85a5.09,5.09,0,0,0-4.91-5.25h-6.35c-6.68,0-12.1-5.79-12.1-12.94v-141h170.9v141c0,7.14-5.42,12.94-12.1,12.94h-6.43a5.09,5.09,0,0,0-4.91,5.25V389.2a5.09,5.09,0,0,0,4.91,5.25h108a5.09,5.09,0,0,0,4.91-5.25V361.85a5.09,5.09,0,0,0-4.91-5.25h-6.49c-6.68,0-12.1-5.79-12.1-12.94l-.13-293c0-7.14,5.42-12.94,12.1-12.94h6.49a5.09,5.09,0,0,0,4.91-5.25l.13-27.28A5.09,5.09,0,0,0,354.81,0Z"></path><path style="fill:#03293a" d="M626.7,356.6H614c-5.58,0-7.15-4-7.15-8.17L607,169.9c0-4.27-.24-4.94-4.73-4.94-12.19,0-35.15-1.6-45.32-5a5.2,5.2,0,0,0-7.06,5v37.67c-6-12.94-28.47-37.85-59.15-37.85-59.59,0-111.49,54.56-111.49,127.52s45.15,102.14,105.52,102.14c38.58,0,65.13-19.52,65.13-19.52s2.25,19.52,21.87,19.52h55a3.67,3.67,0,0,0,3.59-3.75V360.35A3.67,3.67,0,0,0,626.7,356.6Zm-128,0c-30.27,0-46.93-34.49-46.93-71.73,0-40.55,21.31-82.23,49.12-82.23,29.6,0,49.12,19.42,49.12,77C550,308.5,542.75,356.6,498.66,356.6Z"></path><path style="fill:#03293a" d="M1914.94,159.48c-66.67,0-121,52.16-121,117.16s49.65,117.8,121,117.8c38.38,0,72-17.78,92.27-42a4.82,4.82,0,0,0-.19-6.31s-32.28-19.64-32.53-19.82a4,4,0,0,0-5.2.88c-5.21,7-21.36,29.61-54.77,29.39-48.56,0-48.15-57.51-48.15-57.51h163.21a5.44,5.44,0,0,0,5.53-5.23C2035.11,201.63,1966,159.48,1914.94,159.48Zm-48.57,100.66s-.07-57.46,48.15-57.46,48.63,57.46,48.63,57.46Z"></path><path style="fill:#03293a" d="M1186.27,123.72c24.68-9.3,38.29-35.38,30.41-58.24s-34.28-33.86-59-24.56-38.29,35.38-30.41,58.24S1161.59,133,1186.27,123.72Z"></path><path style="fill:#03293a" d="M825.66,165.93c-.49-.13-1-.26-1.49-.38-20.55-3.59-55.71,8.71-83.25,37.08V165c0-3.89-3.77-6.64-7.06-5-6.45,3.27-68.08,3.28-72.11,5a2.37,2.37,0,0,0-1.4,2.21l.14,33.1c0,1.79,1.32,2.35,3.24,2.35,0,0,20,0,20,14.18V345c0,6.43-4.88,11.65-10.89,11.65h-8.12a4.58,4.58,0,0,0-4.42,4.72v28.4a4.58,4.58,0,0,0,4.42,4.72h95.16a4.58,4.58,0,0,0,4.42-4.72v-28.4a4.58,4.58,0,0,0-4.42-4.72h-8.12c-6,0-10.89-5.21-10.89-11.65V259.88c0-42,29.6-57.25,36.7-57.25,0,24.83,17.67,41,39.47,41a39.32,39.32,0,0,0,8.57-77.72Z"></path><path style="fill:#03293a" d="M1724.58,176.22c5.13-3.75,15.92-7.88,22.41,1.86S1762.74,193,1774.16,193a32.23,32.23,0,0,0,32.23-32.23c0-12.47-8.92-34.4-42.42-34.4-39.67,0-75,50.24-77.66,49.07a127.86,127.86,0,0,0-52.15-10.63c-66.84,0-121,50.92-121,114.51,0,40.15,21.61,75.18,54.35,95.62-11.85,4.8-20.5,17.64-20.5,31.51s13.12,26.5,44.56,33.44c95.42,21.05,127,61.76,127,102.78,0,54.5-32.54,74.09-80.95,74.09s-80.95-24.86-80.95-74.09c0-56.6,35.33-63.8,28.65-70.69s-104-3.08-104,70.69c0,68.56,69.21,111.93,156.25,111.93,81.2,0,156.36-32.79,156.36-111.93,0-99.1-167.92-122.36-188.12-128.07-15.82-4.47-11-26.22,2.08-22.81,8.32,2.34,17.25,2.67,26.26,2.67,66.84,0,121-51.55,121-115.15,0-30.57-12.95-58.78-33.44-79.45C1712.13,189.79,1719.46,180,1724.58,176.22ZM1634.16,356.6c-28.69,0-48.41-26.44-48.41-75.93s19.72-78,48.41-78,48.41,28.55,48.41,78S1662.85,356.6,1634.16,356.6Z"></path><path style="fill:#03293a" d="M2219.27,165.93c-.49-.13-1-.26-1.49-.38-20.55-3.59-55.71,8.71-83.25,37.08V164.95c0-3.89-3.77-6.64-7.06-5-6.45,3.27-68.08,3.28-72.11,5a2.37,2.37,0,0,0-1.4,2.21l.14,33.11c0,1.79,1.32,2.35,3.24,2.35,0,0,20,0,20,14.18V345c0,6.43-4.88,11.65-10.89,11.65h-8.12a4.58,4.58,0,0,0-4.42,4.72v28.4a4.58,4.58,0,0,0,4.42,4.72h95.16a4.58,4.58,0,0,0,4.42-4.72v-28.4a4.58,4.58,0,0,0-4.42-4.72h-8.12c-6,0-10.89-5.21-10.89-11.65V259.88c0-42,29.6-57.25,36.7-57.25,0,24.83,17.67,41,39.47,41a39.32,39.32,0,0,0,8.57-77.72Z"></path><path style="fill:#ff1e00" d="M735.34,499.74c0-18-12.82-30.44-31.64-30.44H660V556.9h21.21V529.58h12.94c7.19,9.59,13.78,18.34,21,27.33h25c-7.07-9.35-15.1-19.9-22.65-29.36C728.39,522.87,735.34,512.44,735.34,499.74Zm-34,13.42H681.17V485.71H701.3c11.15,0,12.82,9.47,12.82,14C714.13,508.84,707.18,513.16,701.3,513.16Z"></path><polygon style="fill:#ff1e00" points="859.87 469.29 831.63 469.29 797.47 505.85 797.47 469.29 775.34 469.29 775.34 556.9 797.47 556.9 797.47 536.86 809.26 524.09 833.42 556.9 859.87 556.9 823.72 508.44 859.87 469.29"></polygon><polygon style="fill:#ff1e00" points="899.82 556.9 969.41 556.9 969.41 538.89 921.96 538.89 921.96 522.59 963.9 522.59 963.9 504.45 921.96 504.45 921.96 487.31 969.41 487.31 969.41 469.29 899.82 469.29 899.82 556.9"></polygon><polygon style="fill:#ff1e00" points="1009.37 487.31 1038.89 487.31 1038.89 556.9 1061.14 556.9 1061.14 487.31 1090.55 487.31 1090.55 469.29 1009.37 469.29 1009.37 487.31"></polygon><rect style="fill:#ff1e00" x="1130.5" y="469.29" width="22.13" height="87.61"></rect><polygon style="fill:#ff1e00" points="1255.38 520.34 1213.11 469.29 1192.58 469.29 1192.58 556.9 1213.91 556.9 1213.91 506.88 1255.38 556.9 1276.71 556.9 1276.71 469.29 1255.38 469.29 1255.38 520.34"></polygon><polygon style="fill:#ff1e00" points="452.24 469.29 426.03 503.36 399.83 469.29 377.7 469.29 377.7 556.9 399.95 556.9 399.95 503.66 426.03 537.25 452.12 503.66 452.12 556.9 474.37 556.9 474.37 469.29 452.24 469.29"></polygon><path style="fill:#ff1e00" d="M573.41,469.29h-12.5L514.32,556.9h23.91l7.53-15.06h42.88l7.8,15.06H620Zm-18.82,54.39L567.09,498l12.64,25.68Z"></path><path style="fill:#ff1e00" d="M1406.17,506.51h-44.59v19.25h21.18c-3.4,6.5-12,11.44-20.63,11.44a24.49,24.49,0,0,1-24.22-24.11c0-13,11.09-24,24.22-24,6.4,0,12.94,3.3,18,9l18.45-10.92a45.93,45.93,0,0,0-36.4-17.86c-25.07,0-45.46,19.65-45.46,43.8s20.39,43.8,45.46,43.8c23.35,0,42.32-16,44.13-37.16l0-.33c.1-1.56.2-3,.2-4.44,0-1.92-.13-4.7-.22-6.61Z"></path></g></g></svg>