<svg width="107" height="30" viewBox="0 0 107 30" fill="none" xmlns="http://www.w3.org/2000/svg">
<path d="M71.3401 17.8508V16.5498C71.3401 16.435 71.242 16.3393 71.1243 16.3393H70.7515C70.4768 16.3393 70.2414 16.1097 70.2414 15.8036V12.0727C70.2414 9.43242 69.025 7.53828 66.298 7.53828C64.905 7.53828 63.414 8.22706 63.0216 9.27936V7.55742C63.0216 7.38522 62.845 7.25129 62.6881 7.32782C62.3938 7.48089 59.4902 7.48089 59.294 7.55742C59.2548 7.57655 59.2352 7.61481 59.2352 7.65308V9.18369C59.2352 9.26022 59.3136 9.29849 59.3921 9.29849C59.3921 9.29849 60.3338 9.31762 60.3338 9.96813V15.8227C60.3338 16.1097 60.0984 16.3584 59.8237 16.3584H58.1169C57.8422 16.3584 57.6068 16.1288 57.6068 15.8227V7.55742C57.6068 7.38522 57.4302 7.23216 57.2733 7.30869C56.9201 7.46175 54.0754 7.48089 53.8792 7.55742C53.8399 7.57655 53.8203 7.61481 53.8203 7.65308V9.18369C53.8203 9.26022 53.8792 9.29849 53.9773 9.29849C53.9773 9.29849 54.919 9.29849 54.919 9.949V15.8227C54.919 16.1097 54.6835 16.3584 54.4089 16.3584H54.0361C53.9184 16.3584 53.8203 16.4541 53.8203 16.5689V17.8699C53.8203 17.9847 53.9184 18.0804 54.0361 18.0804H63.9241C64.0418 18.0804 64.1399 17.9847 64.1399 17.8699V16.5689C64.1399 16.4541 64.0418 16.3584 63.9241 16.3584H63.5513C63.2767 16.3584 63.0412 16.1288 63.0412 15.8227C63.0412 15.8227 63.0609 13.6607 63.0609 12.7615C63.0609 11.4413 63.3355 9.29849 65.3367 9.29849C67.3182 9.29849 67.6125 11.4413 67.6125 12.7615C67.6125 13.2207 67.5928 15.8227 67.5928 15.8227C67.5928 16.1097 67.3574 16.3584 67.0827 16.3584H66.71C66.5923 16.3584 66.4942 16.4541 66.4942 16.5689V17.8699C66.4942 17.9847 66.5923 18.0804 66.71 18.0804H67.6125H70.3003H71.2027C71.242 18.0804 71.3401 17.9847 71.3401 17.8508Z" fill="white" fill-opacity="0.3"/>
<path d="M48.0308 7.55752C46.1866 7.55752 44.931 9.29859 44.931 9.29859V1.91338C44.931 1.74119 44.774 1.74119 44.5975 1.76032C43.7539 1.91338 41.3996 1.95165 41.2034 2.02818C41.1642 2.04731 41.1445 2.08558 41.1445 2.12384V3.63532C41.1445 3.71185 41.223 3.75012 41.3015 3.75012C41.3015 3.75012 42.2432 3.75012 42.2432 4.40063V15.7846C42.2432 16.0715 42.0078 16.3203 41.7331 16.3203H41.3603C41.2426 16.3203 41.1445 16.4159 41.1445 16.5307V17.8317C41.1445 17.9465 41.2426 18.0422 41.3603 18.0422H44.6171C44.7937 18.0422 44.931 17.8891 44.931 17.717V17.1621C45.755 17.9083 46.8144 18.0422 47.9719 18.0422C50.6205 18.0422 52.8767 16.0715 52.8767 12.7616C52.8767 9.45165 50.9736 7.55752 48.0308 7.55752ZM47.0695 16.3394C45.9316 16.3394 44.931 15.6889 44.931 14.8088C44.931 14.3496 44.931 13.3356 44.931 12.4937C44.931 10.6187 45.9512 9.27945 47.1676 9.27945C48.8156 9.27945 49.4826 10.9249 49.4826 13.0486C49.4826 14.6749 48.6978 16.3394 47.0695 16.3394Z" fill="white" fill-opacity="0.3"/>
<path d="M17.3089 0H12.2276C12.1099 0 11.9922 0.114796 11.9922 0.248724V1.49235C11.9922 1.62628 12.0903 1.74107 12.2276 1.74107H12.5219C12.8358 1.74107 13.0909 2.00893 13.0909 2.33418V7.5574H5.0667V2.33418C5.0667 2.00893 5.32175 1.74107 5.63565 1.74107H5.92993C6.04765 1.74107 6.16536 1.62628 6.16536 1.49235V0.248724C6.16536 0.114796 6.06727 0 5.92993 0H0.86824C0.750526 0 0.632812 0.114796 0.632812 0.248724V1.49235C0.632812 1.62628 0.730907 1.72194 0.86824 1.72194H1.18214C1.49605 1.72194 1.75109 1.9898 1.75109 2.31505V15.7462C1.75109 16.0714 1.49605 16.3393 1.18214 16.3393H0.86824C0.750526 16.3393 0.632812 16.4541 0.632812 16.588V17.8508C0.632812 17.9847 0.730907 18.0995 0.86824 18.0995H5.92993C6.04765 18.0995 6.16536 17.9847 6.16536 17.8508V16.588C6.16536 16.4541 6.06727 16.3393 5.92993 16.3393H5.63565C5.32175 16.3393 5.0667 16.0714 5.0667 15.7462V9.27934H13.0909V15.7462C13.0909 16.0714 12.8358 16.3393 12.5219 16.3393H12.2276C12.1099 16.3393 11.9922 16.4541 11.9922 16.588V17.8508C11.9922 17.9847 12.0903 18.0995 12.2276 18.0995H17.3089C17.4267 18.0995 17.5444 17.9847 17.5444 17.8508V16.588C17.5444 16.4541 17.4463 16.3393 17.3089 16.3393H16.995C16.6811 16.3393 16.4261 16.0714 16.4261 15.7462V2.31505C16.4261 1.9898 16.6811 1.72194 16.995 1.72194H17.3089C17.4267 1.72194 17.5444 1.60714 17.5444 1.47321V0.229592C17.5444 0.114796 17.4267 0 17.3089 0Z" fill="white" fill-opacity="0.3"/>
<path d="M30.0794 16.3395H29.4908C29.2358 16.3395 29.1573 16.1482 29.1573 15.9568V7.76806C29.1573 7.57673 29.1377 7.53847 28.9415 7.53847C28.3725 7.53847 27.2935 7.46194 26.803 7.30888C26.646 7.25148 26.4695 7.36627 26.4695 7.53847V9.26041C26.1948 8.6673 25.1354 7.51934 23.6836 7.51934C20.8781 7.51934 18.4453 10.0257 18.4453 13.3548C18.4453 16.6839 20.5642 18.0423 23.4089 18.0423C25.2139 18.0423 26.4695 17.1431 26.4695 17.1431C26.4695 17.1431 26.5676 18.0423 27.4897 18.0423H30.0794C30.1775 18.0423 30.2559 17.9658 30.2559 17.8701V16.4734C30.2559 16.416 30.1775 16.3395 30.0794 16.3395ZM24.0563 16.3395C22.6242 16.3395 21.859 14.7515 21.859 13.0487C21.859 11.1928 22.8596 9.27954 24.1741 9.27954C25.567 9.27954 26.4891 10.1788 26.4891 12.8C26.4695 14.1392 26.136 16.3395 24.0563 16.3395Z" fill="white" fill-opacity="0.3"/>
<path d="M90.6036 7.30859C87.4645 7.30859 84.9141 9.70017 84.9141 12.6849C84.9141 15.6696 87.2487 18.0803 90.6036 18.0803C92.4085 18.0803 93.978 17.2576 94.9394 16.1479C95.0178 16.0713 94.9982 15.9374 94.9394 15.8609C94.9394 15.8609 93.4287 14.9617 93.4091 14.9617C93.3306 14.9043 93.2325 14.9425 93.1736 14.9999C92.9382 15.3252 92.1731 16.3583 90.6036 16.3392C88.3278 16.3392 88.3474 13.6989 88.3474 13.6989H96.0184C96.1557 13.6989 96.2734 13.6032 96.2734 13.4502C96.2538 9.24099 93.0167 7.30859 90.6036 7.30859ZM88.3278 11.9196C88.3278 11.9196 88.3278 9.27926 90.5839 9.27926C92.8401 9.27926 92.8597 11.9196 92.8597 11.9196H88.3278Z" fill="white" fill-opacity="0.3"/>
<path d="M56.6997 5.52386C57.7899 4.93535 58.227 3.67137 57.676 2.70066C57.125 1.72996 55.7946 1.42013 54.7044 2.00863C53.6142 2.59714 53.1771 3.86113 53.7281 4.83183C54.2791 5.80253 55.6095 6.11237 56.6997 5.52386Z" fill="white" fill-opacity="0.3"/>
<path d="M39.4215 7.59556C39.4018 7.59556 39.3822 7.57643 39.343 7.57643C38.3817 7.40424 36.7337 7.97822 35.4388 9.27924V7.5573C35.4388 7.38511 35.2622 7.25118 35.1053 7.32771C34.811 7.48077 31.9074 7.48077 31.7112 7.5573C31.672 7.57643 31.6523 7.6147 31.6523 7.65296V9.16444C31.6523 9.24097 31.7112 9.27924 31.8093 9.27924C31.8093 9.27924 32.751 9.27924 32.751 9.92975V15.8035C32.751 16.0905 32.5156 16.3392 32.2409 16.3392H31.8682C31.7504 16.3392 31.6523 16.4349 31.6523 16.5496V17.8507C31.6523 17.9655 31.7504 18.0611 31.8682 18.0611H36.3413C36.459 18.0611 36.5571 17.9655 36.5571 17.8507V16.5496C36.5571 16.4349 36.459 16.3392 36.3413 16.3392H35.9685C35.6939 16.3392 35.4584 16.1096 35.4584 15.8035V11.9004C35.4584 9.96801 36.8514 9.27924 37.1849 9.27924C37.1849 10.4081 38.0089 11.1542 39.0487 11.1542C40.0689 11.1542 40.9125 10.3507 40.9125 9.33664C40.8733 8.4948 40.2651 7.78689 39.4215 7.59556Z" fill="white" fill-opacity="0.3"/>
<path d="M81.6605 8.07366C81.896 7.90147 82.406 7.71014 82.7199 8.15019C83.0338 8.59024 83.4655 8.83897 83.9952 8.83897C84.8388 8.83897 85.5058 8.16932 85.5058 7.36575C85.5058 6.79177 85.0938 5.79688 83.5047 5.79688C81.6409 5.79688 79.9733 8.09279 79.8556 8.05453C79.1101 7.72927 78.2861 7.57621 77.4032 7.57621C74.2642 7.57621 71.7137 9.9104 71.7137 12.8186C71.7137 14.6553 72.7339 16.2624 74.2642 17.1999C73.7148 17.4104 73.3028 18.0035 73.3028 18.6349C73.3028 19.2663 73.911 19.8402 75.4021 20.1655C79.8948 21.1221 81.3662 22.9971 81.3662 24.8721C81.3662 27.3785 79.836 28.2586 77.5602 28.2586C75.2844 28.2586 73.7541 27.1106 73.7541 24.8721C73.7541 22.2701 75.4217 21.9448 75.1078 21.6387C74.7939 21.3135 70.2227 21.5048 70.2227 24.8721C70.2227 28.0099 73.4794 29.9997 77.5602 29.9997C81.3662 29.9997 84.8977 28.4882 84.8977 24.8721C84.8977 20.3377 77.0108 19.2663 76.0495 18.9984C75.304 18.7879 75.5394 17.793 76.1476 17.9461C76.54 18.0609 76.952 18.0609 77.3836 18.0609C80.5226 18.0609 83.0731 15.7076 83.0731 12.7803C83.0731 11.3836 82.4649 10.0826 81.5036 9.14509C81.0916 8.70504 81.4251 8.24585 81.6605 8.07366ZM77.4228 16.339C76.0691 16.339 75.147 15.1336 75.147 12.8568C75.147 10.58 76.0691 9.27902 77.4228 9.27902C78.7765 9.27902 79.6986 10.58 79.6986 12.8568C79.6986 15.1336 78.7765 16.339 77.4228 16.339Z" fill="white" fill-opacity="0.3"/>
<path d="M104.906 7.59556C104.886 7.59556 104.867 7.57643 104.827 7.57643C103.866 7.40424 102.218 7.97822 100.923 9.27924V7.5573C100.923 7.38511 100.747 7.25118 100.59 7.32771C100.295 7.48077 97.3918 7.48077 97.1956 7.5573C97.1563 7.57643 97.1367 7.6147 97.1367 7.65296V9.16444C97.1367 9.24097 97.1956 9.27924 97.2937 9.27924C97.2937 9.27924 98.2354 9.27924 98.2354 9.92975V15.8035C98.2354 16.0905 98 16.3392 97.7253 16.3392H97.3525C97.2348 16.3392 97.1367 16.4349 97.1367 16.5496V17.8507C97.1367 17.9655 97.2348 18.0611 97.3525 18.0611H101.826C101.943 18.0611 102.041 17.9655 102.041 17.8507V16.5496C102.041 16.4349 101.943 16.3392 101.826 16.3392H101.453C101.178 16.3392 100.943 16.1096 100.943 15.8035V11.9004C100.943 9.96801 102.336 9.27924 102.669 9.27924C102.669 10.4081 103.493 11.1542 104.533 11.1542C105.553 11.1542 106.397 10.3507 106.397 9.33664C106.358 8.4948 105.73 7.78689 104.906 7.59556Z" fill="white" fill-opacity="0.3"/>
<path d="M35.1799 22.9019C35.1799 22.0792 34.5717 21.5052 33.6889 21.5052H31.6289V25.5231H32.6295V24.2795H33.2377C33.5712 24.7195 33.8851 25.1213 34.2186 25.5231H35.3957C35.0622 25.1022 34.6895 24.6047 34.3363 24.1838C34.8464 23.9542 35.1799 23.4759 35.1799 22.9019ZM33.5908 23.5142H32.6491V22.2514H33.5908C34.1205 22.2514 34.199 22.6915 34.199 22.9019C34.1794 23.3228 33.8655 23.5142 33.5908 23.5142Z" fill="white" fill-opacity="0.3"/>
<path d="M41.0255 21.5049H39.7111L38.1023 23.1694V21.5049H37.0625V25.5227H38.1023V24.6044L38.6516 24.0113L39.7895 25.5227H41.0255L39.3383 23.3033L41.0255 21.5049Z" fill="white" fill-opacity="0.3"/>
<path d="M42.9102 25.5231H46.1865V24.7004H43.95V23.9542H45.9315V23.1124H43.95V22.328H46.1865V21.5052H42.9102V25.5231Z" fill="white" fill-opacity="0.3"/>
<path d="M48.0508 22.328H49.4437V25.5231H50.4835V22.328H51.8765V21.5052H48.0508V22.328Z" fill="white" fill-opacity="0.3"/>
<path d="M54.8015 21.5049H53.7617V25.5227H54.8015V21.5049Z" fill="white" fill-opacity="0.3"/>
<path d="M59.6265 23.8394L57.6254 21.5052H56.6641V25.5231H57.6646V23.2272L59.6265 25.5231H60.6271V21.5052H59.6265V23.8394Z" fill="white" fill-opacity="0.3"/>
<path d="M21.8789 21.5048L20.6429 23.0736L19.4265 21.5048H18.3867V25.5226H19.4265V23.0736L20.6429 24.6234L21.8789 23.0736V25.5226H22.9187V21.5048H21.8789Z" fill="white" fill-opacity="0.3"/>
<path d="M27.5671 21.5049H26.9786L24.7812 25.5227H25.8995L26.2527 24.834H28.293L28.6658 25.5227H29.7645L27.5671 21.5049ZM26.6843 23.9921L27.2729 22.8059L27.8614 23.9921H26.6843Z" fill="white" fill-opacity="0.3"/>
<path d="M66.7062 23.2083H64.607V24.0884H65.6076C65.4506 24.3945 65.0386 24.6049 64.6463 24.6049C64.0381 24.6049 63.5084 24.1075 63.5084 23.4953C63.5084 22.9021 64.0381 22.4047 64.6463 22.4047C64.9405 22.4047 65.2544 22.5578 65.4899 22.8065C65.6468 22.7108 66.0392 22.4812 66.3531 22.309C65.9411 21.7924 65.3133 21.4863 64.6463 21.4863C63.4691 21.4863 62.5078 22.3856 62.5078 23.4953C62.5078 24.6049 63.4691 25.5042 64.6463 25.5042C65.7449 25.5042 66.6278 24.7771 66.7259 23.8014V23.7822C66.7259 23.7057 66.7259 23.6483 66.7259 23.5718C66.7259 23.4761 66.7259 23.3613 66.7062 23.2657V23.2083Z" fill="white" fill-opacity="0.3"/>
</svg>
