<?xml version="1.0" standalone="no"?>
<!DOCTYPE svg PUBLIC "-//W3C//DTD SVG 1.1//EN" "http://www.w3.org/Graphics/SVG/1.1/DTD/svg11.dtd" >
<svg xmlns="http://www.w3.org/2000/svg" xmlns:xlink="http://www.w3.org/1999/xlink" version="1.1">
<metadata>
Created by FontForge 20170731 at Wed Jan 16 13:22:20 2019
 By Aleksey,,,
Copyright 2018 The Manjari Project Authors (https://gitlab.com/smc/fonts/manjari)
</metadata>
<defs>
<font id="Manjari-Regular" horiz-adv-x="1087" >
  <font-face 
    font-family="Manjari"
    font-weight="400"
    font-stretch="normal"
    units-per-em="2048"
    panose-1="2 0 5 3 0 0 0 0 0 0"
    ascent="1638"
    descent="-410"
    x-height="1007"
    cap-height="1387"
    bbox="-1516 -1231 4245 1978"
    underline-thickness="100"
    underline-position="-750"
    unicode-range="U+0020-25CC"
  />
<missing-glyph horiz-adv-x="692" 
d="M45 1v1118h561v-1118h-561zM102 55h450v1008h-450v-1008z" />
    <glyph glyph-name=".notdef" horiz-adv-x="692" 
d="M45 1v1118h561v-1118h-561zM102 55h450v1008h-450v-1008z" />
    <glyph glyph-name=".null" horiz-adv-x="0" 
 />
    <glyph glyph-name="nonmarkingreturn" horiz-adv-x="682" 
 />
    <glyph glyph-name="space" unicode=" " horiz-adv-x="500" 
 />
    <glyph glyph-name="exclam" unicode="!" horiz-adv-x="352" 
d="M171 1383q29 0 54.5 -20.5t25.5 -49.5l-26 -916q0 -29 -12.5 -49.5t-41.5 -20.5t-42 20.5t-13 49.5l-26 916q0 29 26 49.5t55 20.5zM176 171q40 0 68 -28t28 -68t-28 -68t-68 -28t-68 28t-28 68t28 68t68 28z" />
    <glyph glyph-name="quotedbl" unicode="&#x22;" horiz-adv-x="628" 
d="M346 1211q0 31 29 55.5t60 24.5t63 -24.5t30 -56.5l-40 -312q-2 -31 -14 -53.5t-43 -22.5t-43 22.5t-12 53.5zM100 1208q0 31 29 55.5t60 24.5t63 -24.5t30 -56.5l-40 -312q-2 -31 -14 -53.5t-43 -22.5t-43 22.5t-12 53.5z" />
    <glyph glyph-name="numbersign" unicode="#" horiz-adv-x="942" 
d="M807 781l-61 -331h192v-101h-210l-69 -377h-115l68 377h-246l-70 -377h-113l68 377h-183v101h204l58 331h-196v101h216l63 349h117l-68 -349h249l63 349h117l-67 -349h172v-101h-189zM446 781l-62 -331h249l59 331h-246z" />
    <glyph glyph-name="dollar" unicode="$" horiz-adv-x="1401" 
d="M784 -84q0 -26 -20 -50.5t-44 -24.5q-86 0 -86 76v78q-175 15 -315 92.5t-210 212.5q-9 16 -9 36q0 31 22 53t53 22q20 0 39.5 -12.5t27.5 -29.5q53 -100 154.5 -155.5t237.5 -68.5v471q-77 6 -153 18t-145 40q-80 33 -147.5 103.5t-67.5 182.5q0 96 44.5 168t119 121
t165.5 76.5t184 35.5v61q0 31 21.5 53t52.5 22h1q32 0 53.5 -22t21.5 -54v-60q152 -15 274 -88t184 -189q10 -18 10 -36q0 -31 -22 -53t-53 -22q-19 0 -38.5 12t-28.5 28q-44 83 -129 133.5t-197 63.5v-459q72 -5 142.5 -15t135.5 -33q60 -21 115 -60t89.5 -98t34.5 -141
q0 -133 -74.5 -221t-193 -134t-249.5 -55v-78zM271 960q0 -58 39 -93.5t83 -53.5q56 -22 116.5 -33.5t124.5 -17.5v448q-84 -9 -167.5 -38t-139.5 -81t-56 -131zM784 144q90 7 174 36t138.5 84t54.5 140q0 66 -43.5 102.5t-94.5 54.5q-54 19 -112 29t-117 15v-461z" />
    <glyph glyph-name="percent" unicode="%" horiz-adv-x="1584" 
d="M1333 1443q33 0 52.5 -26t19.5 -50q0 -23 -13 -43l-955 -1309q-11 -14 -26 -24t-36 -10q-34 0 -54.5 25t-20.5 51q0 23 13 42l955 1309q25 35 65 35zM841 1015q0 -92 -44 -168t-119.5 -120.5t-168.5 -44.5q-89 0 -165.5 42.5t-123 115t-46.5 161.5q0 98 42 177
t117.5 125.5t177.5 46.5q93 0 168 -46t118.5 -122t43.5 -167zM506 821q84 0 139.5 56.5t55.5 139.5q0 77 -56.5 135t-136.5 58t-137.5 -59t-57.5 -136q0 -76 57 -135t136 -59zM1485 305q0 -92 -44 -168t-119.5 -120.5t-168.5 -44.5q-89 0 -165.5 43t-123 116t-46.5 161
q0 98 41.5 177t117.5 125.5t178 46.5q93 0 168 -46.5t118.5 -122.5t43.5 -167zM1150 112q84 0 139.5 56.5t55.5 139.5q0 77 -57 134.5t-136 57.5q-80 0 -137.5 -58.5t-57.5 -135.5q0 -76 57 -135t136 -59z" />
    <glyph glyph-name="ampersand" unicode="&#x26;" horiz-adv-x="1216" 
d="M858 1075q0 -103 -61 -188.5t-181 -158.5q68 -88 126 -162t104 -135q35 99 40 212q1 28 21.5 48.5t48.5 20.5q23 0 46.5 -18.5t23.5 -38.5q0 -186 -81 -351q77 -100 118 -153.5t45 -58.5q8 -11 8 -37q0 -28 -21.5 -48t-51.5 -20q-32 0 -55 30q-38 51 -69 91.5t-55 70.5
q-63 -76 -155.5 -130.5t-214.5 -54.5q-109 0 -198 49t-142 134t-53 192q0 103 36.5 173.5t105 124.5t163.5 105q-29 41 -64.5 89.5t-60.5 104t-25 117.5q0 83 42 150.5t109.5 107.5t143.5 40q87 0 156.5 -40t110 -109.5t40.5 -156.5zM530 840q188 112 188 240q0 67 -46 113
t-112 46q-67 0 -116 -44t-49 -117q0 -56 34 -103.5t101 -134.5zM493 659q-60 -32 -118.5 -72.5t-97 -92t-38.5 -116.5q0 -104 73.5 -173.5t182.5 -69.5q92 0 166.5 51t114.5 107q-68 89 -138.5 180.5t-144.5 185.5z" />
    <glyph glyph-name="quotesingle" unicode="'" horiz-adv-x="382" 
d="M100 1346q0 31 29 55.5t60 24.5t63 -24.5t30 -56.5l-40 -312q-2 -31 -14 -53.5t-43 -22.5t-43 22.5t-12 53.5z" />
    <glyph glyph-name="parenleft" unicode="(" horiz-adv-x="705" 
d="M606 -276q0 -32 -21 -55.5t-52 -23.5q-29 0 -49 17q-103 80 -190.5 196.5t-140.5 264t-53 317.5t52 317t138 264.5t188 196.5q20 17 49 17q31 0 52 -23t21 -55q0 -34 -30 -57q-85 -67 -158 -167t-117.5 -224.5t-44.5 -267.5t45.5 -268.5t119.5 -225.5t160 -167
q31 -22 31 -56z" />
    <glyph glyph-name="parenright" unicode=")" horiz-adv-x="706" 
d="M100 1177q0 32 21 55.5t52 23.5q29 0 49 -17q103 -80 190.5 -196.5t140.5 -264t53 -317.5t-52 -317t-138 -264.5t-188 -196.5q-20 -17 -49 -17q-31 0 -52 23t-21 55q0 34 30 57q85 67 158 167t117.5 224.5t44.5 267.5t-45.5 268.5t-119.5 225.5t-160 167q-31 22 -31 56z
" />
    <glyph glyph-name="asterisk" unicode="*" horiz-adv-x="955" 
d="M1 1236q0 30 19 53t47 23q25 0 42 -11l306 -187l-4 248v16q0 20 24 38t46 18q29 0 49.5 -20.5t20.5 -49.5l4 -249l292 187q18 12 43 12q23 0 44.5 -19.5t21.5 -41.5q0 -48 -33 -69l-304 -194l303 -185q34 -21 34 -55q0 -30 -18.5 -52.5t-47.5 -22.5q-24 0 -41 11
l-291 177l5 -314v-16q0 -20 -23.5 -38t-46.5 -18q-28 0 -49 21t-21 49l-5 315l-309 -198q-16 -11 -43 -11q-28 0 -47 22.5t-19 52.5q0 33 33 54l321 205l-318 195q-35 21 -35 54z" />
    <glyph glyph-name="plus" unicode="+" horiz-adv-x="1103" 
d="M547 915q30 0 51 -21t21 -52l4 -311h310q29 0 49.5 -21t20.5 -50t-20.5 -50t-49.5 -21h-309l4 -314q0 -30 -21.5 -51.5t-51.5 -21.5t-51 21.5t-21 51.5l-4 314h-308q-29 0 -50 21t-21 50t21 50t50 21h307l-4 310q0 30 21 52t52 22z" />
    <glyph glyph-name="comma" unicode="," horiz-adv-x="506" 
d="M100 139q0 54 39.5 99t91.5 45q47 0 78 -16q97 -52 97 -170q0 -55 -21 -125q-49 -163 -174 -246q-19 -13 -40 -13q-28 0 -48.5 22t-20.5 53q0 33 35 57q81 53 109 150h-2q-59 0 -101.5 42.5t-42.5 101.5z" />
    <glyph glyph-name="hyphen" unicode="-" horiz-adv-x="1102" 
d="M170 603h762q29 0 49.5 -20.5t20.5 -49.5t-20.5 -49.5t-49.5 -20.5h-762q-29 0 -49.5 20.5t-20.5 49.5t20.5 49.5t49.5 20.5z" />
    <glyph glyph-name="period" unicode="." horiz-adv-x="489" 
d="M244 -4q-58 0 -101 41t-43 99t43 98.5t101 40.5q59 0 102 -40.5t43 -98.5t-43 -99t-102 -41z" />
    <glyph glyph-name="slash" unicode="/" horiz-adv-x="912" 
d="M814 1424q35 -16 43.5 -46.5t-2.5 -55.5q-166 -335 -332.5 -670t-333.5 -670q-11 -24 -40 -31.5t-49 1.5q-32 14 -44.5 43t1.5 59l662 1330q14 26 40.5 39.5t54.5 0.5z" />
    <glyph glyph-name="zero" unicode="0" horiz-adv-x="1100" 
d="M40 680q0 140 33.5 267t100 225.5t165.5 155.5t229 57q124 0 216 -58.5t153.5 -157.5t92 -223.5t30.5 -257.5q0 -141 -30 -269.5t-93 -228t-160 -157.5t-231 -58q-132 0 -227.5 58.5t-157.5 158.5t-91.5 226.5t-29.5 261.5zM550 125q98 0 167 47.5t111.5 128.5t62 183.5
t19.5 211.5q0 138 -36 261t-114 200.5t-206 77.5q-130 0 -210 -78.5t-117 -205t-37 -269.5q0 -144 36 -271t115 -206.5t209 -79.5z" />
    <glyph glyph-name="one" unicode="1" horiz-adv-x="1100" 
d="M330 1033q-21 0 -42 23t-21 45q0 26 14.5 50.5t37.5 28.5q94 18 174 164q22 43 61 43q35 0 58.5 -20.5t23.5 -54.5v-1176h144q20 0 38 -23.5t18 -46.5q0 -28 -20.5 -47t-49.5 -19h-432q-28 0 -49 19t-21 47q0 23 18 46.5t38 23.5h166v962q-28 -23 -67.5 -44t-88.5 -21z
" />
    <glyph glyph-name="two" unicode="2" horiz-adv-x="1100" 
d="M164 -3q-31 0 -53 22t-22 53q0 20 9 36q102 186 263 329q59 53 133 102t142 105.5t112 130.5t44 176q0 80 -36 145t-97.5 103t-139.5 38q-97 0 -166 -61t-86 -141q-5 -25 -26.5 -43t-47.5 -18q-34 0 -57 29t-16 63q18 86 72.5 159t138.5 117.5t190 44.5q122 0 217 -57.5
t149.5 -156t54.5 -222.5q0 -128 -48.5 -220t-124.5 -161t-158 -127t-150 -118q-89 -79 -161 -178h636q31 0 53 -22t22 -53t-22 -53t-53 -22h-772z" />
    <glyph glyph-name="three" unicode="3" horiz-adv-x="1100" 
d="M788 1003q0 61 -32.5 112t-86 81.5t-116.5 30.5q-74 0 -136 -43t-82 -96q-13 -36 -31 -52.5t-56 -16.5q-22 0 -44 22.5t-22 44.5q0 20 5 35q38 104 134 179.5t232 75.5q105 0 192.5 -50t140.5 -136.5t53 -197.5q0 -94 -42 -166t-95 -117q75 -44 121.5 -120t46.5 -180
q0 -124 -61.5 -220.5t-161.5 -151t-218 -54.5q-127 0 -227.5 61.5t-157.5 141.5q-14 20 -14 48q0 30 24 50.5t56 20.5q34 0 57 -32q37 -52 105.5 -95.5t150.5 -43.5q80 0 147.5 35.5t108.5 97t41 138.5q0 122 -79 167.5t-207 46.5q-29 0 -50 20.5t-21 53.5q0 41 27.5 60
t60.5 19q99 0 168 56.5t69 174.5z" />
    <glyph glyph-name="four" unicode="4" horiz-adv-x="1104" 
d="M730 -23q-31 0 -53.5 22.5t-22.5 53.5v352l-578 2q-30 0 -53 22t-23 51t16 49l652 828q22 28 56 28q32 0 54 -21.5t22 -53.5l4 -755l224 -1q31 0 53.5 -22t22.5 -53t-23 -53t-55 -22l-222 1v-352q0 -31 -21 -53.5t-53 -22.5zM654 555l-2 541l-422 -539z" />
    <glyph glyph-name="five" unicode="5" horiz-adv-x="1100" 
d="M212 615q-28 0 -53 19t-25 44q0 4 1 13t6 39.5t16 98t30.5 186t50.5 305.5q5 28 25 45.5t47 17.5h614q28 0 52 -20.5t24 -46.5q0 -36 -21 -59.5t-55 -23.5h-550l-56 -349q107 56 222 56q134 0 242.5 -63t172 -171t63.5 -245q0 -138 -65 -247t-175 -172.5t-246 -63.5
q-156 0 -272 80t-170 191q-8 18 -8 41q0 24 22.5 46t47.5 22q53 0 74 -43q38 -78 116.5 -132.5t189.5 -54.5q94 0 170 43.5t121 119t45 169.5q0 95 -43.5 169.5t-120.5 117.5t-176 43q-79 0 -151 -45.5t-107 -96.5q-22 -33 -58 -33z" />
    <glyph glyph-name="six" unicode="6" horiz-adv-x="1096" 
d="M590 -18q-136 0 -237 60.5t-168.5 163t-101 231t-33.5 264.5q0 133 35 255.5t104 219.5t170.5 153.5t234.5 56.5q136 0 235.5 -66t152.5 -157q12 -21 12 -43q0 -24 -21.5 -47t-44.5 -23q-53 0 -76 38q-35 60 -102 104.5t-156 44.5q-102 0 -176.5 -45.5t-122.5 -122.5
t-71.5 -174t-23.5 -199q21 38 74.5 86.5t130 84t167.5 35.5q136 0 243 -61.5t169 -168t62 -240.5q0 -119 -58 -222t-160.5 -165.5t-237.5 -62.5zM594 131q89 0 157 41t106.5 111.5t38.5 158.5q0 84 -42.5 155t-113 114t-156.5 43q-87 0 -157.5 -43.5t-112.5 -115t-42 -156.5
q0 -86 46.5 -156t120.5 -111t155 -41z" />
    <glyph glyph-name="seven" unicode="7" horiz-adv-x="1100" 
d="M962 1380q29 0 52.5 -20.5t23.5 -53.5q0 -17 -8 -35q-303 -605 -508 -1243q-15 -53 -80 -53q-22 0 -49.5 20t-12.5 78q95 297 210.5 586.5t251.5 570.5h-704q-31 0 -53.5 22t-22.5 53t22.5 53t53.5 22h824z" />
    <glyph glyph-name="eight" unicode="8" horiz-adv-x="1100" 
d="M940 995q0 -178 -156 -288q80 -46 141 -132t61 -203t-62 -205t-161.5 -137t-212.5 -49q-114 0 -213.5 48.5t-161 137t-61.5 207.5t60.5 203.5t139.5 130.5q-67 48 -110.5 124t-43.5 179q0 104 54.5 187.5t143 132.5t190.5 49q106 0 195 -50t143 -137t54 -198zM308 1009
q0 -64 33.5 -115t89 -81t119.5 -30q63 0 117.5 27.5t88.5 78.5t34 119q0 63 -34.5 113.5t-88.5 80t-113 29.5q-64 0 -120.5 -29t-91 -79t-34.5 -114zM834 375q0 71 -41 126t-106.5 86t-138.5 31q-71 0 -136.5 -29t-106.5 -83.5t-41 -129.5q0 -72 40.5 -127.5t106 -86.5
t139.5 -31t139 31t105 86t40 127z" />
    <glyph glyph-name="nine" unicode="9" horiz-adv-x="1096" 
d="M506 1384q136 0 237 -60.5t168.5 -163t101 -231t33.5 -264.5q0 -133 -35 -255.5t-104 -219.5t-170.5 -153.5t-234.5 -56.5q-136 0 -235.5 66t-152.5 157q-12 21 -12 43q0 24 21.5 47t44.5 23q53 0 76 -38q35 -60 102 -104.5t156 -44.5q102 0 176.5 45.5t122.5 122.5
t71.5 174t23.5 199q-21 -38 -74.5 -86.5t-130 -84t-167.5 -35.5q-136 0 -243 61.5t-169 168t-62 240.5q0 119 58 222t160.5 165.5t237.5 62.5zM502 1235q-89 0 -157 -41t-106.5 -111.5t-38.5 -158.5q0 -84 42.5 -155t113 -114t156.5 -43q87 0 157.5 43.5t112.5 115t42 156.5
q0 86 -46.5 156t-120.5 111t-155 41z" />
    <glyph glyph-name="colon" unicode=":" horiz-adv-x="506" 
d="M252 686q-58 0 -101 41t-43 99t43 98.5t101 40.5q59 0 102 -40.5t43 -98.5t-43 -99t-102 -41zM253 129q-58 0 -101 41t-43 99t43 98.5t101 40.5q59 0 102 -40.5t43 -98.5t-43 -99t-102 -41z" />
    <glyph glyph-name="semicolon" unicode=";" horiz-adv-x="506" 
d="M254 601q-58 0 -101 40.5t-43 98.5t43 99t101 41q59 0 102 -41t43 -99t-43 -98.5t-102 -40.5zM231 283q86 0 130.5 -55.5t44.5 -130.5q0 -56 -21 -125q-49 -163 -174 -246q-19 -13 -40 -13q-28 0 -48.5 22t-20.5 53q0 33 35 57q81 53 109 150h-2q-59 0 -101.5 42.5
t-42.5 101.5q0 54 39.5 99t91.5 45z" />
    <glyph glyph-name="less" unicode="&#x3c;" horiz-adv-x="1003" 
d="M800 1018q14 8 34 8q29 0 49.5 -20.5t20.5 -49.5q0 -42 -38 -62l-549 -291l549 -304q15 -8 26 -26.5t11 -35.5q0 -29 -20.5 -49.5t-49.5 -20.5q-18 0 -34 9l-663 367q-36 20 -36 61q0 17 10.5 35.5t26.5 26.5z" />
    <glyph glyph-name="equal" unicode="=" horiz-adv-x="1109" 
d="M100 702q0 23 18.5 46.5t37.5 23.5l800 -1q20 0 37 -24t17 -45q0 -22 -18 -46.5t-38 -24.5h-798q-19 0 -37.5 24.5t-18.5 46.5zM100 380q0 19 16 45t32 26l23 -1l783 1q20 0 38 -24t18 -47q0 -22 -18 -46t-38 -24h-798q-19 0 -37.5 24t-18.5 46z" />
    <glyph glyph-name="greater" unicode="&#x3e;" horiz-adv-x="1003" 
d="M204 1018l663 -352q16 -8 26.5 -26.5t10.5 -35.5q0 -41 -36 -61l-663 -367q-16 -9 -34 -9q-29 0 -49.5 20.5t-20.5 49.5q0 17 11 35.5t26 26.5l549 304l-549 291q-38 20 -38 62q0 29 20.5 49.5t49.5 20.5q20 0 34 -8z" />
    <glyph glyph-name="question" unicode="?" horiz-adv-x="949" 
d="M100 952q0 101 49 176.5t130.5 117t178.5 41.5q137 0 237 -66t137 -173q17 -48 17 -104q0 -92 -37.5 -160.5t-90.5 -119.5t-100 -93q-41 -37 -73.5 -74.5t-32.5 -103.5q0 -14 3 -27.5t3 -27.5q0 -27 -19 -46t-46 -19q-43 0 -57 38.5t-14 82.5q0 84 34.5 143t84.5 105
t99.5 88t79.5 93q17 27 26.5 55.5t9.5 65.5q0 68 -36.5 115.5t-95.5 72.5t-127 25q-94 0 -162 -54t-68 -151q0 -6 0.5 -12t0.5 -12q0 -27 -19 -46t-46 -19q-36 0 -51 26t-15 63zM474 171q40 0 68 -28t28 -68t-28 -68t-68 -28t-68 28t-28 68t28 68t68 28z" />
    <glyph glyph-name="at" unicode="@" horiz-adv-x="1784" 
d="M867 83q-114 0 -205 54.5t-143.5 147.5t-52.5 207q0 102 53.5 191.5t140 145t186.5 55.5q148 0 256 -84v11q0 31 22 53t53 22t53 -22t22 -53v-490q0 -41 37.5 -67.5t80.5 -26.5q58 0 93.5 36.5t52 91t16.5 107.5q0 134 -52.5 251.5t-142 207t-202.5 140t-235 50.5
q-141 0 -260 -51.5t-206.5 -140.5t-136 -202t-48.5 -236q0 -129 45.5 -245t128.5 -205.5t196.5 -141t250.5 -51.5q110 0 227 42q33 12 56 12q56 0 56 -68q0 -62 -60 -85q-140 -53 -280 -53q-168 0 -308.5 63.5t-244 174.5t-160.5 253.5t-57 299.5q0 148 58.5 288.5
t165.5 254t254 180.5t323 67q149 0 289.5 -63t252 -174t177 -256t65.5 -310q0 -100 -37 -189t-107 -144t-171 -55q-149 0 -229 125q-47 -48 -117 -83t-156 -35zM859 734q-67 0 -122 -34.5t-88 -91.5t-33 -124q0 -66 30.5 -123.5t85.5 -93t127 -35.5q105 0 175 72t71 176
q0 70 -33 127.5t-88.5 92t-124.5 34.5z" />
    <glyph glyph-name="A" unicode="A" horiz-adv-x="1350" 
d="M120 -23q-25 0 -47.5 22t-22.5 46t7 38l549 1255q7 15 26.5 30t38.5 15q54 0 73 -45l550 -1253q6 -13 6 -29q0 -28 -18.5 -52.5t-47.5 -24.5q-59 0 -78 46l-201 459h-556l-205 -461q-19 -46 -74 -46zM675 1120l-211 -486h425z" />
    <glyph glyph-name="B" unicode="B" horiz-adv-x="1238" 
d="M1081 997q0 -88 -29 -147.5t-84 -110.5q75 -46 122.5 -128t47.5 -196q0 -206 -111 -311.5t-319 -104.5l-513 1q-30 0 -51.5 16.5t-21.5 46.5l-2 1246q0 29 22 51.5t50 23.5l344 1q156 0 279 -41.5t194.5 -127.5t71.5 -219zM543 1231l-273 -1l1 -438l416 6
q113 2 178.5 46.5t65.5 149.5q0 86 -51 138t-138.5 75.5t-198.5 23.5zM705 142q141 1 212 60.5t71 207.5q0 128 -74 183t-208 55h-16l-419 -6l1 -502z" />
    <glyph glyph-name="C" unicode="C" horiz-adv-x="1479" 
d="M1309 489q25 0 47.5 -22t22.5 -46q0 -25 -7 -39q-48 -108 -136.5 -200t-210.5 -148t-273 -56q-149 0 -269.5 55t-206 152.5t-131 226t-45.5 276.5q0 146 46 272.5t132 222t205.5 149.5t265.5 54q148 0 269.5 -52t211 -139t139.5 -193q8 -16 8 -34q0 -29 -20.5 -51.5
t-42.5 -22.5q-60 0 -80 44q-59 125 -185 211.5t-300 86.5q-154 0 -266 -74t-172.5 -198.5t-60.5 -278.5t60 -280.5t172.5 -201t267.5 -74.5q116 0 211.5 43.5t166 115.5t107.5 155q20 46 74 46z" />
    <glyph glyph-name="D" unicode="D" horiz-adv-x="1364" 
d="M552 1384q183 1 317 -59t221.5 -162t130.5 -229t43 -260q0 -128 -38.5 -248.5t-114 -217.5t-185.5 -154t-254 -58l-478 2q-30 1 -52 21t-22 51l7 1233q0 30 21.5 54t51.5 25zM1126 696q0 194 -82.5 314t-231.5 174t-347 49l-189 -4l-6 -1085l272 -2q288 -4 436 135
t148 419z" />
    <glyph glyph-name="E" unicode="E" horiz-adv-x="1308" 
d="M120 1307q0 31 22 53t53 22l937 -1h1q31 0 53 -22t22 -53t-22 -53t-53 -22h-1l-862 1l1 -470q3 0 5.5 0.5t4.5 0.5l769 -5q32 0 53.5 -21.5t21.5 -58.5q0 -28 -23 -49t-52 -21h-1l-769 5h-8l1 -465l859 1h1q31 0 53 -22t22 -53t-22 -53t-53 -22h-1l-934 -1q-31 0 -53 22
t-22 53z" />
    <glyph glyph-name="F" unicode="F" horiz-adv-x="1136" 
d="M120 1309q0 31 22 53t53 22l815 1h1q31 0 53 -22t22 -53t-22 -53t-53 -22h-1l-740 -1l1 -421q5 0 8 1l538 5h11q26 0 45.5 -24t19.5 -45q0 -34 -21 -57.5t-54 -23.5l-537 -5h-9l1 -599v-2q0 -31 -22 -53t-53 -22t-53 22t-22 53v1z" />
    <glyph glyph-name="G" unicode="G" horiz-adv-x="1438" 
d="M100 667q0 146 50.5 276t144 230t222.5 157.5t285 57.5q146 0 263 -39t220 -113q33 -22 33 -62q0 -31 -22 -53t-53 -22q-25 0 -44 14q-81 57 -183 90.5t-209 33.5q-162 0 -288.5 -76.5t-198.5 -205t-72 -284.5q0 -160 69.5 -280.5t192.5 -187.5t285 -67q94 0 185.5 21.5
t164.5 47.5l-3 375h-330q-31 0 -53 22t-22 53t22 53t53 22h405q31 0 53 -21.5t22 -52.5l4 -502v-1q0 -21 -13.5 -41t-33.5 -28q-94 -38 -208 -68.5t-239 -30.5q-204 0 -362.5 85.5t-249 239t-90.5 357.5z" />
    <glyph glyph-name="H" unicode="H" horiz-adv-x="1340" 
d="M120 1319q0 26 24 45.5t45 19.5q35 -1 59 -21.5t24 -53.5v-531h798v531q0 31 21.5 53t52.5 22q32 0 54 -22t22 -54v-1248q0 -31 -22.5 -53t-53.5 -22t-52.5 22t-21.5 53v568h-798v-571q0 -31 -21.5 -53t-52.5 -22t-54.5 22.5t-23.5 53.5v1261z" />
    <glyph glyph-name="I" unicode="I" horiz-adv-x="391" 
d="M196 -21q-31 0 -53 22t-22 53v1l-1 1256v1q0 29 21.5 52t48.5 23q37 0 58.5 -21.5t21.5 -53.5v-1l1 -1256v-1q0 -31 -22 -53t-53 -22z" />
    <glyph glyph-name="J" unicode="J" horiz-adv-x="944" 
d="M120 408q37 0 58.5 -21.5t21.5 -53.5v-1q0 -82 60 -142t144 -60q106 0 164.5 59t82 156.5t23.5 213.5v34l-10 714v2q0 30 22.5 52.5t52.5 22.5q31 0 53 -22t22 -53l10 -714v-36q0 -163 -42 -294t-134 -207t-242 -76q-99 0 -180 46t-128.5 125.5t-47.5 179.5q0 29 21.5 52
t48.5 23z" />
    <glyph glyph-name="K" unicode="K" horiz-adv-x="1265" 
d="M120 95q0 42 1 102.5t1 154.5l1 962q0 32 21.5 54t52.5 22t53.5 -22.5t22.5 -53.5q1 -146 1 -291.5t1 -291.5l727 629q25 22 50 22q30 0 52 -24.5t22 -55.5q0 -33 -25 -55l-578 -497l620 -634q22 -22 22 -51q0 -31 -24 -54t-54 -23q-28 0 -51 23l-626 639l-136 -119
q-1 -196 -2 -313.5t-2 -157.5q0 -33 -24 -53.5t-53 -20.5q-41 0 -57 28.5t-16 80.5z" />
    <glyph glyph-name="L" unicode="L" horiz-adv-x="1181" 
d="M198 1q-31 0 -53 22t-22 53l-3 1229v1q0 31 22 53t53 22t53 -22t22 -53v-1l3 -1154h783q31 0 53 -22t22 -53t-22 -53t-53 -22h-858z" />
    <glyph glyph-name="M" unicode="M" horiz-adv-x="1644" 
d="M120 1310q0 28 21 51.5t54 23.5q20 0 39 -13t29 -30l558 -913l564 919q22 36 64 36q31 0 53 -22t22 -53v-1253q0 -31 -22 -53t-53 -22t-53 22t-22 53v987l-489 -797q-22 -36 -64 -36t-64 36l-487 796v-982q0 -31 -22 -53t-53 -22t-53 22t-22 53v1250z" />
    <glyph glyph-name="N" unicode="N" horiz-adv-x="1325" 
d="M120 1311q0 32 22.5 53.5t55.5 21.5q35 0 57 -30l800 -1076v1028q0 31 22 53t53 22t53 -22t22 -53v-1l-1 -1252q0 -32 -22.5 -53.5t-55.5 -21.5q-34 0 -57 30l-799 1075v-1029q0 -31 -22 -53t-53 -22t-53 22t-22 53v1255z" />
    <glyph glyph-name="O" unicode="O" horiz-adv-x="1533" 
d="M766 1386q147 0 269.5 -54t211.5 -151t137.5 -225.5t48.5 -277.5q0 -199 -84 -357.5t-234 -250.5t-349 -92q-202 0 -352 91.5t-232 249.5t-82 359q0 146 49 274.5t138.5 226t211.5 152.5t267 55zM766 1233q-156 0 -272 -72.5t-180 -198t-64 -284.5q0 -110 39.5 -208.5
t110 -175t164 -120.5t202.5 -44q108 0 202.5 46t166 124t111.5 176t40 202q0 165 -68.5 290t-186 195t-265.5 70z" />
    <glyph glyph-name="P" unicode="P" horiz-adv-x="1110" 
d="M197 -15q-31 0 -53 22t-22 53v1l-2 1247q0 20 20 47t54 28l315 2q143 0 256 -46t179 -139.5t66 -236.5q0 -165 -69 -265.5t-191.5 -147t-283.5 -51.5l-195 -4l1 -434v-1q0 -31 -22 -53t-53 -22zM860 962q0 147 -99 209.5t-259 62.5h-232l1 -589l192 4q120 3 209 31
t138.5 95.5t49.5 186.5z" />
    <glyph glyph-name="Q" unicode="Q" horiz-adv-x="1610" 
d="M1437 -147q23 0 42.5 -24.5t19.5 -49.5q0 -39 -28 -57.5t-69.5 -23.5t-83.5 -5h-49q-191 0 -337 65t-205 195q-184 15 -325.5 107t-221.5 246.5t-80 356.5q0 209 88.5 371.5t247.5 255.5t371 93t370 -92.5t245.5 -255t87.5 -372.5q0 -199 -77.5 -351.5t-214 -245
t-312.5 -111.5q124 -122 331 -122q46 0 96.5 10t103.5 10zM264 663q0 -163 66 -292.5t188 -205t289 -75.5q169 0 288.5 74t183 203.5t63.5 295.5t-63.5 296.5t-183.5 206t-288 75.5q-165 0 -287 -77t-189 -208t-67 -293z" />
    <glyph glyph-name="R" unicode="R" horiz-adv-x="1224" 
d="M1144 47q0 -29 -21.5 -50t-43.5 -21q-20 0 -37 9.5t-25 14.5q-88 63 -153.5 147t-110.5 181q-42 92 -88.5 145.5t-111.5 77t-165 24.5l-116 1l1 -513v-2q0 -30 -22.5 -52.5t-52.5 -22.5q-31 0 -53 22.5t-22 53.5l-3 1250q0 32 22 53t52 22l266 1h23q169 0 298 -44
t202 -135.5t73 -234.5q0 -100 -42 -175.5t-110 -126.5t-147 -76q45 -45 89 -130q58 -111 115 -200t151 -157q32 -23 32 -62zM488 1238h-218l2 -527q5 1 13 1l205 2q184 2 301 62.5t117 202.5q0 98 -57 154.5t-152.5 80.5t-210.5 24z" />
    <glyph glyph-name="S" unicode="S" horiz-adv-x="1323" 
d="M670 1381q164 0 292 -78t186 -206q7 -14 7 -30q0 -29 -21 -50t-50 -21q-19 0 -38.5 12.5t-27.5 30.5q-41 92 -134.5 145.5t-213.5 53.5q-64 0 -132.5 -15.5t-127 -46.5t-94.5 -78.5t-36 -110.5q0 -73 48 -118.5t122.5 -71t156 -39t148.5 -22.5q80 -11 159.5 -33.5
t144.5 -63t104.5 -104.5t39.5 -157q0 -102 -49 -177.5t-128.5 -125t-173 -74t-182.5 -24.5q-185 0 -333 84t-211 229q-6 16 -6 29q0 29 21 50t50 21q20 0 39.5 -13t26.5 -31q47 -107 157.5 -168t255.5 -61q64 0 132.5 15.5t127.5 47t95.5 81t36.5 117.5q0 80 -51.5 123.5
t-126.5 64t-148 29.5q-98 14 -202.5 35t-194.5 61t-146 111.5t-56 185.5q0 96 48 169.5t126.5 123t172.5 75t186 25.5z" />
    <glyph glyph-name="T" unicode="T" horiz-adv-x="1251" 
d="M50 1307q0 32 22.5 55t53.5 23h1001q31 0 53 -20.5t22 -51.5t-22 -54.5t-54 -23.5h-426v-1177q0 -31 -23 -53t-54 -22t-52 22t-21 53v1177h-425q-31 0 -53 20.5t-22 51.5z" />
    <glyph glyph-name="U" unicode="U" horiz-adv-x="1366" 
d="M120 1302q0 29 21.5 52t48.5 23q79 0 80 -75l7 -679q1 -149 41 -262t126.5 -176t226.5 -63q155 0 248 63t135 173t42 250l-2 695v1q0 31 21.5 53t52.5 22t53.5 -22t22.5 -53v-1l2 -694q0 -298 -141.5 -467t-429.5 -169q-184 0 -305 82.5t-181 229t-62 337.5l-7 679v1z
" />
    <glyph glyph-name="V" unicode="V" horiz-adv-x="1353" 
d="M50 1302q0 24 22.5 46t47.5 22q55 0 74 -45l508 -1087l456 1098q20 48 75 48q26 0 48 -21.5t22 -46.5q0 -23 -5 -36l-522 -1262q-7 -17 -27 -32.5t-43 -15.5q-47 0 -68 45l-581 1249q-7 14 -7 38z" />
    <glyph glyph-name="W" unicode="W" horiz-adv-x="1850" 
d="M854 1334q7 21 27.5 36.5t43.5 15.5t44 -15t28 -37l328 -1039l329 1034q7 22 28 37.5t44 15.5q31 0 53 -22t22 -53q0 -12 -4 -24l-400 -1256q-7 -22 -28 -37t-44 -15q-22 0 -43 15t-28 37l-329 1038l-328 -1038q-7 -22 -28 -37t-44 -15q-22 0 -43 15t-28 37l-400 1259
q-4 12 -4 24q0 31 22 53t53 22q23 0 44 -16t28 -38l328 -1036z" />
    <glyph glyph-name="X" unicode="X" horiz-adv-x="1234" 
d="M1066 1375q32 0 53.5 -22t21.5 -53q0 -25 -16 -45l-416 -553l459 -608q16 -20 16 -47q0 -31 -22 -53t-53 -22q-38 0 -60 31l-433 574l-430 -572q-22 -31 -61 -31q-31 0 -53 22t-22 53q0 26 16 46l456 606l-423 566q-16 20 -16 46q0 31 22 53t53 22q39 0 61 -31l396 -531
l390 519q9 13 27 21.5t34 8.5z" />
    <glyph glyph-name="Y" unicode="Y" horiz-adv-x="1129" 
d="M50 1306q0 30 24.5 50.5t56.5 20.5q37 0 58 -36l379 -606l371 598q6 11 24.5 23.5t32.5 12.5q23 0 34.5 -3t27.5 -20q21 -22 21 -48q0 -25 -12 -45l-428 -688l-7 -509q0 -31 -22 -53t-53 -22t-53 22t-22 53v2l7 520l-427 683q-12 20 -12 45z" />
    <glyph glyph-name="Z" unicode="Z" horiz-adv-x="1369" 
d="M125 1232q-31 0 -53 22.5t-22 53.5q0 29 24.5 53t43.5 24l1126 -2q30 0 52.5 -22t22.5 -52q0 -29 -17 -49l-1009 -1111l922 -5h1q33 0 54 -23t21 -57q0 -37 -30 -51t-47 -14q-1 0 -1 1l-1080 -1q-31 0 -53 21.5t-22 52.5q0 29 17 49l1009 1111l-958 -1h-1z" />
    <glyph glyph-name="bracketleft" unicode="[" horiz-adv-x="694" 
d="M170 1385h354q29 0 49.5 -20.5t20.5 -49.5t-20.5 -49.5t-49.5 -20.5h-284l2 -1523l280 -1h1q29 0 49.5 -20.5t20.5 -49.5t-20.5 -49.5t-49.5 -20.5h-1l-350 1q-29 0 -49.5 20.5t-20.5 49.5l-2 1663q0 29 20.5 49.5t49.5 20.5z" />
    <glyph glyph-name="backslash" unicode="\" horiz-adv-x="912" 
d="M98 1424q28 13 55 -0.5t40 -39.5l662 -1330q14 -30 1.5 -59t-44.5 -43q-19 -9 -48.5 -1.5t-40.5 31.5q-167 335 -333 670t-333 670q-11 25 -2.5 55.5t43.5 46.5z" />
    <glyph glyph-name="bracketright" unicode="]" horiz-adv-x="735" 
d="M566 1382q30 0 50 -20t20 -50l-2 -1663q0 -29 -20 -49.5t-50 -20.5l-350 -1h-1q-29 0 -49.5 20.5t-20.5 49.5q0 30 20.5 50t49.5 20h1l280 1l2 1523h-284q-29 0 -49.5 20.5t-20.5 49.5q0 30 20.5 50t49.5 20h354z" />
    <glyph glyph-name="asciicircum" unicode="^" horiz-adv-x="761" 
d="M324 1413q19 21 49 21t49 -19l317 -304q23 -21 23 -51q0 -29 -20.5 -49.5t-49.5 -20.5t-49 20l-268 256l-254 -258q-20 -22 -51 -22q-29 0 -49.5 20.5t-20.5 49.5q0 31 21 50z" />
    <glyph glyph-name="underscore" unicode="_" horiz-adv-x="1010" 
d="M50 72q0 19 16 45t32 26h806q20 0 38 -24t18 -47q0 -22 -18 -46t-38 -24h-798q-19 0 -37.5 24t-18.5 46z" />
    <glyph glyph-name="grave" unicode="`" horiz-adv-x="459" 
d="M0 1364q0 29 20.5 49.5t49.5 20.5t49 -20l316 -319q24 -26 23 -45.5t-15 -36.5t-32.5 -15t-33.5 12t-21 15l-334 288q-22 20 -22 51z" />
    <glyph glyph-name="a" unicode="a" horiz-adv-x="1191" 
d="M589 1025q107 0 192.5 -62t149.5 -131l9 126q0 29 16 49.5t45 20.5t49.5 -20.5t20.5 -49.5v-904q0 -29 -20.5 -49.5t-49.5 -20.5t-49.5 20.5t-20.5 49.5v114q-66 -72 -156.5 -130t-190.5 -58q-103 0 -191 42.5t-154 115.5t-102.5 166.5t-36.5 196.5q0 102 36.5 196.5
t103 168t155.5 116.5t194 43zM936 507q0 97 -46.5 180.5t-125 135.5t-174.5 52q-97 0 -174 -53t-121.5 -138.5t-44.5 -182.5q0 -96 44 -181t119.5 -137.5t170.5 -52.5q96 0 176 53.5t128 140t48 183.5z" />
    <glyph glyph-name="b" unicode="b" horiz-adv-x="1166" 
d="M600 -20q-105 0 -189 56t-141 114l-5 -96q0 -31 -19.5 -53t-50.5 -22t-53 22t-22 53v1259q0 31 22 53t53 22t53 -22t22 -53v-452q61 64 142 113t179 49q104 0 190.5 -44t150.5 -118.5t99 -169.5t35 -197q0 -135 -60 -252.5t-165 -189.5t-241 -72zM597 130
q95 0 166.5 50.5t111 133t39.5 177.5q0 96 -40 183.5t-112 143t-169 55.5q-100 0 -172.5 -52.5t-111 -135.5t-38.5 -177t39 -181t112.5 -142t174.5 -55z" />
    <glyph glyph-name="c" unicode="c" horiz-adv-x="1128" 
d="M100 503q0 139 66 256.5t178 189.5t250 72q102 0 186 -38t145 -100t94 -136q8 -16 8 -32q0 -31 -22 -52.5t-53 -21.5q-20 0 -40 12.5t-28 31.5q-34 75 -110 131t-180 56q-97 0 -175 -51.5t-124 -136t-46 -182.5t45.5 -182.5t124 -136t175.5 -51.5q104 0 180.5 55.5
t110.5 130.5q8 19 28 32t40 13q31 0 53 -22t22 -53q0 -17 -7 -31q-33 -73 -94.5 -135.5t-146 -100.5t-186.5 -38q-139 0 -251 72t-177.5 190.5t-65.5 257.5z" />
    <glyph glyph-name="d" unicode="d" horiz-adv-x="1166" 
d="M566 -21q-136 0 -241 72t-165 189.5t-60 252.5q0 102 35 197t99 169.5t151 118.5t190 44q98 0 179 -49t142 -113v452q0 31 22 53t53 22q32 0 53.5 -22t21.5 -53v-1259q0 -31 -22 -53t-53 -22t-50.5 22t-19.5 53l-5 96q-57 -58 -141 -114t-189 -56zM569 129q102 0 175 55
t112 142t39 181t-38.5 177t-110.5 135.5t-173 52.5q-97 0 -169 -55.5t-112 -143t-40 -183.5q0 -95 39.5 -177.5t111 -133t166.5 -50.5z" />
    <glyph glyph-name="e" unicode="e" horiz-adv-x="1162" 
d="M618 -20q-145 0 -262.5 72t-186.5 192.5t-69 264.5q0 137 65.5 253.5t177.5 187.5t250 71q127 0 233.5 -63t171 -169.5t64.5 -236.5q0 -46 -16.5 -79t-60.5 -33h-728q16 -83 65.5 -153.5t125 -113.5t168.5 -43q79 0 155 35t125 96q22 29 59 29q31 0 53 -22t22 -53
q0 -27 -18 -49q-72 -88 -176.5 -137t-217.5 -49zM909 588q-9 78 -53 142.5t-112 102.5t-150 38q-85 0 -155 -39t-116.5 -103t-63.5 -141h650z" />
    <glyph glyph-name="f" unicode="f" horiz-adv-x="703" 
d="M624 1217q-30 0 -54 13.5t-68 12.5q-123 -1 -122 -176l1 -69h207q29 0 49.5 -22.5t20.5 -51.5q0 -22 -20 -44t-40 -22h-217l2 -806q0 -31 -22 -53t-53 -22t-53 22.5t-22 53.5l-2 805h-139q-31 0 -50.5 20.5t-19.5 55.5q0 20 18.5 40.5t37.5 20.5l153 3v62q0 158 63.5 243
t214.5 85q26 0 72 -8t84 -27.5t38 -54.5q0 -34 -20.5 -57.5t-58.5 -23.5z" />
    <glyph glyph-name="g" unicode="g" horiz-adv-x="1201" 
d="M586 1018q104 0 191.5 -52t152.5 -122l5 102q0 31 20 53t51 22t53 -22t22 -53l-1 -2l-7 -944q-1 -107 -43.5 -202t-116.5 -167.5t-170 -113.5t-204 -41q-121 0 -232 53.5t-187 148.5q-17 21 -17 48q0 31 22 53t53 22q38 0 60 -30q53 -67 134.5 -106t166.5 -39
q104 0 190.5 51.5t139 137t54.5 187.5l1 150q-66 -67 -153.5 -120.5t-184.5 -53.5q-103 0 -191.5 42.5t-154.5 115.5t-103 166.5t-37 195.5t36.5 195t102.5 166.5t154.5 116t192.5 42.5zM921 498q0 97 -43.5 181t-119.5 136.5t-172 52.5q-97 0 -172.5 -52.5t-119 -136.5
t-43.5 -181q0 -96 44 -180.5t119.5 -137t171.5 -52.5t171.5 52.5t119.5 137t44 180.5z" />
    <glyph glyph-name="h" unicode="h" horiz-adv-x="1092" 
d="M120 1308q0 31 22 53t53 22t53 -22t22 -53v-460q50 83 131 130.5t161 47.5q223 0 316.5 -133.5t93.5 -358.5v-9l-1 -472v-1q0 -31 -22 -53t-53 -22t-53 22t-22 53v1l1 474q0 164 -50.5 257t-197.5 93q-93 0 -161 -39t-104.5 -99t-36.5 -122v-566q0 -31 -22 -53t-53 -22
q-33 0 -55 23t-22 52v1257z" />
    <glyph glyph-name="i" unicode="i" horiz-adv-x="436" 
d="M208 1177q-43 0 -75.5 31t-32.5 75t32.5 75t75.5 31q44 0 76 -31t32 -75t-32 -75t-76 -31zM135 960q0 26 24 45.5t45 19.5q35 0 58 -21t23 -55l2 -897q0 -31 -22 -53t-53 -22t-53 22.5t-22 53.5z" />
    <glyph glyph-name="j" unicode="j" horiz-adv-x="440" 
d="M232 1177q-43 0 -75.5 31t-32.5 75t32.5 75t75.5 31q44 0 76 -31t32 -75t-32 -75t-76 -31zM225 1024q29 0 54 -16t25 -43l4 -931q1 -191 -23 -298t-92.5 -149.5t-200.5 -42.5q-66 0 -130 26q-44 18 -44 73q0 21 21 41.5t42 20.5q22 0 35 -6q40 -17 80 -17q90 0 125.5 40
t41.5 122.5t5 207.5l-4 916q0 17 22 36.5t39 19.5z" />
    <glyph glyph-name="k" unicode="k" horiz-adv-x="897" 
d="M120 1312q0 29 20.5 49.5t49.5 20.5t50 -20.5t20 -50.5v-780q109 126 226 244.5t231 239.5q20 22 51 22q29 0 49.5 -20.5t20.5 -49.5t-20 -49l-343 -356l357 -469q15 -19 15 -43q0 -29 -20.5 -49.5t-49.5 -20.5q-35 0 -56 28l-344 465l-117 -114v-306q0 -29 -20.5 -49.5
t-49.5 -20.5t-50 21t-20 50v1258z" />
    <glyph glyph-name="l" unicode="l" horiz-adv-x="390" 
d="M190 1384q37 0 58.5 -24.5t21.5 -51.5v-1270q0 -26 -23.5 -45t-45.5 -19q-34 0 -57.5 21t-23.5 54v1257q0 29 21 53.5t49 24.5z" />
    <glyph glyph-name="m" unicode="m" horiz-adv-x="1693" 
d="M882 811q33 53 81 103t114 82t151 32q127 0 202 -60.5t108.5 -165.5t33.5 -238l1 -504q0 -31 -22 -53t-53 -22t-53 22.5t-22 53.5l-1 503q0 82 -15.5 153t-57.5 115t-123 44q-105 0 -172 -44.5t-98 -116t-32 -151.5l-2 -507q0 -31 -22 -53t-53 -22t-53 22.5t-22 53.5
l-1 506q0 84 -16 155t-59.5 114t-125.5 43q-143 0 -220.5 -87.5t-77.5 -224.5l-1 -509q0 -31 -22 -53t-53 -22t-53 22.5t-22 53.5l-1 900q2 31 23 51.5t52 20.5q32 0 51.5 -20.5t18.5 -52.5l5 -118q25 43 70.5 87t104 74t122.5 30q121 0 199.5 -65.5t115.5 -151.5z" />
    <glyph glyph-name="n" unicode="n" 
d="M195 1027q31 0 50.5 -22t19.5 -53l5 -119q36 44 83.5 88t109 73.5t137.5 29.5q133 0 213.5 -68t117 -178.5t36.5 -238.5l-1 -485q0 -31 -22 -53t-53 -22t-53 22.5t-22 53.5l1 484q0 89 -18 165t-65 123t-134 47q-163 0 -246 -87t-83 -245v-490q0 -31 -22 -53t-53 -22
t-53 22.5t-22 53.5l-1 898q0 32 21.5 54t53.5 22z" />
    <glyph glyph-name="o" unicode="o" horiz-adv-x="1200" 
d="M599 1026q105 0 196 -42t159.5 -115.5t107 -167.5t38.5 -199q0 -139 -66 -258t-178.5 -192.5t-252.5 -74.5q-142 0 -256 73t-180.5 192.5t-66.5 259.5q0 104 38.5 198.5t106.5 168t158.5 115.5t195.5 42zM599 876q-98 0 -177 -52t-125.5 -136.5t-46.5 -183.5
q0 -100 46 -186t126 -138.5t180 -52.5q99 1 177.5 53.5t124.5 137.5t46 184t-46.5 184.5t-126 137.5t-178.5 52z" />
    <glyph glyph-name="p" unicode="p" horiz-adv-x="1166" 
d="M600 1023q136 0 241 -72t165 -189t60 -253q0 -102 -35 -197t-99 -169.5t-150.5 -118.5t-190.5 -44q-98 0 -179 49t-142 113v-452q0 -31 -22 -53t-53 -22t-53 22t-22 53v1259q0 31 22 53t53 22t50.5 -22t19.5 -53l5 -96q57 58 141 114t189 56zM597 873q-101 0 -174.5 -55
t-112.5 -141.5t-39 -181.5q0 -93 38.5 -176.5t111 -136t172.5 -52.5q97 0 169 55.5t112 143t40 183.5q0 95 -39.5 177.5t-111 133t-166.5 50.5z" />
    <glyph glyph-name="q" unicode="q" horiz-adv-x="1166" 
d="M566 1023q105 0 189 -56t141 -114l5 96q0 31 19.5 53t50.5 22t53 -22t22 -53v-1259q0 -31 -21.5 -53t-53.5 -22q-31 0 -53 22t-22 53v452q-61 -64 -142 -113t-179 -49q-103 0 -190 44t-151 118.5t-99 169.5t-35 197q0 136 60 253t165 189t241 72zM569 873
q-95 0 -166.5 -50.5t-111 -133t-39.5 -177.5q0 -96 40 -183.5t112 -143t169 -55.5q101 0 173 52.5t110.5 136t38.5 176.5q0 95 -39 181.5t-112 141.5t-175 55z" />
    <glyph glyph-name="r" unicode="r" horiz-adv-x="719" 
d="M709 929q0 -27 -18 -50t-39 -23q-31 0 -58.5 14.5t-66.5 14.5q-98 0 -154 -42t-79.5 -107.5t-23.5 -138.5v-545q0 -31 -18.5 -53.5t-56.5 -22.5q-37 0 -56 22.5t-19 53.5v887q0 37 24.5 60t52.5 23q29 0 47.5 -22.5t18.5 -60.5l9 -110q14 46 52.5 91t91 75.5t106.5 30.5
q77 0 132 -20.5t55 -76.5z" />
    <glyph glyph-name="s" unicode="s" horiz-adv-x="1167" 
d="M594 1030q134 0 244.5 -58t163.5 -158q9 -16 9 -35q0 -30 -21.5 -51t-51.5 -21q-18 0 -37 11.5t-27 27.5q-36 68 -109.5 103.5t-171.5 35.5q-62 0 -135 -16.5t-125.5 -54t-52.5 -100.5q0 -49 42 -76t104.5 -39.5t127 -17.5t110.5 -10q91 -9 179 -33t146 -79t58 -159
q0 -112 -66 -183.5t-169 -105t-214 -33.5q-156 0 -283 60.5t-187 177.5q-8 14 -8 34q0 30 21 51t51 21q19 0 38 -11.5t27 -28.5q43 -82 132 -120.5t209 -38.5q69 0 139.5 16.5t118 55.5t47.5 105q0 52 -43 79.5t-108 39.5t-131.5 16t-114.5 10q-85 10 -170.5 34.5
t-142.5 79.5t-57 155q0 84 41.5 143.5t109 98t148.5 56.5t159 18z" />
    <glyph glyph-name="t" unicode="t" horiz-adv-x="767" 
d="M275 1234q0 31 22 53t53 22t53 -22t22 -53l-1 -224l195 -1q29 0 49.5 -20.5t20.5 -49.5t-20.5 -49.5t-49.5 -20.5l-195 1l-1 -624q0 -53 16 -85.5t65 -32.5q44 0 72.5 16.5t65.5 16.5q31 0 53 -22t22 -53q0 -42 -36 -66t-84.5 -33.5t-86.5 -9.5q-118 0 -177.5 75.5
t-59.5 195.5l1 621h-154q-29 0 -49.5 20.5t-20.5 49.5t20.5 49.5t49.5 20.5h154z" />
    <glyph glyph-name="u" unicode="u" 
d="M892 -26q-31 0 -50.5 22t-19.5 53l-5 119q-36 -44 -83.5 -88t-109 -73.5t-137.5 -29.5q-133 0 -213.5 68t-117 178.5t-36.5 238.5l1 485q0 31 22 53t53 22t53 -22.5t22 -53.5l-1 -484q0 -89 18 -165t65 -123t134 -47q163 0 246 87t83 245v490q0 31 22 53t53 22t53 -22.5
t22 -53.5l1 -898q0 -32 -21.5 -54t-53.5 -22z" />
    <glyph glyph-name="v" unicode="v" horiz-adv-x="1040" 
d="M50 955q0 29 20.5 49.5t49.5 20.5q20 0 38.5 -12.5t25.5 -30.5l337 -762l335 758q8 17 27 30t38 13q29 0 49.5 -20.5t20.5 -49.5q0 -15 -7 -29l-400 -903q-7 -17 -26 -29.5t-38 -12.5t-37.5 12.5t-26.5 29.5l-400 906q-6 12 -6 30z" />
    <glyph glyph-name="w" unicode="w" horiz-adv-x="1530" 
d="M1481 952q0 -14 -5 -26l-320 -897q-7 -20 -28 -35t-43 -15t-42 15t-28 35l-249 698l-250 -705q-7 -21 -28 -35.5t-43 -14.5t-42 15t-28 35l-320 897q-5 12 -5 26q0 31 22 53t53 22q23 0 43.5 -14.5t27.5 -35.5l249 -699l250 705q8 21 28 35t42 14t43 -14.5t28 -34.5
l249 -699l250 699q8 21 28.5 36t42.5 15q31 0 53 -22.5t22 -52.5z" />
    <glyph glyph-name="x" unicode="x" horiz-adv-x="1083" 
d="M953 1024q32 0 53.5 -22.5t21.5 -53.5q0 -29 -21 -52l-363 -392l368 -399q21 -23 21 -52q0 -31 -22 -53t-53 -22q-35 0 -56 25l-360 390l-361 -389q-21 -25 -56 -25q-31 0 -53 22t-22 53q0 29 21 52l368 398l-363 393q-21 23 -21 52q0 31 22 53t53 22q35 0 56 -25
l356 -385l355 384q22 26 56 26z" />
    <glyph glyph-name="y" unicode="y" horiz-adv-x="1065" 
d="M125 1026q21 0 40.5 -13t27.5 -31l365 -789l312 784q8 20 28 34t42 14q39 0 61.5 -32.5t7.5 -71.5l-441 -1106q-29 -72 -78 -147t-122 -126.5t-174 -51.5q-31 0 -53 22t-22 53q0 29 21 51.5t50 23.5q69 5 115 40.5t77.5 90t54 116t44.5 116.5l-424 915q-7 16 -7 33
q0 31 22 53t53 22z" />
    <glyph glyph-name="z" unicode="z" horiz-adv-x="971" 
d="M132 -3q-30 0 -52.5 21.5t-22.5 51.5t20 52l591 734l-558 -5q-19 0 -39.5 24t-20.5 43q0 32 19 57.5t56 25.5l723 6q22 -3 44 -21.5t22 -47.5q0 -34 -20 -56l-592 -735h558q22 0 41.5 -25t19.5 -50t-19.5 -50t-41.5 -25h-728z" />
    <glyph glyph-name="braceleft" unicode="{" horiz-adv-x="617" 
d="M493 1231q-10 0 -20 2.5t-19 2.5q-46 0 -60 -40.5t-15 -90.5l-6 -463q-2 -130 -70 -203q41 -41 59 -98.5t17 -131.5l-2 -416q0 -58 15.5 -104t70.5 -46h29q31 0 53 -22t22 -53q0 -43 -29.5 -60t-69.5 -17q-83 0 -136.5 40.5t-79 107.5t-25.5 146l2 428q0 66 -21 104.5
t-83 38.5q-31 0 -53 22t-22 53q0 30 20.5 50.5t49.5 24.5q53 3 77.5 41t25.5 97l6 463q2 113 57.5 196t166.5 83q44 0 79.5 -19t35.5 -61q0 -31 -22 -53t-53 -22z" />
    <glyph glyph-name="bar" unicode="|" horiz-adv-x="350" 
d="M250 -295q0 -26 -20 -50.5t-44 -24.5q-86 0 -86 76v1505q0 32 22 53.5t53 21.5q32 0 53.5 -22t21.5 -54v-1505z" />
    <glyph glyph-name="braceright" unicode="}" horiz-adv-x="667" 
d="M175 -351q10 0 20 -2.5t19 -2.5q46 0 60 40.5t15 90.5l6 463q2 130 70 203q-41 41 -59 98.5t-17 131.5l2 416q0 58 -15.5 104t-70.5 46h-29q-31 0 -53 22t-22 53q0 43 29.5 60t69.5 17q83 0 136.5 -40.5t79 -107.5t25.5 -146l-2 -428q0 -66 21 -104.5t83 -38.5
q31 0 53 -22t22 -53q0 -30 -20.5 -50.5t-49.5 -24.5q-53 -3 -77.5 -41t-25.5 -97l-6 -463q-2 -113 -57.5 -196t-166.5 -83q-44 0 -79.5 19t-35.5 61q0 31 22 53t53 22z" />
    <glyph glyph-name="asciitilde" unicode="~" horiz-adv-x="762" 
d="M623 1292q0 7 -1.5 12.5t-1.5 12.5q0 29 20.5 49.5t49.5 20.5q38 0 55.5 -28.5t17.5 -69.5q0 -59 -30 -108t-79 -78.5t-108 -29.5q-65 0 -110 26t-81 60.5t-75 59.5q-33 22 -60 22q-34 0 -57 -23.5t-23 -56.5q0 -4 0.5 -7.5t0.5 -7.5q0 -29 -20.5 -49.5t-49.5 -20.5
q-34 0 -52.5 25t-18.5 62q0 59 29.5 108.5t79.5 79.5t109 30q66 0 111.5 -26.5t82 -61t75.5 -59.5q15 -10 28 -15.5t29 -5.5q33 0 56 23t23 56z" />
    <glyph glyph-name="uni00A0" unicode="&#xa0;" horiz-adv-x="500" 
 />
    <glyph glyph-name="dieresis" unicode="&#xa8;" horiz-adv-x="711" 
d="M516 1110q-58 0 -101 41t-43 99t43 98.5t101 40.5q59 0 102 -40.5t43 -98.5t-43 -99t-102 -41zM178 1110q-58 0 -101 41t-43 99t43 98.5t101 40.5q59 0 102 -40.5t43 -98.5t-43 -99t-102 -41z" />
    <glyph glyph-name="copyright" unicode="&#xa9;" horiz-adv-x="1275" 
d="M649.915 1013.55q122.228 0 224.085 -40.1904q101.856 -40.1895 175.858 -112.383q74.001 -72.1934 114.328 -167.832q40.3271 -95.6377 40.3271 -206.532q0 -148.108 -69.8447 -266.074t-194.566 -186.438q-124.723 -68.4727 -290.188 -68.4727
q-167.959 0 -292.682 68.1006q-124.722 68.0996 -192.903 185.693t-68.1816 267.19q0 108.662 40.7422 204.3q40.7432 95.6377 115.16 168.203q74.418 72.5664 175.858 113.5q101.441 40.9346 222.006 40.9346zM649.915 899.676q-129.711 0 -226.163 -53.959
t-149.667 -147.364q-53.2148 -93.4043 -53.2148 -211.742q0 -81.8691 32.8438 -155.179q32.8438 -73.3105 91.4629 -130.246q58.6201 -56.9365 136.363 -89.6836q77.7432 -32.748 168.375 -32.748q89.7998 0 168.375 34.2363t138.026 92.2891q59.4512 58.0518 92.71 130.99
q33.2598 72.9375 33.2598 150.341q0 122.803 -56.957 215.836q-56.9561 93.0332 -154.655 145.131q-97.6992 52.0986 -220.759 52.0986zM323.073 496.349q0 88.249 45.5889 162.849q45.5879 74.5996 122.951 120.312q77.3613 45.7119 172.684 45.7119
q70.4551 0 128.477 -24.126t100.156 -63.4893q42.1348 -39.3623 64.9287 -86.3447q5.52637 -10.1582 5.52637 -20.3164q0 -19.6807 -15.1963 -33.3311t-36.6084 -13.6504q-13.8154 0 -27.6299 7.93652q-13.8145 7.93555 -19.3408 19.999q-23.4844 47.6162 -75.9805 83.1699
t-124.332 35.5537q-67.002 0 -120.879 -32.6963q-53.877 -32.6973 -85.6514 -86.3447q-31.7734 -53.6484 -31.7734 -115.867q0 -62.2197 31.4287 -115.867q31.4277 -53.6484 85.6504 -86.3447q54.2227 -32.6973 121.225 -32.6973q71.8359 0 124.678 35.2363
q52.8408 35.2363 76.3262 82.8535q5.52539 12.0625 19.3398 20.3164q13.8154 8.25293 27.6299 8.25293q21.4131 0 36.6084 -13.9668q15.1963 -13.9678 15.1963 -33.6494q0 -10.793 -4.83496 -19.6816q-22.7939 -46.3467 -65.2744 -86.0273t-100.848 -63.8057
q-58.3662 -24.126 -128.821 -24.126q-96.0127 0 -173.375 45.7119t-122.605 120.946t-45.2432 163.483z" />
    <glyph glyph-name="guillemotleft" unicode="&#xab;" horiz-adv-x="930" 
d="M515 920l-263 -253l263 -253q21 -24 21 -45q0 -25 -16.5 -44t-47.5 -19q-32 0 -51 23l6 -3l-300 289v-2q-30 27 -27 56.5t30 53.5v-2l298 289h-1q18 18 45 18q26 0 45 -18.5t19 -44.5q0 -21 -21 -45zM549 667l260 -253q22 -22 22 -45q0 -25 -19 -44t-46 -19q-30 0 -50 23
l5 -3l-300 289v-2q-59 53 4 110v-2l298 289h-2q21 18 45 18q27 0 46 -18.5t19 -44.5q0 -23 -22 -45z" />
    <glyph glyph-name="uni00AD" unicode="&#xad;" horiz-adv-x="40" 
 />
    <glyph glyph-name="registered" unicode="&#xae;" horiz-adv-x="1275" 
d="M941.01 209.796q0 -13.4482 -11.502 -23.1875q-11.502 -9.73828 -23.2715 -9.73828q-10.7002 0 -19.7939 4.40527q-9.09473 4.40625 -13.375 6.72461q-47.0771 29.2158 -82.1182 68.1709q-35.041 38.9541 -59.1143 83.9375q-22.4688 42.665 -47.3457 67.4746
q-24.876 24.8105 -59.6494 35.709q-34.7734 10.8975 -88.2705 11.3613l-62.0566 0.463867l0.535156 -237.901v-0.927734q0 -13.9121 -12.0371 -24.3467q-12.0371 -10.4336 -28.0859 -10.4336q-16.584 0 -28.3535 10.4336q-11.7695 10.4346 -11.7695 24.8105
l-1.60449 579.682q0 14.8398 11.7686 24.5781q11.7695 9.73926 27.8193 10.2031l142.303 0.462891h12.3037q90.4111 0 159.423 -20.4043q69.0107 -20.4043 108.064 -62.8379q39.0527 -42.4326 39.0527 -108.748q0 -46.374 -22.4688 -81.3867t-58.8477 -58.6641
q-36.3779 -23.6514 -78.6406 -35.2441q24.0742 -20.8691 47.6123 -60.2871q31.0283 -51.4756 61.5225 -92.749q30.4932 -41.2734 80.7812 -72.8086q17.1191 -10.666 17.1191 -28.752zM590.066 762.116h-116.624l1.07031 -244.394q2.6748 0.463867 6.95508 0.463867
l109.669 0.927734q98.4355 0.926758 161.027 28.9834t62.5918 93.9092q0 45.4463 -30.4941 71.6484q-30.4932 26.2012 -81.583 37.3311t-112.612 11.1299zM649.915 1013.55q122.228 0 224.085 -40.1904q101.856 -40.1895 175.858 -112.383q74.001 -72.1934 114.328 -167.832
q40.3271 -95.6377 40.3271 -206.532q0 -148.108 -69.8447 -266.074t-194.566 -186.438q-124.723 -68.4727 -290.188 -68.4727q-167.959 0 -292.682 68.1006q-124.722 68.0996 -192.903 185.693t-68.1816 267.19q0 108.662 40.7422 204.3q40.7432 95.6377 115.16 168.203
q74.418 72.5664 175.858 113.5q101.441 40.9346 222.006 40.9346zM649.915 899.676q-129.711 0 -226.163 -53.959t-149.667 -147.364q-53.2148 -93.4043 -53.2148 -211.742q0 -81.8691 32.8438 -155.179q32.8438 -73.3105 91.4629 -130.246
q58.6201 -56.9365 136.363 -89.6836q77.7432 -32.748 168.375 -32.748q89.7998 0 168.375 34.2363t138.026 92.2891q59.4512 58.0518 92.71 130.99q33.2598 72.9375 33.2598 150.341q0 122.803 -56.957 215.836q-56.9561 93.0332 -154.655 145.131
q-97.6992 52.0986 -220.759 52.0986z" />
    <glyph glyph-name="macron" unicode="&#xaf;" horiz-adv-x="629" 
d="M50 1314q0 19 16 45t32 26h425q20 0 38 -24t18 -47q0 -22 -18 -46t-38 -24h-417q-19 0 -37.5 24t-18.5 46z" />
    <glyph glyph-name="degree" unicode="&#xb0;" horiz-adv-x="529" 
d="M245.617 1375.93q57.0625 0 104.398 -26.8535t76.1914 -70.9053q28.8555 -44.0527 28.8555 -97.1562q0 -53.1045 -29.1797 -96.5527q-29.1797 -43.4492 -76.8398 -69.3975q-47.6602 -25.9492 -104.723 -25.9492t-104.723 26.251q-47.6602 26.25 -76.1914 70.3018
q-28.5312 44.0527 -28.5312 96.5527q0 53.1045 28.5312 96.8545q28.5312 43.751 76.5156 70.3027t105.695 26.5518zM364.281 1181.62q0 44.6553 -35.6641 76.6387q-35.6641 31.9824 -83.6484 31.9824t-83.6484 -31.9824q-35.6641 -31.9834 -35.6641 -76.6387
q0 -44.6562 35.3398 -76.3379q35.3398 -31.6807 83.9727 -31.6807t83.9727 31.6807q35.3398 31.6816 35.3398 76.3379z" />
    <glyph glyph-name="uni00B2" unicode="&#xb2;" horiz-adv-x="494" 
d="M77.0781 1010.09q-13.2461 0 -22.6475 6.68066q-9.40039 6.67969 -9.40039 16.0938q0 6.07227 3.8457 10.9307q43.585 56.4795 112.382 99.9014q25.2109 16.0928 56.832 30.9717t60.6777 32.0352t47.8584 39.627q18.8018 22.4697 18.8018 53.4424
q0 24.292 -15.3838 44.0293q-15.3828 19.7363 -41.6621 31.2754t-59.6094 11.5391q-41.4492 0 -70.9326 -18.5234q-29.4844 -18.5225 -36.749 -42.8145q-2.13672 -7.59082 -11.3232 -13.0566q-9.1875 -5.46582 -20.2969 -5.46582q-14.5293 0 -24.3574 8.80566
q-9.82715 8.80664 -6.83594 19.1299q7.69141 26.1143 30.9795 48.2803q23.2881 22.167 59.1816 35.6797q35.8936 13.5117 81.1885 13.5117q52.1318 0 92.7256 -17.46q40.5947 -17.46 63.8828 -47.3691t23.2881 -67.5615q0 -38.8672 -20.7246 -66.8037
q-20.7246 -27.9355 -53.1992 -48.8877q-32.4756 -20.9512 -67.5146 -38.5635q-35.0391 -17.6113 -64.0967 -35.8301q-38.0303 -23.9883 -68.7959 -54.0498h271.767q13.2471 0 22.6475 -6.68066q9.40137 -6.67969 9.40137 -16.0928q0 -9.41406 -9.40137 -16.0938
q-9.40039 -6.68066 -22.6475 -6.68066h-329.881z" />
    <glyph glyph-name="uni00B3" unicode="&#xb3;" horiz-adv-x="470" 
d="M353.885 1318.05q0 18.917 -13.1934 34.7334t-34.9111 25.2754q-21.7178 9.45801 -47.293 9.45801q-30.04 0 -55.208 -13.335q-25.1689 -13.335 -33.2881 -29.7715q-5.27734 -11.1641 -12.584 -16.2812t-22.7334 -5.11719q-8.93066 0 -17.8613 6.97754t-8.93066 13.8008
q0 6.20215 2.03027 10.8545q15.4258 32.252 54.3965 55.666t94.1787 23.4141q42.624 0 78.1445 -15.5059t57.0352 -42.3311q21.5156 -26.8262 21.5156 -61.249q0 -29.1514 -17.0498 -51.4795q-17.0498 -22.3291 -38.5654 -36.2842q30.4463 -13.6455 49.3223 -37.2148
q18.877 -23.5684 18.877 -55.8213q0 -38.4551 -24.9658 -68.3809q-24.9658 -29.9268 -65.5596 -46.8281q-40.5947 -16.9023 -88.4961 -16.9023q-51.5557 0 -92.3525 19.0732q-40.7979 19.0723 -63.9365 43.8818q-5.68359 6.20215 -5.68359 14.8857
q0 9.30273 9.74316 15.6611q9.74219 6.35742 22.7324 6.35742q13.8027 0 23.1396 -9.92383q15.0195 -16.127 42.8271 -29.6172q27.8066 -13.4902 61.0947 -13.4902q32.4756 0 59.876 11.0098q27.4014 11.0088 44.0459 30.0811q16.6436 19.0723 16.6436 42.9521
q0 37.834 -32.0703 51.9453q-32.0693 14.1104 -84.0303 14.4199q-11.7725 0 -20.2969 6.35742q-8.52539 6.35742 -8.52539 16.5918q0 12.7148 11.1641 18.6074q11.1631 5.8916 24.5596 5.8916q40.1885 0 68.1982 17.5225q28.0107 17.5215 28.0107 54.1152z" />
    <glyph glyph-name="acute" unicode="&#xb4;" horiz-adv-x="446" 
d="M371 1437q28 0 49 -20.5t21 -49.5t-20 -49l-319 -316q-27 -24 -46 -23t-36 15q-18 15 -15.5 33t12.5 33t15 21l288 334q20 22 51 22z" />
    <glyph glyph-name="paragraph" unicode="&#xb6;" horiz-adv-x="1007" 
d="M840 1201h-49v-1154q0 -25 -17 -43.5t-49 -18.5q-31 0 -50 18.5t-19 43.5v1154h-227v-1154q0 -25 -16.5 -43.5t-48.5 -18.5q-30 0 -49 18.5t-19 43.5v741q-87 25 -141.5 98t-54.5 166q0 75 38 137.5t101.5 100.5t138.5 38h462q30 0 48.5 -17.5t18.5 -47.5t-18.5 -46
t-48.5 -16z" />
    <glyph glyph-name="cedilla" unicode="&#xb8;" horiz-adv-x="652" 
d="M502 -468q0 75 -56 123t-131 48q-67 0 -118 -39q-21 -15 -44 -15q-31 0 -53 22t-22 53q0 24 12 41l162 247q22 35 63 35q31 0 53 -22t22 -53q0 -23 -12 -42l-51 -77q96 -3 170 -51t113 -115q42 -72 42 -155q0 -78 -34 -140.5t-88.5 -104.5t-116.5 -61q-56 -17 -110 -17
q-96 0 -165.5 37.5t-118.5 93.5q-19 23 -19 49q0 31 22 53t53 22q36 0 58 -27q29 -34 70.5 -56t99.5 -22q80 0 139.5 48.5t59.5 124.5z" />
    <glyph glyph-name="uni00B9" unicode="&#xb9;" horiz-adv-x="274" 
d="M110.071 1324.08q-10.0596 0 -20.1182 7.05957t-10.0586 13.8125q0 7.98047 6.94531 15.501t17.9629 8.74805q45.0254 5.52441 83.3457 50.3389q10.5391 13.1982 29.2197 13.1982q16.7646 0 28.0215 -6.29199t11.2568 -16.7285v-360.969h68.9766
q9.58008 0 18.2021 -7.21289t8.62207 -14.2725q0 -8.59473 -9.81934 -14.4268t-23.7109 -5.83203h-206.93q-13.4121 0 -23.4717 5.83203q-10.0586 5.83203 -10.0586 14.4268q0 7.05957 8.62207 14.2725t18.2021 7.21289h79.5146v295.282q-13.4121 -7.05957 -32.333 -13.5059
q-18.9199 -6.44531 -42.3916 -6.44531z" />
    <glyph glyph-name="guillemotright" unicode="&#xbb;" horiz-adv-x="930" 
d="M416 920q-21 24 -21 45q0 26 19.5 44.5t44.5 18.5q27 0 45 -18h-1l298 -289v2q27 -24 30 -53.5t-27 -56.5v2l-300 -289l6 3q-19 -23 -51 -23q-31 0 -47.5 19t-16.5 44q0 21 21 45l263 253zM382 667l-260 253q-22 22 -22 45q0 26 19 44.5t46 18.5q24 0 45 -18h-2l298 -289
v2q63 -57 4 -110v2l-300 -289l5 3q-20 -23 -50 -23q-27 0 -46 19t-19 44q0 23 22 45z" />
    <glyph glyph-name="questiondown" unicode="&#xbf;" horiz-adv-x="849" 
d="M799 312q0 -101 -49 -176.5t-130.5 -117t-178.5 -41.5q-137 0 -237 66t-137 173q-17 48 -17 104q0 92 37.5 160.5t90.5 119.5t100 93q41 37 73.5 74.5t32.5 103.5q0 14 -3 27.5t-3 27.5q0 27 19 46t46 19q43 0 57 -38.5t14 -82.5q0 -84 -34.5 -143t-84.5 -105t-99.5 -88
t-79.5 -93q-17 -27 -26.5 -55.5t-9.5 -65.5q0 -68 36.5 -115.5t95.5 -72.5t127 -25q94 0 162 54t68 151q0 6 -0.5 12t-0.5 12q0 27 19 46t46 19q36 0 51 -26t15 -63zM425 1093q-40 0 -68 28t-28 68t28 68t68 28t68 -28t28 -68t-28 -68t-68 -28z" />
    <glyph glyph-name="Agrave" unicode="&#xc0;" horiz-adv-x="1350" 
d="M306 1895q0 29 20.5 49.5t49.5 20.5t49 -20l316 -319q24 -26 23 -45.5t-15 -36.5t-32.5 -15t-33.5 12t-21 15l-334 288q-22 20 -22 51zM120 -23q-25 0 -47.5 22t-22.5 46t7 38l549 1255q7 15 26.5 30t38.5 15q54 0 73 -45l550 -1253q6 -13 6 -29q0 -28 -18.5 -52.5
t-47.5 -24.5q-59 0 -78 46l-201 459h-556l-205 -461q-19 -46 -74 -46zM675 1120l-211 -486h425z" />
    <glyph glyph-name="Aacute" unicode="&#xc1;" horiz-adv-x="1350" 
d="M947 1948q28 0 49 -20.5t21 -49.5t-20 -49l-319 -316q-27 -24 -46 -23t-36 15q-18 15 -15.5 33t12.5 33t15 21l288 334q20 22 51 22zM120 -23q-25 0 -47.5 22t-22.5 46t7 38l549 1255q7 15 26.5 30t38.5 15q54 0 73 -45l550 -1253q6 -13 6 -29q0 -28 -18.5 -52.5
t-47.5 -24.5q-59 0 -78 46l-201 459h-556l-205 -461q-19 -46 -74 -46zM675 1120l-211 -486h425z" />
    <glyph glyph-name="Acircumflex" unicode="&#xc2;" horiz-adv-x="1350" 
d="M614 1947q19 21 49 21t49 -19l317 -304q23 -21 23 -51q0 -29 -20.5 -49.5t-49.5 -20.5t-49 20l-268 256l-254 -258q-20 -22 -51 -22q-29 0 -49.5 20.5t-20.5 49.5q0 31 21 50zM120 -23q-25 0 -47.5 22t-22.5 46t7 38l549 1255q7 15 26.5 30t38.5 15q54 0 73 -45
l550 -1253q6 -13 6 -29q0 -28 -18.5 -52.5t-47.5 -24.5q-59 0 -78 46l-201 459h-556l-205 -461q-19 -46 -74 -46zM675 1120l-211 -486h425z" />
    <glyph glyph-name="Atilde" unicode="&#xc3;" horiz-adv-x="1350" 
d="M945 1732q0 7 -1.5 12.5t-1.5 12.5q0 29 20.5 49.5t49.5 20.5q38 0 55.5 -28.5t17.5 -69.5q0 -59 -30 -108t-79 -78.5t-108 -29.5q-65 0 -110 26t-81 60.5t-75 59.5q-33 22 -60 22q-34 0 -57 -23.5t-23 -56.5q0 -4 0.5 -7.5t0.5 -7.5q0 -29 -20.5 -49.5t-49.5 -20.5
q-34 0 -52.5 25t-18.5 62q0 59 29.5 108.5t79.5 79.5t109 30q66 0 111.5 -26.5t82 -61t75.5 -59.5q15 -10 28 -15.5t29 -5.5q33 0 56 23t23 56zM120 -23q-25 0 -47.5 22t-22.5 46t7 38l549 1255q7 15 26.5 30t38.5 15q54 0 73 -45l550 -1253q6 -13 6 -29q0 -28 -18.5 -52.5
t-47.5 -24.5q-59 0 -78 46l-201 459h-556l-205 -461q-19 -46 -74 -46zM675 1120l-211 -486h425z" />
    <glyph glyph-name="Adieresis" unicode="&#xc4;" horiz-adv-x="1350" 
d="M840 1520q-58 0 -101 41t-43 99t43 98.5t101 40.5q59 0 102 -40.5t43 -98.5t-43 -99t-102 -41zM502 1520q-58 0 -101 41t-43 99t43 98.5t101 40.5q59 0 102 -40.5t43 -98.5t-43 -99t-102 -41zM120 -23q-25 0 -47.5 22t-22.5 46t7 38l549 1255q7 15 26.5 30t38.5 15
q54 0 73 -45l550 -1253q6 -13 6 -29q0 -28 -18.5 -52.5t-47.5 -24.5q-59 0 -78 46l-201 459h-556l-205 -461q-19 -46 -74 -46zM675 1120l-211 -486h425z" />
    <glyph glyph-name="Aring" unicode="&#xc5;" horiz-adv-x="1350" 
d="M653.617 1809.93q57.0625 0 104.398 -26.8535t76.1914 -70.9053q28.8555 -44.0527 28.8555 -97.1562q0 -53.1045 -29.1797 -96.5527q-29.1797 -43.4492 -76.8398 -69.3975q-47.6602 -25.9492 -104.723 -25.9492t-104.723 26.251q-47.6602 26.25 -76.1914 70.3018
q-28.5312 44.0527 -28.5312 96.5527q0 53.1045 28.5312 96.8545q28.5312 43.751 76.5156 70.3027t105.695 26.5518zM772.281 1615.62q0 44.6553 -35.6641 76.6387q-35.6641 31.9824 -83.6484 31.9824t-83.6484 -31.9824q-35.6641 -31.9834 -35.6641 -76.6387
q0 -44.6562 35.3398 -76.3379q35.3398 -31.6807 83.9727 -31.6807t83.9727 31.6807q35.3398 31.6816 35.3398 76.3379zM120 -23q-25 0 -47.5 22t-22.5 46t7 38l549 1255q7 15 26.5 30t38.5 15q54 0 73 -45l550 -1253q6 -13 6 -29q0 -28 -18.5 -52.5t-47.5 -24.5
q-59 0 -78 46l-201 459h-556l-205 -461q-19 -46 -74 -46zM675 1120l-211 -486h425z" />
    <glyph glyph-name="AE" unicode="&#xc6;" horiz-adv-x="2028" 
d="M675 1385l1177 -2q32 1 54 -21t22 -54q0 -31 -22 -53.5t-54 -21.5l-862 1l1 -484q2 0 5 0.5t5 0.5l769 -5q32 0 53.5 -22t21.5 -54q0 -31 -22 -53t-54 -21l-769 5h-8l1 -465l859 1q32 1 54 -21t22 -54q0 -31 -22 -53.5t-54 -21.5l-934 -1q-31 0 -53 22t-22 53l-1 399
l-452 7l-196 -449q-12 -29 -41 -41t-58 1q-28 13 -39.5 42.5t1.5 57.5l549 1262q20 45 69 45zM455 617l387 -7l-2 625h-116z" />
    <glyph glyph-name="Ccedilla" unicode="&#xc7;" horiz-adv-x="1431" 
d="M947 -432q0 75 -56 123t-131 48q-66 0 -117 -39q-21 -15 -45 -15q-31 0 -53 22t-22 53q0 24 12 41l118 180q-177 19 -306 117t-199.5 251.5t-70.5 337.5q0 146 46 273.5t132 224t205.5 151.5t265.5 55q148 0 269.5 -53.5t211 -142t139.5 -194.5q8 -16 8 -34
q0 -29 -20.5 -51.5t-42.5 -22.5q-60 0 -80 44q-39 83 -109 152t-165 110.5t-211 41.5q-154 0 -266 -75.5t-172.5 -201.5t-60.5 -280t60 -280.5t172.5 -201t267.5 -74.5q116 0 211.5 43.5t166 115.5t107.5 155q20 46 74 46q25 0 47.5 -22t22.5 -46q0 -25 -7 -39
q-43 -95 -117 -179t-175 -141.5t-226 -76.5q-3 -9 -8 -18l-51 -78q96 -3 170 -50.5t113 -114.5q42 -72 42 -155q0 -78 -34 -140.5t-88.5 -104.5t-116.5 -61q-56 -17 -110 -17q-96 0 -165.5 37.5t-118.5 93.5q-19 23 -19 49q0 31 22 53t53 22q36 0 58 -27q29 -34 70.5 -56
t99.5 -22q80 0 139.5 48.5t59.5 124.5z" />
    <glyph glyph-name="Egrave" unicode="&#xc8;" horiz-adv-x="1308" 
d="M346 1803q0 29 20.5 49.5t49.5 20.5t49 -20l316 -319q24 -26 23 -45.5t-15 -36.5t-32.5 -15t-33.5 12t-21 15l-334 288q-22 20 -22 51zM120 1307q0 31 22 53t53 22l937 -1h1q31 0 53 -22t22 -53t-22 -53t-53 -22h-1l-862 1l1 -470q3 0 5.5 0.5t4.5 0.5l769 -5
q32 0 53.5 -21.5t21.5 -58.5q0 -28 -23 -49t-52 -21h-1l-769 5h-8l1 -465l859 1h1q31 0 53 -22t22 -53t-22 -53t-53 -22h-1l-934 -1q-31 0 -53 22t-22 53z" />
    <glyph glyph-name="Eacute" unicode="&#xc9;" horiz-adv-x="1308" 
d="M847 1948q28 0 49 -20.5t21 -49.5t-20 -49l-319 -316q-27 -24 -46 -23t-36 15q-18 15 -15.5 33t12.5 33t15 21l288 334q20 22 51 22zM120 1307q0 31 22 53t53 22l937 -1h1q31 0 53 -22t22 -53t-22 -53t-53 -22h-1l-862 1l1 -470q3 0 5.5 0.5t4.5 0.5l769 -5
q32 0 53.5 -21.5t21.5 -58.5q0 -28 -23 -49t-52 -21h-1l-769 5h-8l1 -465l859 1h1q31 0 53 -22t22 -53t-22 -53t-53 -22h-1l-934 -1q-31 0 -53 22t-22 53z" />
    <glyph glyph-name="Ecircumflex" unicode="&#xca;" horiz-adv-x="1308" 
d="M642 1864q19 21 49 21t49 -19l317 -304q23 -21 23 -51q0 -29 -20.5 -49.5t-49.5 -20.5t-49 20l-268 256l-254 -258q-20 -22 -51 -22q-29 0 -49.5 20.5t-20.5 49.5q0 31 21 50zM120 1307q0 31 22 53t53 22l937 -1h1q31 0 53 -22t22 -53t-22 -53t-53 -22h-1l-862 1l1 -470
q3 0 5.5 0.5t4.5 0.5l769 -5q32 0 53.5 -21.5t21.5 -58.5q0 -28 -23 -49t-52 -21h-1l-769 5h-8l1 -465l859 1h1q31 0 53 -22t22 -53t-22 -53t-53 -22h-1l-934 -1q-31 0 -53 22t-22 53z" />
    <glyph glyph-name="Edieresis" unicode="&#xcb;" horiz-adv-x="1308" 
d="M774 1437q-58 0 -101 41t-43 99t43 98.5t101 40.5q59 0 102 -40.5t43 -98.5t-43 -99t-102 -41zM436 1437q-58 0 -101 41t-43 99t43 98.5t101 40.5q59 0 102 -40.5t43 -98.5t-43 -99t-102 -41zM120 1307q0 31 22 53t53 22l937 -1h1q31 0 53 -22t22 -53t-22 -53t-53 -22h-1
l-862 1l1 -470q3 0 5.5 0.5t4.5 0.5l769 -5q32 0 53.5 -21.5t21.5 -58.5q0 -28 -23 -49t-52 -21h-1l-769 5h-8l1 -465l859 1h1q31 0 53 -22t22 -53t-22 -53t-53 -22h-1l-934 -1q-31 0 -53 22t-22 53z" />
    <glyph glyph-name="Igrave" unicode="&#xcc;" horiz-adv-x="391" 
d="M-175 1895q0 29 20.5 49.5t49.5 20.5t49 -20l316 -319q24 -26 23 -45.5t-15 -36.5t-32.5 -15t-33.5 12t-21 15l-334 288q-22 20 -22 51zM196 -21q-31 0 -53 22t-22 53v1l-1 1256v1q0 29 21.5 52t48.5 23q37 0 58.5 -21.5t21.5 -53.5v-1l1 -1256v-1q0 -31 -22 -53t-53 -22
z" />
    <glyph glyph-name="Iacute" unicode="&#xcd;" horiz-adv-x="391" 
d="M466 1948q28 0 49 -20.5t21 -49.5t-20 -49l-319 -316q-27 -24 -46 -23t-36 15q-18 15 -15.5 33t12.5 33t15 21l288 334q20 22 51 22zM196 -21q-31 0 -53 22t-22 53v1l-1 1256v1q0 29 21.5 52t48.5 23q37 0 58.5 -21.5t21.5 -53.5v-1l1 -1256v-1q0 -31 -22 -53t-53 -22z
" />
    <glyph glyph-name="Icircumflex" unicode="&#xce;" horiz-adv-x="391" 
d="M133 1947q19 21 49 21t49 -19l317 -304q23 -21 23 -51q0 -29 -20.5 -49.5t-49.5 -20.5t-49 20l-268 256l-254 -258q-20 -22 -51 -22q-29 0 -49.5 20.5t-20.5 49.5q0 31 21 50zM196 -21q-31 0 -53 22t-22 53v1l-1 1256v1q0 29 21.5 52t48.5 23q37 0 58.5 -21.5t21.5 -53.5
v-1l1 -1256v-1q0 -31 -22 -53t-53 -22z" />
    <glyph glyph-name="Idieresis" unicode="&#xcf;" horiz-adv-x="391" 
d="M358 1520q-58 0 -101 41t-43 99t43 98.5t101 40.5q59 0 102 -40.5t43 -98.5t-43 -99t-102 -41zM20 1520q-58 0 -101 41t-43 99t43 98.5t101 40.5q59 0 102 -40.5t43 -98.5t-43 -99t-102 -41zM196 -21q-31 0 -53 22t-22 53v1l-1 1256v1q0 29 21.5 52t48.5 23
q37 0 58.5 -21.5t21.5 -53.5v-1l1 -1256v-1q0 -31 -22 -53t-53 -22z" />
    <glyph glyph-name="Eth" unicode="&#xd0;" horiz-adv-x="1330" 
d="M-122 680q0 16 11.5 38.5t21.5 22.5l16 -1h177l3 563q0 30 21.5 52t51.5 23l227 5q23 1 54 1h71q157 1 287.5 -48t226 -136t146.5 -202q65 -145 63.5 -312.5t-68.5 -310.5q-65 -139 -191 -235.5t-296 -129.5q-106 -21 -298 -18l-228 3q-30 1 -52 22.5t-22 52.5l3 550
h-187q-13 0 -25.5 20.5t-12.5 39.5zM404 142q118 -1 204.5 6.5t156 32.5t136.5 75q89 66 146.5 175.5t58.5 255.5q2 147 -54.5 257.5t-144.5 176.5q-67 51 -136 75.5t-155 32t-205 4.5l-155 -4l-3 -489h200l11 1q14 0 26 -20.5t12 -40.5q0 -19 -12 -39.5t-26 -20.5h-211
l-3 -476z" />
    <glyph glyph-name="Ntilde" unicode="&#xd1;" horiz-adv-x="1325" 
d="M916 1600q0 7 -1.5 12.5t-1.5 12.5q0 29 20.5 49.5t49.5 20.5q38 0 55.5 -28.5t17.5 -69.5q0 -59 -30 -108t-79 -78.5t-108 -29.5q-65 0 -110 26t-81 60.5t-75 59.5q-33 22 -60 22q-34 0 -57 -23.5t-23 -56.5q0 -4 0.5 -7.5t0.5 -7.5q0 -29 -20.5 -49.5t-49.5 -20.5
q-34 0 -52.5 25t-18.5 62q0 59 29.5 108.5t79.5 79.5t109 30q66 0 111.5 -26.5t82 -61t75.5 -59.5q15 -10 28 -15.5t29 -5.5q33 0 56 23t23 56zM120 1311q0 32 22.5 53.5t55.5 21.5q35 0 57 -30l800 -1076v1028q0 31 22 53t53 22t53 -22t22 -53v-1l-1 -1252
q0 -32 -22.5 -53.5t-55.5 -21.5q-34 0 -57 30l-799 1075v-1029q0 -31 -22 -53t-53 -22t-53 22t-22 53v1255z" />
    <glyph glyph-name="Ograve" unicode="&#xd2;" horiz-adv-x="1533" 
d="M400 1895q0 29 20.5 49.5t49.5 20.5t49 -20l316 -319q24 -26 23 -45.5t-15 -36.5t-32.5 -15t-33.5 12t-21 15l-334 288q-22 20 -22 51zM766 1386q147 0 269.5 -54t211.5 -151t137.5 -225.5t48.5 -277.5q0 -199 -84 -357.5t-234 -250.5t-349 -92q-202 0 -352 91.5
t-232 249.5t-82 359q0 146 49 274.5t138.5 226t211.5 152.5t267 55zM766 1233q-156 0 -272 -72.5t-180 -198t-64 -284.5q0 -110 39.5 -208.5t110 -175t164 -120.5t202.5 -44q108 0 202.5 46t166 124t111.5 176t40 202q0 165 -68.5 290t-186 195t-265.5 70z" />
    <glyph glyph-name="Oacute" unicode="&#xd3;" horiz-adv-x="1533" 
d="M1041 1948q28 0 49 -20.5t21 -49.5t-20 -49l-319 -316q-27 -24 -46 -23t-36 15q-18 15 -15.5 33t12.5 33t15 21l288 334q20 22 51 22zM766 1386q147 0 269.5 -54t211.5 -151t137.5 -225.5t48.5 -277.5q0 -199 -84 -357.5t-234 -250.5t-349 -92q-202 0 -352 91.5
t-232 249.5t-82 359q0 146 49 274.5t138.5 226t211.5 152.5t267 55zM766 1233q-156 0 -272 -72.5t-180 -198t-64 -284.5q0 -110 39.5 -208.5t110 -175t164 -120.5t202.5 -44q108 0 202.5 46t166 124t111.5 176t40 202q0 165 -68.5 290t-186 195t-265.5 70z" />
    <glyph glyph-name="Ocircumflex" unicode="&#xd4;" horiz-adv-x="1533" 
d="M707 1947q19 21 49 21t49 -19l317 -304q23 -21 23 -51q0 -29 -20.5 -49.5t-49.5 -20.5t-49 20l-268 256l-254 -258q-20 -22 -51 -22q-29 0 -49.5 20.5t-20.5 49.5q0 31 21 50zM766 1386q147 0 269.5 -54t211.5 -151t137.5 -225.5t48.5 -277.5q0 -199 -84 -357.5
t-234 -250.5t-349 -92q-202 0 -352 91.5t-232 249.5t-82 359q0 146 49 274.5t138.5 226t211.5 152.5t267 55zM766 1233q-156 0 -272 -72.5t-180 -198t-64 -284.5q0 -110 39.5 -208.5t110 -175t164 -120.5t202.5 -44q108 0 202.5 46t166 124t111.5 176t40 202
q0 165 -68.5 290t-186 195t-265.5 70z" />
    <glyph glyph-name="Otilde" unicode="&#xd5;" horiz-adv-x="1533" 
d="M990 1607q0 7 -1.5 12.5t-1.5 12.5q0 29 20.5 49.5t49.5 20.5q38 0 55.5 -28.5t17.5 -69.5q0 -59 -30 -108t-79 -78.5t-108 -29.5q-65 0 -110 26t-81 60.5t-75 59.5q-33 22 -60 22q-34 0 -57 -23.5t-23 -56.5q0 -4 0.5 -7.5t0.5 -7.5q0 -29 -20.5 -49.5t-49.5 -20.5
q-34 0 -52.5 25t-18.5 62q0 59 29.5 108.5t79.5 79.5t109 30q66 0 111.5 -26.5t82 -61t75.5 -59.5q15 -10 28 -15.5t29 -5.5q33 0 56 23t23 56zM766 1386q147 0 269.5 -54t211.5 -151t137.5 -225.5t48.5 -277.5q0 -199 -84 -357.5t-234 -250.5t-349 -92q-202 0 -352 91.5
t-232 249.5t-82 359q0 146 49 274.5t138.5 226t211.5 152.5t267 55zM766 1233q-156 0 -272 -72.5t-180 -198t-64 -284.5q0 -110 39.5 -208.5t110 -175t164 -120.5t202.5 -44q108 0 202.5 46t166 124t111.5 176t40 202q0 165 -68.5 290t-186 195t-265.5 70z" />
    <glyph glyph-name="Odieresis" unicode="&#xd6;" horiz-adv-x="1533" 
d="M933 1520q-58 0 -101 41t-43 99t43 98.5t101 40.5q59 0 102 -40.5t43 -98.5t-43 -99t-102 -41zM595 1520q-58 0 -101 41t-43 99t43 98.5t101 40.5q59 0 102 -40.5t43 -98.5t-43 -99t-102 -41zM766 1386q147 0 269.5 -54t211.5 -151t137.5 -225.5t48.5 -277.5
q0 -199 -84 -357.5t-234 -250.5t-349 -92q-202 0 -352 91.5t-232 249.5t-82 359q0 146 49 274.5t138.5 226t211.5 152.5t267 55zM766 1233q-156 0 -272 -72.5t-180 -198t-64 -284.5q0 -110 39.5 -208.5t110 -175t164 -120.5t202.5 -44q108 0 202.5 46t166 124t111.5 176
t40 202q0 165 -68.5 290t-186 195t-265.5 70z" />
    <glyph glyph-name="multiply" unicode="&#xd7;" horiz-adv-x="862" 
d="M749.772 894.875q24.8066 0 41.4736 -16.499q16.667 -16.498 16.667 -39.2295q0 -21.2656 -16.2793 -38.1309l-281.4 -287.444l285.276 -292.577q16.2793 -16.8652 16.2793 -38.1309q0 -22.7314 -17.0547 -38.8633q-17.0537 -16.1318 -41.0859 -16.1318
q-27.1318 0 -43.4111 18.332l-279.075 285.978l-279.85 -285.244q-16.2793 -18.332 -43.4111 -18.332q-24.0322 0 -41.0869 16.1318q-17.0537 16.1318 -17.0537 38.8633q0 21.2656 16.2793 38.1309l285.276 291.844l-281.4 288.178q-16.2793 16.8652 -16.2793 38.1299
q0 22.7324 17.0547 38.8643q17.0537 16.1318 41.0859 16.1318q27.1318 0 43.4111 -18.332l275.974 -282.312l275.199 281.578q17.0547 19.0654 43.4111 19.0654z" />
    <glyph glyph-name="Oslash" unicode="&#xd8;" horiz-adv-x="1503" 
d="M1091 1390q39 -16 45 -47t-8 -57q139 -93 219.5 -248t80.5 -344q0 -149 -49.5 -278t-140.5 -225.5t-215 -150.5t-273 -54q-145 0 -269 52q-4 -7 -7.5 -14t-7.5 -14q-11 -23 -40 -30t-49 1q-32 14 -44.5 41.5t1.5 55.5l17 33q-130 95 -203 248.5t-73 339.5q0 146 50.5 273
t141.5 222.5t214 149.5t268 54q133 0 248 -44q14 25 40.5 36.5t53.5 -0.5zM753 1245q-156 0 -275 -75.5t-186 -204t-67 -287.5q0 -127 55 -237.5t146 -185.5l499 961q-82 29 -172 29zM1056 1146l-503 -968q94 -40 197 -40q108 0 204 44t169.5 119.5t115.5 171.5t42 200
q0 152 -61 274.5t-164 198.5z" />
    <glyph glyph-name="Ugrave" unicode="&#xd9;" horiz-adv-x="1366" 
d="M461 1882q0 29 20.5 49.5t49.5 20.5t49 -20l316 -319q24 -26 23 -45.5t-15 -36.5t-32.5 -15t-33.5 12t-21 15l-334 288q-22 20 -22 51zM120 1302q0 29 21.5 52t48.5 23q79 0 80 -75l7 -679q1 -149 41 -262t126.5 -176t226.5 -63q155 0 248 63t135 173t42 250l-2 695v1
q0 31 21.5 53t52.5 22t53.5 -22t22.5 -53v-1l2 -694q0 -298 -141.5 -467t-429.5 -169q-184 0 -305 82.5t-181 229t-62 337.5l-7 679v1z" />
    <glyph glyph-name="Uacute" unicode="&#xda;" horiz-adv-x="1366" 
d="M816 1924q28 0 49 -20.5t21 -49.5t-20 -49l-319 -316q-27 -24 -46 -23t-36 15q-18 15 -15.5 33t12.5 33t15 21l288 334q20 22 51 22zM120 1302q0 29 21.5 52t48.5 23q79 0 80 -75l7 -679q1 -149 41 -262t126.5 -176t226.5 -63q155 0 248 63t135 173t42 250l-2 695v1
q0 31 21.5 53t52.5 22t53.5 -22t22.5 -53v-1l2 -694q0 -298 -141.5 -467t-429.5 -169q-184 0 -305 82.5t-181 229t-62 337.5l-7 679v1z" />
    <glyph glyph-name="Ucircumflex" unicode="&#xdb;" horiz-adv-x="1366" 
d="M611 1951q19 21 49 21t49 -19l317 -304q23 -21 23 -51q0 -29 -20.5 -49.5t-49.5 -20.5t-49 20l-268 256l-254 -258q-20 -22 -51 -22q-29 0 -49.5 20.5t-20.5 49.5q0 31 21 50zM120 1302q0 29 21.5 52t48.5 23q79 0 80 -75l7 -679q1 -149 41 -262t126.5 -176t226.5 -63
q155 0 248 63t135 173t42 250l-2 695v1q0 31 21.5 53t52.5 22t53.5 -22t22.5 -53v-1l2 -694q0 -298 -141.5 -467t-429.5 -169q-184 0 -305 82.5t-181 229t-62 337.5l-7 679v1z" />
    <glyph glyph-name="Udieresis" unicode="&#xdc;" horiz-adv-x="1366" 
d="M842 1514q-58 0 -101 41t-43 99t43 98.5t101 40.5q59 0 102 -40.5t43 -98.5t-43 -99t-102 -41zM504 1514q-58 0 -101 41t-43 99t43 98.5t101 40.5q59 0 102 -40.5t43 -98.5t-43 -99t-102 -41zM120 1302q0 29 21.5 52t48.5 23q79 0 80 -75l7 -679q1 -149 41 -262
t126.5 -176t226.5 -63q155 0 248 63t135 173t42 250l-2 695v1q0 31 21.5 53t52.5 22t53.5 -22t22.5 -53v-1l2 -694q0 -298 -141.5 -467t-429.5 -169q-184 0 -305 82.5t-181 229t-62 337.5l-7 679v1z" />
    <glyph glyph-name="Yacute" unicode="&#xdd;" horiz-adv-x="1129" 
d="M755 1888q28 0 49 -20.5t21 -49.5t-20 -49l-319 -316q-27 -24 -46 -23t-36 15q-18 15 -15.5 33t12.5 33t15 21l288 334q20 22 51 22zM50 1306q0 30 24.5 50.5t56.5 20.5q37 0 58 -36l379 -606l371 598q6 11 24.5 23.5t32.5 12.5q23 0 34.5 -3t27.5 -20q21 -22 21 -48
q0 -25 -12 -45l-428 -688l-7 -509q0 -31 -22 -53t-53 -22t-53 22t-22 53v2l7 520l-427 683q-12 20 -12 45z" />
    <glyph glyph-name="Thorn" unicode="&#xde;" horiz-adv-x="1294" 
d="M196 -21q-31 0 -53 22t-22 53v1l-1 1256v1q0 29 21.5 52t48.5 23q37 0 58.5 -21.5t21.5 -53.5v-1v-132l447 1q223 0 350 -106t127 -322q0 -138 -62 -229t-171.5 -136t-253.5 -46l-436 -5v-281v-1q0 -31 -22 -53t-53 -22zM717 1067l-447 -1l1 -617l435 4q168 1 272 69.5
t104 226.5q0 115 -47.5 185.5t-130 101.5t-187.5 31z" />
    <glyph glyph-name="germandbls" unicode="&#xdf;" horiz-adv-x="1284" 
d="M612 1382q81 0 164.5 -18t153.5 -56.5t113 -98.5t43 -144q0 -75 -33 -128t-83.5 -91t-106.5 -66t-102 -53q-16 -9 -29 -17t-16 -19q8 -11 37 -22q71 -26 146.5 -48.5t140 -56.5t104.5 -93.5t40 -158.5q0 -126 -69 -214t-179.5 -133.5t-237.5 -45.5q-135 0 -259 50
q-19 8 -32 26.5t-13 38.5q0 29 20.5 49.5t49.5 20.5q15 0 27 -5q100 -40 207 -40q87 0 166 28t129.5 84.5t50.5 140.5q0 65 -30 101.5t-77.5 55.5t-103.5 32t-108.5 28.5t-90.5 46.5q-22 18 -40 46t-18 68q0 64 40.5 102t77.5 58q48 26 107 51.5t102 63t43 100.5
q0 48 -33.5 82t-85.5 55t-109.5 30.5t-106.5 9.5q-192 0 -281.5 -123.5t-89.5 -318.5q0 -14 0.5 -28.5t0.5 -28.5l18 -801v-3q0 -29 -20.5 -49.5t-49.5 -20.5q-28 0 -49 20.5t-21 48.5l-18 802q0 16 -0.5 32.5t-0.5 32.5q0 168 59 298t173 204.5t280 74.5z" />
    <glyph glyph-name="agrave" unicode="&#xe0;" horiz-adv-x="1191" 
d="M570 1525q0 29 20.5 49.5t49.5 20.5t49 -20l316 -319q24 -26 23 -45.5t-15 -36.5t-32.5 -15t-33.5 12t-21 15l-334 288q-22 20 -22 51zM589 1025q107 0 192.5 -62t149.5 -131l9 126q0 29 16 49.5t45 20.5t49.5 -20.5t20.5 -49.5v-904q0 -29 -20.5 -49.5t-49.5 -20.5
t-49.5 20.5t-20.5 49.5v114q-66 -72 -156.5 -130t-190.5 -58q-103 0 -191 42.5t-154 115.5t-102.5 166.5t-36.5 196.5q0 102 36.5 196.5t103 168t155.5 116.5t194 43zM936 507q0 97 -46.5 180.5t-125 135.5t-174.5 52q-97 0 -174 -53t-121.5 -138.5t-44.5 -182.5
q0 -96 44 -181t119.5 -137.5t170.5 -52.5q96 0 176 53.5t128 140t48 183.5z" />
    <glyph glyph-name="aacute" unicode="&#xe1;" horiz-adv-x="1191" 
d="M803 1581q28 0 49 -20.5t21 -49.5t-20 -49l-319 -316q-27 -24 -46 -23t-36 15q-18 15 -15.5 33t12.5 33t15 21l288 334q20 22 51 22zM589 1025q107 0 192.5 -62t149.5 -131l9 126q0 29 16 49.5t45 20.5t49.5 -20.5t20.5 -49.5v-904q0 -29 -20.5 -49.5t-49.5 -20.5
t-49.5 20.5t-20.5 49.5v114q-66 -72 -156.5 -130t-190.5 -58q-103 0 -191 42.5t-154 115.5t-102.5 166.5t-36.5 196.5q0 102 36.5 196.5t103 168t155.5 116.5t194 43zM936 507q0 97 -46.5 180.5t-125 135.5t-174.5 52q-97 0 -174 -53t-121.5 -138.5t-44.5 -182.5
q0 -96 44 -181t119.5 -137.5t170.5 -52.5q96 0 176 53.5t128 140t48 183.5z" />
    <glyph glyph-name="acircumflex" unicode="&#xe2;" horiz-adv-x="1191" 
d="M568 1607q19 21 49 21t49 -19l317 -304q23 -21 23 -51q0 -29 -20.5 -49.5t-49.5 -20.5t-49 20l-268 256l-254 -258q-20 -22 -51 -22q-29 0 -49.5 20.5t-20.5 49.5q0 31 21 50zM589 1025q107 0 192.5 -62t149.5 -131l9 126q0 29 16 49.5t45 20.5t49.5 -20.5t20.5 -49.5
v-904q0 -29 -20.5 -49.5t-49.5 -20.5t-49.5 20.5t-20.5 49.5v114q-66 -72 -156.5 -130t-190.5 -58q-103 0 -191 42.5t-154 115.5t-102.5 166.5t-36.5 196.5q0 102 36.5 196.5t103 168t155.5 116.5t194 43zM936 507q0 97 -46.5 180.5t-125 135.5t-174.5 52q-97 0 -174 -53
t-121.5 -138.5t-44.5 -182.5q0 -96 44 -181t119.5 -137.5t170.5 -52.5q96 0 176 53.5t128 140t48 183.5z" />
    <glyph glyph-name="atilde" unicode="&#xe3;" horiz-adv-x="1191" 
d="M810 1295q0 7 -1.5 12.5t-1.5 12.5q0 29 20.5 49.5t49.5 20.5q38 0 55.5 -28.5t17.5 -69.5q0 -59 -30 -108t-79 -78.5t-108 -29.5q-65 0 -110 26t-81 60.5t-75 59.5q-33 22 -60 22q-34 0 -57 -23.5t-23 -56.5q0 -4 0.5 -7.5t0.5 -7.5q0 -29 -20.5 -49.5t-49.5 -20.5
q-34 0 -52.5 25t-18.5 62q0 59 29.5 108.5t79.5 79.5t109 30q66 0 111.5 -26.5t82 -61t75.5 -59.5q15 -10 28 -15.5t29 -5.5q33 0 56 23t23 56zM589 1025q107 0 192.5 -62t149.5 -131l9 126q0 29 16 49.5t45 20.5t49.5 -20.5t20.5 -49.5v-904q0 -29 -20.5 -49.5t-49.5 -20.5
t-49.5 20.5t-20.5 49.5v114q-66 -72 -156.5 -130t-190.5 -58q-103 0 -191 42.5t-154 115.5t-102.5 166.5t-36.5 196.5q0 102 36.5 196.5t103 168t155.5 116.5t194 43zM936 507q0 97 -46.5 180.5t-125 135.5t-174.5 52q-97 0 -174 -53t-121.5 -138.5t-44.5 -182.5
q0 -96 44 -181t119.5 -137.5t170.5 -52.5q96 0 176 53.5t128 140t48 183.5z" />
    <glyph glyph-name="adieresis" unicode="&#xe4;" horiz-adv-x="1191" 
d="M792.755 1156q-59.4336 0 -103.496 41q-44.0635 41 -44.0635 99t44.0635 98.5q44.0625 40.5 103.496 40.5q60.459 0 104.521 -40.5q44.0635 -40.5 44.0635 -98.5t-44.0635 -99q-44.0625 -41 -104.521 -41zM446.4 1156q-59.4336 0 -103.497 41q-44.0625 41 -44.0625 99
t44.0625 98.5q44.0635 40.5 103.497 40.5q60.458 0 104.521 -40.5q44.0625 -40.5 44.0625 -98.5t-44.0625 -99q-44.0635 -41 -104.521 -41zM589 1025q107 0 192.5 -62t149.5 -131l9 126q0 29 16 49.5t45 20.5t49.5 -20.5t20.5 -49.5v-904q0 -29 -20.5 -49.5t-49.5 -20.5
t-49.5 20.5t-20.5 49.5v114q-66 -72 -156.5 -130t-190.5 -58q-103 0 -191 42.5t-154 115.5t-102.5 166.5t-36.5 196.5q0 102 36.5 196.5t103 168t155.5 116.5t194 43zM936 507q0 97 -46.5 180.5t-125 135.5t-174.5 52q-97 0 -174 -53t-121.5 -138.5t-44.5 -182.5
q0 -96 44 -181t119.5 -137.5t170.5 -52.5q96 0 176 53.5t128 140t48 183.5z" />
    <glyph glyph-name="aring" unicode="&#xe5;" horiz-adv-x="1191" 
d="M601.617 1494.93q57.0625 0 104.398 -26.8535t76.1914 -70.9053q28.8555 -44.0527 28.8555 -97.1562q0 -53.1045 -29.1797 -96.5527q-29.1797 -43.4492 -76.8398 -69.3975q-47.6602 -25.9492 -104.723 -25.9492t-104.723 26.251q-47.6602 26.25 -76.1914 70.3018
q-28.5312 44.0527 -28.5312 96.5527q0 53.1045 28.5312 96.8545q28.5312 43.751 76.5156 70.3027t105.695 26.5518zM720.281 1300.62q0 44.6553 -35.6641 76.6387q-35.6641 31.9824 -83.6484 31.9824t-83.6484 -31.9824q-35.6641 -31.9834 -35.6641 -76.6387
q0 -44.6562 35.3398 -76.3379q35.3398 -31.6807 83.9727 -31.6807t83.9727 31.6807q35.3398 31.6816 35.3398 76.3379zM589 1025q107 0 192.5 -62t149.5 -131l9 126q0 29 16 49.5t45 20.5t49.5 -20.5t20.5 -49.5v-904q0 -29 -20.5 -49.5t-49.5 -20.5t-49.5 20.5t-20.5 49.5
v114q-66 -72 -156.5 -130t-190.5 -58q-103 0 -191 42.5t-154 115.5t-102.5 166.5t-36.5 196.5q0 102 36.5 196.5t103 168t155.5 116.5t194 43zM936 507q0 97 -46.5 180.5t-125 135.5t-174.5 52q-97 0 -174 -53t-121.5 -138.5t-44.5 -182.5q0 -96 44 -181t119.5 -137.5
t170.5 -52.5q96 0 176 53.5t128 140t48 183.5z" />
    <glyph glyph-name="ae" unicode="&#xe6;" horiz-adv-x="2040" 
d="M614 1021q118 0 212 -42.5t166 -118.5v88q0 31 22 53t53 22t53 -22t22 -53v-59q66 61 149 95.5t179 34.5q128 0 235 -63t171 -169t64 -237q0 -11 -0.5 -22.5t-1.5 -22.5q-3 -28 -24.5 -48t-50.5 -20l-722 -1v-26q20 -76 69.5 -140t122 -103t161.5 -39q79 0 155 35t125 96
q22 29 59 29q31 0 53 -22t22 -53q0 -29 -17 -49q-72 -88 -177 -137t-218 -49q-109 0 -197.5 39t-158.5 106v-72q0 -31 -22 -53t-53 -22t-53 22t-22 53v89q-70 -73 -168.5 -116t-204.5 -43t-199.5 41t-165 113t-112 166t-40.5 200q0 104 39.5 197.5t109.5 166t163.5 114.5
t201.5 42zM981 449l-1 108q-13 86 -62.5 157t-125.5 114t-171 43q-104 0 -187.5 -51.5t-132.5 -135.5t-49 -184t49.5 -183.5t133 -133.5t183.5 -50q93 0 171 43t129 115t63 158zM1787 587q-9 78 -52.5 142t-111 102t-150.5 38q-82 0 -150 -36t-115.5 -96t-66.5 -132v-19z
" />
    <glyph glyph-name="ccedilla" unicode="&#xe7;" horiz-adv-x="1128" 
d="M813 -504q0 75 -56 123t-131 48q-67 0 -118 -39q-21 -15 -44 -15q-31 0 -53 22t-22 53q0 24 12 41l162 247q22 35 63 35q31 0 53 -22t22 -53q0 -23 -12 -42l-51 -77q96 -3 170 -51t113 -115q42 -72 42 -155q0 -78 -34 -140.5t-88.5 -104.5t-116.5 -61q-56 -17 -110 -17
q-96 0 -165.5 37.5t-118.5 93.5q-19 23 -19 49q0 31 22 53t53 22q36 0 58 -27q29 -34 70.5 -56t99.5 -22q80 0 139.5 48.5t59.5 124.5zM100 503q0 139 66 256.5t178 189.5t250 72q102 0 186 -38t145 -100t94 -136q8 -16 8 -32q0 -31 -22 -52.5t-53 -21.5q-20 0 -40 12.5
t-28 31.5q-34 75 -110 131t-180 56q-97 0 -175 -51.5t-124 -136t-46 -182.5t45.5 -182.5t124 -136t175.5 -51.5q104 0 180.5 55.5t110.5 130.5q8 19 28 32t40 13q31 0 53 -22t22 -53q0 -17 -7 -31q-33 -73 -94.5 -135.5t-146 -100.5t-186.5 -38q-139 0 -251 72t-177.5 190.5
t-65.5 257.5z" />
    <glyph glyph-name="egrave" unicode="&#xe8;" horiz-adv-x="1162" 
d="M228 1518q0 29 20.5 49.5t49.5 20.5t49 -20l316 -319q24 -26 23 -45.5t-15 -36.5t-32.5 -15t-33.5 12t-21 15l-334 288q-22 20 -22 51zM618 -20q-145 0 -262.5 72t-186.5 192.5t-69 264.5q0 137 65.5 253.5t177.5 187.5t250 71q127 0 233.5 -63t171 -169.5t64.5 -236.5
q0 -46 -16.5 -79t-60.5 -33h-728q16 -83 65.5 -153.5t125 -113.5t168.5 -43q79 0 155 35t125 96q22 29 59 29q31 0 53 -22t22 -53q0 -27 -18 -49q-72 -88 -176.5 -137t-217.5 -49zM909 588q-9 78 -53 142.5t-112 102.5t-150 38q-85 0 -155 -39t-116.5 -103t-63.5 -141h650z
" />
    <glyph glyph-name="eacute" unicode="&#xe9;" horiz-adv-x="1162" 
d="M869 1571q28 0 49 -20.5t21 -49.5t-20 -49l-319 -316q-27 -24 -46 -23t-36 15q-18 15 -15.5 33t12.5 33t15 21l288 334q20 22 51 22zM618 -20q-145 0 -262.5 72t-186.5 192.5t-69 264.5q0 137 65.5 253.5t177.5 187.5t250 71q127 0 233.5 -63t171 -169.5t64.5 -236.5
q0 -46 -16.5 -79t-60.5 -33h-728q16 -83 65.5 -153.5t125 -113.5t168.5 -43q79 0 155 35t125 96q22 29 59 29q31 0 53 -22t22 -53q0 -27 -18 -49q-72 -88 -176.5 -137t-217.5 -49zM909 588q-9 78 -53 142.5t-112 102.5t-150 38q-85 0 -155 -39t-116.5 -103t-63.5 -141h650z
" />
    <glyph glyph-name="ecircumflex" unicode="&#xea;" horiz-adv-x="1162" 
d="M536 1570q19 21 49 21t49 -19l317 -304q23 -21 23 -51q0 -29 -20.5 -49.5t-49.5 -20.5t-49 20l-268 256l-254 -258q-20 -22 -51 -22q-29 0 -49.5 20.5t-20.5 49.5q0 31 21 50zM618 -20q-145 0 -262.5 72t-186.5 192.5t-69 264.5q0 137 65.5 253.5t177.5 187.5t250 71
q127 0 233.5 -63t171 -169.5t64.5 -236.5q0 -46 -16.5 -79t-60.5 -33h-728q16 -83 65.5 -153.5t125 -113.5t168.5 -43q79 0 155 35t125 96q22 29 59 29q31 0 53 -22t22 -53q0 -27 -18 -49q-72 -88 -176.5 -137t-217.5 -49zM909 588q-9 78 -53 142.5t-112 102.5t-150 38
q-85 0 -155 -39t-116.5 -103t-63.5 -141h650z" />
    <glyph glyph-name="edieresis" unicode="&#xeb;" horiz-adv-x="1162" 
d="M762 1143q-58 0 -101 41t-43 99t43 98.5t101 40.5q59 0 102 -40.5t43 -98.5t-43 -99t-102 -41zM424 1143q-58 0 -101 41t-43 99t43 98.5t101 40.5q59 0 102 -40.5t43 -98.5t-43 -99t-102 -41zM618 -20q-145 0 -262.5 72t-186.5 192.5t-69 264.5q0 137 65.5 253.5
t177.5 187.5t250 71q127 0 233.5 -63t171 -169.5t64.5 -236.5q0 -46 -16.5 -79t-60.5 -33h-728q16 -83 65.5 -153.5t125 -113.5t168.5 -43q79 0 155 35t125 96q22 29 59 29q31 0 53 -22t22 -53q0 -27 -18 -49q-72 -88 -176.5 -137t-217.5 -49zM909 588q-9 78 -53 142.5
t-112 102.5t-150 38q-85 0 -155 -39t-116.5 -103t-63.5 -141h650z" />
    <glyph glyph-name="igrave" unicode="&#xec;" horiz-adv-x="392" 
d="M-170 1522q0 29 20.5 49.5t49.5 20.5t49 -20l316 -319q24 -26 23 -45.5t-15 -36.5t-32.5 -15t-33.5 12t-21 15l-334 288q-22 20 -22 51zM120 960q0 26 24 45.5t45 19.5q35 0 58 -21t23 -54v-1l2 -897q0 -31 -22 -53t-53 -22t-53 22.5t-22 53.5z" />
    <glyph glyph-name="iacute" unicode="&#xed;" horiz-adv-x="392" 
d="M471 1575q28 0 49 -20.5t21 -49.5t-20 -49l-319 -316q-27 -24 -46 -23t-36 15q-18 15 -15.5 33t12.5 33t15 21l288 334q20 22 51 22zM120 960q0 26 24 45.5t45 19.5q35 0 58 -21t23 -54v-1l2 -897q0 -31 -22 -53t-53 -22t-53 22.5t-22 53.5z" />
    <glyph glyph-name="icircumflex" unicode="&#xee;" horiz-adv-x="392" 
d="M138 1574q19 21 49 21t49 -19l317 -304q23 -21 23 -51q0 -29 -20.5 -49.5t-49.5 -20.5t-49 20l-268 256l-254 -258q-20 -22 -51 -22q-29 0 -49.5 20.5t-20.5 49.5q0 31 21 50zM120 960q0 26 24 45.5t45 19.5q35 0 58 -21t23 -54v-1l2 -897q0 -31 -22 -53t-53 -22
t-53 22.5t-22 53.5z" />
    <glyph glyph-name="idieresis" unicode="&#xef;" horiz-adv-x="392" 
d="M364 1147q-58 0 -101 41t-43 99t43 98.5t101 40.5q59 0 102 -40.5t43 -98.5t-43 -99t-102 -41zM26 1147q-58 0 -101 41t-43 99t43 98.5t101 40.5q59 0 102 -40.5t43 -98.5t-43 -99t-102 -41zM120 960q0 26 24 45.5t45 19.5q35 0 58 -21t23 -54v-1l2 -897q0 -31 -22 -53
t-53 -22t-53 22.5t-22 53.5z" />
    <glyph glyph-name="eth" unicode="&#xf0;" horiz-adv-x="1242" 
d="M463 1391q44 0 89.5 -6t85.5 -17l72 83q21 24 54 24q29 0 49.5 -20.5t20.5 -49.5t-20.5 -49.5t-49.5 -20.5h31l-19 -22q158 -83 262.5 -247.5t104.5 -393.5q0 -90 -19 -175q-3 -137 -72 -252t-183.5 -184.5t-255.5 -69.5q-206 0 -355 144q-76 74 -117 172.5t-41 203.5
q0 104 39.5 200.5t112.5 169.5q71 71 165 110.5t195 39.5q95 0 182.5 -34.5t156.5 -96.5q-80 208 -277 296l-111 -128q-21 -25 -53 -25q-29 0 -49.5 20.5t-20.5 49.5q0 27 18 47l67 78q-30 3 -61 3q-127 0 -237 -56q-16 -9 -35 -9q-31 0 -53 22t-22 53q0 20 12 40t29 28
q141 72 305 72zM974 510q0 100 -49 184.5t-131 135.5t-182 51q-70 0 -137 -28t-117 -78q-51 -51 -79.5 -120.5t-28.5 -143.5t30 -145t83 -123q105 -102 251 -102q100 0 181.5 50.5t130 134.5t48.5 184z" />
    <glyph glyph-name="ntilde" unicode="&#xf1;" 
d="M796 1319q0 7 -1.5 12.5t-1.5 12.5q0 29 20.5 49.5t49.5 20.5q38 0 55.5 -28.5t17.5 -69.5q0 -59 -30 -108t-79 -78.5t-108 -29.5q-65 0 -110 26t-81 60.5t-75 59.5q-33 22 -60 22q-34 0 -57 -23.5t-23 -56.5q0 -4 0.5 -7.5t0.5 -7.5q0 -29 -20.5 -49.5t-49.5 -20.5
q-34 0 -52.5 25t-18.5 62q0 59 29.5 108.5t79.5 79.5t109 30q66 0 111.5 -26.5t82 -61t75.5 -59.5q15 -10 28 -15.5t29 -5.5q33 0 56 23t23 56zM195 1027q31 0 50.5 -22t19.5 -53l5 -119q36 44 83.5 88t109 73.5t137.5 29.5q133 0 213.5 -68t117 -178.5t36.5 -238.5l-1 -485
q0 -31 -22 -53t-53 -22t-53 22.5t-22 53.5l1 484q0 89 -18 165t-65 123t-134 47q-163 0 -246 -87t-83 -245v-490q0 -31 -22 -53t-53 -22t-53 22.5t-22 53.5l-1 898q0 32 21.5 54t53.5 22z" />
    <glyph glyph-name="ograve" unicode="&#xf2;" horiz-adv-x="1200" 
d="M239 1515q0 29 20.5 49.5t49.5 20.5t49 -20l316 -319q24 -26 23 -45.5t-15 -36.5t-32.5 -15t-33.5 12t-21 15l-334 288q-22 20 -22 51zM599 1026q105 0 196 -42t159.5 -115.5t107 -167.5t38.5 -199q0 -139 -66 -258t-178.5 -192.5t-252.5 -74.5q-142 0 -256 73
t-180.5 192.5t-66.5 259.5q0 104 38.5 198.5t106.5 168t158.5 115.5t195.5 42zM599 876q-98 0 -177 -52t-125.5 -136.5t-46.5 -183.5q0 -100 46 -186t126 -138.5t180 -52.5q99 1 177.5 53.5t124.5 137.5t46 184t-46.5 184.5t-126 137.5t-178.5 52z" />
    <glyph glyph-name="oacute" unicode="&#xf3;" horiz-adv-x="1200" 
d="M880 1568q28 0 49 -20.5t21 -49.5t-20 -49l-319 -316q-27 -24 -46 -23t-36 15q-18 15 -15.5 33t12.5 33t15 21l288 334q20 22 51 22zM599 1026q105 0 196 -42t159.5 -115.5t107 -167.5t38.5 -199q0 -139 -66 -258t-178.5 -192.5t-252.5 -74.5q-142 0 -256 73
t-180.5 192.5t-66.5 259.5q0 104 38.5 198.5t106.5 168t158.5 115.5t195.5 42zM599 876q-98 0 -177 -52t-125.5 -136.5t-46.5 -183.5q0 -100 46 -186t126 -138.5t180 -52.5q99 1 177.5 53.5t124.5 137.5t46 184t-46.5 184.5t-126 137.5t-178.5 52z" />
    <glyph glyph-name="ocircumflex" unicode="&#xf4;" horiz-adv-x="1200" 
d="M547 1567q19 21 49 21t49 -19l317 -304q23 -21 23 -51q0 -29 -20.5 -49.5t-49.5 -20.5t-49 20l-268 256l-254 -258q-20 -22 -51 -22q-29 0 -49.5 20.5t-20.5 49.5q0 31 21 50zM599 1026q105 0 196 -42t159.5 -115.5t107 -167.5t38.5 -199q0 -139 -66 -258t-178.5 -192.5
t-252.5 -74.5q-142 0 -256 73t-180.5 192.5t-66.5 259.5q0 104 38.5 198.5t106.5 168t158.5 115.5t195.5 42zM599 876q-98 0 -177 -52t-125.5 -136.5t-46.5 -183.5q0 -100 46 -186t126 -138.5t180 -52.5q99 1 177.5 53.5t124.5 137.5t46 184t-46.5 184.5t-126 137.5
t-178.5 52z" />
    <glyph glyph-name="otilde" unicode="&#xf5;" horiz-adv-x="1200" 
d="M846 1312q0 7 -1.5 12.5t-1.5 12.5q0 29 20.5 49.5t49.5 20.5q38 0 55.5 -28.5t17.5 -69.5q0 -59 -30 -108t-79 -78.5t-108 -29.5q-65 0 -110 26t-81 60.5t-75 59.5q-33 22 -60 22q-34 0 -57 -23.5t-23 -56.5q0 -4 0.5 -7.5t0.5 -7.5q0 -29 -20.5 -49.5t-49.5 -20.5
q-34 0 -52.5 25t-18.5 62q0 59 29.5 108.5t79.5 79.5t109 30q66 0 111.5 -26.5t82 -61t75.5 -59.5q15 -10 28 -15.5t29 -5.5q33 0 56 23t23 56zM599 1026q105 0 196 -42t159.5 -115.5t107 -167.5t38.5 -199q0 -139 -66 -258t-178.5 -192.5t-252.5 -74.5q-142 0 -256 73
t-180.5 192.5t-66.5 259.5q0 104 38.5 198.5t106.5 168t158.5 115.5t195.5 42zM599 876q-98 0 -177 -52t-125.5 -136.5t-46.5 -183.5q0 -100 46 -186t126 -138.5t180 -52.5q99 1 177.5 53.5t124.5 137.5t46 184t-46.5 184.5t-126 137.5t-178.5 52z" />
    <glyph glyph-name="odieresis" unicode="&#xf6;" horiz-adv-x="1200" 
d="M772 1140q-58 0 -101 41t-43 99t43 98.5t101 40.5q59 0 102 -40.5t43 -98.5t-43 -99t-102 -41zM434 1140q-58 0 -101 41t-43 99t43 98.5t101 40.5q59 0 102 -40.5t43 -98.5t-43 -99t-102 -41zM599 1026q105 0 196 -42t159.5 -115.5t107 -167.5t38.5 -199q0 -139 -66 -258
t-178.5 -192.5t-252.5 -74.5q-142 0 -256 73t-180.5 192.5t-66.5 259.5q0 104 38.5 198.5t106.5 168t158.5 115.5t195.5 42zM599 876q-98 0 -177 -52t-125.5 -136.5t-46.5 -183.5q0 -100 46 -186t126 -138.5t180 -52.5q99 1 177.5 53.5t124.5 137.5t46 184t-46.5 184.5
t-126 137.5t-178.5 52z" />
    <glyph glyph-name="divide" unicode="&#xf7;" horiz-adv-x="1110" 
d="M548 686q-58 0 -101 41t-43 99t43 98.5t101 40.5q59 0 102 -40.5t43 -98.5t-43 -99t-102 -41zM0 477q0 19 16 45t32 26l23 -1h968l15 1q20 0 38 -24t18 -47q0 -22 -18 -46t-38 -24h-998q-19 0 -37.5 24t-18.5 46zM540 -2q-58 0 -101 41t-43 99t43 98.5t101 40.5
q59 0 102 -40.5t43 -98.5t-43 -99t-102 -41z" />
    <glyph glyph-name="oslash" unicode="&#xf8;" horiz-adv-x="1142" 
d="M951 1024q35 -11 43.5 -33t-2.5 -39l-68 -95q65 -71 101.5 -164t36.5 -194q0 -103 -37.5 -197t-104.5 -167t-156.5 -115t-193.5 -42q-61 0 -118 15.5t-107 43.5l-14 -20q-13 -19 -40.5 -27t-53.5 -1q-32 10 -44.5 30t1.5 41l42 60q-72 72 -114 169t-42 205
q0 138 64.5 257.5t176 193t251.5 73.5q68 0 131 -19t117 -54l36 51q14 19 40.5 28t54.5 0zM572 868q-96 0 -174 -51.5t-123.5 -136t-45.5 -183.5q0 -72 25.5 -137.5t69.5 -115.5l409 579q-74 45 -161 45zM835 730l-403 -570q67 -32 138 -32q97 0 174 52.5t122 137t45 181.5
q0 128 -76 231z" />
    <glyph glyph-name="ugrave" unicode="&#xf9;" 
d="M189 1522q0 29 20.5 49.5t49.5 20.5t49 -20l316 -319q24 -26 23 -45.5t-15 -36.5t-32.5 -15t-33.5 12t-21 15l-334 288q-22 20 -22 51zM892 -26q-31 0 -50.5 22t-19.5 53l-5 119q-36 -44 -83.5 -88t-109 -73.5t-137.5 -29.5q-133 0 -213.5 68t-117 178.5t-36.5 238.5
l1 485q0 31 22 53t53 22t53 -22.5t22 -53.5l-1 -484q0 -89 18 -165t65 -123t134 -47q163 0 246 87t83 245v490q0 31 22 53t53 22t53 -22.5t22 -53.5l1 -898q0 -32 -21.5 -54t-53.5 -22z" />
    <glyph glyph-name="uacute" unicode="&#xfa;" 
d="M907 1605q28 0 49 -20.5t21 -49.5t-20 -49l-319 -316q-27 -24 -46 -23t-36 15q-18 15 -15.5 33t12.5 33t15 21l288 334q20 22 51 22zM892 -26q-31 0 -50.5 22t-19.5 53l-5 119q-36 -44 -83.5 -88t-109 -73.5t-137.5 -29.5q-133 0 -213.5 68t-117 178.5t-36.5 238.5l1 485
q0 31 22 53t53 22t53 -22.5t22 -53.5l-1 -484q0 -89 18 -165t65 -123t134 -47q163 0 246 87t83 245v490q0 31 22 53t53 22t53 -22.5t22 -53.5l1 -898q0 -32 -21.5 -54t-53.5 -22z" />
    <glyph glyph-name="ucircumflex" unicode="&#xfb;" 
d="M497 1574q19 21 49 21t49 -19l317 -304q23 -21 23 -51q0 -29 -20.5 -49.5t-49.5 -20.5t-49 20l-268 256l-254 -258q-20 -22 -51 -22q-29 0 -49.5 20.5t-20.5 49.5q0 31 21 50zM892 -26q-31 0 -50.5 22t-19.5 53l-5 119q-36 -44 -83.5 -88t-109 -73.5t-137.5 -29.5
q-133 0 -213.5 68t-117 178.5t-36.5 238.5l1 485q0 31 22 53t53 22t53 -22.5t22 -53.5l-1 -484q0 -89 18 -165t65 -123t134 -47q163 0 246 87t83 245v490q0 31 22 53t53 22t53 -22.5t22 -53.5l1 -898q0 -32 -21.5 -54t-53.5 -22z" />
    <glyph glyph-name="udieresis" unicode="&#xfc;" 
d="M722 1147q-58 0 -101 41t-43 99t43 98.5t101 40.5q59 0 102 -40.5t43 -98.5t-43 -99t-102 -41zM384 1147q-58 0 -101 41t-43 99t43 98.5t101 40.5q59 0 102 -40.5t43 -98.5t-43 -99t-102 -41zM892 -26q-31 0 -50.5 22t-19.5 53l-5 119q-36 -44 -83.5 -88t-109 -73.5
t-137.5 -29.5q-133 0 -213.5 68t-117 178.5t-36.5 238.5l1 485q0 31 22 53t53 22t53 -22.5t22 -53.5l-1 -484q0 -89 18 -165t65 -123t134 -47q163 0 246 87t83 245v490q0 31 22 53t53 22t53 -22.5t22 -53.5l1 -898q0 -32 -21.5 -54t-53.5 -22z" />
    <glyph glyph-name="yacute" unicode="&#xfd;" horiz-adv-x="1065" 
d="M638 1613q28 0 49 -20.5t21 -49.5t-20 -49l-319 -316q-27 -24 -46 -23t-36 15q-18 15 -15.5 33t12.5 33t15 21l288 334q20 22 51 22zM125 1026q21 0 40.5 -13t27.5 -31l365 -789l312 784q8 20 28 34t42 14q39 0 61.5 -32.5t7.5 -71.5l-441 -1106q-29 -72 -78 -147
t-122 -126.5t-174 -51.5q-31 0 -53 22t-22 53q0 29 21 51.5t50 23.5q69 5 115 40.5t77.5 90t54 116t44.5 116.5l-424 915q-7 16 -7 33q0 31 22 53t53 22z" />
    <glyph glyph-name="thorn" unicode="&#xfe;" horiz-adv-x="1062" 
d="M110 -213q-2 193 -3.5 355t-3 315t-2 316.5t-0.5 358.5q0 31 22 53t53 22t53 -22t22 -54l2 -217q53 43 120.5 67t137.5 24q133 0 234.5 -70.5t159 -185t57.5 -248.5q0 -137 -59 -257t-164.5 -193.5t-243.5 -73.5q-131 0 -237 73l2 -264q0 -31 -22 -53t-53 -22t-53 22
t-22 53v1zM812 501q0 92 -38 173t-105.5 131t-156.5 50q-67 0 -125.5 -28t-94.5 -76t-36 -109v-369q4 -45 40 -77.5t89.5 -50.5t109.5 -18q95 0 166 53.5t111 139t40 181.5z" />
    <glyph glyph-name="ydieresis" unicode="&#xff;" horiz-adv-x="1065" 
d="M728 1155q-58 0 -101 41t-43 99t43 98.5t101 40.5q59 0 102 -40.5t43 -98.5t-43 -99t-102 -41zM390 1155q-58 0 -101 41t-43 99t43 98.5t101 40.5q59 0 102 -40.5t43 -98.5t-43 -99t-102 -41zM125 1026q21 0 40.5 -13t27.5 -31l365 -789l312 784q8 20 28 34t42 14
q39 0 61.5 -32.5t7.5 -71.5l-441 -1106q-29 -72 -78 -147t-122 -126.5t-174 -51.5q-31 0 -53 22t-22 53q0 29 21 51.5t50 23.5q69 5 115 40.5t77.5 90t54 116t44.5 116.5l-424 915q-7 16 -7 33q0 31 22 53t53 22z" />
    <glyph glyph-name="Amacron" unicode="&#x100;" horiz-adv-x="1350" 
d="M406 1590q0 19 16 45t32 26h425q20 0 38 -24t18 -47q0 -22 -18 -46t-38 -24h-417q-19 0 -37.5 24t-18.5 46zM120 -23q-25 0 -47.5 22t-22.5 46t7 38l549 1255q7 15 26.5 30t38.5 15q54 0 73 -45l550 -1253q6 -13 6 -29q0 -28 -18.5 -52.5t-47.5 -24.5q-59 0 -78 46
l-201 459h-556l-205 -461q-19 -46 -74 -46zM675 1120l-211 -486h425z" />
    <glyph glyph-name="amacron" unicode="&#x101;" horiz-adv-x="1191" 
d="M300 1220q0 19 16 45t32 26h425q20 0 38 -24t18 -47q0 -22 -18 -46t-38 -24h-417q-19 0 -37.5 24t-18.5 46zM589 1025q107 0 192.5 -62t149.5 -131l9 126q0 29 16 49.5t45 20.5t49.5 -20.5t20.5 -49.5v-904q0 -29 -20.5 -49.5t-49.5 -20.5t-49.5 20.5t-20.5 49.5v114
q-66 -72 -156.5 -130t-190.5 -58q-103 0 -191 42.5t-154 115.5t-102.5 166.5t-36.5 196.5q0 102 36.5 196.5t103 168t155.5 116.5t194 43zM936 507q0 97 -46.5 180.5t-125 135.5t-174.5 52q-97 0 -174 -53t-121.5 -138.5t-44.5 -182.5q0 -96 44 -181t119.5 -137.5
t170.5 -52.5q96 0 176 53.5t128 140t48 183.5z" />
    <glyph glyph-name="Cacute" unicode="&#x106;" horiz-adv-x="1479" 
d="M1025 1959q28 0 49 -20.5t21 -49.5t-20 -49l-319 -316q-27 -24 -46 -23t-36 15q-18 15 -15.5 33t12.5 33t15 21l288 334q20 22 51 22zM1309 489q25 0 47.5 -22t22.5 -46q0 -25 -7 -39q-48 -108 -136.5 -200t-210.5 -148t-273 -56q-149 0 -269.5 55t-206 152.5t-131 226
t-45.5 276.5q0 146 46 272.5t132 222t205.5 149.5t265.5 54q148 0 269.5 -52t211 -139t139.5 -193q8 -16 8 -34q0 -29 -20.5 -51.5t-42.5 -22.5q-60 0 -80 44q-59 125 -185 211.5t-300 86.5q-154 0 -266 -74t-172.5 -198.5t-60.5 -278.5t60 -280.5t172.5 -201t267.5 -74.5
q116 0 211.5 43.5t166 115.5t107.5 155q20 46 74 46z" />
    <glyph glyph-name="cacute" unicode="&#x107;" horiz-adv-x="1128" 
d="M870 1571q28 0 49 -20.5t21 -49.5t-20 -49l-319 -316q-27 -24 -46 -23t-36 15q-18 15 -15.5 33t12.5 33t15 21l288 334q20 22 51 22zM100 503q0 139 66 256.5t178 189.5t250 72q102 0 186 -38t145 -100t94 -136q8 -16 8 -32q0 -31 -22 -52.5t-53 -21.5q-20 0 -40 12.5
t-28 31.5q-34 75 -110 131t-180 56q-97 0 -175 -51.5t-124 -136t-46 -182.5t45.5 -182.5t124 -136t175.5 -51.5q104 0 180.5 55.5t110.5 130.5q8 19 28 32t40 13q31 0 53 -22t22 -53q0 -17 -7 -31q-33 -73 -94.5 -135.5t-146 -100.5t-186.5 -38q-139 0 -251 72t-177.5 190.5
t-65.5 257.5z" />
    <glyph glyph-name="Ccircumflex" unicode="&#x108;" horiz-adv-x="1479" 
d="M692 1957q19 21 49 21t49 -19l317 -304q23 -21 23 -51q0 -29 -20.5 -49.5t-49.5 -20.5t-49 20l-268 256l-254 -258q-20 -22 -51 -22q-29 0 -49.5 20.5t-20.5 49.5q0 31 21 50zM1309 489q25 0 47.5 -22t22.5 -46q0 -25 -7 -39q-48 -108 -136.5 -200t-210.5 -148t-273 -56
q-149 0 -269.5 55t-206 152.5t-131 226t-45.5 276.5q0 146 46 272.5t132 222t205.5 149.5t265.5 54q148 0 269.5 -52t211 -139t139.5 -193q8 -16 8 -34q0 -29 -20.5 -51.5t-42.5 -22.5q-60 0 -80 44q-59 125 -185 211.5t-300 86.5q-154 0 -266 -74t-172.5 -198.5
t-60.5 -278.5t60 -280.5t172.5 -201t267.5 -74.5q116 0 211.5 43.5t166 115.5t107.5 155q20 46 74 46z" />
    <glyph glyph-name="ccircumflex" unicode="&#x109;" horiz-adv-x="1128" 
d="M537 1570q19 21 49 21t49 -19l317 -304q23 -21 23 -51q0 -29 -20.5 -49.5t-49.5 -20.5t-49 20l-268 256l-254 -258q-20 -22 -51 -22q-29 0 -49.5 20.5t-20.5 49.5q0 31 21 50zM100 503q0 139 66 256.5t178 189.5t250 72q102 0 186 -38t145 -100t94 -136q8 -16 8 -32
q0 -31 -22 -52.5t-53 -21.5q-20 0 -40 12.5t-28 31.5q-34 75 -110 131t-180 56q-97 0 -175 -51.5t-124 -136t-46 -182.5t45.5 -182.5t124 -136t175.5 -51.5q104 0 180.5 55.5t110.5 130.5q8 19 28 32t40 13q31 0 53 -22t22 -53q0 -17 -7 -31q-33 -73 -94.5 -135.5
t-146 -100.5t-186.5 -38q-139 0 -251 72t-177.5 190.5t-65.5 257.5z" />
    <glyph glyph-name="Cdotaccent" unicode="&#x10a;" horiz-adv-x="1479" 
d="M748 1531q-58 0 -101 41t-43 99t43 98.5t101 40.5q59 0 102 -40.5t43 -98.5t-43 -99t-102 -41zM1309 489q25 0 47.5 -22t22.5 -46q0 -25 -7 -39q-48 -108 -136.5 -200t-210.5 -148t-273 -56q-149 0 -269.5 55t-206 152.5t-131 226t-45.5 276.5q0 146 46 272.5t132 222
t205.5 149.5t265.5 54q148 0 269.5 -52t211 -139t139.5 -193q8 -16 8 -34q0 -29 -20.5 -51.5t-42.5 -22.5q-60 0 -80 44q-59 125 -185 211.5t-300 86.5q-154 0 -266 -74t-172.5 -198.5t-60.5 -278.5t60 -280.5t172.5 -201t267.5 -74.5q116 0 211.5 43.5t166 115.5t107.5 155
q20 46 74 46z" />
    <glyph glyph-name="cdotaccent" unicode="&#x10b;" horiz-adv-x="1128" 
d="M594 1143q-58 0 -101 41t-43 99t43 98.5t101 40.5q59 0 102 -40.5t43 -98.5t-43 -99t-102 -41zM100 503q0 139 66 256.5t178 189.5t250 72q102 0 186 -38t145 -100t94 -136q8 -16 8 -32q0 -31 -22 -52.5t-53 -21.5q-20 0 -40 12.5t-28 31.5q-34 75 -110 131t-180 56
q-97 0 -175 -51.5t-124 -136t-46 -182.5t45.5 -182.5t124 -136t175.5 -51.5q104 0 180.5 55.5t110.5 130.5q8 19 28 32t40 13q31 0 53 -22t22 -53q0 -17 -7 -31q-33 -73 -94.5 -135.5t-146 -100.5t-186.5 -38q-139 0 -251 72t-177.5 190.5t-65.5 257.5z" />
    <glyph glyph-name="Ccaron" unicode="&#x10c;" horiz-adv-x="1479" 
d="M1309 489q25 0 47.5 -22t22.5 -46q0 -25 -7 -39q-48 -108 -136.5 -200t-210.5 -148t-273 -56q-149 0 -269.5 55t-206 152.5t-131 226t-45.5 276.5q0 146 46 272.5t132 222t205.5 149.5t265.5 54q148 0 269.5 -52t211 -139t139.5 -193q8 -16 8 -34q0 -29 -20.5 -51.5
t-42.5 -22.5q-60 0 -80 44q-59 125 -185 211.5t-300 86.5q-154 0 -266 -74t-172.5 -198.5t-60.5 -278.5t60 -280.5t172.5 -201t267.5 -74.5q116 0 211.5 43.5t166 115.5t107.5 155q20 46 74 46zM724 1464l-303 307q-21 19 -21 50q0 29 20.5 49.5t49.5 20.5q31 0 51 -22
l254 -258l268 256q20 20 49 20t49.5 -20.5t20.5 -49.5q0 -30 -23 -51l-317 -304q-19 -19 -49 -19t-49 21z" />
    <glyph glyph-name="ccaron" unicode="&#x10d;" horiz-adv-x="1128" 
d="M100 503q0 139 66 256.5t178 189.5t250 72q102 0 186 -38t145 -100t94 -136q8 -16 8 -32q0 -31 -22 -52.5t-53 -21.5q-20 0 -40 12.5t-28 31.5q-34 75 -110 131t-180 56q-97 0 -175 -51.5t-124 -136t-46 -182.5t45.5 -182.5t124 -136t175.5 -51.5q104 0 180.5 55.5
t110.5 130.5q8 19 28 32t40 13q31 0 53 -22t22 -53q0 -17 -7 -31q-33 -73 -94.5 -135.5t-146 -100.5t-186.5 -38q-139 0 -251 72t-177.5 190.5t-65.5 257.5zM524 1164l-303 307q-21 19 -21 50q0 29 20.5 49.5t49.5 20.5q31 0 51 -22l254 -258l268 256q20 20 49 20
t49.5 -20.5t20.5 -49.5q0 -30 -23 -51l-317 -304q-19 -19 -49 -19t-49 21z" />
    <glyph glyph-name="Dcaron" unicode="&#x10e;" horiz-adv-x="1364" 
d="M552 1384q183 1 317 -59t221.5 -162t130.5 -229t43 -260q0 -128 -38.5 -248.5t-114 -217.5t-185.5 -154t-254 -58l-478 2q-30 1 -52 21t-22 51l7 1233q0 30 21.5 54t51.5 25zM1126 696q0 194 -82.5 314t-231.5 174t-347 49l-189 -4l-6 -1085l272 -2q288 -4 436 135
t148 419zM524 1464l-303 307q-21 19 -21 50q0 29 20.5 49.5t49.5 20.5q31 0 51 -22l254 -258l268 256q20 20 49 20t49.5 -20.5t20.5 -49.5q0 -30 -23 -51l-317 -304q-19 -19 -49 -19t-49 21z" />
    <glyph glyph-name="Emacron" unicode="&#x112;" horiz-adv-x="1308" 
d="M354 1590q0 19 16 45t32 26h425q20 0 38 -24t18 -47q0 -22 -18 -46t-38 -24h-417q-19 0 -37.5 24t-18.5 46zM120 1307q0 31 22 53t53 22l937 -1h1q31 0 53 -22t22 -53t-22 -53t-53 -22h-1l-862 1l1 -470q3 0 5.5 0.5t4.5 0.5l769 -5q32 0 53.5 -21.5t21.5 -58.5
q0 -28 -23 -49t-52 -21h-1l-769 5h-8l1 -465l859 1h1q31 0 53 -22t22 -53t-22 -53t-53 -22h-1l-934 -1q-31 0 -53 22t-22 53z" />
    <glyph glyph-name="emacron" unicode="&#x113;" horiz-adv-x="1162" 
d="M328 1213q0 19 16 45t32 26h425q20 0 38 -24t18 -47q0 -22 -18 -46t-38 -24h-417q-19 0 -37.5 24t-18.5 46zM618 -20q-145 0 -262.5 72t-186.5 192.5t-69 264.5q0 137 65.5 253.5t177.5 187.5t250 71q127 0 233.5 -63t171 -169.5t64.5 -236.5q0 -46 -16.5 -79t-60.5 -33
h-728q16 -83 65.5 -153.5t125 -113.5t168.5 -43q79 0 155 35t125 96q22 29 59 29q31 0 53 -22t22 -53q0 -27 -18 -49q-72 -88 -176.5 -137t-217.5 -49zM909 588q-9 78 -53 142.5t-112 102.5t-150 38q-85 0 -155 -39t-116.5 -103t-63.5 -141h650z" />
    <glyph glyph-name="Edotaccent" unicode="&#x116;" horiz-adv-x="1308" 
d="M678 1526q-58 0 -101 41t-43 99t43 98.5t101 40.5q59 0 102 -40.5t43 -98.5t-43 -99t-102 -41zM120 1307q0 31 22 53t53 22l937 -1h1q31 0 53 -22t22 -53t-22 -53t-53 -22h-1l-862 1l1 -470q3 0 5.5 0.5t4.5 0.5l769 -5q32 0 53.5 -21.5t21.5 -58.5q0 -28 -23 -49
t-52 -21h-1l-769 5h-8l1 -465l859 1h1q31 0 53 -22t22 -53t-22 -53t-53 -22h-1l-934 -1q-31 0 -53 22t-22 53z" />
    <glyph glyph-name="edotaccent" unicode="&#x117;" horiz-adv-x="1162" 
d="M592 1143q-58 0 -101 41t-43 99t43 98.5t101 40.5q59 0 102 -40.5t43 -98.5t-43 -99t-102 -41zM618 -20q-145 0 -262.5 72t-186.5 192.5t-69 264.5q0 137 65.5 253.5t177.5 187.5t250 71q127 0 233.5 -63t171 -169.5t64.5 -236.5q0 -46 -16.5 -79t-60.5 -33h-728
q16 -83 65.5 -153.5t125 -113.5t168.5 -43q79 0 155 35t125 96q22 29 59 29q31 0 53 -22t22 -53q0 -27 -18 -49q-72 -88 -176.5 -137t-217.5 -49zM909 588q-9 78 -53 142.5t-112 102.5t-150 38q-85 0 -155 -39t-116.5 -103t-63.5 -141h650z" />
    <glyph glyph-name="Ecaron" unicode="&#x11a;" horiz-adv-x="1308" 
d="M120 1307q0 31 22 53t53 22l937 -1h1q31 0 53 -22t22 -53t-22 -53t-53 -22h-1l-862 1l1 -470q3 0 5.5 0.5t4.5 0.5l769 -5q32 0 53.5 -21.5t21.5 -58.5q0 -28 -23 -49t-52 -21h-1l-769 5h-8l1 -465l859 1h1q31 0 53 -22t22 -53t-22 -53t-53 -22h-1l-934 -1q-31 0 -53 22
t-22 53zM724 1464l-303 307q-21 19 -21 50q0 29 20.5 49.5t49.5 20.5q31 0 51 -22l254 -258l268 256q20 20 49 20t49.5 -20.5t20.5 -49.5q0 -30 -23 -51l-317 -304q-19 -19 -49 -19t-49 21z" />
    <glyph glyph-name="ecaron" unicode="&#x11b;" horiz-adv-x="1162" 
d="M618 -20q-145 0 -262.5 72t-186.5 192.5t-69 264.5q0 137 65.5 253.5t177.5 187.5t250 71q127 0 233.5 -63t171 -169.5t64.5 -236.5q0 -46 -16.5 -79t-60.5 -33h-728q16 -83 65.5 -153.5t125 -113.5t168.5 -43q79 0 155 35t125 96q22 29 59 29q31 0 53 -22t22 -53
q0 -27 -18 -49q-72 -88 -176.5 -137t-217.5 -49zM909 588q-9 78 -53 142.5t-112 102.5t-150 38q-85 0 -155 -39t-116.5 -103t-63.5 -141h650zM544 1164l-303 307q-21 19 -21 50q0 29 20.5 49.5t49.5 20.5q31 0 51 -22l254 -258l268 256q20 20 49 20t49.5 -20.5t20.5 -49.5
q0 -30 -23 -51l-317 -304q-19 -19 -49 -19t-49 21z" />
    <glyph glyph-name="Gcircumflex" unicode="&#x11c;" horiz-adv-x="1438" 
d="M645 1947q19 21 49 21t49 -19l317 -304q23 -21 23 -51q0 -29 -20.5 -49.5t-49.5 -20.5t-49 20l-268 256l-254 -258q-20 -22 -51 -22q-29 0 -49.5 20.5t-20.5 49.5q0 31 21 50zM100 667q0 146 50.5 276t144 230t222.5 157.5t285 57.5q146 0 263 -39t220 -113
q33 -22 33 -62q0 -31 -22 -53t-53 -22q-25 0 -44 14q-81 57 -183 90.5t-209 33.5q-162 0 -288.5 -76.5t-198.5 -205t-72 -284.5q0 -160 69.5 -280.5t192.5 -187.5t285 -67q94 0 185.5 21.5t164.5 47.5l-3 375h-330q-31 0 -53 22t-22 53t22 53t53 22h405q31 0 53 -21.5
t22 -52.5l4 -502v-1q0 -21 -13.5 -41t-33.5 -28q-94 -38 -208 -68.5t-239 -30.5q-204 0 -362.5 85.5t-249 239t-90.5 357.5z" />
    <glyph glyph-name="gcircumflex" unicode="&#x11d;" horiz-adv-x="1201" 
d="M477 1562q19 21 49 21t49 -19l317 -304q23 -21 23 -51q0 -29 -20.5 -49.5t-49.5 -20.5t-49 20l-268 256l-254 -258q-20 -22 -51 -22q-29 0 -49.5 20.5t-20.5 49.5q0 31 21 50zM586 1018q104 0 191.5 -52t152.5 -122l5 102q0 31 20 53t51 22t53 -22t22 -53l-1 -2l-7 -944
q-1 -107 -43.5 -202t-116.5 -167.5t-170 -113.5t-204 -41q-121 0 -232 53.5t-187 148.5q-17 21 -17 48q0 31 22 53t53 22q38 0 60 -30q53 -67 134.5 -106t166.5 -39q104 0 190.5 51.5t139 137t54.5 187.5l1 150q-66 -67 -153.5 -120.5t-184.5 -53.5q-103 0 -191.5 42.5
t-154.5 115.5t-103 166.5t-37 195.5t36.5 195t102.5 166.5t154.5 116t192.5 42.5zM921 498q0 97 -43.5 181t-119.5 136.5t-172 52.5q-97 0 -172.5 -52.5t-119 -136.5t-43.5 -181q0 -96 44 -180.5t119.5 -137t171.5 -52.5t171.5 52.5t119.5 137t44 180.5z" />
    <glyph glyph-name="Gdotaccent" unicode="&#x120;" horiz-adv-x="1438" 
d="M802 1520q-58 0 -101 41t-43 99t43 98.5t101 40.5q59 0 102 -40.5t43 -98.5t-43 -99t-102 -41zM100 667q0 146 50.5 276t144 230t222.5 157.5t285 57.5q146 0 263 -39t220 -113q33 -22 33 -62q0 -31 -22 -53t-53 -22q-25 0 -44 14q-81 57 -183 90.5t-209 33.5
q-162 0 -288.5 -76.5t-198.5 -205t-72 -284.5q0 -160 69.5 -280.5t192.5 -187.5t285 -67q94 0 185.5 21.5t164.5 47.5l-3 375h-330q-31 0 -53 22t-22 53t22 53t53 22h405q31 0 53 -21.5t22 -52.5l4 -502v-1q0 -21 -13.5 -41t-33.5 -28q-94 -38 -208 -68.5t-239 -30.5
q-204 0 -362.5 85.5t-249 239t-90.5 357.5z" />
    <glyph glyph-name="gdotaccent" unicode="&#x121;" horiz-adv-x="1201" 
d="M724 1143q-58 0 -101 41t-43 99t43 98.5t101 40.5q59 0 102 -40.5t43 -98.5t-43 -99t-102 -41zM586 1018q104 0 191.5 -52t152.5 -122l5 102q0 31 20 53t51 22t53 -22t22 -53l-1 -2l-7 -944q-1 -107 -43.5 -202t-116.5 -167.5t-170 -113.5t-204 -41q-121 0 -232 53.5
t-187 148.5q-17 21 -17 48q0 31 22 53t53 22q38 0 60 -30q53 -67 134.5 -106t166.5 -39q104 0 190.5 51.5t139 137t54.5 187.5l1 150q-66 -67 -153.5 -120.5t-184.5 -53.5q-103 0 -191.5 42.5t-154.5 115.5t-103 166.5t-37 195.5t36.5 195t102.5 166.5t154.5 116t192.5 42.5
zM921 498q0 97 -43.5 181t-119.5 136.5t-172 52.5q-97 0 -172.5 -52.5t-119 -136.5t-43.5 -181q0 -96 44 -180.5t119.5 -137t171.5 -52.5t171.5 52.5t119.5 137t44 180.5z" />
    <glyph glyph-name="Hcircumflex" unicode="&#x124;" horiz-adv-x="1340" 
d="M610 1935q19 21 49 21t49 -19l317 -304q23 -21 23 -51q0 -29 -20.5 -49.5t-49.5 -20.5t-49 20l-268 256l-254 -258q-20 -22 -51 -22q-29 0 -49.5 20.5t-20.5 49.5q0 31 21 50zM120 1319q0 26 24 45.5t45 19.5q35 -1 59 -21.5t24 -53.5v-531h798v531q0 31 21.5 53t52.5 22
q32 0 54 -22t22 -54v-1248q0 -31 -22.5 -53t-53.5 -22t-52.5 22t-21.5 53v568h-798v-571q0 -31 -21.5 -53t-52.5 -22t-54.5 22.5t-23.5 53.5v1261z" />
    <glyph glyph-name="hcircumflex" unicode="&#x125;" horiz-adv-x="1092" 
d="M389 1932q19 21 49 21t49 -19l317 -304q23 -21 23 -51q0 -29 -20.5 -49.5t-49.5 -20.5t-49 20l-268 256l-254 -258q-20 -22 -51 -22q-29 0 -49.5 20.5t-20.5 49.5q0 31 21 50zM120 1308q0 31 22 53t53 22t53 -22t22 -53v-460q50 83 131 130.5t161 47.5
q223 0 316.5 -133.5t93.5 -358.5v-9l-1 -472v-1q0 -31 -22 -53t-53 -22t-53 22t-22 53v1l1 474q0 164 -50.5 257t-197.5 93q-93 0 -161 -39t-104.5 -99t-36.5 -122v-566q0 -31 -22 -53t-53 -22q-33 0 -55 23t-22 52v1257z" />
    <glyph glyph-name="Itilde" unicode="&#x128;" horiz-adv-x="391" 
d="M416 1709q0 7 -1.5 12.5t-1.5 12.5q0 29 20.5 49.5t49.5 20.5q38 0 55.5 -28.5t17.5 -69.5q0 -59 -30 -108t-79 -78.5t-108 -29.5q-65 0 -110 26t-81 60.5t-75 59.5q-33 22 -60 22q-34 0 -57 -23.5t-23 -56.5q0 -4 0.5 -7.5t0.5 -7.5q0 -29 -20.5 -49.5t-49.5 -20.5
q-34 0 -52.5 25t-18.5 62q0 59 29.5 108.5t79.5 79.5t109 30q66 0 111.5 -26.5t82 -61t75.5 -59.5q15 -10 28 -15.5t29 -5.5q33 0 56 23t23 56zM196 -21q-31 0 -53 22t-22 53v1l-1 1256v1q0 29 21.5 52t48.5 23q37 0 58.5 -21.5t21.5 -53.5v-1l1 -1256v-1q0 -31 -22 -53
t-53 -22z" />
    <glyph glyph-name="itilde" unicode="&#x129;" horiz-adv-x="392" 
d="M437 1319q0 7 -1.5 12.5t-1.5 12.5q0 29 20.5 49.5t49.5 20.5q38 0 55.5 -28.5t17.5 -69.5q0 -59 -30 -108t-79 -78.5t-108 -29.5q-65 0 -110 26t-81 60.5t-75 59.5q-33 22 -60 22q-34 0 -57 -23.5t-23 -56.5q0 -4 0.5 -7.5t0.5 -7.5q0 -29 -20.5 -49.5t-49.5 -20.5
q-34 0 -52.5 25t-18.5 62q0 59 29.5 108.5t79.5 79.5t109 30q66 0 111.5 -26.5t82 -61t75.5 -59.5q15 -10 28 -15.5t29 -5.5q33 0 56 23t23 56zM120 960q0 26 24 45.5t45 19.5q35 0 58 -21t23 -54v-1l2 -897q0 -31 -22 -53t-53 -22t-53 22.5t-22 53.5z" />
    <glyph glyph-name="Imacron" unicode="&#x12a;" horiz-adv-x="391" 
d="M-74 1590q0 19 16 45t32 26h425q20 0 38 -24t18 -47q0 -22 -18 -46t-38 -24h-417q-19 0 -37.5 24t-18.5 46zM196 -21q-31 0 -53 22t-22 53v1l-1 1256v1q0 29 21.5 52t48.5 23q37 0 58.5 -21.5t21.5 -53.5v-1l1 -1256v-1q0 -31 -22 -53t-53 -22z" />
    <glyph glyph-name="imacron" unicode="&#x12b;" horiz-adv-x="392" 
d="M-70 1217q0 19 16 45t32 26h425q20 0 38 -24t18 -47q0 -22 -18 -46t-38 -24h-417q-19 0 -37.5 24t-18.5 46zM120 960q0 26 24 45.5t45 19.5q35 0 58 -21t23 -54v-1l2 -897q0 -31 -22 -53t-53 -22t-53 22.5t-22 53.5z" />
    <glyph glyph-name="dotlessi" unicode="&#x131;" horiz-adv-x="392" 
d="M120 960q0 26 24 45.5t45 19.5q35 0 58 -21t23 -54v-1l2 -897q0 -31 -22 -53t-53 -22t-53 22.5t-22 53.5z" />
    <glyph glyph-name="Nacute" unicode="&#x143;" horiz-adv-x="1325" 
d="M782 1864q28 0 49 -20.5t21 -49.5t-20 -49l-319 -316q-27 -24 -46 -23t-36 15q-18 15 -15.5 33t12.5 33t15 21l288 334q20 22 51 22zM120 1311q0 32 22.5 53.5t55.5 21.5q35 0 57 -30l800 -1076v1028q0 31 22 53t53 22t53 -22t22 -53v-1l-1 -1252q0 -32 -22.5 -53.5
t-55.5 -21.5q-34 0 -57 30l-799 1075v-1029q0 -31 -22 -53t-53 -22t-53 22t-22 53v1255z" />
    <glyph glyph-name="nacute" unicode="&#x144;" 
d="M831 1575q28 0 49 -20.5t21 -49.5t-20 -49l-319 -316q-27 -24 -46 -23t-36 15q-18 15 -15.5 33t12.5 33t15 21l288 334q20 22 51 22zM195 1027q31 0 50.5 -22t19.5 -53l5 -119q36 44 83.5 88t109 73.5t137.5 29.5q133 0 213.5 -68t117 -178.5t36.5 -238.5l-1 -485
q0 -31 -22 -53t-53 -22t-53 22.5t-22 53.5l1 484q0 89 -18 165t-65 123t-134 47q-163 0 -246 -87t-83 -245v-490q0 -31 -22 -53t-53 -22t-53 22.5t-22 53.5l-1 898q0 32 21.5 54t53.5 22z" />
    <glyph glyph-name="Ncaron" unicode="&#x147;" horiz-adv-x="1325" 
d="M120 1311q0 32 22.5 53.5t55.5 21.5q35 0 57 -30l800 -1076v1028q0 31 22 53t53 22t53 -22t22 -53v-1l-1 -1252q0 -32 -22.5 -53.5t-55.5 -21.5q-34 0 -57 30l-799 1075v-1029q0 -31 -22 -53t-53 -22t-53 22t-22 53v1255zM621 1464l-303 307q-21 19 -21 50
q0 29 20.5 49.5t49.5 20.5q31 0 51 -22l254 -258l268 256q20 20 49 20t49.5 -20.5t20.5 -49.5q0 -30 -23 -51l-317 -304q-19 -19 -49 -19t-49 21z" />
    <glyph glyph-name="ncaron" unicode="&#x148;" 
d="M195 1027q31 0 50.5 -22t19.5 -53l5 -119q36 44 83.5 88t109 73.5t137.5 29.5q133 0 213.5 -68t117 -178.5t36.5 -238.5l-1 -485q0 -31 -22 -53t-53 -22t-53 22.5t-22 53.5l1 484q0 89 -18 165t-65 123t-134 47q-163 0 -246 -87t-83 -245v-490q0 -31 -22 -53t-53 -22
t-53 22.5t-22 53.5l-1 898q0 32 21.5 54t53.5 22zM524 1166l-303 307q-21 19 -21 50q0 29 20.5 49.5t49.5 20.5q31 0 51 -22l254 -258l268 256q20 20 49 20t49.5 -20.5t20.5 -49.5q0 -30 -23 -51l-317 -304q-19 -19 -49 -19t-49 21z" />
    <glyph glyph-name="Omacron" unicode="&#x14c;" horiz-adv-x="1533" 
d="M500 1590q0 19 16 45t32 26h425q20 0 38 -24t18 -47q0 -22 -18 -46t-38 -24h-417q-19 0 -37.5 24t-18.5 46zM766 1386q147 0 269.5 -54t211.5 -151t137.5 -225.5t48.5 -277.5q0 -199 -84 -357.5t-234 -250.5t-349 -92q-202 0 -352 91.5t-232 249.5t-82 359
q0 146 49 274.5t138.5 226t211.5 152.5t267 55zM766 1233q-156 0 -272 -72.5t-180 -198t-64 -284.5q0 -110 39.5 -208.5t110 -175t164 -120.5t202.5 -44q108 0 202.5 46t166 124t111.5 176t40 202q0 165 -68.5 290t-186 195t-265.5 70z" />
    <glyph glyph-name="omacron" unicode="&#x14d;" horiz-adv-x="1200" 
d="M340 1210q0 19 16 45t32 26h425q20 0 38 -24t18 -47q0 -22 -18 -46t-38 -24h-417q-19 0 -37.5 24t-18.5 46zM599 1026q105 0 196 -42t159.5 -115.5t107 -167.5t38.5 -199q0 -139 -66 -258t-178.5 -192.5t-252.5 -74.5q-142 0 -256 73t-180.5 192.5t-66.5 259.5
q0 104 38.5 198.5t106.5 168t158.5 115.5t195.5 42zM599 876q-98 0 -177 -52t-125.5 -136.5t-46.5 -183.5q0 -100 46 -186t126 -138.5t180 -52.5q99 1 177.5 53.5t124.5 137.5t46 184t-46.5 184.5t-126 137.5t-178.5 52z" />
    <glyph glyph-name="OE" unicode="&#x152;" horiz-adv-x="1888" 
d="M793 -3q-146 0 -272 55t-220.5 151t-147.5 220.5t-53 263.5q0 140 53.5 264.5t148.5 220.5t221 151t270 55q19 0 38 -1t38 -3q8 2 16 2l827 -1h1q31 0 53 -22t22 -53t-22 -53t-53 -22h-1l-752 1l1 -462q2 0 5 0.5t4 0.5h1l659 -5q31 0 53 -22t22 -53t-22 -53t-53 -22h-1
l-659 5h-8l1 -465l749 1h1q31 0 53 -22t22 -53t-22 -53t-53 -22h-1l-824 -1q-10 0 -14 1q-20 -2 -40.5 -3t-40.5 -1zM250 686q0 -109 41.5 -206.5t116 -172t173.5 -117.5t214 -43h18l-3 1081h-15q-114 0 -213 -43t-173.5 -118t-116.5 -173t-42 -208z" />
    <glyph glyph-name="oe" unicode="&#x153;" horiz-adv-x="1996" 
d="M1897 548q0 -46 -16.5 -79.5t-60.5 -33.5l-729 -1q16 -83 65.5 -153t125.5 -112.5t169 -42.5q79 0 155 35t125 96q21 28 59 28q31 0 53 -22t22 -53q0 -26 -18 -48q-72 -88 -176.5 -137t-217.5 -49q-147 0 -262.5 73t-179.5 180q-60 -104 -173 -176.5t-247 -72.5
q-136 0 -247.5 71.5t-177.5 189.5t-66 257q0 140 65 258.5t176.5 190.5t250.5 72q133 0 245 -70.5t172 -173.5q61 102 173 172t246 70q127 0 233.5 -63t171 -169.5t64.5 -236.5zM592 869q-97 0 -174 -51.5t-122.5 -135.5t-45.5 -183q0 -98 45.5 -182.5t123 -135.5t172.5 -51
q96 0 173.5 52t123 136.5t45.5 181.5t-45.5 181t-122.5 136t-173 52zM1744 585q-9 78 -53 142t-112 102t-150 38q-85 0 -155 -39t-117 -103t-64 -141z" />
    <glyph glyph-name="Racute" unicode="&#x154;" horiz-adv-x="1224" 
d="M836 1978q28 0 49 -20.5t21 -49.5t-20 -49l-319 -316q-27 -24 -46 -23t-36 15q-18 15 -15.5 33t12.5 33t15 21l288 334q20 22 51 22zM1144 47q0 -29 -21.5 -50t-43.5 -21q-20 0 -37 9.5t-25 14.5q-88 63 -153.5 147t-110.5 181q-42 92 -88.5 145.5t-111.5 77t-165 24.5
l-116 1l1 -513v-2q0 -30 -22.5 -52.5t-52.5 -22.5q-31 0 -53 22.5t-22 53.5l-3 1250q0 32 22 53t52 22l266 1h23q169 0 298 -44t202 -135.5t73 -234.5q0 -100 -42 -175.5t-110 -126.5t-147 -76q45 -45 89 -130q58 -111 115 -200t151 -157q32 -23 32 -62zM488 1238h-218
l2 -527q5 1 13 1l205 2q184 2 301 62.5t117 202.5q0 98 -57 154.5t-152.5 80.5t-210.5 24z" />
    <glyph glyph-name="racute" unicode="&#x155;" horiz-adv-x="719" 
d="M536 1609q28 0 49 -20.5t21 -49.5t-20 -49l-319 -316q-27 -24 -46 -23t-36 15q-18 15 -15.5 33t12.5 33t15 21l288 334q20 22 51 22zM709 929q0 -27 -18 -50t-39 -23q-31 0 -58.5 14.5t-66.5 14.5q-98 0 -154 -42t-79.5 -107.5t-23.5 -138.5v-545q0 -31 -18.5 -53.5
t-56.5 -22.5q-37 0 -56 22.5t-19 53.5v887q0 37 24.5 60t52.5 23q29 0 47.5 -22.5t18.5 -60.5l9 -110q14 46 52.5 91t91 75.5t106.5 30.5q77 0 132 -20.5t55 -76.5z" />
    <glyph glyph-name="Rcaron" unicode="&#x158;" horiz-adv-x="1224" 
d="M1144 47q0 -29 -21.5 -50t-43.5 -21q-20 0 -37 9.5t-25 14.5q-88 63 -153.5 147t-110.5 181q-42 92 -88.5 145.5t-111.5 77t-165 24.5l-116 1l1 -513v-2q0 -30 -22.5 -52.5t-52.5 -22.5q-31 0 -53 22.5t-22 53.5l-3 1250q0 32 22 53t52 22l266 1h23q169 0 298 -44
t202 -135.5t73 -234.5q0 -100 -42 -175.5t-110 -126.5t-147 -76q45 -45 89 -130q58 -111 115 -200t151 -157q32 -23 32 -62zM488 1238h-218l2 -527q5 1 13 1l205 2q184 2 301 62.5t117 202.5q0 98 -57 154.5t-152.5 80.5t-210.5 24zM524 1464l-303 307q-21 19 -21 50
q0 29 20.5 49.5t49.5 20.5q31 0 51 -22l254 -258l268 256q20 20 49 20t49.5 -20.5t20.5 -49.5q0 -30 -23 -51l-317 -304q-19 -19 -49 -19t-49 21z" />
    <glyph glyph-name="rcaron" unicode="&#x159;" horiz-adv-x="719" 
d="M709 929q0 -27 -18 -50t-39 -23q-31 0 -58.5 14.5t-66.5 14.5q-98 0 -154 -42t-79.5 -107.5t-23.5 -138.5v-545q0 -31 -18.5 -53.5t-56.5 -22.5q-37 0 -56 22.5t-19 53.5v887q0 37 24.5 60t52.5 23q29 0 47.5 -22.5t18.5 -60.5l9 -110q14 46 52.5 91t91 75.5t106.5 30.5
q77 0 132 -20.5t55 -76.5zM324 1164l-303 307q-21 19 -21 50q0 29 20.5 49.5t49.5 20.5q31 0 51 -22l254 -258l268 256q20 20 49 20t49.5 -20.5t20.5 -49.5q0 -30 -23 -51l-317 -304q-19 -19 -49 -19t-49 21z" />
    <glyph glyph-name="Sacute" unicode="&#x15a;" horiz-adv-x="1323" 
d="M1141 1978q28 0 49 -20.5t21 -49.5t-20 -49l-319 -316q-27 -24 -46 -23t-36 15q-18 15 -15.5 33t12.5 33t15 21l288 334q20 22 51 22zM670 1381q164 0 292 -78t186 -206q7 -14 7 -30q0 -29 -21 -50t-50 -21q-19 0 -38.5 12.5t-27.5 30.5q-41 92 -134.5 145.5t-213.5 53.5
q-64 0 -132.5 -15.5t-127 -46.5t-94.5 -78.5t-36 -110.5q0 -73 48 -118.5t122.5 -71t156 -39t148.5 -22.5q80 -11 159.5 -33.5t144.5 -63t104.5 -104.5t39.5 -157q0 -102 -49 -177.5t-128.5 -125t-173 -74t-182.5 -24.5q-185 0 -333 84t-211 229q-6 16 -6 29q0 29 21 50
t50 21q20 0 39.5 -13t26.5 -31q47 -107 157.5 -168t255.5 -61q64 0 132.5 15.5t127.5 47t95.5 81t36.5 117.5q0 80 -51.5 123.5t-126.5 64t-148 29.5q-98 14 -202.5 35t-194.5 61t-146 111.5t-56 185.5q0 96 48 169.5t126.5 123t172.5 75t186 25.5z" />
    <glyph glyph-name="sacute" unicode="&#x15b;" horiz-adv-x="1167" 
d="M947 1610q28 0 49 -20.5t21 -49.5t-20 -49l-319 -316q-27 -24 -46 -23t-36 15q-18 15 -15.5 33t12.5 33t15 21l288 334q20 22 51 22zM594 1030q134 0 244.5 -58t163.5 -158q9 -16 9 -35q0 -30 -21.5 -51t-51.5 -21q-18 0 -37 11.5t-27 27.5q-36 68 -109.5 103.5
t-171.5 35.5q-62 0 -135 -16.5t-125.5 -54t-52.5 -100.5q0 -49 42 -76t104.5 -39.5t127 -17.5t110.5 -10q91 -9 179 -33t146 -79t58 -159q0 -112 -66 -183.5t-169 -105t-214 -33.5q-156 0 -283 60.5t-187 177.5q-8 14 -8 34q0 30 21 51t51 21q19 0 38 -11.5t27 -28.5
q43 -82 132 -120.5t209 -38.5q69 0 139.5 16.5t118 55.5t47.5 105q0 52 -43 79.5t-108 39.5t-131.5 16t-114.5 10q-85 10 -170.5 34.5t-142.5 79.5t-57 155q0 84 41.5 143.5t109 98t148.5 56.5t159 18z" />
    <glyph glyph-name="Scircumflex" unicode="&#x15c;" horiz-adv-x="1323" 
d="M578 1948q19 21 49 21t49 -19l317 -304q23 -21 23 -51q0 -29 -20.5 -49.5t-49.5 -20.5t-49 20l-268 256l-254 -258q-20 -22 -51 -22q-29 0 -49.5 20.5t-20.5 49.5q0 31 21 50zM670 1381q164 0 292 -78t186 -206q7 -14 7 -30q0 -29 -21 -50t-50 -21q-19 0 -38.5 12.5
t-27.5 30.5q-41 92 -134.5 145.5t-213.5 53.5q-64 0 -132.5 -15.5t-127 -46.5t-94.5 -78.5t-36 -110.5q0 -73 48 -118.5t122.5 -71t156 -39t148.5 -22.5q80 -11 159.5 -33.5t144.5 -63t104.5 -104.5t39.5 -157q0 -102 -49 -177.5t-128.5 -125t-173 -74t-182.5 -24.5
q-185 0 -333 84t-211 229q-6 16 -6 29q0 29 21 50t50 21q20 0 39.5 -13t26.5 -31q47 -107 157.5 -168t255.5 -61q64 0 132.5 15.5t127.5 47t95.5 81t36.5 117.5q0 80 -51.5 123.5t-126.5 64t-148 29.5q-98 14 -202.5 35t-194.5 61t-146 111.5t-56 185.5q0 96 48 169.5
t126.5 123t172.5 75t186 25.5z" />
    <glyph glyph-name="scircumflex" unicode="&#x15d;" horiz-adv-x="1167" 
d="M537 1579q19 21 49 21t49 -19l317 -304q23 -21 23 -51q0 -29 -20.5 -49.5t-49.5 -20.5t-49 20l-268 256l-254 -258q-20 -22 -51 -22q-29 0 -49.5 20.5t-20.5 49.5q0 31 21 50zM594 1030q134 0 244.5 -58t163.5 -158q9 -16 9 -35q0 -30 -21.5 -51t-51.5 -21
q-18 0 -37 11.5t-27 27.5q-36 68 -109.5 103.5t-171.5 35.5q-62 0 -135 -16.5t-125.5 -54t-52.5 -100.5q0 -49 42 -76t104.5 -39.5t127 -17.5t110.5 -10q91 -9 179 -33t146 -79t58 -159q0 -112 -66 -183.5t-169 -105t-214 -33.5q-156 0 -283 60.5t-187 177.5q-8 14 -8 34
q0 30 21 51t51 21q19 0 38 -11.5t27 -28.5q43 -82 132 -120.5t209 -38.5q69 0 139.5 16.5t118 55.5t47.5 105q0 52 -43 79.5t-108 39.5t-131.5 16t-114.5 10q-85 10 -170.5 34.5t-142.5 79.5t-57 155q0 84 41.5 143.5t109 98t148.5 56.5t159 18z" />
    <glyph glyph-name="Scedilla" unicode="&#x15e;" horiz-adv-x="1323" 
d="M1011 -496q0 75 -56 123t-131 48q-67 0 -118 -39q-21 -15 -44 -15q-31 0 -53 22t-22 53q0 24 12 41l162 247q22 35 63 35q31 0 53 -22t22 -53q0 -23 -12 -42l-51 -77q96 -3 170 -51t113 -115q42 -72 42 -155q0 -78 -34 -140.5t-88.5 -104.5t-116.5 -61q-56 -17 -110 -17
q-96 0 -165.5 37.5t-118.5 93.5q-19 23 -19 49q0 31 22 53t53 22q36 0 58 -27q29 -34 70.5 -56t99.5 -22q80 0 139.5 48.5t59.5 124.5zM670 1381q164 0 292 -78t186 -206q7 -14 7 -30q0 -29 -21 -50t-50 -21q-19 0 -38.5 12.5t-27.5 30.5q-41 92 -134.5 145.5t-213.5 53.5
q-64 0 -132.5 -15.5t-127 -46.5t-94.5 -78.5t-36 -110.5q0 -73 48 -118.5t122.5 -71t156 -39t148.5 -22.5q80 -11 159.5 -33.5t144.5 -63t104.5 -104.5t39.5 -157q0 -102 -49 -177.5t-128.5 -125t-173 -74t-182.5 -24.5q-185 0 -333 84t-211 229q-6 16 -6 29q0 29 21 50
t50 21q20 0 39.5 -13t26.5 -31q47 -107 157.5 -168t255.5 -61q64 0 132.5 15.5t127.5 47t95.5 81t36.5 117.5q0 80 -51.5 123.5t-126.5 64t-148 29.5q-98 14 -202.5 35t-194.5 61t-146 111.5t-56 185.5q0 96 48 169.5t126.5 123t172.5 75t186 25.5z" />
    <glyph glyph-name="scedilla" unicode="&#x15f;" horiz-adv-x="1167" 
d="M816 -509q0 75 -56 123t-131 48q-67 0 -118 -39q-21 -15 -44 -15q-31 0 -53 22t-22 53q0 24 12 41l162 247q22 35 63 35q31 0 53 -22t22 -53q0 -23 -12 -42l-51 -77q96 -3 170 -51t113 -115q42 -72 42 -155q0 -78 -34 -140.5t-88.5 -104.5t-116.5 -61q-56 -17 -110 -17
q-96 0 -165.5 37.5t-118.5 93.5q-19 23 -19 49q0 31 22 53t53 22q36 0 58 -27q29 -34 70.5 -56t99.5 -22q80 0 139.5 48.5t59.5 124.5zM594 1030q134 0 244.5 -58t163.5 -158q9 -16 9 -35q0 -30 -21.5 -51t-51.5 -21q-18 0 -37 11.5t-27 27.5q-36 68 -109.5 103.5
t-171.5 35.5q-62 0 -135 -16.5t-125.5 -54t-52.5 -100.5q0 -49 42 -76t104.5 -39.5t127 -17.5t110.5 -10q91 -9 179 -33t146 -79t58 -159q0 -112 -66 -183.5t-169 -105t-214 -33.5q-156 0 -283 60.5t-187 177.5q-8 14 -8 34q0 30 21 51t51 21q19 0 38 -11.5t27 -28.5
q43 -82 132 -120.5t209 -38.5q69 0 139.5 16.5t118 55.5t47.5 105q0 52 -43 79.5t-108 39.5t-131.5 16t-114.5 10q-85 10 -170.5 34.5t-142.5 79.5t-57 155q0 84 41.5 143.5t109 98t148.5 56.5t159 18z" />
    <glyph glyph-name="Scaron" unicode="&#x160;" horiz-adv-x="1323" 
d="M670 1381q164 0 292 -78t186 -206q7 -14 7 -30q0 -29 -21 -50t-50 -21q-19 0 -38.5 12.5t-27.5 30.5q-41 92 -134.5 145.5t-213.5 53.5q-64 0 -132.5 -15.5t-127 -46.5t-94.5 -78.5t-36 -110.5q0 -73 48 -118.5t122.5 -71t156 -39t148.5 -22.5q80 -11 159.5 -33.5
t144.5 -63t104.5 -104.5t39.5 -157q0 -102 -49 -177.5t-128.5 -125t-173 -74t-182.5 -24.5q-185 0 -333 84t-211 229q-6 16 -6 29q0 29 21 50t50 21q20 0 39.5 -13t26.5 -31q47 -107 157.5 -168t255.5 -61q64 0 132.5 15.5t127.5 47t95.5 81t36.5 117.5q0 80 -51.5 123.5
t-126.5 64t-148 29.5q-98 14 -202.5 35t-194.5 61t-146 111.5t-56 185.5q0 96 48 169.5t126.5 123t172.5 75t186 25.5zM624 1464l-303 307q-21 19 -21 50q0 29 20.5 49.5t49.5 20.5q31 0 51 -22l254 -258l268 256q20 20 49 20t49.5 -20.5t20.5 -49.5q0 -30 -23 -51
l-317 -304q-19 -19 -49 -19t-49 21z" />
    <glyph glyph-name="scaron" unicode="&#x161;" horiz-adv-x="1167" 
d="M594 1030q134 0 244.5 -58t163.5 -158q9 -16 9 -35q0 -30 -21.5 -51t-51.5 -21q-18 0 -37 11.5t-27 27.5q-36 68 -109.5 103.5t-171.5 35.5q-62 0 -135 -16.5t-125.5 -54t-52.5 -100.5q0 -49 42 -76t104.5 -39.5t127 -17.5t110.5 -10q91 -9 179 -33t146 -79t58 -159
q0 -112 -66 -183.5t-169 -105t-214 -33.5q-156 0 -283 60.5t-187 177.5q-8 14 -8 34q0 30 21 51t51 21q19 0 38 -11.5t27 -28.5q43 -82 132 -120.5t209 -38.5q69 0 139.5 16.5t118 55.5t47.5 105q0 52 -43 79.5t-108 39.5t-131.5 16t-114.5 10q-85 10 -170.5 34.5
t-142.5 79.5t-57 155q0 84 41.5 143.5t109 98t148.5 56.5t159 18zM524 1164l-303 307q-21 19 -21 50q0 29 20.5 49.5t49.5 20.5q31 0 51 -22l254 -258l268 256q20 20 49 20t49.5 -20.5t20.5 -49.5q0 -30 -23 -51l-317 -304q-19 -19 -49 -19t-49 21z" />
    <glyph glyph-name="Utilde" unicode="&#x168;" horiz-adv-x="1366" 
d="M899 1606q0 7 -1.5 12.5t-1.5 12.5q0 29 20.5 49.5t49.5 20.5q38 0 55.5 -28.5t17.5 -69.5q0 -59 -30 -108t-79 -78.5t-108 -29.5q-65 0 -110 26t-81 60.5t-75 59.5q-33 22 -60 22q-34 0 -57 -23.5t-23 -56.5q0 -4 0.5 -7.5t0.5 -7.5q0 -29 -20.5 -49.5t-49.5 -20.5
q-34 0 -52.5 25t-18.5 62q0 59 29.5 108.5t79.5 79.5t109 30q66 0 111.5 -26.5t82 -61t75.5 -59.5q15 -10 28 -15.5t29 -5.5q33 0 56 23t23 56zM120 1302q0 29 21.5 52t48.5 23q79 0 80 -75l7 -679q1 -149 41 -262t126.5 -176t226.5 -63q155 0 248 63t135 173t42 250l-2 695
v1q0 31 21.5 53t52.5 22t53.5 -22t22.5 -53v-1l2 -694q0 -298 -141.5 -467t-429.5 -169q-184 0 -305 82.5t-181 229t-62 337.5l-7 679v1z" />
    <glyph glyph-name="utilde" unicode="&#x169;" 
d="M796 1319q0 7 -1.5 12.5t-1.5 12.5q0 29 20.5 49.5t49.5 20.5q38 0 55.5 -28.5t17.5 -69.5q0 -59 -30 -108t-79 -78.5t-108 -29.5q-65 0 -110 26t-81 60.5t-75 59.5q-33 22 -60 22q-34 0 -57 -23.5t-23 -56.5q0 -4 0.5 -7.5t0.5 -7.5q0 -29 -20.5 -49.5t-49.5 -20.5
q-34 0 -52.5 25t-18.5 62q0 59 29.5 108.5t79.5 79.5t109 30q66 0 111.5 -26.5t82 -61t75.5 -59.5q15 -10 28 -15.5t29 -5.5q33 0 56 23t23 56zM892 -26q-31 0 -50.5 22t-19.5 53l-5 119q-36 -44 -83.5 -88t-109 -73.5t-137.5 -29.5q-133 0 -213.5 68t-117 178.5
t-36.5 238.5l1 485q0 31 22 53t53 22t53 -22.5t22 -53.5l-1 -484q0 -89 18 -165t65 -123t134 -47q163 0 246 87t83 245v490q0 31 22 53t53 22t53 -22.5t22 -53.5l1 -898q0 -32 -21.5 -54t-53.5 -22z" />
    <glyph glyph-name="Umacron" unicode="&#x16a;" horiz-adv-x="1366" 
d="M450 1563q0 19 16 45t32 26h425q20 0 38 -24t18 -47q0 -22 -18 -46t-38 -24h-417q-19 0 -37.5 24t-18.5 46zM120 1302q0 29 21.5 52t48.5 23q79 0 80 -75l7 -679q1 -149 41 -262t126.5 -176t226.5 -63q155 0 248 63t135 173t42 250l-2 695v1q0 31 21.5 53t52.5 22
t53.5 -22t22.5 -53v-1l2 -694q0 -298 -141.5 -467t-429.5 -169q-184 0 -305 82.5t-181 229t-62 337.5l-7 679v1z" />
    <glyph glyph-name="umacron" unicode="&#x16b;" 
d="M289 1217q0 19 16 45t32 26h425q20 0 38 -24t18 -47q0 -22 -18 -46t-38 -24h-417q-19 0 -37.5 24t-18.5 46zM892 -26q-31 0 -50.5 22t-19.5 53l-5 119q-36 -44 -83.5 -88t-109 -73.5t-137.5 -29.5q-133 0 -213.5 68t-117 178.5t-36.5 238.5l1 485q0 31 22 53t53 22
t53 -22.5t22 -53.5l-1 -484q0 -89 18 -165t65 -123t134 -47q163 0 246 87t83 245v490q0 31 22 53t53 22t53 -22.5t22 -53.5l1 -898q0 -32 -21.5 -54t-53.5 -22z" />
    <glyph glyph-name="Uring" unicode="&#x16e;" horiz-adv-x="1366" 
d="M714.617 1807.93q57.0625 0 104.398 -26.8535t76.1914 -70.9053q28.8555 -44.0527 28.8555 -97.1562q0 -53.1045 -29.1797 -96.5527q-29.1797 -43.4492 -76.8398 -69.3975q-47.6602 -25.9492 -104.723 -25.9492t-104.723 26.251q-47.6602 26.25 -76.1914 70.3018
q-28.5312 44.0527 -28.5312 96.5527q0 53.1045 28.5312 96.8545q28.5312 43.751 76.5156 70.3027t105.695 26.5518zM833.281 1613.62q0 44.6553 -35.6641 76.6387q-35.6641 31.9824 -83.6484 31.9824t-83.6484 -31.9824q-35.6641 -31.9834 -35.6641 -76.6387
q0 -44.6562 35.3398 -76.3379q35.3398 -31.6807 83.9727 -31.6807t83.9727 31.6807q35.3398 31.6816 35.3398 76.3379zM120 1302q0 29 21.5 52t48.5 23q79 0 80 -75l7 -679q1 -149 41 -262t126.5 -176t226.5 -63q155 0 248 63t135 173t42 250l-2 695v1q0 31 21.5 53t52.5 22
t53.5 -22t22.5 -53v-1l2 -694q0 -298 -141.5 -467t-429.5 -169q-184 0 -305 82.5t-181 229t-62 337.5l-7 679v1z" />
    <glyph glyph-name="uring" unicode="&#x16f;" 
d="M536.617 1518.93q57.0625 0 104.398 -26.8535t76.1914 -70.9053q28.8555 -44.0527 28.8555 -97.1562q0 -53.1045 -29.1797 -96.5527q-29.1797 -43.4492 -76.8398 -69.3975q-47.6602 -25.9492 -104.723 -25.9492t-104.723 26.251q-47.6602 26.25 -76.1914 70.3018
q-28.5312 44.0527 -28.5312 96.5527q0 53.1045 28.5312 96.8545q28.5312 43.751 76.5156 70.3027t105.695 26.5518zM655.281 1324.62q0 44.6553 -35.6641 76.6387q-35.6641 31.9824 -83.6484 31.9824t-83.6484 -31.9824q-35.6641 -31.9834 -35.6641 -76.6387
q0 -44.6562 35.3398 -76.3379q35.3398 -31.6807 83.9727 -31.6807t83.9727 31.6807q35.3398 31.6816 35.3398 76.3379zM892 -26q-31 0 -50.5 22t-19.5 53l-5 119q-36 -44 -83.5 -88t-109 -73.5t-137.5 -29.5q-133 0 -213.5 68t-117 178.5t-36.5 238.5l1 485q0 31 22 53
t53 22t53 -22.5t22 -53.5l-1 -484q0 -89 18 -165t65 -123t134 -47q163 0 246 87t83 245v490q0 31 22 53t53 22t53 -22.5t22 -53.5l1 -898q0 -32 -21.5 -54t-53.5 -22z" />
    <glyph glyph-name="Wcircumflex" unicode="&#x174;" horiz-adv-x="1850" 
d="M920 1951q19 21 49 21t49 -19l317 -304q23 -21 23 -51q0 -29 -20.5 -49.5t-49.5 -20.5t-49 20l-268 256l-254 -258q-20 -22 -51 -22q-29 0 -49.5 20.5t-20.5 49.5q0 31 21 50zM854 1334q7 21 27.5 36.5t43.5 15.5t44 -15t28 -37l328 -1039l329 1034q7 22 28 37.5t44 15.5
q31 0 53 -22t22 -53q0 -12 -4 -24l-400 -1256q-7 -22 -28 -37t-44 -15q-22 0 -43 15t-28 37l-329 1038l-328 -1038q-7 -22 -28 -37t-44 -15q-22 0 -43 15t-28 37l-400 1259q-4 12 -4 24q0 31 22 53t53 22q23 0 44 -16t28 -38l328 -1036z" />
    <glyph glyph-name="wcircumflex" unicode="&#x175;" horiz-adv-x="1530" 
d="M632 1562q19 21 49 21t49 -19l317 -304q23 -21 23 -51q0 -29 -20.5 -49.5t-49.5 -20.5t-49 20l-268 256l-254 -258q-20 -22 -51 -22q-29 0 -49.5 20.5t-20.5 49.5q0 31 21 50zM1481 952q0 -14 -5 -26l-320 -897q-7 -20 -28 -35t-43 -15t-42 15t-28 35l-249 698l-250 -705
q-7 -21 -28 -35.5t-43 -14.5t-42 15t-28 35l-320 897q-5 12 -5 26q0 31 22 53t53 22q23 0 43.5 -14.5t27.5 -35.5l249 -699l250 705q8 21 28 35t42 14t43 -14.5t28 -34.5l249 -699l250 699q8 21 28.5 36t42.5 15q31 0 53 -22.5t22 -52.5z" />
    <glyph glyph-name="Ycircumflex" unicode="&#x176;" horiz-adv-x="1129" 
d="M442 1857q19 21 49 21t49 -19l317 -304q23 -21 23 -51q0 -29 -20.5 -49.5t-49.5 -20.5t-49 20l-268 256l-254 -258q-20 -22 -51 -22q-29 0 -49.5 20.5t-20.5 49.5q0 31 21 50zM50 1306q0 30 24.5 50.5t56.5 20.5q37 0 58 -36l379 -606l371 598q6 11 24.5 23.5t32.5 12.5
q23 0 34.5 -3t27.5 -20q21 -22 21 -48q0 -25 -12 -45l-428 -688l-7 -509q0 -31 -22 -53t-53 -22t-53 22t-22 53v2l7 520l-427 683q-12 20 -12 45z" />
    <glyph glyph-name="ycircumflex" unicode="&#x177;" horiz-adv-x="1065" 
d="M461 1553q19 21 49 21t49 -19l317 -304q23 -21 23 -51q0 -29 -20.5 -49.5t-49.5 -20.5t-49 20l-268 256l-254 -258q-20 -22 -51 -22q-29 0 -49.5 20.5t-20.5 49.5q0 31 21 50zM125 1026q21 0 40.5 -13t27.5 -31l365 -789l312 784q8 20 28 34t42 14q39 0 61.5 -32.5
t7.5 -71.5l-441 -1106q-29 -72 -78 -147t-122 -126.5t-174 -51.5q-31 0 -53 22t-22 53q0 29 21 51.5t50 23.5q69 5 115 40.5t77.5 90t54 116t44.5 116.5l-424 915q-7 16 -7 33q0 31 22 53t53 22z" />
    <glyph glyph-name="Zacute" unicode="&#x179;" horiz-adv-x="1369" 
d="M125 1232q-31 0 -53 22.5t-22 53.5q0 29 24.5 53t43.5 24l1126 -2q30 0 52.5 -22t22.5 -52q0 -29 -17 -49l-1009 -1111l922 -5h1q33 0 54 -23t21 -57q0 -37 -30 -51t-47 -14q-1 0 -1 1l-1080 -1q-31 0 -53 21.5t-22 52.5q0 29 17 49l1009 1111l-958 -1h-1zM981 1926
q28 0 49 -20.5t21 -49.5t-20 -49l-319 -316q-27 -24 -46 -23t-36 15q-18 15 -15.5 33t12.5 33t15 21l288 334q20 22 51 22z" />
    <glyph glyph-name="zacute" unicode="&#x17a;" horiz-adv-x="971" 
d="M666 1559q28 0 49 -20.5t21 -49.5t-20 -49l-319 -316q-27 -24 -46 -23t-36 15q-18 15 -15.5 33t12.5 33t15 21l288 334q20 22 51 22zM132 -3q-30 0 -52.5 21.5t-22.5 51.5t20 52l591 734l-558 -5q-19 0 -39.5 24t-20.5 43q0 32 19 57.5t56 25.5l723 6q22 -3 44 -21.5
t22 -47.5q0 -34 -20 -56l-592 -735h558q22 0 41.5 -25t19.5 -50t-19.5 -50t-41.5 -25h-728z" />
    <glyph glyph-name="Zdotaccent" unicode="&#x17b;" horiz-adv-x="1369" 
d="M690 1519q-58 0 -101 41t-43 99t43 98.5t101 40.5q59 0 102 -40.5t43 -98.5t-43 -99t-102 -41zM125 1232q-31 0 -53 22.5t-22 53.5q0 29 24.5 53t43.5 24l1126 -2q30 0 52.5 -22t22.5 -52q0 -29 -17 -49l-1009 -1111l922 -5h1q33 0 54 -23t21 -57q0 -37 -30 -51t-47 -14
q-1 0 -1 1l-1080 -1q-31 0 -53 21.5t-22 52.5q0 29 17 49l1009 1111l-958 -1h-1z" />
    <glyph glyph-name="zdotaccent" unicode="&#x17c;" horiz-adv-x="971" 
d="M538 1108q-58 0 -101 41t-43 99t43 98.5t101 40.5q59 0 102 -40.5t43 -98.5t-43 -99t-102 -41zM132 -3q-30 0 -52.5 21.5t-22.5 51.5t20 52l591 734l-558 -5q-19 0 -39.5 24t-20.5 43q0 32 19 57.5t56 25.5l723 6q22 -3 44 -21.5t22 -47.5q0 -34 -20 -56l-592 -735h558
q22 0 41.5 -25t19.5 -50t-19.5 -50t-41.5 -25h-728z" />
    <glyph glyph-name="Zcaron" unicode="&#x17d;" horiz-adv-x="1369" 
d="M125 1232q-31 0 -53 22.5t-22 53.5q0 29 24.5 53t43.5 24l1126 -2q30 0 52.5 -22t22.5 -52q0 -29 -17 -49l-1009 -1111l922 -5h1q33 0 54 -23t21 -57q0 -37 -30 -51t-47 -14q-1 0 -1 1l-1080 -1q-31 0 -53 21.5t-22 52.5q0 29 17 49l1009 1111l-958 -1h-1zM624 1464
l-303 307q-21 19 -21 50q0 29 20.5 49.5t49.5 20.5q31 0 51 -22l254 -258l268 256q20 20 49 20t49.5 -20.5t20.5 -49.5q0 -30 -23 -51l-317 -304q-19 -19 -49 -19t-49 21z" />
    <glyph glyph-name="zcaron" unicode="&#x17e;" horiz-adv-x="971" 
d="M132 -3q-30 0 -52.5 21.5t-22.5 51.5t20 52l591 734l-558 -5q-19 0 -39.5 24t-20.5 43q0 32 19 57.5t56 25.5l723 6q22 -3 44 -21.5t22 -47.5q0 -34 -20 -56l-592 -735h558q22 0 41.5 -25t19.5 -50t-19.5 -50t-41.5 -25h-728zM424 1164l-303 307q-21 19 -21 50
q0 29 20.5 49.5t49.5 20.5q31 0 51 -22l254 -258l268 256q20 20 49 20t49.5 -20.5t20.5 -49.5q0 -30 -23 -51l-317 -304q-19 -19 -49 -19t-49 21z" />
    <glyph glyph-name="ocaron" unicode="&#x1d2;" horiz-adv-x="1200" 
d="M599 1026q105 0 196 -42t159.5 -115.5t107 -167.5t38.5 -199q0 -139 -66 -258t-178.5 -192.5t-252.5 -74.5q-142 0 -256 73t-180.5 192.5t-66.5 259.5q0 104 38.5 198.5t106.5 168t158.5 115.5t195.5 42zM599 876q-98 0 -177 -52t-125.5 -136.5t-46.5 -183.5
q0 -100 46 -186t126 -138.5t180 -52.5q99 1 177.5 53.5t124.5 137.5t46 184t-46.5 184.5t-126 137.5t-178.5 52zM536 1164l-303 307q-21 19 -21 50q0 29 20.5 49.5t49.5 20.5q31 0 51 -22l254 -258l268 256q20 20 49 20t49.5 -20.5t20.5 -49.5q0 -30 -23 -51l-317 -304
q-19 -19 -49 -19t-49 21z" />
    <glyph glyph-name="Ucaron" unicode="&#x1d3;" horiz-adv-x="1366" 
d="M120 1302q0 29 21.5 52t48.5 23q79 0 80 -75l7 -679q1 -149 41 -262t126.5 -176t226.5 -63q155 0 248 63t135 173t42 250l-2 695v1q0 31 21.5 53t52.5 22t53.5 -22t22.5 -53v-1l2 -694q0 -298 -141.5 -467t-429.5 -169q-184 0 -305 82.5t-181 229t-62 337.5l-7 679v1z
M624 1466l-303 307q-21 19 -21 50q0 29 20.5 49.5t49.5 20.5q31 0 51 -22l254 -258l268 256q20 20 49 20t49.5 -20.5t20.5 -49.5q0 -30 -23 -51l-317 -304q-19 -19 -49 -19t-49 21z" />
    <glyph glyph-name="ucaron" unicode="&#x1d4;" 
d="M892 -26q-31 0 -50.5 22t-19.5 53l-5 119q-36 -44 -83.5 -88t-109 -73.5t-137.5 -29.5q-133 0 -213.5 68t-117 178.5t-36.5 238.5l1 485q0 31 22 53t53 22t53 -22.5t22 -53.5l-1 -484q0 -89 18 -165t65 -123t134 -47q163 0 246 87t83 245v490q0 31 22 53t53 22t53 -22.5
t22 -53.5l1 -898q0 -32 -21.5 -54t-53.5 -22zM524 1164l-303 307q-21 19 -21 50q0 29 20.5 49.5t49.5 20.5q31 0 51 -22l254 -258l268 256q20 20 49 20t49.5 -20.5t20.5 -49.5q0 -30 -23 -51l-317 -304q-19 -19 -49 -19t-49 21z" />
    <glyph glyph-name="AEacute" unicode="&#x1fc;" horiz-adv-x="2028" 
d="M1028 1978q28 0 49 -20.5t21 -49.5t-20 -49l-319 -316q-27 -24 -46 -23t-36 15q-18 15 -15.5 33t12.5 33t15 21l288 334q20 22 51 22zM675 1385l1177 -2q32 1 54 -21t22 -54q0 -31 -22 -53.5t-54 -21.5l-862 1l1 -484q2 0 5 0.5t5 0.5l769 -5q32 0 53.5 -22t21.5 -54
q0 -31 -22 -53t-54 -21l-769 5h-8l1 -465l859 1q32 1 54 -21t22 -54q0 -31 -22 -53.5t-54 -21.5l-934 -1q-31 0 -53 22t-22 53l-1 399l-452 7l-196 -449q-12 -29 -41 -41t-58 1q-28 13 -39.5 42.5t1.5 57.5l549 1262q20 45 69 45zM455 617l387 -7l-2 625h-116z" />
    <glyph glyph-name="aeacute" unicode="&#x1fd;" horiz-adv-x="2040" 
d="M1420 1603q28 0 49 -20.5t21 -49.5t-20 -49l-319 -316q-27 -24 -46 -23t-36 15q-18 15 -15.5 33t12.5 33t15 21l288 334q20 22 51 22zM614 1021q118 0 212 -42.5t166 -118.5v88q0 31 22 53t53 22t53 -22t22 -53v-59q66 61 149 95.5t179 34.5q128 0 235 -63t171 -169
t64 -237q0 -11 -0.5 -22.5t-1.5 -22.5q-3 -28 -24.5 -48t-50.5 -20l-722 -1v-26q20 -76 69.5 -140t122 -103t161.5 -39q79 0 155 35t125 96q22 29 59 29q31 0 53 -22t22 -53q0 -29 -17 -49q-72 -88 -177 -137t-218 -49q-109 0 -197.5 39t-158.5 106v-72q0 -31 -22 -53
t-53 -22t-53 22t-22 53v89q-70 -73 -168.5 -116t-204.5 -43t-199.5 41t-165 113t-112 166t-40.5 200q0 104 39.5 197.5t109.5 166t163.5 114.5t201.5 42zM981 449l-1 108q-13 86 -62.5 157t-125.5 114t-171 43q-104 0 -187.5 -51.5t-132.5 -135.5t-49 -184t49.5 -183.5
t133 -133.5t183.5 -50q93 0 171 43t129 115t63 158zM1787 587q-9 78 -52.5 142t-111 102t-150.5 38q-82 0 -150 -36t-115.5 -96t-66.5 -132v-19z" />
    <glyph glyph-name="caron" unicode="&#x2c7;" horiz-adv-x="762" 
d="M324 1164l-303 307q-21 19 -21 50q0 29 20.5 49.5t49.5 20.5q31 0 51 -22l254 -258l268 256q20 20 49 20t49.5 -20.5t20.5 -49.5q0 -30 -23 -51l-317 -304q-19 -19 -49 -19t-49 21z" />
    <glyph glyph-name="anuswaraabove" unicode="&#xd00;" horiz-adv-x="0" 
d="M179 1728q88 0 161 -44.5t117.5 -117.5t44.5 -161t-45 -160t-118.5 -115t-161.5 -43t-161.5 43.5t-117.5 116.5t-44 160q0 88 44 160.5t118 116.5t163 44zM362 1406q0 74 -55 127t-129 53t-129 -53t-55 -127t54.5 -126.5t129.5 -52.5t129.5 52.5t54.5 126.5z" />
    <glyph glyph-name="mlchandrabindu" unicode="&#xd01;" horiz-adv-x="131" 
d="M18.3564 1214.12q-35.0049 0 -59.6807 25.6973q-24.6758 25.6963 -24.6758 61.6104q0 35.9131 24.6758 61.3008t59.6807 25.3877t60.8281 -25.3877t25.8232 -61.3008q0 -35.9141 -25.8232 -61.6104q-25.8232 -25.6973 -60.8281 -25.6973zM188 1295q0 19 -3.5 33.5
t-3.5 36.5t22.5 41t45.5 19q46 0 63 -37t17 -84q0 -94 -42.5 -169t-116 -118t-166.5 -43t-165 45.5t-112.5 119t-40.5 156.5q0 49 15 91.5t66 42.5q23 0 45 -20t22 -41q0 -20 -3.5 -37t-3.5 -37q0 -77 53.5 -128t123.5 -51q78 0 131 54.5t53 125.5z" />
    <glyph glyph-name="anuswara" unicode="&#xd02;" horiz-adv-x="807" 
d="M405 618q88 0 161 -44.5t117.5 -117.5t44.5 -161t-45 -160t-118.5 -115t-161.5 -43t-161.5 43.5t-117.5 116.5t-44 160q0 88 44 160.5t118 116.5t163 44zM588 296q0 74 -55 127t-129 53t-129 -53t-55 -127t54.5 -126.5t129.5 -52.5t129.5 52.5t54.5 126.5z" />
    <glyph glyph-name="visarga" unicode="&#xd03;" horiz-adv-x="735" 
d="M341.442 481.492q68.54 0 125.397 -34.6709q56.8574 -34.6699 91.5176 -91.5459q34.6602 -56.875 34.6602 -125.437q0 -68.5625 -35.0498 -124.658q-35.0488 -56.0967 -92.2959 -89.5986t-125.787 -33.502q-68.541 0 -125.788 33.8916t-91.5166 90.7666
q-34.2705 56.876 -34.2705 124.658q0 68.5625 34.2705 125.048q34.2695 56.4863 91.9062 90.7666q57.6367 34.2812 126.956 34.2812zM483.976 230.617q0 57.6553 -42.8379 98.9482t-100.475 41.293q-57.6357 0 -100.474 -41.293t-42.8379 -98.9482
q0 -57.6543 42.4482 -98.5576t100.863 -40.9033t100.864 40.9033q42.4482 40.9033 42.4482 98.5576zM335.6 1022.91q67.9229 0 124.268 -34.2686q56.3457 -34.2686 90.6924 -90.4854q34.3477 -56.2158 34.3477 -123.982q0 -67.7676 -34.7334 -123.213
q-34.7334 -55.4463 -91.4639 -88.5596q-56.7314 -33.1133 -124.654 -33.1133t-124.653 33.499q-56.7314 33.498 -90.6934 89.7139q-33.9609 56.2158 -33.9609 123.213q0 67.7676 33.9609 123.598q33.9619 55.8311 91.0791 89.7148q57.1162 33.8838 125.812 33.8838z
M476.848 774.943q0 56.9863 -42.4512 97.8008q-42.4521 40.8145 -99.5684 40.8145q-57.1172 0 -99.5693 -40.8145t-42.4521 -97.8008q0 -56.9854 42.0664 -97.415q42.0654 -40.4287 99.9551 -40.4287q57.8887 0 99.9541 40.4287q42.0654 40.4297 42.0654 97.415z" />
    <glyph glyph-name="ml_a" unicode="&#xd05;" horiz-adv-x="2694" 
d="M929 -24q-119 0 -213 61.5t-148 166t-54 231.5q0 149 63.5 268.5t150.5 192.5q-9 1 -18 1h-18q-123 0 -226 -56t-165 -153.5t-62 -221.5q0 -126 71 -220.5t165 -135.5q17 -7 29.5 -26.5t12.5 -43.5q0 -22 -20 -44t-43 -22q-22 0 -36 6q-83 37 -156 106t-117.5 164
t-44.5 207q0 162 77.5 294t212 209.5t304.5 77.5q109 0 212 -42q98 36 198 36q159 0 267.5 -65t171.5 -173q58 104 165 171t261 67q126 0 239 -43t199.5 -122.5t136.5 -188t50 -240.5q0 -122 -50 -227.5t-142.5 -170t-220.5 -64.5q-105 0 -187.5 51.5t-130.5 137.5t-48 189
q0 107 49.5 197t134 145t189.5 55q92 0 159 -29q-59 71 -159.5 120.5t-213.5 49.5q-134 0 -212.5 -56.5t-112 -159.5t-33.5 -243v-386q0 -28 -20.5 -49t-49.5 -21q-28 0 -48.5 21t-21.5 49l-1 386q0 209 -85.5 333.5t-280.5 124.5h-20.5t-21.5 -1q50 -51 79.5 -111.5
t29.5 -122.5q0 -40 -13.5 -78.5t-42.5 -73.5q52 -36 85.5 -93.5t33.5 -131.5q0 -86 -43 -154.5t-113.5 -108.5t-153.5 -40zM901 842q-60 -30 -117.5 -89t-95 -138t-37.5 -171q0 -90 32.5 -164.5t94.5 -118.5t149 -44q73 0 122 50t49 105q0 71 -41 105.5t-107 35.5
q-31 1 -56 18t-25 57q0 29 19 47t48 19q42 3 70 31.5t28 74.5q0 58 -45.5 107.5t-87.5 74.5zM2439 361q0 111 -67.5 180t-177.5 69q-67 0 -121.5 -36.5t-86.5 -94.5t-32 -125q0 -61 36.5 -117t94 -91.5t119.5 -35.5q104 0 169.5 71t65.5 180z" />
    <glyph glyph-name="ml_aa" unicode="&#xd06;" horiz-adv-x="2919" 
d="M1542 785q57 102 166 171.5t265 69.5q138 0 252.5 -51.5t197 -136t124.5 -184.5q114 -66 193 -193.5t79 -285.5q0 -119 -44 -220t-121.5 -175.5t-177.5 -116t-212 -41.5q-126 0 -220.5 44t-165.5 111q-22 21 -22 51q0 29 20.5 49.5t49.5 20.5t49 -20q121 -115 282 -115
q110 0 206.5 52.5t156 142t59.5 199.5q0 159 -86 272v-14q0 -114 -52 -216.5t-145 -167t-215 -64.5q-95 0 -179.5 45.5t-136.5 123t-52 172.5q0 130 60 224.5t162.5 146t227.5 51.5q33 0 75 -5q-35 40 -91 76.5t-122 60.5t-135 24q-181 0 -278 -99.5t-97 -281.5v-463
q0 -28 -20 -48.5t-49 -20.5q-28 0 -49 20.5t-22 48.5l-1 390q0 205 -82.5 329.5t-278.5 124.5q-15 0 -28 -0.5t-24 -1.5q112 -111 112 -237q0 -86 -52 -151q117 -82 117 -227q0 -86 -43 -152.5t-112.5 -104t-149.5 -37.5q-117 0 -212.5 60.5t-152 163t-56.5 228.5
q0 155 62 271t146 188q-8 1 -16 1h-16q-131 0 -232.5 -58.5t-159 -160.5t-57.5 -232q0 -74 31.5 -140.5t81.5 -116.5t103 -77q39 -19 39 -69q0 -22 -20.5 -43t-43.5 -21q-21 0 -39 8q-76 39 -142.5 108t-107.5 161t-41 200q0 165 78.5 296.5t214.5 208.5t309 77
q101 0 196 -38q99 36 177 36q329 0 467 -241zM1099 267q0 60 -38.5 99t-98.5 39q-7 0 -16 -0.5t-20 -0.5q-20 0 -39 23t-19 45q0 23 16.5 45.5t35.5 24.5q44 5 79 29t35 76q0 61 -46.5 112t-92.5 77q-58 -29 -114.5 -87t-93.5 -135.5t-37 -166.5q0 -90 33 -165.5t94.5 -121
t146.5 -45.5q76 0 125.5 48t49.5 104zM2178 107q82 0 143.5 46.5t96.5 120.5t35 158q0 63 -19 123q-82 36 -135 36q-92 0 -171 -32.5t-127 -91t-48 -138.5q0 -101 61.5 -161.5t163.5 -60.5z" />
    <glyph glyph-name="ml_i" unicode="&#xd07;" horiz-adv-x="1974" 
d="M643 1028q131 0 230 -58.5t150 -137.5q53 88 142.5 143t210.5 55q140 0 251.5 -72.5t177 -191t65.5 -257.5q0 -180 -83 -297t-226.5 -171t-326.5 -47h-751q-57 -1 -113 -10t-93.5 -31t-37.5 -63q0 -46 31.5 -67.5t83 -28t110.5 -6.5l1339 -1q34 0 51 -22t17 -48
q0 -27 -17 -48.5t-52 -21.5l-1338 1q-104 0 -186.5 22t-130 76.5t-47.5 151.5q0 76 41.5 122t110.5 70t152 33t166 9l663 3q141 1 253.5 37t178 115t65.5 207q0 106 -44.5 196t-123 145t-180.5 55q-160 0 -222.5 -104.5t-62.5 -278.5v-277q-1 -34 -22.5 -51t-47.5 -17
q-25 0 -47 16.5t-23 50.5l-1 274q-1 185 -73 285.5t-254 100.5q-85 0 -164 -42t-126 -99q53 17 115 17q84 0 151.5 -44.5t107 -115.5t39.5 -151t-39.5 -150.5t-106 -114t-149.5 -43.5q-108 0 -185 53.5t-117.5 140t-40.5 185.5q0 144 71 257.5t191.5 179.5t266.5 66z
M441 289q72 0 123.5 51t51.5 123t-51.5 123.5t-123.5 51.5t-123 -51.5t-51 -123.5t51 -123t123 -51z" />
    <glyph glyph-name="ml_ii" unicode="&#xd08;" horiz-adv-x="3443" 
d="M2562 646q-1 95 -60 166.5t-159 71.5q-62 0 -111 -32.5t-77 -85t-28 -114.5q0 -51 27 -102q9 -16 9 -34q0 -28 -19.5 -49.5t-48.5 -21.5q-23 0 -39.5 11.5t-24.5 27.5q-44 81 -44 168q0 101 46.5 185.5t127 136t182.5 51.5q103 0 184 -51t110 -126q35 74 119.5 124.5
t190.5 50.5q113 0 202.5 -65t141.5 -167.5t52 -217.5q0 -138 -58.5 -248.5t-159 -188.5t-228.5 -119.5t-266 -41.5q-176 0 -329 69q-16 7 -29.5 24.5t-13.5 39.5q0 29 20.5 50t49.5 21q16 0 30 -7q126 -56 274 -56q109 0 211 31.5t183 91t128.5 144.5t47.5 192
q0 79 -33 148.5t-92 113t-137 43.5q-121 0 -179.5 -84.5t-60.5 -213.5q-4 -25 -25 -40t-45 -15q-30 0 -49.5 22.5t-19.5 50.5v46zM643 1028q131 0 230 -58.5t150 -137.5q53 88 142.5 143t210.5 55q140 0 251.5 -72.5t177 -191t65.5 -257.5q0 -180 -83 -297t-226.5 -171
t-326.5 -47h-751q-57 -1 -113 -10t-93.5 -31t-37.5 -63q0 -46 31.5 -67.5t83 -28t110.5 -6.5l1339 -1q34 0 51 -22t17 -48q0 -27 -17 -48.5t-52 -21.5l-1338 1q-104 0 -186.5 22t-130 76.5t-47.5 151.5q0 76 41.5 122t110.5 70t152 33t166 9l663 3q141 1 253.5 37t178 115
t65.5 207q0 106 -44.5 196t-123 145t-180.5 55q-160 0 -222.5 -104.5t-62.5 -278.5v-277q-1 -34 -22.5 -51t-47.5 -17q-25 0 -47 16.5t-23 50.5l-1 274q-1 185 -73 285.5t-254 100.5q-85 0 -164 -42t-126 -99q53 17 115 17q84 0 151.5 -44.5t107 -115.5t39.5 -151
t-39.5 -150.5t-106 -114t-149.5 -43.5q-108 0 -185 53.5t-117.5 140t-40.5 185.5q0 144 71 257.5t191.5 179.5t266.5 66zM441 289q72 0 123.5 51t51.5 123t-51.5 123.5t-123.5 51.5t-123 -51.5t-51 -123.5t51 -123t123 -51z" />
    <glyph glyph-name="ml_u" unicode="&#xd09;" horiz-adv-x="1329" 
d="M416 230q-94 0 -164 48.5t-108 126.5t-38 166q0 134 71.5 237t185 161t240.5 58q123 0 231.5 -42.5t191 -119t129.5 -179.5t47 -224q0 -155 -68.5 -258t-188.5 -154.5t-275 -51.5q-44 0 -88 1t-88 1q-63 0 -121 -8t-95.5 -28.5t-37.5 -59.5q0 -50 35 -72.5t94 -28.5
t129 -6l660 -1q29 0 50 -20.5t21 -49.5t-21 -49.5t-50 -20.5l-660 1q-183 1 -290.5 58.5t-107.5 184.5q0 81 50.5 134.5t126 80t150.5 26.5q59 0 120.5 -1.5t120.5 -1.5q173 0 284.5 77.5t111.5 250.5q0 121 -64.5 215t-168 148.5t-222.5 54.5q-61 0 -119.5 -17t-111.5 -55
q5 0 9.5 0.5t8.5 0.5q83 0 148 -41t103 -108.5t38 -146.5q0 -73 -37 -138.5t-98 -107t-134 -41.5zM394 368q68 0 117 49t49 117q0 64 -46.5 115t-107.5 51q-82 0 -130 -47.5t-48 -118.5q0 -68 49 -117t117 -49z" />
    <glyph glyph-name="ml_uu" unicode="&#xd0a;" horiz-adv-x="2788" 
d="M1907 646q-1 95 -60 166.5t-159 71.5q-62 0 -111 -32.5t-77 -85t-28 -114.5q0 -51 27 -102q9 -16 9 -34q0 -28 -19.5 -49.5t-48.5 -21.5q-23 0 -39.5 11.5t-24.5 27.5q-44 81 -44 168q0 101 46.5 185.5t127 136t182.5 51.5q103 0 184 -51t110 -126q35 74 119.5 124.5
t190.5 50.5q113 0 202.5 -65t141.5 -167.5t52 -217.5q0 -138 -58.5 -248.5t-159 -188.5t-228.5 -119.5t-266 -41.5q-176 0 -329 69q-16 7 -29.5 24.5t-13.5 39.5q0 29 20.5 50t49.5 21q16 0 30 -7q126 -56 274 -56q109 0 211 31.5t183 91t128.5 144.5t47.5 192
q0 79 -33 148.5t-92 113t-137 43.5q-121 0 -179.5 -84.5t-60.5 -213.5q-4 -25 -25 -40t-45 -15q-30 0 -49.5 22.5t-19.5 50.5v46zM416 230q-94 0 -164 48.5t-108 126.5t-38 166q0 134 71.5 237t185 161t240.5 58q123 0 231.5 -42.5t191 -119t129.5 -179.5t47 -224
q0 -155 -68.5 -258t-188.5 -154.5t-275 -51.5q-44 0 -88 1t-88 1q-63 0 -121 -8t-95.5 -28.5t-37.5 -59.5q0 -50 35 -72.5t94 -28.5t129 -6l660 -1q29 0 50 -20.5t21 -49.5t-21 -49.5t-50 -20.5l-660 1q-183 1 -290.5 58.5t-107.5 184.5q0 81 50.5 134.5t126 80t150.5 26.5
q59 0 120.5 -1.5t120.5 -1.5q173 0 284.5 77.5t111.5 250.5q0 121 -64.5 215t-168 148.5t-222.5 54.5q-61 0 -119.5 -17t-111.5 -55q5 0 9.5 0.5t8.5 0.5q83 0 148 -41t103 -108.5t38 -146.5q0 -73 -37 -138.5t-98 -107t-134 -41.5zM394 368q68 0 117 49t49 117
q0 64 -46.5 115t-107.5 51q-82 0 -130 -47.5t-48 -118.5q0 -68 49 -117t117 -49z" />
    <glyph glyph-name="ml_r" unicode="&#xd0b;" horiz-adv-x="1680" 
d="M1275 225q71 -25 133 -74t100 -117.5t38 -154.5q0 -94 -42.5 -165t-114 -119.5t-159.5 -73.5t-178 -26q-88 -1 -177 -1.5t-178 -1.5q-146 0 -273 42.5t-205 130t-78 223.5q0 80 36 146t94 114.5t123 74.5q-75 41 -142.5 105.5t-109.5 152.5t-42 197q0 87 39 166
t108 129.5t158 50.5q79 0 143 -37t101.5 -99t37.5 -138q0 -79 -38 -143t-102 -101.5t-143 -37.5q-53 0 -106 21q71 -110 208 -164.5t314 -54.5q379 0 540 199q-2 -1 -28.5 -6.5t-46.5 -5.5q-77 0 -141 41t-102 107.5t-38 141.5q0 72 36.5 135t99 102t139.5 39
q95 0 162.5 -50t103 -129.5t35.5 -168.5q0 -110 -43.5 -196.5t-113 -149.5t-148.5 -104zM405 610q59 0 100 41.5t41 100.5q0 56 -41.5 93.5t-95.5 37.5q-56 0 -102.5 -38.5t-46.5 -97.5q0 -58 45 -97.5t100 -39.5zM1146 742q0 -59 41.5 -101.5t102.5 -42.5q60 0 99.5 39.5
t44.5 94.5q-11 61 -52 105.5t-99 44.5q-61 0 -99 -42t-38 -98zM790 128q-136 0 -252 -17.5t-186.5 -69t-70.5 -153.5q0 -96 64.5 -152t167.5 -80t217 -24h289q99 0 187 26.5t143.5 82.5t55.5 145q0 97 -66.5 149.5t-175 72.5t-235.5 20h-138z" />
    <glyph glyph-name="ml_l" unicode="&#xd0c;" horiz-adv-x="2087" 
d="M1036 798q56 99 159 162.5t242 63.5q122 0 223 -47.5t174 -129.5t113 -187t40 -220q0 -118 -47 -223.5t-134.5 -171.5t-208.5 -66q-97 0 -174 44t-121.5 120.5t-44.5 172.5q0 100 48 178t129 123t180 45q112 0 211 -84q-26 83 -83 152t-134.5 111t-167.5 42
q-121 0 -194 -56t-106.5 -154.5t-34.5 -227.5l-3 -402q-1 -30 -20.5 -49t-56.5 -19q-24 0 -43 22t-20 47l2 401q0 126 -31.5 225t-102 155.5t-187.5 56.5q-101 0 -177.5 -43t-127.5 -112t-76 -148q99 84 212 84q101 0 181.5 -44.5t127.5 -123t47 -179.5q0 -94 -44.5 -169.5
t-119.5 -120t-167 -44.5q-122 0 -211.5 64t-138.5 168.5t-49 225.5q0 115 39.5 219.5t111.5 186.5t171.5 129.5t219.5 47.5q137 0 238 -63.5t156 -161.5zM498 123q79 0 135.5 54.5t56.5 139.5q0 56 -29 102t-75.5 74t-101.5 28q-83 0 -143.5 -59t-60.5 -144q0 -91 68 -143
t150 -52zM1808 314q0 86 -59 145.5t-145 59.5q-85 0 -146 -58.5t-61 -140.5q0 -87 57 -143t137 -56q82 0 149.5 51.5t67.5 141.5z" />
    <glyph glyph-name="ml_e" unicode="&#xd0e;" horiz-adv-x="2257" 
d="M464 563q-62 0 -113.5 -31t-81.5 -81.5t-30 -109.5q0 -76 45.5 -131.5t103.5 -76.5q19 -7 33 -26t14 -45q0 -22 -20 -43.5t-42 -21.5q-23 0 -32 4q-96 34 -168.5 124.5t-72.5 214.5q0 102 48.5 184.5t131 131t184.5 48.5q101 0 183 -50.5t130 -133.5t48 -179
q0 -49 -14.5 -99.5t-46.5 -99.5l244 -2l1 145q0 151 29 285.5t92 237.5t166 161.5t250 58.5q138 0 250.5 -57t193 -157.5t124 -230.5t43.5 -277q0 -226 -87 -409t-209 -305q-21 -21 -50 -21q-28 0 -49 21t-21 49q0 29 21 50q69 69 127.5 163.5t94 209t35.5 240.5
q0 153 -54 286.5t-157.5 215.5t-252.5 82q-157 0 -245.5 -82t-124.5 -219t-36 -303l-1 -146l380 -4l4 502q0 29 21 49.5t49 20.5q30 0 50 -18.5t20 -52.5l-5 -634q-1 -124 -33 -222t-101 -154.5t-180 -56.5q-117 0 -192 59.5t-112 158t-40 214.5l-431 4q-26 0 -48 20t-22 45
q0 52 39 68q53 23 95.5 76.5t42.5 126.5q0 94 -64.5 158.5t-156.5 64.5zM1149 -2q4 -76 23.5 -142.5t61.5 -107t113 -40.5q72 0 110.5 39.5t53.5 104.5t16 142z" />
    <glyph glyph-name="ml_ee" unicode="&#xd0f;" horiz-adv-x="2258" 
d="M427 67q0 -28 -20.5 -49.5t-49.5 -21.5q-13 0 -27 6q-91 36 -160.5 126.5t-69.5 211.5q0 104 48.5 186.5t132 131t187.5 48.5q101 0 183 -49.5t130.5 -134t48.5 -188.5q0 -103 -65 -198l275 -1v202q0 198 57.5 352t180.5 242.5t317 88.5q140 0 256 -59t185 -162.5
t69 -237.5q0 -70 -35 -141t-82 -116q74 -47 122 -130.5t48 -189.5q0 -96 -50.5 -178t-134 -132t-182.5 -50q-6 0 -12 0.5t-12 0.5q-32 1 -48 23t-16 47q0 26 16.5 48t50.5 22q105 0 176.5 60t71.5 169q0 89 -58.5 152t-138.5 74q-28 4 -43.5 24.5t-15.5 45.5q0 21 11.5 39.5
t34.5 26.5q64 22 110 81.5t46 137.5q0 95 -52.5 163t-135.5 104.5t-175 36.5q-153 0 -245.5 -68t-134 -190t-41.5 -284v-202l348 -1l4 502q0 32 22.5 51t49.5 19q31 0 50 -22.5t19 -55.5q0 -41 -1 -111t-1.5 -150.5t-0.5 -153.5q0 -63 1 -108.5t1 -99.5q0 -175 -71 -275
t-227 -100q-105 0 -178 49.5t-111.5 132.5t-43.5 183l-471 2q-33 0 -50.5 22t-17.5 49q0 20 10.5 38t32.5 26q53 20 98 73.5t45 131.5q0 95 -64 161.5t-158 66.5q-64 0 -115.5 -31.5t-81.5 -83t-30 -110.5q0 -75 43 -130.5t100 -77.5q17 -7 31 -24.5t14 -40.5zM1181 -5
q5 -94 53.5 -160.5t141.5 -66.5q80 0 117.5 55t37.5 140v31z" />
    <glyph glyph-name="ml_ai" unicode="&#xd10;" horiz-adv-x="3592" 
d="M100 432q0 131 49 239.5t133.5 187t191.5 121.5t223 43t223.5 -43.5t192 -123t133.5 -189t49 -242.5q0 -118 -44.5 -229.5t-130.5 -195.5q-21 -21 -50 -21t-49.5 20.5t-20.5 49.5q0 31 22 51q65 64 98.5 149.5t33.5 175.5q0 139 -66.5 241.5t-172 159.5t-224.5 57
q-127 0 -235 -69t-165 -177q41 26 92 42t102 16q92 0 174.5 -46t135 -127t52.5 -186q0 -93 -46.5 -173.5t-125.5 -130t-179 -49.5q-123 0 -212 67.5t-136.5 171t-47.5 210.5zM706 339q0 64 -31.5 111.5t-82 74.5t-107.5 27q-65 0 -115.5 -32t-78.5 -83.5t-28 -109.5
q0 -55 35 -101.5t87.5 -74t106.5 -27.5q94 0 154 62.5t60 152.5zM1799 563q-62 0 -113.5 -31t-81.5 -81.5t-30 -109.5q0 -76 45.5 -131.5t103.5 -76.5q19 -7 33 -26t14 -45q0 -22 -20 -43.5t-42 -21.5q-23 0 -32 4q-96 34 -168.5 124.5t-72.5 214.5q0 102 48.5 184.5
t131 131t184.5 48.5q101 0 183 -50.5t130 -133.5t48 -179q0 -49 -14.5 -99.5t-46.5 -99.5l244 -2l1 145q0 151 29 285.5t92 237.5t166 161.5t250 58.5q138 0 250.5 -57t193 -157.5t124 -230.5t43.5 -277q0 -226 -87 -409t-209 -305q-21 -21 -50 -21q-28 0 -49 21t-21 49
q0 29 21 50q69 69 127.5 163.5t94 209t35.5 240.5q0 153 -54 286.5t-157.5 215.5t-252.5 82q-157 0 -245.5 -82t-124.5 -219t-36 -303l-1 -146l380 -4l4 502q0 29 21 49.5t49 20.5q30 0 50 -18.5t20 -52.5l-5 -634q-1 -124 -33 -222t-101 -154.5t-180 -56.5
q-117 0 -192 59.5t-112 158t-40 214.5l-431 4q-26 0 -48 20t-22 45q0 52 39 68q53 23 95.5 76.5t42.5 126.5q0 94 -64.5 158.5t-156.5 64.5zM2484 -2q4 -76 23.5 -142.5t61.5 -107t113 -40.5q72 0 110.5 39.5t53.5 104.5t16 142z" />
    <glyph glyph-name="ml_n" unicode="&#xd12;" horiz-adv-x="1366" 
d="M783 290q0 -80 -39.5 -153t-110.5 -118.5t-167 -45.5q-114 0 -196 69t-126 177t-44 224q0 149 52.5 260.5t143.5 186.5t206 112.5t240 37.5q118 0 217.5 -39t160 -114.5t60.5 -186.5q0 -38 -14 -79.5t-36 -72t-47 -37.5q45 -12 87 -50t69 -92t27 -114q0 -77 -38 -141.5
t-103.5 -103.5t-148.5 -39q-33 0 -70 8t-63 27t-26 53q0 29 20.5 49.5t49.5 20.5q23 0 45 -9.5t43 -9.5q61 0 106 45.5t45 101.5q0 72 -48.5 110.5t-107.5 38.5q-41 0 -69.5 11t-28.5 57q0 22 15.5 38t37.5 20q59 11 87 61.5t28 104.5q0 67 -42 111.5t-109 67.5t-143 23
q-85 0 -173.5 -27t-163.5 -81t-121 -136t-46 -192q38 78 96 113.5t124 35.5q82 0 155 -40.5t119.5 -113t46.5 -169.5zM640 298q0 75 -55 125t-126 50q-80 0 -130.5 -58.5t-50.5 -129.5q0 -50 31 -88.5t76 -60t86 -21.5q81 0 125 57.5t44 125.5z" />
    <glyph glyph-name="ml_oo" unicode="&#xd13;" horiz-adv-x="2245" 
d="M1705 116q93 0 160.5 56t104 144t36.5 183q0 98 -35.5 185t-102.5 142t-162 55q-55 0 -101.5 -31.5t-76 -80.5t-34.5 -102q-2 -26 -22 -45t-49 -19q-22 0 -45.5 18.5t-23.5 38.5q0 102 51.5 183.5t135 129.5t178.5 48q134 0 229.5 -75.5t146.5 -194.5t51 -251
q0 -137 -55.5 -256.5t-154.5 -193.5t-230 -74q-98 0 -180 48.5t-131.5 130.5t-49.5 182q0 19 22 38t42 19q34 0 54.5 -19t21.5 -47q6 -85 68 -148.5t152 -63.5zM783 290q0 -80 -39.5 -153t-110.5 -118.5t-167 -45.5q-114 0 -196 69t-126 177t-44 224q0 149 52.5 260.5
t143.5 186.5t206 112.5t240 37.5q118 0 217.5 -39t160 -114.5t60.5 -186.5q0 -38 -14 -79.5t-36 -72t-47 -37.5q45 -12 87 -50t69 -92t27 -114q0 -77 -38 -141.5t-103.5 -103.5t-148.5 -39q-33 0 -70 8t-63 27t-26 53q0 29 20.5 49.5t49.5 20.5q23 0 45 -9.5t43 -9.5
q61 0 106 45.5t45 101.5q0 72 -48.5 110.5t-107.5 38.5q-41 0 -69.5 11t-28.5 57q0 22 15.5 38t37.5 20q59 11 87 61.5t28 104.5q0 67 -42 111.5t-109 67.5t-143 23q-85 0 -173.5 -27t-163.5 -81t-121 -136t-46 -192q38 78 96 113.5t124 35.5q82 0 155 -40.5t119.5 -113
t46.5 -169.5zM640 298q0 75 -55 125t-126 50q-80 0 -130.5 -58.5t-50.5 -129.5q0 -50 31 -88.5t76 -60t86 -21.5q81 0 125 57.5t44 125.5z" />
    <glyph glyph-name="ml_au" unicode="&#xd14;" horiz-adv-x="2754" 
d="M1873 646q-1 95 -60 166.5t-159 71.5q-62 0 -111 -32.5t-77 -85t-28 -114.5q0 -51 27 -102q9 -16 9 -34q0 -28 -19.5 -49.5t-48.5 -21.5q-23 0 -39.5 11.5t-24.5 27.5q-44 81 -44 168q0 101 46.5 185.5t127 136t182.5 51.5q103 0 184 -51t110 -126q35 74 119.5 124.5
t190.5 50.5q113 0 202.5 -65t141.5 -167.5t52 -217.5q0 -138 -58.5 -248.5t-159 -188.5t-228.5 -119.5t-266 -41.5q-176 0 -329 69q-16 7 -29.5 24.5t-13.5 39.5q0 29 20.5 50t49.5 21q16 0 30 -7q126 -56 274 -56q109 0 211 31.5t183 91t128.5 144.5t47.5 192
q0 79 -33 148.5t-92 113t-137 43.5q-121 0 -179.5 -84.5t-60.5 -213.5q-4 -25 -25 -40t-45 -15q-30 0 -49.5 22.5t-19.5 50.5v46zM783 290q0 -80 -39.5 -153t-110.5 -118.5t-167 -45.5q-114 0 -196 69t-126 177t-44 224q0 149 52.5 260.5t143.5 186.5t206 112.5t240 37.5
q118 0 217.5 -39t160 -114.5t60.5 -186.5q0 -38 -14 -79.5t-36 -72t-47 -37.5q45 -12 87 -50t69 -92t27 -114q0 -77 -38 -141.5t-103.5 -103.5t-148.5 -39q-33 0 -70 8t-63 27t-26 53q0 29 20.5 49.5t49.5 20.5q23 0 45 -9.5t43 -9.5q61 0 106 45.5t45 101.5
q0 72 -48.5 110.5t-107.5 38.5q-41 0 -69.5 11t-28.5 57q0 22 15.5 38t37.5 20q59 11 87 61.5t28 104.5q0 67 -42 111.5t-109 67.5t-143 23q-85 0 -173.5 -27t-163.5 -81t-121 -136t-46 -192q38 78 96 113.5t124 35.5q82 0 155 -40.5t119.5 -113t46.5 -169.5zM640 298
q0 75 -55 125t-126 50q-80 0 -130.5 -58.5t-50.5 -129.5q0 -50 31 -88.5t76 -60t86 -21.5q81 0 125 57.5t44 125.5z" />
    <glyph glyph-name="k1" unicode="&#xd15;" horiz-adv-x="1896" 
d="M1467 -23q-40 0 -67 16.5t-27 55.5q0 41 28 54.5t68 13.5q74 0 131 55t57 132q0 99 -69 149t-171 56q0 -142 -48.5 -263.5t-144.5 -195.5t-238 -74q-101 0 -181 48t-126 106q-38 -61 -106 -105t-162 -44q-82 0 -153 40t-114.5 107t-43.5 147q0 130 64 210.5t172.5 119.5
t241.5 42q22 97 74.5 183t136.5 139.5t200 53.5t199.5 -53t136.5 -138t75 -182q107 -2 197 -42t144.5 -116.5t54.5 -186.5q0 -88 -44.5 -162.5t-119 -120t-165.5 -45.5zM723 649h532q-28 90 -93.5 162.5t-172.5 72.5q-71 0 -124.5 -34t-88.5 -87.5t-53 -113.5zM1277 509
h-575q0 -98 30.5 -189t94 -148.5t161.5 -57.5q99 0 163 56.5t95 147t31 191.5zM240 288q0 -68 49 -117t116 -49q80 0 130.5 50t50.5 137q-24 88 -24 197q-88 -3 -161 -27.5t-117 -71.5t-44 -119z" />
    <glyph glyph-name="k2" unicode="&#xd16;" horiz-adv-x="1725" 
d="M1207 476q0 -99 -35 -187t-85 -150h396l3 831q0 20 24 38t46 18q23 0 46 -18t23 -38v-901q0 -28 -21.5 -49t-50.5 -21h-649q-24 0 -48.5 19t-24.5 52q0 38 58 72q70 42 123.5 135.5t53.5 201.5q0 111 -54.5 203t-144.5 147t-199 55q-111 0 -203.5 -48.5t-151.5 -135
t-69 -201.5q37 41 96 72t135 31q88 0 160 -41.5t114.5 -112.5t42.5 -158q0 -84 -41.5 -154t-111.5 -112t-155 -42q-118 0 -204.5 67.5t-133 175.5t-46.5 227q0 161 72.5 290.5t199 206t286.5 76.5q153 0 277.5 -72.5t198 -196.5t73.5 -280zM488 120q64 0 114 50.5t50 117.5
q0 73 -51 123.5t-122 50.5q-72 0 -125.5 -49.5t-53.5 -123.5q0 -53 31 -91t75 -58t82 -20z" />
    <glyph glyph-name="k3" unicode="&#xd17;" horiz-adv-x="1820" 
d="M1266 -22q-19 0 -39.5 21.5t-20.5 41.5q0 64 73 80q82 17 150 74t109.5 139.5t41.5 175.5q0 107 -45 191t-124.5 133t-184.5 49q-142 0 -201 -93.5t-59 -242.5v-92q0 -137 -41 -244t-126.5 -168t-221.5 -61q-138 0 -245.5 70t-169.5 183.5t-62 241.5q0 135 47.5 242.5
t128.5 183.5t179 116q14 6 35 6q23 0 42.5 -21t19.5 -44q0 -25 -13.5 -44t-30.5 -26q-111 -45 -190 -150t-79 -257q0 -91 44.5 -174.5t120.5 -136t173 -52.5q142 0 195.5 93.5t53.5 241.5v92q0 213 102 345t302 132q143 0 253.5 -68.5t173.5 -184.5t63 -258
q0 -136 -59 -247.5t-156 -185.5t-212 -100q-10 -2 -27 -2z" />
    <glyph glyph-name="k4" unicode="&#xd18;" horiz-adv-x="2343" 
d="M1439 1024q227 0 342 -124.5t115 -360.5l-3 -168q-1 -28 -20.5 -48t-48.5 -20l-679 -5v-158h957l1 808q0 29 21 49.5t49 20.5q23 0 46.5 -18t23.5 -38l-1 -892q0 -28 -20.5 -49t-49.5 -21h-1097q-28 0 -49 21t-21 49v227l-445 -3q-27 0 -48.5 20t-21.5 46q0 30 16 47.5
t41 26.5q66 23 98.5 83.5t32.5 127.5q0 56 -22.5 110t-67 90t-110.5 36q-102 0 -170 -70t-68 -171q0 -73 40 -126.5t94 -76.5q42 -18 42 -65q0 -25 -19 -47.5t-44 -22.5q-23 0 -36 7q-88 38 -152.5 126t-64.5 206q0 104 48 190t131.5 137.5t189.5 51.5q98 0 180 -53.5
t131.5 -141t49.5 -189.5q0 -104 -67 -201l242 2l1 80q0 230 110 368.5t323 138.5zM1757 541q0 170 -74 256t-241 86q-157 0 -226.5 -97.5t-69.5 -268.5l-1 -79l610 4z" />
    <glyph glyph-name="ng" unicode="&#xd19;" horiz-adv-x="2048" 
d="M1807 258q0 68 -65 94t-146 27h-60q-26 0 -48 20t-22 45q0 35 20 55.5t48 21.5l69 3q91 5 142.5 35.5t51.5 102.5q0 68 -41 117t-106.5 75t-139.5 26q-193 0 -279 -119t-86 -324l2 -391q0 -28 -21 -49.5t-50 -21.5t-49.5 21t-21.5 49l-3 379q-1 130 -33 233t-105.5 162.5
t-200.5 59.5q-93 0 -172 -38t-135.5 -102.5t-84.5 -142.5q98 78 209 78q101 0 182 -45t128.5 -124t47.5 -182q0 -97 -45.5 -173.5t-122.5 -121t-173 -44.5q-124 0 -213 66.5t-136.5 172t-47.5 222.5q0 114 42.5 217.5t118.5 184.5t175.5 127.5t213.5 46.5q149 0 255.5 -64.5
t167.5 -172.5q62 109 170 173.5t268 64.5q113 0 210.5 -45t157 -125.5t59.5 -189.5q0 -39 -20 -84t-53.5 -81t-73.5 -48q77 -10 117 -69.5t40 -126.5q0 -81 -39.5 -143t-106 -97.5t-147.5 -35.5q-104 0 -188 59q-31 21 -31 55q0 31 19 53t48 22q27 0 53 -19
q17 -12 46.5 -20.5t60.5 -8.5q62 0 103 45.5t41 94.5zM377 498q-43 -25 -69 -69t-26 -109q0 -51 31 -96.5t83 -74t116 -28.5q52 0 94.5 34.5t68 83t25.5 90.5q0 51 -31 98t-77 77t-93 30q-56 0 -122 -36z" />
    <glyph glyph-name="ch1" unicode="&#xd1a;" horiz-adv-x="1523" 
d="M523 301q0 -22 -21 -42.5t-44 -20.5q-40 0 -61 29.5t-29 71t-8 76.5q0 87 41.5 162t112.5 121t159 46q101 0 183.5 -47.5t131.5 -129t49 -182.5q0 -66 -22 -130t-64 -116l332 1v814q2 30 21 50.5t44 20.5q32 0 53.5 -19.5t21.5 -50.5v-885q0 -28 -20.5 -50t-49.5 -22
l-1247 -4q-19 0 -37.5 25t-18.5 47q0 29 21 49.5t50 20.5l561 2q58 0 107.5 34.5t79.5 89t30 113.5q0 97 -61 164t-152 67q-54 0 -96 -29t-65.5 -74t-23.5 -92q0 -34 11 -58.5t11 -51.5z" />
    <glyph glyph-name="ch2" unicode="&#xd1b;" horiz-adv-x="2479" 
d="M500 416q0 -29 11.5 -55.5t11.5 -51.5q0 -22 -21 -42.5t-44 -20.5q-40 0 -61 29.5t-29 71t-8 76.5q0 92 44 167t118.5 119t163.5 44q105 0 184.5 -51.5t123.5 -134.5t44 -178q0 -74 -23.5 -135t-68.5 -114h359q-47 74 -69.5 153.5t-22.5 158.5q0 117 44.5 221.5
t122.5 184.5t182 125.5t222 45.5q122 0 229.5 -44t189.5 -122.5t129 -184t47 -228.5q0 -117 -48.5 -220.5t-135.5 -168t-204 -64.5t-206 58.5t-139 155t-50 209.5q0 114 42.5 204.5t113 154t154.5 95.5q-59 17 -122 17q-118 0 -216 -59t-157 -158.5t-59 -220.5
q0 -105 45 -192t105 -140q24 -21 24 -51t-20.5 -51t-49.5 -21l-1335 3h-1q-28 0 -49 21t-21 49q0 23 18 48t38 23h555q100 -1 168 62.5t68 190.5q0 56 -26.5 105.5t-73 80.5t-107.5 31q-82 0 -136 -55t-54 -141zM1737 415q0 -72 32 -135.5t87.5 -102.5t124.5 -39
q79 0 137 44.5t89.5 115t31.5 147.5q0 105 -41.5 184.5t-101.5 137.5q-106 0 -187 -44.5t-126.5 -123.5t-45.5 -184z" />
    <glyph glyph-name="ch3" unicode="&#xd1c;" horiz-adv-x="1515" 
d="M762 880q41 64 109.5 104.5t164.5 40.5q103 0 187.5 -47t134.5 -127.5t50 -182.5q0 -93 -40.5 -164.5t-93.5 -118.5q57 -25 99 -79t42 -131q0 -93 -65 -158t-158 -65q-92 0 -157.5 64t-65.5 160q0 8 0.5 17t1.5 17q-85 -44 -175.5 -101.5t-193.5 -100t-228 -42.5
q-69 0 -131.5 26.5t-102.5 76.5t-40 123q0 79 44 128.5t113.5 73t144.5 23.5q121 0 234 -14.5t218 -14.5q100 0 195 28t157 89.5t62 162.5q0 93 -68.5 155t-163.5 62q-97 0 -144.5 -62t-49.5 -156v-171q-1 -28 -22 -48t-50 -20t-49 20.5t-20 49.5v169q1 61 -31.5 110
t-86.5 78.5t-119 29.5q-44 0 -80 -13q75 -15 128 -75t53 -149q0 -95 -63.5 -159t-158.5 -64q-107 0 -172.5 76.5t-65.5 180.5q0 98 48 175.5t129.5 123t179.5 45.5q100 0 174.5 -40.5t125.5 -105.5zM339 736q-37 0 -61 -24t-24 -61q0 -38 26.5 -64t62.5 -26q35 0 58.5 25
t23.5 61q0 38 -24 63.5t-62 25.5zM756 250q-92 6 -178 16.5t-172 10.5q-36 0 -74.5 -7t-65 -25t-26.5 -52q0 -47 43.5 -67t92.5 -20q107 0 203.5 49t176.5 95zM1191 259q-35 0 -58.5 -24t-23.5 -59q0 -36 24.5 -60t58.5 -24q35 0 59 24t24 58q0 35 -23.5 60t-60.5 25z" />
    <glyph glyph-name="ch4" unicode="&#xd1d;" horiz-adv-x="3094" 
d="M511 402q0 160 66 281.5t157 198.5q-39 7 -80 7q-118 0 -212 -55t-148 -148t-54 -209q0 -129 66 -224t156 -142q14 -7 26 -25t12 -38q0 -23 -16 -46.5t-42 -23.5q-30 0 -45 9q-80 42 -147.5 112.5t-108.5 166t-41 210.5q0 157 73.5 282t199 198t282.5 73q124 0 240 -52
q110 44 221 44q158 0 259 -66.5t151 -186t54 -277.5l2 -78q5 -77 17 -145.5t48.5 -111.5t113.5 -43q80 0 120.5 61.5t54.5 155.5t12 191l-8 429q0 29 21 49.5t49 20.5q29 0 49 -19.5t21 -47.5l8 -427q4 -183 99 -296.5t280 -113.5q110 0 198 47t139 131.5t51 195.5
q0 110 -52 197.5t-139.5 138.5t-196.5 51q-22 0 -39.5 -2.5t-41.5 -2.5q-21 0 -39.5 23t-18.5 45q0 53 45 65.5t97 12.5q151 0 269 -72.5t186.5 -193.5t68.5 -267q0 -149 -70 -264t-189.5 -180.5t-267.5 -65.5q-139 0 -249 59t-172 146q-41 -99 -110.5 -152t-179.5 -53
q-118 0 -183.5 58.5t-94.5 156t-36 214.5l-2 78q-3 120 -32 209t-97.5 138.5t-192.5 49.5q-29 0 -67 -5q98 -89 150 -202.5t52 -257.5q0 -114 -44 -215.5t-127 -164.5t-201 -63q-115 0 -198 60.5t-127.5 159t-44.5 211.5zM891 821q-97 -55 -169 -165t-72 -262
q0 -72 29 -136.5t81 -105.5t121 -41q72 0 124 44.5t79.5 113.5t27.5 143q0 137 -66 245.5t-155 163.5z" />
    <glyph glyph-name="nj" unicode="&#xd1e;" horiz-adv-x="2517" 
d="M482 -21q-119 0 -205 67.5t-132 174.5t-46 224q0 160 68 290.5t189.5 208.5t280.5 78q137 0 242 -66t160 -154q57 98 149.5 160.5t231.5 62.5q116 0 238 -58q129 60 226 60q112 0 209 -44t169.5 -120.5t113.5 -175t41 -206.5q0 -309 -241 -497q-18 -15 -41 -15
q-28 0 -50 22t-22 51q0 31 29 54q70 53 127 149.5t57 208.5t-47.5 210.5t-133.5 160t-204 61.5q-21 0 -42 -2.5t-43 -7.5q98 -88 156.5 -207t58.5 -279q0 -110 -42 -205t-121.5 -153t-191.5 -58q-114 0 -193.5 60t-121.5 157.5t-42 209.5q0 153 53 270t149 205
q-44 11 -91 11q-125 0 -191.5 -59t-90.5 -152t-24 -196l1 -442q0 -25 -20.5 -48.5t-51.5 -23.5q-28 0 -48 24.5t-20 47.5l-2 438q-1 189 -80 298t-249 109q-125 0 -210.5 -56.5t-135.5 -151t-68 -209.5q38 71 109 113t174 42q88 0 155.5 -45.5t106 -118t38.5 -153.5
q0 -90 -45 -164t-120 -117.5t-166 -43.5zM1658 814q-96 -64 -153 -172t-57 -256q0 -68 26.5 -131t75 -103t114.5 -40q72 0 120.5 40.5t73 104.5t24.5 134q0 148 -66 256t-158 167zM487 498q-83 0 -138.5 -58.5t-55.5 -140.5q0 -79 55 -129.5t131 -50.5q82 0 138 52.5
t56 131.5q0 51 -26 95.5t-68 72t-92 27.5z" />
    <glyph glyph-name="t1" unicode="&#xd1f;" horiz-adv-x="1135" 
d="M1035 284q0 -110 -65 -179t-167 -101.5t-214 -32.5q-293 0 -469 186q-20 20 -20 49t21 49.5t50 20.5q30 0 51 -23q135 -142 368 -142q76 0 146 17t115 56t45 104q0 67 -44.5 100.5t-117.5 45.5t-160 12q-207 1 -334 67.5t-127 226.5q0 90 60 157t159.5 103.5t216.5 36.5
q279 0 427 -193q15 -19 15 -46q0 -28 -22 -47.5t-51 -19.5q-32 0 -53 28q-106 138 -322 138q-70 0 -137 -18.5t-110 -54t-43 -88.5q0 -64 46 -95.5t117 -42t145 -11.5q139 -2 245.5 -30.5t167.5 -94t61 -178.5z" />
    <glyph glyph-name="t2" unicode="&#xd20;" horiz-adv-x="1238" 
d="M100 499q0 150 67.5 268t185.5 186t269 68q147 0 263.5 -68.5t184.5 -185.5t68 -264q0 -142 -70.5 -260t-188 -188.5t-259.5 -70.5q-147 0 -265 67.5t-186.5 184.5t-68.5 263zM618 124q110 0 196 52t135 138t49 188q0 101 -49 187.5t-134 139t-194 52.5
q-110 0 -196.5 -51t-135.5 -136.5t-49 -189.5q0 -107 50 -193.5t136 -136.5t192 -50z" />
    <glyph glyph-name="t3" unicode="&#xd21;" horiz-adv-x="2476" 
d="M1490.48 178.096q-38.9814 -78.0859 -112.945 -140.153q-73.9639 -62.0684 -179.912 -62.0684q-117.942 0 -188.908 64.0703q-70.9648 64.0703 -102.949 167.684q-31.9844 103.614 -31.9844 222.745v91.0996q0 158.174 -67.9668 259.785t-217.894 101.611
q-106.948 0 -184.41 -56.5615q-77.4619 -56.5625 -119.441 -143.658t-41.9795 -179.196q0 -113.124 54.9727 -198.719q54.9736 -85.5938 141.932 -135.147q86.957 -49.5547 182.91 -53.5596q27.9863 -1.00098 47.9766 -21.5234t19.9902 -48.5527
q0 -29.0322 -20.4902 -49.5547t-49.4756 -20.5225q-100.95 0 -193.905 40.0439t-166.419 112.123t-116.442 169.687q-42.9795 97.6064 -42.9795 211.731q0 94.1035 34.4834 186.205q34.4824 92.1006 99.4512 166.182q64.9688 74.082 155.424 118.631
q90.4561 44.5488 202.401 44.5488q128.937 0 224.89 -66.0723q95.9531 -66.0732 148.928 -177.695q52.9746 -111.623 52.9746 -247.771q0 -41.0459 -2 -79.5879q-1.99805 -38.542 -1.99805 -74.582q0 -65.0713 19.4902 -125.137q19.4902 -60.0664 59.4707 -99.1094
t103.949 -39.043q90.9551 0 134.934 57.5635t57.9727 146.16q13.9922 88.5977 14.9922 181.7l3.99805 459.504q1 28.0303 20.9902 48.5527q19.9902 20.5234 48.9756 20.5234q27.9863 0 48.9756 -21.0234q20.9902 -21.0234 20.9902 -49.0537v-470.517
q0 -166.183 84.459 -269.296q84.459 -103.112 240.383 -103.112q109.945 0 191.406 55.0596q81.46 55.0605 125.938 141.656q44.4775 86.5947 44.4775 181.699q0 116.127 -58.4707 204.725q-58.4717 88.5967 -149.927 138.652q-91.4561 50.0547 -191.407 50.0547
q-16.9912 0 -33.4834 -3.00293q-16.4912 -3.00391 -32.4834 -3.00391q-28.9863 0 -49.4766 20.5225t-20.4902 49.5547q0 50.0547 43.9785 63.0693q43.9785 13.0137 94.9541 13.0137q102.95 0 198.903 -39.043q95.9531 -39.042 172.415 -110.621
q76.4629 -71.5781 121.44 -170.688q44.9785 -99.1084 44.9785 -219.24q0 -98.1074 -35.9824 -189.708t-103.449 -165.182t-161.422 -116.628q-93.9531 -43.0469 -208.897 -43.0469q-115.943 0 -217.394 53.0576q-101.451 53.0586 -159.422 150.165z" />
    <glyph glyph-name="t4" unicode="&#xd22;" horiz-adv-x="2554" 
d="M911 375q0 42 2.5 86t2.5 82q0 144 -80 241.5t-224 97.5q-106 0 -190.5 -55.5t-133 -146t-48.5 -195.5q0 -113 51 -196t140.5 -128.5t202.5 -45.5q20 0 38.5 -23.5t18.5 -46.5q0 -34 -24 -52t-59 -18q-144 0 -259 67t-182 182t-67 259q0 110 40.5 207.5t111 172t162 117
t193.5 42.5q139 0 239.5 -63t155 -172.5t54.5 -249.5q0 -34 -2 -73.5t-2 -69.5q0 -76 10.5 -139.5t42.5 -101.5t97 -38q69 0 111.5 39.5t65 104t30.5 143t8 156.5v405q1 30 21.5 49.5t54.5 19.5q26 0 45 -22t19 -48v-407q-4 -199 77 -322.5t268 -123.5q98 0 176 50.5
t133 125.5t84 148q-43 -49 -107.5 -70t-111.5 -21q-101 1 -178.5 49t-121.5 127t-44 170q0 90 46.5 167.5t124.5 124.5t172 47q114 0 199 -58t132.5 -154.5t47.5 -211.5q0 -126 -39.5 -240t-112.5 -203t-174.5 -140t-226.5 -51q-142 0 -244.5 60t-161.5 154
q-38 -79 -113.5 -143t-194.5 -64q-98 0 -159 59.5t-89 151t-28 188.5zM1871 684q0 -85 59.5 -143t141.5 -58q89 0 149 61.5t60 146.5q0 61 -32.5 104.5t-79.5 66.5t-91 23q-89 0 -148 -54t-59 -147z" />
    <glyph glyph-name="nh" unicode="&#xd23;" horiz-adv-x="2764" 
d="M2146 -24q-50 0 -91.5 12.5t-41.5 63.5q0 23 18.5 46t39.5 23q20 0 34 -2t33 -2q102 0 190.5 50.5t142.5 136.5t54 192q0 117 -54 205t-142 136.5t-192 48.5q-129 0 -202 -60.5t-102.5 -166t-29.5 -240.5v-375q0 -68 -76 -68q-24 0 -43 21t-20 46l-3 376
q-1 132 -25 238.5t-81.5 168.5t-159.5 62q-82 0 -134 -39.5t-80.5 -106.5t-39 -150.5t-10.5 -172.5v-375q0 -26 -19 -47t-45 -21q-34 0 -54 19t-21 48l-3 376q-1 136 -33 243t-107 169.5t-206 62.5q-115 0 -203 -58t-139.5 -152.5t-59.5 -204.5q39 52 105.5 88t143.5 36
q88 0 159.5 -43.5t114 -114.5t42.5 -154q0 -87 -42 -158.5t-114 -114t-161 -42.5q-120 0 -207 65t-134.5 172t-47.5 233q0 116 39 221.5t110.5 187t171 128.5t220.5 47q144 0 248.5 -66.5t161.5 -167.5q29 58 78 111.5t116 88t148 34.5q128 0 214 -72t130 -161
q54 94 155.5 163.5t239.5 69.5q154 0 274 -69t189 -189t69 -272q0 -146 -71 -265t-188.5 -189t-258.5 -70zM487 118q74 0 126 49.5t52 122.5q0 71 -52.5 122.5t-122.5 51.5t-121.5 -52.5t-51.5 -124.5q0 -71 51.5 -120t118.5 -49z" />
    <glyph glyph-name="th1" unicode="&#xd24;" horiz-adv-x="1791" 
d="M542 40q0 -22 -20 -44t-42 -22q-19 0 -34 5q-94 37 -173 108.5t-126 173t-47 228.5q0 155 74.5 276t201 191t281.5 70q59 0 118.5 -12.5t115.5 -39.5h1q59 27 121 39.5t123 12.5q154 0 280 -70.5t200.5 -192t74.5 -275.5q0 -126 -45.5 -226.5t-121.5 -171t-168 -109.5
q-13 -6 -34 -6q-22 0 -42.5 21.5t-20.5 43.5q0 24 13 43.5t30 26.5q66 27 123 80.5t92 127t35 160.5q0 115 -54 208t-146.5 147.5t-210.5 54.5q-45 0 -100 -11q98 -86 155.5 -202t57.5 -271q0 -109 -43 -205.5t-123.5 -156.5t-192.5 -60t-193 60.5t-125 157t-44 205.5
q0 153 58.5 270t152.5 201q-53 11 -99 11q-114 0 -206 -53.5t-146 -145.5t-54 -207q0 -87 36 -162t95 -129t127 -80q18 -7 31.5 -26t13.5 -44zM893 814q-86 -55 -153 -158.5t-67 -249.5q0 -70 25.5 -136t75 -108.5t120.5 -42.5q114 1 167.5 78.5t53.5 206.5q0 147 -67.5 251
t-154.5 159z" />
    <glyph glyph-name="th2" unicode="&#xd25;" horiz-adv-x="1549" 
d="M100 949q0 29 19 53t53 24q25 0 46.5 -19.5t21.5 -44.5l5 -820l275 -1l-4 334q-2 156 52 280t157 196.5t249 72.5q139 0 244.5 -59.5t165.5 -161t61 -228.5l4 -489q0 -35 -18.5 -60t-47.5 -25h-1197q-30 0 -54.5 17.5t-25.5 45.5zM1309 495q2 170 -79 279t-249 109
q-131 0 -201 -65.5t-96.5 -175.5t-25.5 -246l2 -255h646z" />
    <glyph glyph-name="th3" unicode="&#xd26;" horiz-adv-x="1206" 
d="M981 472q60 -37 92.5 -94.5t32.5 -140.5q0 -77 -41.5 -139.5t-108.5 -98.5t-145 -36q-84 0 -165 51q-32 20 -32 54q0 30 19 52t47 22q26 0 51 -16q34 -22 86 -22q54 0 101 39t47 100q0 77 -53.5 107t-142.5 31l-33 1q-28 1 -48 20.5t-20 47.5q0 26 18 47.5t40 23.5l28 3
q76 7 126.5 46.5t50.5 114.5q0 99 -78.5 148.5t-182.5 49.5q-125 0 -222 -67t-152 -176.5t-55 -237.5q0 -94 29.5 -177.5t76.5 -143.5q15 -19 15 -45q0 -28 -21.5 -48t-51.5 -20q-32 0 -53 28q-61 80 -98.5 182.5t-37.5 219.5q0 128 42.5 241t120 199.5t183.5 136t233 49.5
q100 0 189.5 -39.5t146 -115t56.5 -182.5q0 -59 -23 -115t-67 -100z" />
    <glyph glyph-name="th4" unicode="&#xd27;" horiz-adv-x="1910" 
d="M1256 882q-20 0 -38 24t-18 46q0 32 22.5 51t53.5 19q110 0 206.5 -42t170.5 -115.5t115.5 -170t41.5 -205.5q0 -143 -64.5 -258.5t-175.5 -182.5t-253 -67q-125 0 -222 60.5t-149 145.5q-53 -89 -147 -149t-227 -60q-136 0 -243 68t-168 181.5t-61 250.5
q0 105 39.5 202.5t108.5 174t159.5 121.5t192.5 45q29 0 50 -19.5t21 -49.5q0 -28 -18.5 -48t-44.5 -22q-99 -10 -182.5 -64t-134 -141t-50.5 -197q0 -100 42 -182.5t118 -131t177 -48.5q86 0 153 41t106 112.5t39 160.5l3 521q1 26 20 47.5t44 21.5q34 0 54.5 -20.5
t21.5 -49.5l-3 -521q0 -86 37 -157.5t105.5 -114t160.5 -42.5q106 0 184 53t121 139t43 184q0 113 -54 200.5t-147 138t-210 50.5z" />
    <glyph glyph-name="n1" unicode="&#xd28;" horiz-adv-x="1910" 
d="M1298 -21q-19 0 -38.5 22.5t-19.5 41.5q0 33 18.5 53t45.5 22q102 11 185 67.5t132 144t49 190.5q0 100 -41 182t-115.5 131t-175.5 49q-168 0 -233.5 -110.5t-67.5 -308.5l-4 -416q-1 -28 -21.5 -48.5t-49.5 -20.5q-28 0 -49 21t-21 49v413q0 128 -25 222.5t-90 146
t-186 51.5q-105 0 -183.5 -52t-122 -139t-43.5 -193q0 -111 59 -199t153 -139t200 -51q38 0 47.5 -15.5t9.5 -38.5q0 -35 -21 -55t-54 -20q-150 0 -271.5 72t-193 196t-71.5 278q0 97 37.5 186t104.5 159t156 110.5t191 40.5q129 0 225.5 -59t150.5 -149q52 86 147.5 147.5
t220.5 61.5q140 0 247.5 -68.5t168.5 -182t61 -249.5q0 -100 -39.5 -196.5t-109.5 -175t-163 -125t-200 -46.5z" />
    <glyph glyph-name="n2" unicode="&#xd29;" horiz-adv-x="2066" 
d="M1441 -23q-52 0 -99.5 12t-47.5 64q0 29 20.5 49.5t49.5 20.5q19 0 37.5 -3t37.5 -3q108 0 195.5 52t139.5 139t52 191q0 107 -53.5 195t-142 141t-194.5 53q-168 0 -240 -106t-72 -276l2 -457q0 -28 -20.5 -49t-49.5 -21q-28 0 -48.5 20.5t-21.5 48.5l-3 442
q-1 180 -77 286t-254 106q-142 0 -246 -80t-149 -189q98 81 226 81q97 0 177 -46.5t128.5 -126.5t48.5 -182q0 -100 -45.5 -179t-124.5 -125t-179 -46q-125 0 -216 65.5t-140 169.5t-49 221t43 221.5t120 184.5t180.5 125.5t223.5 45.5q140 0 242 -58t158 -148
q53 92 152 152t235 60q108 0 204 -41.5t169 -114.5t114.5 -168.5t41.5 -203.5q0 -142 -70 -261t-189 -190.5t-266 -71.5zM483 554q-88 0 -152 -62.5t-64 -151.5q0 -92 64 -151.5t157 -59.5q89 0 149 60t60 151q0 92 -63.5 153t-150.5 61z" />
    <glyph glyph-name="p1" unicode="&#xd2a;" horiz-adv-x="1671" 
d="M455 549q-60 0 -109 -30.5t-78 -80t-29 -107.5q0 -68 40 -124t89 -74q61 -23 61 -61q0 -31 -17.5 -55.5t-44.5 -24.5q-22 0 -33 4q-94 34 -164 123t-70 210q0 101 47.5 182.5t128 129.5t179.5 48q101 0 182.5 -50t129.5 -131.5t48 -176.5q0 -48 -14 -96.5t-45 -95.5h674
v831q0 20 23.5 37.5t45.5 17.5q23 0 47 -17.5t24 -37.5v-900q0 -28 -20 -49t-49 -21l-929 -1q-25 0 -47 20t-22 43q0 36 15 51t50 31q41 18 73 72.5t32 118.5q0 91 -64.5 152.5t-153.5 61.5z" />
    <glyph glyph-name="p2" unicode="&#xd2b;" horiz-adv-x="2111" 
d="M1519 1025q263 0 377.5 -137t114.5 -415l-3 -402q0 -26 -19 -49t-48 -23l-1361 4q-25 0 -47.5 19.5t-22.5 47.5q0 25 12.5 42.5t28.5 24.5q50 23 89 75t39 122q0 94 -64 157.5t-156 63.5q-61 0 -111 -31t-79.5 -81.5t-29.5 -108.5q0 -76 45.5 -131t104.5 -75
q19 -6 34 -23.5t15 -41.5q0 -29 -20.5 -50.5t-49.5 -21.5q-11 0 -24 5q-64 22 -120 70t-90 116.5t-34 150.5q0 101 48 183t129.5 130.5t180.5 48.5q102 0 184 -50.5t130.5 -132.5t48.5 -177q0 -48 -14 -97t-45 -96h300v299q0 179 41 310t141 202.5t275 71.5zM1539 888
q-145 0 -216.5 -49.5t-95.5 -148.5t-25 -249v-301h668v334q0 206 -76 310t-255 104z" />
    <glyph glyph-name="p3" unicode="&#xd2c;" horiz-adv-x="2486" 
d="M1472 0q-28 0 -48.5 20t-20.5 47q0 65 80 75q87 11 159.5 66.5t116 138.5t43.5 175q0 105 -46 188t-126.5 131t-186.5 48q-117 0 -183 -65t-92.5 -173.5t-26.5 -239.5v-364q0 -28 -20.5 -48.5t-49.5 -20.5q-28 0 -49.5 20.5t-21.5 48.5v365q0 137 -35 244.5t-112.5 169.5
t-205.5 62q-109 0 -197.5 -61t-142.5 -157.5t-58 -203.5q26 78 93 123.5t147 45.5q83 0 156.5 -43t119.5 -116.5t46 -163.5q0 -91 -42 -167t-115 -121.5t-165 -45.5q-117 0 -204.5 61.5t-136 160t-48.5 209.5q0 123 38 234.5t109 198t170 136.5t220 50q150 0 261.5 -62.5
t171.5 -170.5q55 100 143.5 166t228.5 66q137 0 250.5 -64t181.5 -175.5t68 -256.5q0 -123 -44 -220.5t-124 -172.5h472v814q0 29 22 51t49 22q32 0 50.5 -25t18.5 -48v-885q0 -28 -20.5 -49t-49.5 -21zM473 496q-74 0 -132 -55.5t-58 -137.5q0 -85 63 -133.5t139 -48.5
q74 0 129 53.5t55 124.5q0 87 -59.5 142t-136.5 55z" />
    <glyph glyph-name="p4" unicode="&#xd2d;" horiz-adv-x="1335" 
d="M1095 725q0 56 -51 92.5t-128 54.5t-155 18q-141 0 -259.5 -57t-190 -160t-71.5 -242q0 -97 41.5 -185t111.5 -147q26 -21 26 -52q0 -29 -20 -50.5t-49 -21.5q-27 0 -47 17q-95 80 -149 187t-54 255q0 183 90 316t241.5 205.5t335.5 72.5q114 0 221.5 -30t177 -97
t69.5 -179q0 -97 -71 -153.5t-164 -56.5q-67 0 -134.5 22t-137.5 22q-40 0 -74.5 -19t-34.5 -54q0 -50 50 -67.5t103 -17.5q38 0 81.5 4t80.5 4q77 0 144.5 -22t109.5 -69.5t42 -124.5q0 -83 -47.5 -131t-124.5 -68t-166 -20q-60 0 -139.5 2t-179.5 12q-28 3 -46 23t-18 55
q0 19 19.5 41t37.5 22q45 -2 134 -8t177 -6q86 0 150 15.5t64 59.5q0 46 -45 63t-104 17q-43 0 -97 -5t-79 -5q-77 0 -143 25.5t-105.5 75.5t-39.5 122q0 69 36.5 118t95 74.5t124.5 25.5q68 0 137.5 -22t129.5 -22q41 0 67.5 17t26.5 54z" />
    <glyph glyph-name="m1" unicode="&#xd2e;" horiz-adv-x="1398" 
d="M170 -7q-28 0 -49 21t-21 49v386q0 119 46 222.5t127 183t185 124t219 44.5q183 0 323 -79t219 -217t78 -316v-348q0 -28 -21 -49t-50 -21h-1056zM638 882q-109 0 -199.5 -59.5t-144.5 -158.5t-54 -218v-313q101 0 203 46t187 124t136.5 174.5t51.5 197.5q0 94 -49 150.5
t-131 56.5zM931 823q30 -73 30 -151q0 -119 -51 -222.5t-126 -184.5t-149 -132h521v314q1 124 -65.5 222.5t-159.5 153.5z" />
    <glyph glyph-name="y1" unicode="&#xd2f;" horiz-adv-x="1915" 
d="M440 1025q88 0 160 -49.5t112 -122.5q50 77 127 126t186 49q107 0 187.5 -57.5t125.5 -151.5t45 -204q0 -161 -64 -285t-166 -210q39 -7 81 -7q125 0 224 62.5t157 165t58 222.5q0 107 -45.5 196t-106.5 142q-24 21 -24 51q0 29 20.5 50.5t48.5 21.5q29 0 48 -18
q78 -69 139.5 -183t61.5 -248q0 -170 -76 -306.5t-208.5 -216.5t-303.5 -80q-118 0 -235 51q-63 -26 -125.5 -38.5t-121.5 -12.5q-131 0 -247.5 52t-206 144t-140.5 212t-51 256q0 106 39.5 194t115.5 141.5t185 53.5zM447 890q-103 0 -154.5 -75t-51.5 -182
q0 -142 67.5 -260t183 -188.5t257.5 -70.5q41 0 87 8q-95 85 -149.5 197.5t-54.5 293.5q0 58 -21.5 122.5t-62.5 109.5t-101 45zM770 571q0 -85 32 -161.5t83.5 -136t108.5 -94.5q99 56 173.5 166t74.5 261q0 71 -26 135.5t-74.5 105.5t-115.5 41q-78 0 -135.5 -43t-89 -115
t-31.5 -159z" />
    <glyph glyph-name="r3" unicode="&#xd30;" horiz-adv-x="1453" 
d="M459 50q0 -26 -17.5 -48t-51.5 -22q-22 0 -37 11q-101 64 -177 181.5t-76 271.5q0 176 84.5 307t226.5 203t314 72q183 0 324.5 -79t222.5 -212.5t81 -297.5q0 -122 -56 -227.5t-154.5 -170.5t-226.5 -65q-116 0 -205.5 56.5t-140 148t-50.5 197.5q0 100 52 194
t142 154.5t204 60.5q71 0 149 -29q-142 128 -335 128q-133 0 -245.5 -54.5t-180 -153t-67.5 -231.5q0 -114 56.5 -201.5t131.5 -134.5q32 -19 32 -59zM926 111q73 0 134 36.5t97.5 97t36.5 133.5t-36.5 133.5t-97.5 97t-134 36.5t-133.5 -36.5t-96.5 -97t-36 -133.5
t36 -133.5t96.5 -97t133.5 -36.5z" />
    <glyph glyph-name="rh" unicode="&#xd31;" horiz-adv-x="1328" 
d="M668 883q-116 0 -213.5 -53t-156 -144.5t-58.5 -206.5q0 -91 37 -165.5t99 -125.5t136 -72q20 -6 35.5 -25t15.5 -45q0 -22 -19.5 -45t-40.5 -23q-51 0 -151 56q-70 40 -127 108t-91 155t-34 183q0 152 75.5 275t204.5 196t289 73q121 0 223 -44t177.5 -119.5t117 -172.5
t41.5 -203q0 -85 -32 -174t-88 -164.5t-128.5 -122t-152.5 -46.5q-27 0 -48 19t-21 44q0 61 70 80q72 19 131 71.5t94 127.5t35 161q0 112 -58 203t-153.5 145t-208.5 54z" />
    <glyph glyph-name="l3" unicode="&#xd32;" horiz-adv-x="1646" 
d="M170 0q-28 0 -49 20.5t-21 48.5v318q0 178 49 321.5t156 228.5t280 85q142 0 254.5 -64t178 -175t65.5 -253q0 -34 -5 -72.5t-22 -66t-54 -27.5h-762v-224h1166v820q0 29 23.5 47t45.5 18q29 0 50 -18t21 -47v-889q0 -28 -18.5 -49.5t-50.5 -21.5h-1307zM590 883
q-109 0 -184 -50.5t-115 -136.5t-48 -192h698q0 106 -44 191.5t-122.5 136.5t-184.5 51z" />
    <glyph glyph-name="lh" unicode="&#xd33;" horiz-adv-x="1273" 
d="M241 -85q0 -46 36.5 -65.5t105.5 -19.5h709q29 0 50 -20.5t21 -49.5t-21 -49.5t-50 -20.5h-708q-127 0 -205.5 56.5t-78.5 168.5q0 122 86 175.5t212 53.5h382q111 0 184 31.5t73 113.5q0 83 -60 105t-153 27q-31 2 -53 20t-22 49q0 29 21 50t50 21q87 0 136.5 21.5
t49.5 91.5q0 72 -46.5 119t-118 69.5t-147.5 22.5q-82 0 -159 -11t-140 -48t-102 -114q31 29 56 37t41 8q76 0 137.5 -37t97.5 -99t36 -137q0 -113 -77 -188.5t-191 -75.5q-87 0 -152.5 47.5t-102 122t-36.5 156.5q0 156 82.5 262.5t216 161.5t286.5 55q115 0 219.5 -38.5
t171 -115t66.5 -190.5q0 -49 -31 -105.5t-75 -79.5q53 -29 94 -85.5t41 -132.5q0 -103 -54.5 -163t-144 -85.5t-194.5 -25.5h-383q-72 0 -114 -18t-42 -71zM386 617q-51 0 -91.5 -32.5t-40.5 -92.5q0 -64 49.5 -98t98.5 -34q47 0 84 38t37 86q0 53 -41.5 93t-95.5 40z" />
    <glyph glyph-name="zh" unicode="&#xd34;" horiz-adv-x="1269" 
d="M663 420q-33 32 -71 75t-65 98t-27 121q0 83 44 154t118 114.5t163 43.5q91 0 169.5 -45.5t126.5 -123t48 -173.5q0 -88 -38 -158.5t-97.5 -121t-122.5 -77.5q9 -22 16 -50.5t7 -56.5q0 -81 -45 -142t-119.5 -95.5t-164.5 -34.5t-174 35t-148 97q-22 20 -22 51
q0 29 20.5 49.5t49.5 20.5t50 -21q45 -44 105.5 -67t121.5 -23q74 0 129 35t55 101q0 19 -5 34.5t-12 28.5q-55 -9 -112 -9q-94 0 -193 26t-183 79.5t-135.5 137.5t-51.5 199q0 79 32.5 153.5t94.5 128.5q20 18 46 18q29 0 49.5 -20.5t20.5 -49.5q0 -33 -25 -54
q-37 -33 -56 -79t-19 -96q0 -108 64.5 -175t161.5 -97.5t194 -30.5zM1028 684q0 88 -60.5 143.5t-142.5 55.5q-76 0 -128.5 -48.5t-52.5 -121.5q0 -61 32.5 -105.5t77 -82t79.5 -77.5q71 26 133 84t62 152z" />
    <glyph glyph-name="v1" unicode="&#xd35;" horiz-adv-x="1718" 
d="M1478 962q0 26 22.5 44t43.5 18q26 0 50 -17t24 -39v-905q0 -28 -20.5 -49t-49.5 -21l-722 3q-28 0 -49 19.5t-21 53.5q0 20 15 38t31 24q104 38 176 133.5t72 233.5q0 126 -58 210t-149 126t-191 42q-102 0 -196 -43t-154.5 -127t-60.5 -207q0 -97 44.5 -177t118.5 -131
t163 -61q26 -3 44.5 -23.5t18.5 -48.5q0 -22 -18.5 -45t-38.5 -23q-101 0 -187 43t-150.5 115.5t-100 162.5t-35.5 185q0 114 43.5 210t118.5 167.5t171.5 111t203.5 39.5q154 0 279.5 -71.5t200 -194t74.5 -275.5q0 -198 -138 -348l425 -1v828z" />
    <glyph glyph-name="z1" unicode="&#xd36;" horiz-adv-x="1909" 
d="M1810 406q0 -112 -47 -210t-130 -159t-192 -61q-102 0 -180.5 52.5t-123 140.5t-44.5 193q0 117 46 213.5t121 167t162 107.5q-82 40 -164 40q-149 0 -230.5 -96.5t-81.5 -246.5q0 -43 1 -84.5t1 -58.5q0 -114 -47.5 -211t-135 -156.5t-207.5 -59.5q-138 0 -241 76.5
t-160 199.5t-57 262q0 128 44.5 228t116.5 172t155 115q16 8 39 8q24 0 44.5 -20.5t20.5 -44.5q0 -48 -39 -68q-100 -51 -170 -149t-70 -243q0 -98 38.5 -189t109 -149.5t166.5 -58.5q98 0 153 45.5t77.5 126t22.5 185.5q0 164 45 289.5t141.5 196t250.5 70.5q127 0 231 -50
t178.5 -137t115 -199.5t40.5 -236.5zM1553 745q-84 -17 -156.5 -68.5t-117 -131.5t-44.5 -181q0 -98 53 -172t150 -74q76 0 127.5 45t78.5 114.5t27 140.5q0 93 -34.5 181t-83.5 146z" />
    <glyph glyph-name="sh" unicode="&#xd37;" horiz-adv-x="1928" 
d="M432 498q-79 0 -135.5 -56.5t-56.5 -133.5q0 -58 33 -106.5t73 -65.5q52 -22 52 -60q0 -31 -17.5 -54.5t-45.5 -23.5q-21 0 -35 6q-79 34 -139.5 113.5t-60.5 186.5q0 95 44.5 170.5t120 119.5t168.5 44q92 0 166.5 -46t119 -121.5t44.5 -163.5t-48 -169h517v238
q-32 -4 -67 -4q-108 0 -200 43t-148.5 121t-56.5 182q0 90 44 160t117.5 109.5t160.5 39.5q147 0 219.5 -91t72.5 -234v-141q70 33 135 88.5t112 128t62 156.5q7 37 20.5 65t47.5 28q36 0 56.5 -19t20.5 -51v-889q0 -28 -20.5 -49t-49.5 -21h-1224q-28 0 -48.5 19.5
t-20.5 50.5q0 23 13 40.5t28 23.5q46 20 81 66t35 108q0 81 -55 136.5t-135 55.5zM1084 886q-73 0 -128 -47t-55 -118q0 -65 37.5 -112t98 -72t129.5 -25q17 0 33.5 1t34.5 4v186q0 95 -33.5 139t-116.5 44zM1688 635q-124 -158 -316 -226v-271h316v497z" />
    <glyph glyph-name="s1" unicode="&#xd38;" horiz-adv-x="2478" 
d="M987 823q39 78 113 140t180 62q118 0 189 -64t103 -167.5t32 -222.5v-91q0 -158 68 -259.5t218 -101.5q107 0 184.5 56.5t119.5 143.5t42 179q0 113 -55 198.5t-142 135t-183 53.5q-28 1 -48 21.5t-20 48.5q0 29 20.5 49.5t49.5 20.5q101 0 194 -40t166.5 -112
t116.5 -169.5t43 -211.5q0 -94 -34.5 -186t-99.5 -166t-155.5 -118.5t-202.5 -44.5q-129 0 -225 66t-149 177.5t-53 247.5q0 41 2 79.5t2 74.5q0 65 -19.5 125t-59.5 99t-104 39q-91 0 -135 -57.5t-58 -146t-15 -181.5l-4 -459q-1 -28 -21 -48.5t-49 -20.5q-28 0 -49 21
t-21 49v470q0 166 -84.5 269t-240.5 103q-110 0 -191.5 -55t-126 -141.5t-44.5 -181.5q0 -116 58.5 -204.5t150 -138.5t191.5 -50q17 0 33.5 3t32.5 3q29 0 49.5 -20.5t20.5 -49.5q0 -50 -44 -63t-95 -13q-103 0 -199 39t-172.5 110.5t-121.5 170.5t-45 219q0 98 36 189.5
t103.5 165t161.5 116.5t209 43q116 0 217.5 -53t159.5 -150z" />
    <glyph glyph-name="h1" unicode="&#xd39;" horiz-adv-x="2151" 
d="M1911 467q0 117 -46.5 210.5t-130 148t-194.5 54.5q-106 0 -190.5 -50t-134 -135.5t-49.5 -193.5q0 -94 40 -170.5t106.5 -127.5t145.5 -68q22 -4 38.5 -24.5t16.5 -46.5q0 -27 -21 -47t-49 -20l-869 3q-27 0 -48 20t-21 45q0 51 41 69q53 23 92 75t39 123
q0 95 -62.5 156.5t-155.5 61.5q-92 0 -155.5 -62t-63.5 -156q0 -74 44.5 -129t99.5 -75q17 -6 32 -24t15 -41q0 -32 -20.5 -51.5t-49.5 -19.5q-14 0 -25 4q-94 35 -166 122t-72 213q0 100 47.5 182.5t128.5 132t181 49.5q104 0 185.5 -49t129 -131.5t47.5 -184.5
q0 -103 -58 -192h415q-73 74 -110 161t-37 211q0 145 68.5 260t185 182.5t260.5 67.5q143 0 258.5 -72t183.5 -192t68 -266q0 -186 -95 -308t-232 -184q-13 -6 -35 -6t-42.5 21.5t-20.5 44.5q0 25 13.5 43.5t31.5 25.5q61 25 115.5 75t89.5 118t35 147z" />
    <glyph glyph-name="rh_half" unicode="&#xd3a;" horiz-adv-x="1266" 
d="M868 11q0 -31 -22 -53t-53 -22t-53 22t-22 53v248h-543q-28 0 -51.5 21.5t-23.5 49.5q0 25 11 44l493 802q22 37 66 37q30 0 52 -21.5t22 -43.5q0 -31 -12 -51l-423 -689h783q31 0 53 -22.5t22 -53.5t-22 -53t-53 -22h-224v-246z" />
    <glyph glyph-name="verticalbarvirama" unicode="&#xd3b;" horiz-adv-x="352" 
d="M178 1682q29 0 54.5 -20.5t25.5 -49.5l-26 -442q0 -29 -12.5 -49.5t-41.5 -20.5t-41 20.5t-14 49.5l-26 442q-2 28 25 49t56 21z" />
    <glyph glyph-name="circularvirama" unicode="&#xd3c;" horiz-adv-x="318" 
d="M113.535 1394.18q55.8164 0 102.119 -27.3535t74.5273 -72.2256q28.2256 -44.8721 28.2256 -98.9639q0 -54.0928 -28.542 -98.3496q-28.543 -44.2578 -75.1621 -70.6895q-46.6191 -26.4307 -102.436 -26.4307t-102.437 26.7383q-46.6191 26.7393 -74.5273 71.6113
t-27.9082 98.3496q0 54.0918 27.9082 98.6562q27.9082 44.5654 74.8447 71.6113t103.387 27.0459zM229.608 1196.25q0 45.4873 -34.8857 78.0654q-34.8848 32.5781 -81.8213 32.5781t-81.8213 -32.5781q-34.8857 -32.5781 -34.8857 -78.0654q0 -45.4863 34.5684 -77.7578
q34.5674 -32.2705 82.1387 -32.2705t82.1387 32.2705q34.5684 32.2715 34.5684 77.7578z" />
    <glyph glyph-name="avagraha" unicode="&#xd3d;" horiz-adv-x="1482" 
d="M1141 1434q120 0 202 -64.5t116 -153.5q10 -25 16.5 -58t6.5 -66q0 -44 -17 -77.5t-61 -33.5q-31 0 -53 22t-22 53q0 6 1 12q2 15 2 30q0 80 -56 133t-137 53q-74 0 -123.5 -46.5t-76.5 -100.5q-24 -49 -36.5 -108t-22.5 -123l-154 -1023q-13 -85 -38 -169.5t-69 -154
t-113 -111.5t-169 -42q-97 0 -173 45t-120 122.5t-44 175.5q0 52 18.5 93t65.5 41q31 0 53 -22t22 -53q0 -17 -4.5 -34t-4.5 -33q0 -79 54.5 -131.5t131.5 -52.5q88 0 136 53.5t70.5 134t34.5 160.5l155 1023q10 66 24.5 136t48.5 139q28 58 74.5 111t111.5 86.5t150 33.5z
" />
    <glyph glyph-name="a2" unicode="&#xd3e;" horiz-adv-x="1001" 
d="M460 119q93 0 160.5 56t104 144t36.5 183q0 98 -35.5 185t-102.5 142t-162 55q-55 0 -101.5 -31.5t-76 -80.5t-34.5 -102q-2 -26 -22 -45t-49 -19q-22 0 -45.5 18.5t-23.5 38.5q0 102 51.5 183.5t135 129.5t178.5 48q134 0 229.5 -75.5t146.5 -194.5t51 -251
q0 -137 -55.5 -256.5t-154.5 -193.5t-230 -74q-98 0 -180 48.5t-131.5 130.5t-49.5 182q0 19 22 38t42 19q34 0 54.5 -19t21.5 -47q6 -85 68 -148.5t152 -63.5z" />
    <glyph glyph-name="i1" unicode="&#xd3f;" horiz-adv-x="341" 
d="M-155 1412q143 0 230 -71t126.5 -188.5t39.5 -256.5v-850q0 -28 -20 -49t-49 -21q-28 0 -49.5 21t-21.5 49v849q0 105 -23 190t-79.5 135.5t-157.5 50.5q-85 0 -147 -48.5t-86 -113.5q-14 -47 -74 -47q-20 0 -39.5 21t-19.5 41q0 83 57.5 148t143 102.5t169.5 37.5z" />
    <glyph glyph-name="i2" unicode="&#xd40;" horiz-adv-x="397" 
d="M6 1207q0 -82 -58.5 -138.5t-141.5 -56.5q-49 0 -91.5 27t-68.5 70t-26 91q0 73 39 122t102.5 74t136.5 25q199 0 299 -107.5t100 -310.5l-3 -960q0 -34 -22 -51t-48 -17t-48 17.5t-22 51.5l3 959q0 116 -35 192t-129 78q10 -21 11.5 -36t1.5 -30zM-185 1300
q-38 0 -65.5 -26.5t-27.5 -72.5q0 -40 29.5 -65.5t63.5 -25.5q33 0 61 24.5t28 66.5q0 46 -25 72.5t-64 26.5z" />
    <glyph glyph-name="u1" unicode="&#xd41;" horiz-adv-x="794" 
d="M399 -552q-86 0 -153.5 41.5t-106 109t-38.5 145.5q0 89 48 159.5t113 104.5q36 67 83.5 164.5t83 204t35.5 200.5q0 124 -58.5 208t-154.5 103q-23 5 -40 24.5t-17 46.5q0 23 19 45t40 22q105 0 183.5 -66t122.5 -166.5t44 -206.5q0 -215 -167 -549q106 -14 182 -94.5
t76 -200.5q0 -84 -39.5 -150.5t-106 -105.5t-149.5 -39zM241 -253q0 -64 45 -111.5t110 -47.5q68 0 113 43.5t45 113.5q0 67 -50.5 115.5t-111.5 48.5q-67 0 -109 -49.5t-42 -112.5z" />
    <glyph glyph-name="u2" unicode="&#xd42;" horiz-adv-x="974" 
d="M415 -606q-90 0 -160.5 43.5t-111.5 116t-41 158.5q0 88 44 161.5t113 113.5q25 56 59.5 128.5t68 151t55.5 152.5t22 133q0 122 -49 217t-148 114q-74 15 -74 72q0 25 19 47.5t41 22.5q112 0 190.5 -69.5t119.5 -177.5t41 -226q0 -67 -24.5 -152t-61 -173t-71.5 -165
q37 5 66 5q129 0 233.5 -66.5t166 -176t61.5 -240.5q0 -139 -66.5 -254t-181.5 -183.5t-262 -68.5q-159 0 -290 93q-29 20 -29 57q0 27 17.5 49t47.5 22q27 0 65 -28q29 -21 85 -36.5t114 -15.5q103 0 184 48t128.5 131t47.5 188q0 94 -42.5 165t-94.5 111q40 -74 40 -151
q0 -90 -43.5 -162t-116.5 -113.5t-162 -41.5zM597 -294q0 77 -53.5 128.5t-124.5 51.5q-47 0 -88 -27t-66.5 -69t-25.5 -89q0 -72 56.5 -120t123.5 -48q71 0 124.5 50t53.5 123z" />
    <glyph glyph-name="r1" unicode="&#xd43;" horiz-adv-x="392" 
d="M25 -216q72 98 105 221.5t33 282.5q0 157 -37.5 326.5t-113.5 320.5q-9 18 -9 33q0 29 23.5 45.5t49.5 16.5q34 0 52 -37q83 -164 124 -347.5t41 -355.5q0 -167 -41 -320t-123 -273t-205.5 -189.5t-289.5 -69.5q-82 0 -154 29t-117 85t-45 136q0 75 41 126.5t106.5 77.5
t139.5 26q126 0 230.5 -39t189.5 -95zM-550 -308q0 -44 28.5 -72t71 -40.5t83.5 -12.5q85 0 167.5 37t135.5 83q-164 101 -332 101q-54 0 -104 -21.5t-50 -74.5z" />
    <glyph glyph-name="r2" unicode="&#xd44;" horiz-adv-x="635" 
d="M-249 -114q81 0 139.5 -25t103.5 -74q77 107 162 107q62 0 110.5 -32.5t86.5 -83.5q54 140 54 343q0 127 -23 247t-62 257t-88 314q-3 11 -3 22q0 29 18 48.5t44 19.5q27 0 43.5 -16.5t23.5 -39.5q50 -182 90 -324t64 -267t24 -258q0 -144 -29 -276t-91 -235t-159 -163
t-234 -60q-82 0 -163.5 22t-149 64t-108.5 101.5t-41 135.5q0 84 54.5 128.5t133.5 44.5zM304 -317q-19 27 -47 64.5t-87 37.5q-40 0 -73.5 -45.5t-40.5 -111.5q-2 -21 -21.5 -29.5t-37.5 -8.5q-24 0 -44 16t-22 47q-7 60 -50 87t-105 27q-27 0 -55.5 -16.5t-28.5 -37.5
q0 -47 34.5 -86t87.5 -67t112 -43t108 -15q53 0 103 27.5t92.5 69.5t74.5 84z" />
    <glyph glyph-name="e1" unicode="&#xd46;" horiz-adv-x="1395" 
d="M100 432q0 131 49 239.5t133.5 187t191.5 121.5t223 43t223.5 -43.5t192 -123t133.5 -189t49 -242.5q0 -118 -44.5 -229.5t-130.5 -195.5q-21 -21 -50 -21t-49.5 20.5t-20.5 49.5q0 31 22 51q65 64 98.5 149.5t33.5 175.5q0 139 -66.5 241.5t-172 159.5t-224.5 57
q-127 0 -235 -69t-165 -177q41 26 92 42t102 16q92 0 174.5 -46t135 -127t52.5 -186q0 -93 -46.5 -173.5t-125.5 -130t-179 -49.5q-123 0 -212 67.5t-136.5 171t-47.5 210.5zM706 339q0 64 -31.5 111.5t-82 74.5t-107.5 27q-65 0 -115.5 -32t-78.5 -83.5t-28 -109.5
q0 -55 35 -101.5t87.5 -74t106.5 -27.5q94 0 154 62.5t60 152.5z" />
    <glyph glyph-name="e2" unicode="&#xd47;" horiz-adv-x="1022" 
d="M578 1026q87 0 162 -32.5t121.5 -94t46.5 -148.5q0 -90 -64.5 -153t-157.5 -63q-94 0 -157.5 65.5t-63.5 158.5q0 84 48 136q-73 -21 -135 -82t-99 -141t-37 -159q0 -95 39.5 -175.5t104 -139.5t137.5 -90q-28 41 -40.5 79t-12.5 72q0 49 29 97t79.5 80.5t112.5 32.5
q101 0 166 -69t65 -164q0 -78 -41.5 -136t-109 -90t-147.5 -32q-110 0 -205 43.5t-167 119.5t-112 175t-40 210q0 134 63.5 247.5t172 183t242.5 69.5zM687 654q46 0 78 32.5t32 77.5t-32 78t-78 33t-78.5 -33t-32.5 -78t32.5 -77.5t78.5 -32.5zM696 127q44 0 75.5 32
t31.5 75q0 44 -31.5 75.5t-75.5 31.5t-75.5 -31.5t-31.5 -75.5q0 -43 31.5 -75t75.5 -32z" />
    <glyph glyph-name="ai1" unicode="&#xd48;" horiz-adv-x="2689" 
d="M1411 436q0 131 49 239.5t133.5 187t191.5 121.5t223 43t223.5 -43.5t192 -123t133.5 -189t49 -242.5q0 -118 -44.5 -229.5t-130.5 -195.5q-21 -21 -50 -21t-49.5 20.5t-20.5 49.5q0 31 22 51q65 64 98.5 149.5t33.5 175.5q0 139 -66.5 241.5t-172 159.5t-224.5 57
q-127 0 -235 -69t-165 -177q41 26 92 42t102 16q92 0 174.5 -46t135 -127t52.5 -186q0 -93 -46.5 -173.5t-125.5 -130t-179 -49.5q-123 0 -212 67.5t-136.5 171t-47.5 210.5zM2017 343q0 64 -31.5 111.5t-82 74.5t-107.5 27q-65 0 -115.5 -32t-78.5 -83.5t-28 -109.5
q0 -55 35 -101.5t87.5 -74t106.5 -27.5q94 0 154 62.5t60 152.5zM100 432q0 131 49 239.5t133.5 187t191.5 121.5t223 43t223.5 -43.5t192 -123t133.5 -189t49 -242.5q0 -118 -44.5 -229.5t-130.5 -195.5q-21 -21 -50 -21t-49.5 20.5t-20.5 49.5q0 31 22 51
q65 64 98.5 149.5t33.5 175.5q0 139 -66.5 241.5t-172 159.5t-224.5 57q-127 0 -235 -69t-165 -177q41 26 92 42t102 16q92 0 174.5 -46t135 -127t52.5 -186q0 -93 -46.5 -173.5t-125.5 -130t-179 -49.5q-123 0 -212 67.5t-136.5 171t-47.5 210.5zM706 339q0 64 -31.5 111.5
t-82 74.5t-107.5 27q-65 0 -115.5 -32t-78.5 -83.5t-28 -109.5q0 -55 35 -101.5t87.5 -74t106.5 -27.5q94 0 154 62.5t60 152.5z" />
    <glyph glyph-name="o1" unicode="&#xd4a;" horiz-adv-x="2677" 
d="M1382 681h762q29 0 49.5 -20.5t20.5 -49.5t-20.5 -49.5t-49.5 -20.5h-762q-29 0 -49.5 20.5t-20.5 49.5t20.5 49.5t49.5 20.5zM100 439q0 131 49 239.5t133.5 187t191.5 121.5t223 43t223.5 -43.5t192 -123t133.5 -189t49 -242.5q0 -118 -44.5 -229.5t-130.5 -195.5
q-21 -21 -50 -21t-49.5 20.5t-20.5 49.5q0 31 22 51q65 64 98.5 149.5t33.5 175.5q0 139 -66.5 241.5t-172 159.5t-224.5 57q-127 0 -235 -69t-165 -177q41 26 92 42t102 16q92 0 174.5 -46t135 -127t52.5 -186q0 -93 -46.5 -173.5t-125.5 -130t-179 -49.5q-123 0 -212 67.5
t-136.5 171t-47.5 210.5zM706 346q0 64 -31.5 111.5t-82 74.5t-107.5 27q-65 0 -115.5 -32t-78.5 -83.5t-28 -109.5q0 -55 35 -101.5t87.5 -74t106.5 -27.5q94 0 154 62.5t60 152.5zM2136 123q93 0 160.5 56t104 144t36.5 183q0 98 -35.5 185t-102.5 142t-162 55
q-55 0 -101.5 -31.5t-76 -80.5t-34.5 -102q-2 -26 -22 -45t-49 -19q-22 0 -45.5 18.5t-23.5 38.5q0 102 51.5 183.5t135 129.5t178.5 48q134 0 229.5 -75.5t146.5 -194.5t51 -251q0 -137 -55.5 -256.5t-154.5 -193.5t-230 -74q-98 0 -180 48.5t-131.5 130.5t-49.5 182
q0 19 22 38t42 19q34 0 54.5 -19t21.5 -47q6 -85 68 -148.5t152 -63.5z" />
    <glyph glyph-name="o2" unicode="&#xd4b;" horiz-adv-x="2270" 
d="M970 677h762q29 0 49.5 -20.5t20.5 -49.5t-20.5 -49.5t-49.5 -20.5h-762q-29 0 -49.5 20.5t-20.5 49.5t20.5 49.5t49.5 20.5zM578 1026q87 0 162 -32.5t121.5 -94t46.5 -148.5q0 -90 -64.5 -153t-157.5 -63q-94 0 -157.5 65.5t-63.5 158.5q0 84 48 136q-73 -21 -135 -82
t-99 -141t-37 -159q0 -95 39.5 -175.5t104 -139.5t137.5 -90q-28 41 -40.5 79t-12.5 72q0 49 29 97t79.5 80.5t112.5 32.5q101 0 166 -69t65 -164q0 -78 -41.5 -136t-109 -90t-147.5 -32q-110 0 -205 43.5t-167 119.5t-112 175t-40 210q0 134 63.5 247.5t172 183t242.5 69.5
zM687 654q46 0 78 32.5t32 77.5t-32 78t-78 33t-78.5 -33t-32.5 -78t32.5 -77.5t78.5 -32.5zM696 127q44 0 75.5 32t31.5 75q0 44 -31.5 75.5t-75.5 31.5t-75.5 -31.5t-31.5 -75.5q0 -43 31.5 -75t75.5 -32zM1705 125q93 0 160.5 56t104 144t36.5 183q0 98 -35.5 185
t-102.5 142t-162 55q-55 0 -101.5 -31.5t-76 -80.5t-34.5 -102q-2 -26 -22 -45t-49 -19q-22 0 -45.5 18.5t-23.5 38.5q0 102 51.5 183.5t135 129.5t178.5 48q134 0 229.5 -75.5t146.5 -194.5t51 -251q0 -137 -55.5 -256.5t-154.5 -193.5t-230 -74q-98 0 -180 48.5
t-131.5 130.5t-49.5 182q0 19 22 38t42 19q34 0 54.5 -19t21.5 -47q6 -85 68 -148.5t152 -63.5z" />
    <glyph glyph-name="uni0D4C" unicode="&#xd4c;" horiz-adv-x="3206" 
d="M1409 567h762q29 0 49.5 -20.5t20.5 -49.5t-20.5 -49.5t-49.5 -20.5h-762q-29 0 -49.5 20.5t-20.5 49.5t20.5 49.5t49.5 20.5zM2312 642q-1 95 -60 166.5t-159 71.5q-62 0 -111 -32.5t-77 -85t-28 -114.5q0 -51 27 -102q9 -16 9 -34q0 -28 -19.5 -49.5t-48.5 -21.5
q-23 0 -39.5 11.5t-24.5 27.5q-44 81 -44 168q0 101 46.5 185.5t127 136t182.5 51.5q103 0 184 -51t110 -126q35 74 119.5 124.5t190.5 50.5q113 0 202.5 -65t141.5 -167.5t52 -217.5q0 -138 -58.5 -248.5t-159 -188.5t-228.5 -119.5t-266 -41.5q-176 0 -329 69
q-16 7 -29.5 24.5t-13.5 39.5q0 29 20.5 50t49.5 21q16 0 30 -7q126 -56 274 -56q109 0 211 31.5t183 91t128.5 144.5t47.5 192q0 79 -33 148.5t-92 113t-137 43.5q-121 0 -179.5 -84.5t-60.5 -213.5q-4 -25 -25 -40t-45 -15q-30 0 -49.5 22.5t-19.5 50.5v46zM100 432
q0 131 49 239.5t133.5 187t191.5 121.5t223 43t223.5 -43.5t192 -123t133.5 -189t49 -242.5q0 -118 -44.5 -229.5t-130.5 -195.5q-21 -21 -50 -21t-49.5 20.5t-20.5 49.5q0 31 22 51q65 64 98.5 149.5t33.5 175.5q0 139 -66.5 241.5t-172 159.5t-224.5 57q-127 0 -235 -69
t-165 -177q41 26 92 42t102 16q92 0 174.5 -46t135 -127t52.5 -186q0 -93 -46.5 -173.5t-125.5 -130t-179 -49.5q-123 0 -212 67.5t-136.5 171t-47.5 210.5zM706 339q0 64 -31.5 111.5t-82 74.5t-107.5 27q-65 0 -115.5 -32t-78.5 -83.5t-28 -109.5q0 -55 35 -101.5
t87.5 -74t106.5 -27.5q94 0 154 62.5t60 152.5z" />
    <glyph glyph-name="xx" unicode="&#xd4d;" horiz-adv-x="131" 
d="M188 1295q0 19 -3.5 33.5t-3.5 36.5t22.5 41t45.5 19q46 0 63 -37t17 -84q0 -94 -42.5 -169t-116 -118t-166.5 -43t-165 45.5t-112.5 119t-40.5 156.5q0 49 15 91.5t66 42.5q23 0 45 -20t22 -41q0 -20 -3.5 -37t-3.5 -37q0 -77 53.5 -128t123.5 -51q78 0 131 54.5
t53 125.5z" />
    <glyph glyph-name="dotreph" unicode="&#xd4e;" horiz-adv-x="0" 
d="M147 1121q-61 0 -104 41.5t-43 99.5t43 99t104 41t106 -41t45 -99t-45 -99.5t-106 -41.5z" />
    <glyph glyph-name="mlpara" unicode="&#xd4f;" horiz-adv-x="2463" 
d="M376 1023q29 0 49.5 -20.5t20.5 -49.5t-20 -49q-86 -91 -136 -207t-50 -261q0 -198 84.5 -346.5t230 -246.5t329.5 -147t382 -49q183 0 354 50t307 148t216 240.5t80 327.5q0 121 -48.5 228.5t-138 174.5t-213.5 67q-107 0 -172.5 -49.5t-94.5 -135.5t-29 -196v-459
q0 -28 -20 -48.5t-49 -20.5q-28 0 -49 20t-21 49l-3 442q-1 179 -76.5 285t-254.5 106q-142 0 -246 -79.5t-149 -188.5q97 80 226 80q97 0 177.5 -46t129 -126t48.5 -182q0 -100 -46 -179.5t-125 -125t-179 -45.5q-125 0 -216 65.5t-140 169.5t-49 221t43 221.5t120.5 184.5
t181 125.5t223.5 45.5q140 0 241 -58t157 -147q50 89 145 150t226 61q124 0 223.5 -49.5t170.5 -135t109 -194.5t38 -229q0 -216 -90.5 -385t-246 -285.5t-351.5 -177t-408 -60.5q-229 0 -438.5 59t-374 175.5t-259.5 290t-95 403.5q0 176 60 315t164 250q19 23 52 23z
M1099 334q0 92 -63.5 153t-150.5 61q-88 0 -151.5 -62t-63.5 -151q0 -92 63 -151.5t157 -59.5q90 0 149.5 60t59.5 150z" />
    <glyph glyph-name="m1cil" unicode="&#xd54;" horiz-adv-x="1346" 
d="M1175 1459q29 0 49.5 -20.5t20.5 -49.5t-21 -50q-120 -122 -180 -281t-60 -326q0 -168 61 -328.5t181 -282.5q20 -20 20 -49q0 -28 -20.5 -50.5t-49.5 -22.5h-1006q-29 0 -49.5 20t-20.5 49v384q5 111 46 213.5t115 183.5t178.5 128t234.5 47q54 0 102 -20t85 -48
q32 135 99 258t164 223q20 22 51 22zM240 450v-311q101 0 205.5 50.5t193 135.5t142.5 190.5t54 216.5q0 64 -48 108t-110 44q-137 0 -231.5 -62.5t-146 -161.5t-59.5 -210zM885 421q-106 -170 -272 -281l413 2q-93 130 -141 279z" />
    <glyph glyph-name="y1cil" unicode="&#xd55;" horiz-adv-x="1931" 
d="M1761 1426q29 0 49.5 -20.5t20.5 -49.5q0 -19 -12 -37.5t-29 -26.5q-73 -34 -125.5 -105.5t-52.5 -174.5q0 -85 32 -152t74.5 -129.5t74.5 -133.5t32 -163q0 -110 -45.5 -196.5t-123.5 -146t-176 -90.5t-203 -31q-146 0 -279 61q-121 -51 -248 -51q-136 0 -254.5 52
t-207 143.5t-138.5 212t-50 256.5q0 102 40 191.5t115 145t178 55.5q96 0 167.5 -53t111.5 -122q46 69 123 121t186 52q115 0 195.5 -59t123.5 -154.5t43 -207.5q0 -155 -63 -278t-167 -210q62 -15 126 -15q103 0 195.5 37t151.5 109.5t59 177.5q0 82 -32.5 148t-74.5 129.5
t-74.5 135.5t-32.5 166q0 149 77.5 253t182.5 153q14 7 30 7zM634 617q0 69 -23 133t-67.5 105t-110.5 41q-63 0 -106 -36.5t-65 -94.5t-22 -122q0 -142 68.5 -261t183.5 -190.5t256 -71.5q24 0 48.5 3t48.5 7q-105 92 -158 212t-53 275zM1000 188q104 61 173.5 172
t69.5 251q0 73 -25.5 137.5t-74.5 105t-122 40.5q-80 0 -135.5 -45.5t-84 -116t-28.5 -146.5q0 -124 65 -230.5t162 -167.5z" />
    <glyph glyph-name="zhcil" unicode="&#xd56;" horiz-adv-x="1359" 
d="M352 360q-63 33 -121 86t-94.5 127t-36.5 166q0 161 118 271q19 19 48 19t49.5 -20.5t20.5 -49.5q0 -31 -23 -52q-73 -68 -73 -169q0 -87 50.5 -148.5t110.5 -96.5q31 57 70.5 106t76.5 99.5t61 110.5t24 140q0 120 -56 204.5t-138 131.5q-36 20 -36 61q0 29 20.5 49.5
t49.5 20.5q20 0 35 -10q105 -61 177 -162.5t86 -241.5q66 31 142 31q93 0 172 -45.5t127 -122t48 -170.5q0 -95 -41 -167t-105.5 -120.5t-135.5 -75.5q7 -31 7 -60q0 -85 -44 -153t-114.5 -108t-152.5 -40q-89 0 -163.5 44.5t-119 119.5t-44.5 164q0 17 1 31.5t4 29.5z
M1120 694q0 83 -61.5 141t-144.5 58q-67 0 -120 -41.5t-53 -105.5q0 -60 33.5 -109t76 -91.5t70.5 -84.5q72 26 135.5 83t63.5 150zM644 594q-29 -40 -57.5 -75t-52.5 -76q73 -16 157 -16q39 0 78 3q-32 40 -65 77.5t-60 86.5zM842 298q-75 -12 -151 -12q-105 0 -204 24v-11
q0 -76 55.5 -132t131.5 -56q68 0 119 46.5t51 116.5q0 10 -2 24z" />
    <glyph glyph-name="au2" unicode="&#xd57;" horiz-adv-x="1556" 
d="M675 645q-1 95 -60 166.5t-159 71.5q-62 0 -111 -32.5t-77 -85t-28 -114.5q0 -51 27 -102q9 -16 9 -34q0 -28 -19.5 -49.5t-48.5 -21.5q-23 0 -39.5 11.5t-24.5 27.5q-44 81 -44 168q0 101 46.5 185.5t127 136t182.5 51.5q103 0 184 -51t110 -126q35 74 119.5 124.5
t190.5 50.5q113 0 202.5 -65t141.5 -167.5t52 -217.5q0 -138 -58.5 -248.5t-159 -188.5t-228.5 -119.5t-266 -41.5q-176 0 -329 69q-16 7 -29.5 24.5t-13.5 39.5q0 29 20.5 50t49.5 21q16 0 30 -7q126 -56 274 -56q109 0 211 31.5t183 91t128.5 144.5t47.5 192
q0 79 -33 148.5t-92 113t-137 43.5q-121 0 -179.5 -84.5t-60.5 -213.5q-4 -25 -25 -40t-45 -15q-30 0 -49.5 22.5t-19.5 50.5v46z" />
    <glyph glyph-name="arakani" unicode="&#xd58;" horiz-adv-x="2871" 
d="M644 1033q11 0 22 -0.5t21 -1.5q27 -1 46.5 -22t19.5 -48q0 -29 -20.5 -49.5t-49.5 -20.5q-9 0 -19 1t-19 1q-111 0 -203 -55t-147 -146t-55 -201q0 -111 55 -195t147 -131.5t201 -47.5t200.5 45.5t147.5 127t56 187.5l1 492q1 29 21.5 49t48.5 20q29 0 49.5 -20
t20.5 -49l-1 -494q0 -154 65 -255.5t216 -101.5q105 0 166.5 48.5t88 132.5t26.5 190l-2 474q0 29 20.5 49.5t49.5 20.5t49 -20t21 -49l2 -460q1 -176 72 -281t244 -105q126 0 222 62.5t150 167t54 231.5q0 152 -61.5 277.5t-168 216.5t-243 141t-286.5 50q-121 0 -230 -34
q-9 -3 -22 -3q-29 0 -49.5 20.5t-20.5 49.5q0 22 15 41.5t36 25.5q130 40 271 40q179 0 341 -60t287.5 -170t198 -261.5t72.5 -333.5q0 -165 -72.5 -301.5t-199.5 -218.5t-293 -82q-135 0 -232.5 58.5t-151.5 145.5q-48 -83 -138.5 -143t-215.5 -60q-88 0 -159.5 36.5
t-124 93.5t-83.5 119q-68 -107 -192 -178.5t-266 -71.5q-148 0 -271.5 66t-197.5 182t-74 265q0 111 42.5 209t117 173.5t173.5 118t211 42.5z" />
    <glyph glyph-name="aramaa" unicode="&#xd59;" horiz-adv-x="2119" 
d="M719 887q-126 0 -235.5 -56.5t-177 -154.5t-67.5 -224q0 -115 56.5 -203.5t132.5 -136.5q33 -19 33 -59q0 -29 -20.5 -49.5t-49.5 -20.5q-20 0 -38 11q-101 63 -177 181.5t-76 272.5q0 126 49.5 232t135.5 184t198 120.5t236 42.5q143 0 265 -54t210 -146t128 -207
q70 -18 139 -38.5t137 -43.5q-3 18 -3 35q0 89 62 150t150 61t150.5 -59.5t62.5 -150.5q0 -100 -70 -160.5t-169 -60.5q-82 0 -153.5 20.5t-138 47.5t-136.5 46q1 -7 1 -15v-16q0 -119 -51.5 -224.5t-145.5 -171t-220 -65.5q-102 0 -184.5 45t-131 124t-48.5 181
q0 113 56 191.5t149.5 120t206.5 41.5q42 0 82.5 -4.5t79.5 -12.5q-61 97 -176 161.5t-252 64.5zM1808 645q-31 0 -51.5 -23t-20.5 -53q0 -31 23 -51t51 -21q26 6 48 24t22 49q0 32 -21 53.5t-51 21.5zM983 538q-71 0 -133 -24t-100 -71.5t-38 -116.5q0 -93 68 -152t156 -59
q86 0 148 46t96 120t34 156q0 34 -6 67q-55 14 -112 24t-113 10z" />
    <glyph glyph-name="muunnukaani" unicode="&#xd5a;" horiz-adv-x="2076" 
d="M589 875q-95 0 -174.5 -50.5t-127 -134t-47.5 -184.5q0 -109 54 -198t144 -141.5t198 -52.5h3q29 0 49.5 -20.5t20.5 -49.5t-20.5 -49.5t-49.5 -20.5h-3q-148 0 -269.5 71.5t-194 192.5t-72.5 270q0 139 66.5 254t178 184t244.5 69q149 0 251.5 -76.5t148.5 -185.5
q74 112 204 188t284 76q171 0 281 -74.5t163.5 -206.5t53.5 -305l2 -361q0 -29 -20.5 -49.5t-49.5 -20.5h-651q-31 0 -54 22.5t-23 50.5q0 20 14 39.5t33 26.5q90 33 173.5 101t137.5 165t54 217q0 97 -51.5 167.5t-142.5 79.5q-95 -18 -177.5 -76.5t-134 -145.5t-52.5 -192
l-2 -394v-1q0 -29 -20.5 -49.5t-49.5 -20.5t-49.5 20.5t-20.5 49.5v2q1 104 2 209.5t1 208.5q0 113 -30 202t-97 141t-178 52zM1685 817q23 -44 34.5 -90.5t11.5 -105.5q0 -159 -72 -280t-163 -201h340l-1 290q-1 140 -33 234.5t-117 152.5z" />
    <glyph glyph-name="orumaa" unicode="&#xd5b;" horiz-adv-x="1718" 
d="M240 38q0 -26 -22.5 -44t-43.5 -18q-26 0 -50 17t-24 39v905q0 28 20.5 49t49.5 21l722 -3q28 0 49 -19.5t21 -53.5q0 -20 -15 -38t-31 -24q-104 -38 -176 -133.5t-72 -233.5q0 -126 58 -210t149 -126t191 -42q102 0 196 43t154.5 127t60.5 207q0 97 -44.5 177
t-118.5 131t-163 61q-26 3 -44.5 23.5t-18.5 48.5q0 22 18.5 45t38.5 23q101 0 187 -43t150.5 -115.5t100 -162.5t35.5 -185q0 -114 -43.5 -210t-118.5 -167.5t-171.5 -111t-203.5 -39.5q-154 0 -279.5 71.5t-200 194t-74.5 275.5q0 198 138 348l-425 1v-828z" />
    <glyph glyph-name="randumaa" unicode="&#xd5c;" horiz-adv-x="2952" 
d="M2385 1025q7 0 15 -2q122 -25 225 -102t165.5 -193t62.5 -259q0 -117 -50.5 -223.5t-143.5 -173.5t-222 -67q-115 0 -196 49t-135.5 128.5t-89.5 173t-57 182.5q-13 52 -29.5 111t-42 111.5t-66 85.5t-101.5 33q-58 0 -99.5 -37t-64.5 -79q-33 -61 -44 -129.5t-14.5 -141
t-13.5 -145.5t-41 -143q-33 -73 -103.5 -137t-173.5 -64q-98 0 -160 46.5t-98.5 120.5t-57 159.5t-35.5 164.5q-12 63 -34 130t-58 123.5t-89 91.5t-127 35q-88 0 -147.5 -52t-89.5 -132.5t-30 -165.5q0 -120 49 -230t135 -190q24 -22 24 -52q0 -29 -20.5 -49.5t-49.5 -20.5
t-48 19q-108 100 -169 236.5t-61 287.5q0 121 47.5 233t138.5 184t221 72q105 0 182 -44.5t130 -118t85.5 -160.5t48.5 -171q11 -57 22.5 -122.5t32 -123t58 -94.5t100.5 -37q55 0 92.5 38t56.5 80q30 66 39 138t13.5 145.5t17 146t48.5 139.5q38 70 111 129.5t176 59.5
q93 0 157 -42.5t106 -110t68 -145.5t44 -149q17 -69 41.5 -143.5t63 -139t96 -104.5t141.5 -40q88 0 149.5 47t94 121.5t32.5 156.5q0 107 -47.5 194t-125 145t-168.5 77q-23 5 -40 25t-17 44q0 29 20.5 49.5t49.5 20.5z" />
    <glyph glyph-name="munnumaa" unicode="&#xd5d;" horiz-adv-x="4308" 
d="M4208 474q0 -116 -50.5 -222.5t-143 -174t-219.5 -67.5q-115 0 -196.5 49t-136 128t-89.5 172.5t-58 183.5q-13 53 -29.5 112t-42 111t-66 85t-102.5 33q-64 0 -105 -35t-65 -91.5t-35 -121.5t-16 -126q-6 -85 -23.5 -173.5t-53.5 -163t-98 -120t-159 -45.5t-159 46.5
t-98.5 120.5t-57 160t-34.5 165q-11 63 -32 129t-55.5 123t-86.5 92t-124 35q-92 0 -150.5 -56.5t-89 -141t-37.5 -168.5q-8 -93 -20 -187.5t-41 -173t-89.5 -126t-166.5 -47.5t-177 50t-114 131.5t-65.5 176t-32.5 182.5q-30 -94 -72 -191t-104.5 -178.5t-152 -131
t-212.5 -49.5q-115 0 -213 56q-36 20 -36 61q0 29 20.5 49.5t49.5 20.5q17 0 35 -10q63 -36 143 -36q104 0 181.5 55t132 147t89 202.5t51 224t17.5 210.5q1 29 21.5 48.5t48.5 19.5q23 0 43 -15.5t25 -38.5q16 -74 26.5 -181.5t26 -222.5t45.5 -215.5t83.5 -163
t141.5 -62.5q65 0 99 39t48.5 101t18.5 132.5t10 134.5q7 88 35.5 175.5t79.5 159.5t126.5 115.5t175.5 43.5q103 0 178.5 -45t127.5 -118.5t83.5 -160t46.5 -170.5q10 -57 21 -122.5t32 -123.5t58.5 -94.5t100.5 -36.5q61 0 97.5 35t56 91.5t28 121.5t12.5 124
q7 85 27.5 174t61 164t106.5 121t163 46q94 0 158.5 -42t106.5 -110t68.5 -146t44.5 -150q17 -69 41.5 -143.5t63 -139t96.5 -104.5t142 -40q87 0 148 47.5t93.5 121.5t32.5 155q0 108 -47 195t-124 145t-169 77q-23 5 -40 25t-17 44q0 29 20.5 49.5t49.5 20.5
q95 0 179.5 -50t149 -131.5t101.5 -179.5t37 -195z" />
    <glyph glyph-name="naalumaa" unicode="&#xd5e;" horiz-adv-x="2749" 
d="M2243 544q68 0 128.5 28.5t98.5 79t38 116.5q0 38 -16 76.5t-45 64.5q-24 22 -24 52q0 28 19.5 48.5t47.5 21.5h3q27 0 48 -19q108 -98 108 -242q0 -107 -59 -190t-152.5 -130t-197.5 -47q-108 0 -200.5 48.5t-149 134t-56.5 195.5q0 48 13 97l-154 -2q24 -61 24 -126
q0 -101 -51.5 -178.5t-137.5 -121t-191 -43.5h-14.5t-15.5 1q-3 -112 -52.5 -208.5t-136.5 -155.5t-204 -59q-88 0 -161.5 40t-117.5 110t-44 158q0 97 48 164.5t129 103t178 35.5q50 0 98 -7.5t94 -14.5q-31 83 -96.5 153t-156 112t-197.5 42q-120 0 -222 -55t-164 -150
t-62 -215q0 -121 65 -211.5t150 -133.5q17 -8 28.5 -26.5t11.5 -36.5q0 -29 -20.5 -49.5t-49.5 -20.5q-18 0 -32 7q-78 38 -144.5 107t-107.5 162t-41 202q0 121 47 223t129 177.5t188.5 117t224.5 41.5q149 0 276.5 -64t214 -171t112.5 -236q9 0 19.5 -1t20.5 -1
q106 0 174 57t68 151q0 38 -14 74t-44 66q-20 18 -20 50q0 29 20.5 49.5t48.5 20.5l389 4q29 0 49.5 -20.5t20.5 -49.5q0 -19 -12 -39q-37 -55 -37 -126q0 -72 37 -126t98 -84t133 -30zM731 296q0 -74 54 -122t130 -48q79 0 135 42t86 110.5t30 147.5q-49 9 -104 19.5
t-108 10.5q-88 0 -155.5 -37t-67.5 -123z" />
    <glyph glyph-name="ml_ii_archaic" unicode="&#xd5f;" horiz-adv-x="2745" 
d="M2358 119q-74 0 -138.5 38.5t-103.5 101.5t-39 138q0 82 38 147t103.5 103.5t145.5 38.5q77 0 140.5 -39t102 -103.5t38.5 -141.5q0 -78 -39 -142.5t-104 -102.5t-144 -38zM2526 402q0 68 -47.5 116.5t-114.5 48.5q-66 0 -117 -48.5t-51 -112.5q0 -74 46.5 -121
t117.5 -47q69 0 117.5 47.5t48.5 116.5zM1104 50q0 -26 -17.5 -48t-51.5 -22q-22 0 -37 11q-101 64 -177 181.5t-76 271.5q0 176 84.5 307t226.5 203t314 72q183 0 324.5 -79t222.5 -212.5t81 -297.5q0 -122 -56 -227.5t-154.5 -170.5t-226.5 -65q-116 0 -205.5 56.5
t-140 148t-50.5 197.5q0 100 52 194t142 154.5t204 60.5q71 0 149 -29q-142 128 -335 128q-133 0 -245.5 -54.5t-180 -153t-67.5 -231.5q0 -114 56.5 -201.5t131.5 -134.5q32 -19 32 -59zM1571 111q73 0 134 36.5t97.5 97t36.5 133.5t-36.5 133.5t-97.5 97t-134 36.5
t-133.5 -36.5t-96.5 -97t-36 -133.5t36 -133.5t96.5 -97t133.5 -36.5zM381 119q-74 0 -138.5 38.5t-103.5 101.5t-39 138q0 82 38 147t103.5 103.5t145.5 38.5q77 0 140.5 -39t102 -103.5t38.5 -141.5q0 -78 -39 -142.5t-104 -102.5t-144 -38zM549 402q0 68 -47.5 116.5
t-114.5 48.5q-66 0 -117 -48.5t-51 -112.5q0 -74 46.5 -121t117.5 -47q69 0 117.5 47.5t48.5 116.5z" />
    <glyph glyph-name="ml_rr" unicode="&#xd60;" horiz-adv-x="1680" 
d="M959.607 -288.767q-6.85938 0 -13.8994 7.25q-7.04004 7.24902 -7.04004 13.3711q0 10.6328 6.67969 17.0771q6.67871 6.44434 16.4258 7.08887q36.8252 3.54395 66.79 21.748q29.9648 18.2051 47.6543 46.3975q17.6904 28.1934 17.6904 61.3809
q0 32.2197 -14.8018 58.6406t-41.6982 42.209t-63.3594 15.7881q-60.6523 0 -84.2988 -35.6035q-23.6475 -35.6035 -24.3691 -99.4004l-1.44434 -134.037q-0.360352 -9.02148 -7.76172 -15.627t-17.8711 -6.60547q-10.1084 0 -17.6895 6.7666
q-7.58203 6.7666 -7.58203 15.7881v133.07q0 41.2422 -9.02539 71.6904t-32.4922 47.042q-23.4658 16.5938 -67.1504 16.5938q-37.9072 0 -66.2471 -16.7549q-28.3408 -16.7549 -44.0449 -44.7861q-15.7051 -28.0322 -15.7051 -62.1855q0 -35.7646 21.3008 -64.1191
q21.3008 -28.3535 55.2363 -44.7861q33.9365 -16.4326 72.2051 -16.4326q13.7188 0 17.1484 -4.99414t3.42969 -12.4043q0 -11.2773 -7.58203 -17.7217q-7.58105 -6.44434 -19.4951 -6.44434q-54.1533 0 -98.0176 23.1992q-43.8643 23.1982 -69.6777 63.1523
q-25.8125 39.9531 -25.8125 89.5723q0 31.2539 13.5381 59.9307q13.5381 28.6758 37.7266 51.2305q24.1885 22.5537 56.3203 35.6035q32.1309 13.0488 68.9551 13.0488q46.5723 0 81.4102 -19.0098q34.8389 -19.0098 54.334 -48.0088q18.7734 27.71 53.251 47.5254
t79.6055 19.8154q50.5439 0 89.3535 -22.0713q38.8096 -22.0703 60.832 -58.6406t22.0225 -80.3906q0 -32.2197 -14.2598 -63.3125q-14.2607 -31.0928 -39.5322 -56.3857t-58.8467 -40.2764q-33.5752 -14.9824 -72.2051 -14.9824zM1275 228q71 -25 133 -74t100 -117.5
t38 -154.5q0 -94 -42.5 -165t-114 -119.5t-159.5 -73.5t-178 -26q-88 -1 -177 -1.5t-178 -1.5q-146 0 -273 42.5t-205 130t-78 223.5q0 80 36 146t94 114.5t123 74.5q-75 41 -142.5 105.5t-109.5 152.5t-42 197q0 87 39 166t108 129.5t158 50.5q79 0 143 -37t101.5 -99
t37.5 -138q0 -79 -38 -143t-102 -101.5t-143 -37.5q-53 0 -106 21q71 -110 208 -164.5t314 -54.5q379 0 540 199q-2 -1 -28.5 -6.5t-46.5 -5.5q-77 0 -141 41t-102 107.5t-38 141.5q0 72 36.5 135t99 102t139.5 39q95 0 162.5 -50t103 -129.5t35.5 -168.5
q0 -110 -43.5 -196.5t-113 -149.5t-148.5 -104zM405 613q59 0 100 41.5t41 100.5q0 56 -41.5 93.5t-95.5 37.5q-56 0 -102.5 -38.5t-46.5 -97.5q0 -58 45 -97.5t100 -39.5zM1146 745q0 -59 41.5 -101.5t102.5 -42.5q60 0 99.5 39.5t44.5 94.5q-11 61 -52 105.5t-99 44.5
q-61 0 -99 -42t-38 -98zM790 131q-136 0 -252 -17.5t-186.5 -69t-70.5 -153.5q0 -96 64.5 -152t167.5 -80t217 -24h289q99 0 187 26.5t143.5 82.5t55.5 145q0 97 -66.5 149.5t-175 72.5t-235.5 20h-138z" />
    <glyph glyph-name="ml_ll" unicode="&#xd61;" horiz-adv-x="2378" 
d="M637 1023q158 0 273 -82t173 -199q58 125 173.5 207t289.5 82q146 0 253 -67t173.5 -172.5t88.5 -219.5q95 -69 156 -175.5t61 -255.5q0 -147 -70 -265.5t-190 -188t-270 -69.5q-86 0 -165 26q-19 6 -34.5 25.5t-15.5 44.5q0 23 20 45t42 22q21 0 32 -4q60 -20 122 -20
q109 0 196.5 52.5t139.5 140.5t52 195q0 120 -70 223q-14 -97 -63 -186t-130.5 -145.5t-193.5 -56.5q-95 0 -171.5 46t-121 124.5t-44.5 174.5q0 103 55.5 182t147.5 123.5t201 44.5q72 0 138 -19q-46 98 -134 166.5t-220 68.5q-144 0 -226 -78.5t-116 -207.5t-34 -282v-274
q0 -26 -19.5 -47.5t-45.5 -21.5q-34 0 -54.5 20t-20.5 49v274q0 111 -17.5 211.5t-59 179t-112.5 124t-177 45.5q-103 0 -182 -55t-132 -137.5t-78 -164.5q80 55 175 55q86 0 156 -40.5t111.5 -109t41.5 -154.5q0 -79 -38.5 -148t-103.5 -111t-146 -42q-104 0 -184 56.5
t-124.5 151t-44.5 207.5q0 120 39.5 233t111.5 203t170 143t216 53zM1931 488q-89 47 -182 47q-76 0 -136.5 -29.5t-95 -77t-34.5 -103.5q0 -82 55.5 -143.5t141.5 -61.5q79 0 135.5 48.5t87 124t30.5 155.5q0 10 -0.5 20t-1.5 20zM600 273q0 62 -46.5 116t-117.5 54
q-70 0 -119.5 -49.5t-49.5 -117.5q0 -45 31 -81.5t75 -58t82 -21.5q65 0 105 52.5t40 105.5z" />
    </font>
</defs>
</svg>
